<svg width="10" height="10" viewBox="0 0 10 10" fill="none" xmlns="http://www.w3.org/2000/svg">
<path d="M4.9999 6.3998L2.08305 9.32481C1.89865 9.50814 1.66396 9.5998 1.37898 9.5998C1.09399 9.5998 0.859302 9.50814 0.674902 9.32481C0.491569 9.14147 0.399902 8.90814 0.399902 8.6248C0.399902 8.34147 0.491569 8.10814 0.674902 7.9248L3.5999 4.9998L0.674902 2.108C0.491569 1.92359 0.399902 1.68889 0.399902 1.4039C0.399902 1.1189 0.491569 0.884205 0.674902 0.699805C0.858236 0.516471 1.09157 0.424805 1.3749 0.424805C1.65824 0.424805 1.89157 0.516471 2.0749 0.699805L4.9999 3.6248L7.8917 0.699805C8.07612 0.516471 8.31082 0.424805 8.5958 0.424805C8.8808 0.424805 9.1155 0.516471 9.2999 0.699805C9.4999 0.899805 9.5999 1.1373 9.5999 1.4123C9.5999 1.6873 9.4999 1.91647 9.2999 2.0998L6.3749 4.9998L9.2999 7.91666C9.48324 8.10106 9.5749 8.33575 9.5749 8.62073C9.5749 8.90571 9.48324 9.1404 9.2999 9.32481C9.0999 9.52481 8.8624 9.6248 8.5874 9.6248C8.3124 9.6248 8.08324 9.52481 7.8999 9.32481L4.9999 6.3998Z" fill="black" fill-opacity="0.45"/>
</svg>
