<svg width="146" height="114" viewBox="0 0 146 114" fill="none" xmlns="http://www.w3.org/2000/svg">
<g clip-path="url(#clip0_2154_36702)">
<path d="M77.9882 29.738L69.5571 53.9079L44.5913 37.0676L53.0223 12.8977L77.9882 29.738Z" fill="#FFD3A8"/>
<path d="M69.5573 53.976C69.5439 53.976 69.5306 53.972 69.5192 53.9643L44.5534 37.1241C44.541 37.1157 44.5316 37.1034 44.5269 37.0892C44.5222 37.0749 44.5223 37.0595 44.5272 37.0453L52.9582 12.8755C52.9617 12.8656 52.9673 12.8567 52.9747 12.8494C52.9822 12.8421 52.9912 12.8366 53.001 12.8333C53.0109 12.83 53.0214 12.8291 53.0317 12.8305C53.0421 12.8319 53.0519 12.8356 53.0606 12.8414L78.0264 29.6817C78.0388 29.6901 78.0481 29.7024 78.0529 29.7166C78.0576 29.7309 78.0575 29.7463 78.0526 29.7605L69.6215 53.9303C69.6168 53.9437 69.6082 53.9552 69.5967 53.9634C69.5851 53.9716 69.5714 53.976 69.5573 53.976ZM44.6729 37.0406L69.5221 53.8022L77.9068 29.7652L53.0576 13.0036L44.6729 37.0406H44.6729Z" fill="#111111"/>
<path d="M63.068 33.013L60.4095 31.2197L59.5117 33.7935L62.1702 35.5867L63.068 33.013Z" fill="white"/>
<path d="M62.1704 35.6546C62.157 35.6546 62.1437 35.6506 62.1323 35.643L59.4738 33.8498C59.4614 33.8414 59.4521 33.8291 59.4473 33.8148C59.4426 33.8006 59.4427 33.7852 59.4476 33.771L60.3454 31.1972C60.3489 31.1874 60.3545 31.1785 60.3619 31.1712C60.3693 31.1639 60.3783 31.1584 60.3882 31.1551C60.3981 31.1518 60.4086 31.1508 60.4189 31.1522C60.4292 31.1536 60.4391 31.1574 60.4477 31.1632L63.1062 32.9565C63.1187 32.9649 63.128 32.9771 63.1327 32.9914C63.1375 33.0056 63.1374 33.0211 63.1324 33.0352L62.2346 35.609C62.23 35.6223 62.2213 35.6339 62.2098 35.6421C62.1983 35.6502 62.1845 35.6546 62.1704 35.6546ZM59.5934 33.7662L62.1353 35.4808L62.9867 33.0399L60.4449 31.3253L59.5934 33.7662H59.5934Z" fill="#111111"/>
<path d="M77.9881 29.7379L95.8769 17.627L87.4459 41.7969L69.5571 53.9079L77.9881 29.7379Z" fill="#FF6F1E"/>
<path d="M69.5572 53.9759C69.5464 53.9759 69.5357 53.9733 69.5261 53.9683C69.5164 53.9633 69.5081 53.9561 69.5018 53.9473C69.4956 53.9384 69.4915 53.9282 69.4899 53.9175C69.4884 53.9067 69.4895 53.8958 69.493 53.8855L77.9241 29.7157C77.9289 29.7018 77.9381 29.6899 77.9502 29.6817L95.8389 17.5707C95.8508 17.5627 95.8648 17.5587 95.8791 17.5591C95.8934 17.5596 95.9072 17.5645 95.9185 17.5732C95.9298 17.5819 95.9381 17.5939 95.9422 17.6076C95.9463 17.6213 95.9459 17.6359 95.9413 17.6494L87.5102 41.8194C87.5054 41.8332 87.4962 41.8451 87.4841 41.8533L69.5954 53.9643C69.5841 53.9719 69.5708 53.976 69.5572 53.9759ZM78.0451 29.7817L69.6891 53.7365L87.3891 41.7532L95.7451 17.7984L78.0451 29.7817Z" fill="#111111"/>
<path d="M83.2203 36.4099L84.1181 33.8362L82.2132 35.1258L81.3154 37.6996L83.2203 36.4099Z" fill="white"/>
<path d="M81.3156 37.7675C81.3047 37.7675 81.294 37.7649 81.2844 37.76C81.2747 37.755 81.2664 37.7478 81.2601 37.7389C81.2538 37.7301 81.2497 37.7198 81.2482 37.7091C81.2467 37.6983 81.2478 37.6874 81.2514 37.6771L82.1492 35.1034C82.154 35.0896 82.1632 35.0777 82.1753 35.0695L84.0802 33.7798C84.092 33.7718 84.106 33.7677 84.1203 33.7681C84.1346 33.7685 84.1484 33.7734 84.1598 33.7822C84.1711 33.7909 84.1794 33.803 84.1835 33.8167C84.1876 33.8304 84.1872 33.845 84.1825 33.8585L83.2847 36.4323C83.2798 36.4461 83.2707 36.458 83.2586 36.4662L81.3537 37.7558C81.3424 37.7635 81.3292 37.7675 81.3156 37.7675ZM82.2702 35.1696L81.4474 37.5281L83.1637 36.3662L83.9865 34.0076L82.2702 35.1696Z" fill="#111111"/>
<path d="M53.0225 12.8979L70.9112 0.786865L95.877 17.6271L77.9883 29.7381L53.0225 12.8979Z" fill="white"/>
<path d="M77.9884 29.806C77.9749 29.806 77.9616 29.802 77.9504 29.7944L52.9846 12.9541C52.9754 12.9479 52.9678 12.9395 52.9626 12.9297C52.9573 12.9199 52.9546 12.9089 52.9546 12.8978C52.9546 12.8867 52.9573 12.8757 52.9625 12.8659C52.9677 12.8561 52.9752 12.8477 52.9845 12.8414L70.8732 0.730432C70.8844 0.722819 70.8977 0.71875 70.9113 0.71875C70.9249 0.71875 70.9381 0.722819 70.9494 0.730432L95.9152 17.5707C95.9244 17.5769 95.932 17.5853 95.9372 17.5951C95.9424 17.6049 95.9452 17.6159 95.9452 17.627C95.9452 17.6381 95.9425 17.6491 95.9373 17.6589C95.9321 17.6688 95.9245 17.6772 95.9153 17.6834L78.0266 29.7944C78.0153 29.802 78.002 29.806 77.9884 29.806ZM53.1441 12.8976L77.9884 29.6559L95.7556 17.6271L70.9114 0.868875L53.1441 12.8977V12.8976Z" fill="#111111"/>
<path d="M81.0436 10.7985C81.0436 10.7985 74.3734 10.5903 69.5039 7.30566C69.5039 7.30566 60.7971 13.2003 67.8565 19.7264C77.5266 24.485 86.2334 18.5903 86.2334 18.5903C81.364 15.3057 81.0436 10.7985 81.0436 10.7985Z" fill="#FF6F1E"/>
<path d="M75.7749 21.6504C75.45 21.6504 75.1264 21.6417 74.804 21.6245C72.3882 21.4951 70.0406 20.8771 67.8266 19.7875C67.8208 19.7846 67.8153 19.7809 67.8105 19.7765C65.8206 17.9369 64.8899 15.9692 65.0443 13.9279C65.3348 10.0884 69.4246 7.27742 69.4659 7.24946C69.4772 7.24186 69.4904 7.23779 69.504 7.23779C69.5176 7.23779 69.5309 7.24186 69.5421 7.24946C74.3388 10.485 80.9794 10.7286 81.0459 10.7308C81.0627 10.7313 81.0788 10.738 81.0909 10.7497C81.1031 10.7614 81.1104 10.7771 81.1116 10.7939C81.1125 10.8051 81.1998 11.931 81.8774 13.441C82.5024 14.8339 83.7721 16.8481 86.2716 18.5341C86.2809 18.5403 86.2884 18.5487 86.2936 18.5585C86.2989 18.5683 86.3016 18.5793 86.3016 18.5904C86.3016 18.6015 86.2989 18.6125 86.2937 18.6223C86.2885 18.6322 86.281 18.6406 86.2718 18.6468C86.2499 18.6616 84.0465 20.1371 80.6886 21.0088C79.0453 21.4355 77.3967 21.6504 75.7749 21.6504L75.7749 21.6504ZM67.8955 19.6699C72.8687 22.1137 77.5786 21.6755 80.6543 20.8771C83.6218 20.1068 85.6777 18.8643 86.1106 18.5891C83.6378 16.8953 82.3755 14.8856 81.7505 13.4906C81.1542 12.1597 81.0098 11.1202 80.9818 10.8642C80.3055 10.8323 74.0866 10.4573 69.5048 7.38831C69.0936 7.67976 65.4503 10.3605 65.1799 13.9389C65.0292 15.9339 65.9428 17.862 67.8955 19.6699Z" fill="#111111"/>
<path d="M79.1367 12.0895C79.1367 12.0895 74.1127 11.8855 70.3963 9.37866C70.3963 9.37866 63.9332 13.7543 69.3479 18.7166C76.701 22.3666 83.1642 17.9909 83.1642 17.9909C79.4478 15.4841 79.1367 12.0895 79.1367 12.0895Z" fill="#FFD3A8"/>
<path d="M75.4801 20.2327C73.6352 20.2327 71.5175 19.8694 69.3178 18.7775C69.3121 18.7746 69.3068 18.771 69.3021 18.7667C67.7455 17.3401 67.0146 15.8214 67.13 14.2526C67.3398 11.3972 70.3282 9.34262 70.3584 9.32221C70.3697 9.31461 70.3829 9.31055 70.3965 9.31055C70.4101 9.31055 70.4233 9.31461 70.4346 9.32221C74.0917 11.789 79.0896 12.0194 79.1396 12.0216C79.1561 12.0222 79.1718 12.0289 79.1837 12.0402C79.1957 12.0516 79.2031 12.0669 79.2046 12.0833C79.2077 12.1169 79.5581 15.4763 83.2024 17.9346C83.2117 17.9408 83.2192 17.9492 83.2245 17.959C83.2297 17.9688 83.2324 17.9798 83.2324 17.9909C83.2325 18.002 83.2297 18.013 83.2245 18.0228C83.2193 18.0326 83.2118 18.041 83.2026 18.0473C83.1863 18.0583 81.5478 19.1552 79.0303 19.7885C78.0457 20.0362 76.8365 20.2327 75.4802 20.2327L75.4801 20.2327ZM69.3869 18.6599C73.1615 20.5306 76.693 20.2352 78.9919 19.6578C81.1651 19.1119 82.6762 18.2182 83.0411 17.9893C79.6839 15.6797 79.1401 12.6149 79.0763 12.1544C78.5069 12.1211 73.8691 11.782 70.3973 9.46107C70.0535 9.70679 67.4574 11.6458 67.2655 14.2632C67.1539 15.7859 67.8676 17.2649 69.3869 18.6599Z" fill="#111111"/>
<path d="M45.6567 52.1324L62.1704 35.5867L63.0682 33.0129L46.975 48.5821L45.6567 52.1324Z" fill="#FF6F1E"/>
<path d="M45.6569 52.2004C45.6459 52.2004 45.6351 52.1977 45.6254 52.1927C45.6156 52.1876 45.6073 52.1802 45.601 52.1712C45.5948 52.1622 45.5908 52.1518 45.5894 52.141C45.588 52.1301 45.5893 52.119 45.5931 52.1087L46.9113 48.5584C46.9148 48.5489 46.9205 48.5402 46.9278 48.5332L63.021 32.964C63.0319 32.9533 63.0462 32.9467 63.0615 32.9452C63.0767 32.9436 63.092 32.9473 63.1049 32.9555C63.1178 32.9638 63.1276 32.9761 63.1326 32.9906C63.1376 33.0051 63.1376 33.0208 63.1325 33.0353L62.2347 35.6091C62.2314 35.6187 62.2259 35.6275 62.2187 35.6347L45.705 52.1804C45.6987 52.1867 45.6912 52.1918 45.6829 52.1952C45.6747 52.1986 45.6658 52.2004 45.6569 52.2004ZM47.0335 48.6202L45.8294 51.8632L62.1114 35.5496L62.9097 33.261L47.0335 48.6202Z" fill="#111111"/>
<path d="M60.4098 31.2197L63.0683 33.013L46.9752 48.5821L44.2861 46.6283L60.4098 31.2197Z" fill="white"/>
<path d="M46.9749 48.6502C46.9605 48.6502 46.9465 48.6457 46.9349 48.6372L44.2459 46.6834C44.2378 46.6776 44.2311 46.6701 44.2263 46.6614C44.2214 46.6526 44.2186 46.643 44.2179 46.633C44.2173 46.6231 44.2188 46.6131 44.2224 46.6038C44.226 46.5945 44.2317 46.5862 44.2389 46.5793L60.3627 31.1707C60.3739 31.16 60.3884 31.1534 60.4039 31.1521C60.4194 31.1508 60.4348 31.1548 60.4477 31.1635L63.1062 32.9567C63.1146 32.9624 63.1216 32.9699 63.1268 32.9786C63.1319 32.9873 63.135 32.9971 63.1359 33.0072C63.1368 33.0173 63.1354 33.0274 63.1319 33.0369C63.1283 33.0464 63.1227 33.055 63.1154 33.062L47.0223 48.6312C47.0096 48.6435 46.9926 48.6504 46.9749 48.6503L46.9749 48.6502ZM44.3918 46.6213L46.9687 48.4936L62.9605 33.0226L60.417 31.3069L44.3918 46.6213Z" fill="#111111"/>
<path d="M63.7872 41.8835L51.4076 75.2243L26.1548 56.8765L38.5345 23.5356L63.7872 41.8835Z" fill="white"/>
<path d="M51.4078 75.2923C51.3934 75.2923 51.3794 75.2877 51.3678 75.2793L26.115 56.9315C26.103 56.9227 26.0941 56.9103 26.0898 56.8961C26.0855 56.8819 26.086 56.8667 26.0912 56.8528L38.4709 23.512C38.4745 23.5021 38.4803 23.4932 38.488 23.486C38.4956 23.4788 38.5048 23.4735 38.5149 23.4704C38.525 23.4674 38.5356 23.4667 38.5459 23.4685C38.5563 23.4703 38.5661 23.4744 38.5746 23.4806L63.8274 41.8284C63.8394 41.8372 63.8482 41.8496 63.8525 41.8638C63.8568 41.878 63.8563 41.8932 63.8512 41.9071L51.4715 75.2479C51.4667 75.261 51.458 75.2722 51.4466 75.2801C51.4352 75.2881 51.4216 75.2923 51.4078 75.2923ZM26.2368 56.8517L51.3752 75.1165L63.7057 41.9081L38.5672 23.6433L26.2368 56.8517Z" fill="#111111"/>
<path d="M46.9751 48.5822L44.286 46.6284L42.9678 50.1787L45.6568 52.1325L46.9751 48.5822Z" fill="white"/>
<path d="M45.6565 52.2005C45.6421 52.2005 45.6281 52.1959 45.6165 52.1875L42.9275 50.2337C42.9155 50.225 42.9066 50.2126 42.9023 50.1984C42.898 50.1842 42.8985 50.169 42.9037 50.155L44.2219 46.6047C44.2256 46.5948 44.2314 46.586 44.2391 46.5788C44.2467 46.5716 44.2559 46.5663 44.266 46.5633C44.276 46.5602 44.2867 46.5595 44.297 46.5612C44.3074 46.563 44.3172 46.5671 44.3257 46.5733L47.0147 48.5271C47.0267 48.5358 47.0355 48.5482 47.0398 48.5624C47.0441 48.5766 47.0437 48.5919 47.0385 48.6058L45.7203 52.1561C45.7155 52.1692 45.7068 52.1804 45.6954 52.1883C45.684 52.1963 45.6704 52.2005 45.6565 52.2005ZM43.0492 50.154L45.6239 52.0247L46.8929 48.6069L44.3182 46.7361L43.0492 50.154Z" fill="#111111"/>
<path d="M38.0762 43.8508L25.6966 77.1916L0.443848 58.8437L12.8235 25.5029L38.0762 43.8508Z" fill="#FFD3A8"/>
<path d="M25.6968 77.2598C25.6824 77.2598 25.6684 77.2552 25.6568 77.2468L0.404042 58.8989C0.392024 58.8902 0.38319 58.8778 0.37889 58.8636C0.37459 58.8494 0.375061 58.8342 0.380232 58.8203L12.7599 25.4794C12.7635 25.4696 12.7694 25.4607 12.7771 25.4535C12.7847 25.4463 12.7939 25.441 12.804 25.438C12.814 25.4349 12.8247 25.4343 12.835 25.436C12.8454 25.4377 12.8552 25.4419 12.8637 25.4481L38.1164 43.7959C38.1284 43.8046 38.1373 43.817 38.1416 43.8312C38.1459 43.8454 38.1454 43.8606 38.1402 43.8745L25.7606 77.2154C25.7558 77.2284 25.7471 77.2397 25.7357 77.2476C25.7243 77.2555 25.7107 77.2598 25.6968 77.2597V77.2598ZM0.525813 58.8192L25.6642 77.084L37.9947 43.8756L12.8562 25.6108L0.525813 58.8192Z" fill="#111111"/>
<path d="M28.8241 52.0658C28.8131 52.0658 28.8023 52.0632 28.7926 52.0581C28.7828 52.053 28.7745 52.0457 28.7682 52.0366C28.7619 52.0276 28.758 52.0172 28.7566 52.0063C28.7552 51.9954 28.7565 51.9844 28.7603 51.9741L30.6586 46.8588L28.7554 45.4643C28.7435 45.4556 28.7347 45.4432 28.7305 45.429C28.7262 45.4149 28.7267 45.3997 28.7318 45.3858L31.1583 38.8473C31.1614 38.839 31.1662 38.8313 31.1722 38.8247C31.1783 38.8181 31.1856 38.8128 31.1937 38.8091C31.2019 38.8054 31.2107 38.8033 31.2196 38.803C31.2285 38.8026 31.2375 38.8041 31.2458 38.8072C31.2542 38.8103 31.2619 38.815 31.2684 38.8211C31.275 38.8272 31.2803 38.8345 31.284 38.8426C31.2877 38.8507 31.2898 38.8595 31.2901 38.8684C31.2904 38.8774 31.289 38.8863 31.2859 38.8946L28.8772 45.3849L30.7804 46.7794C30.7923 46.7882 30.8011 46.8006 30.8053 46.8147C30.8096 46.8289 30.8091 46.8441 30.804 46.858L28.8878 52.0214C28.883 52.0344 28.8743 52.0456 28.8629 52.0536C28.8515 52.0615 28.8379 52.0658 28.824 52.0657L28.8241 52.0658ZM22.1157 42.2961C22.1047 42.2961 22.0939 42.2934 22.0842 42.2883C22.0744 42.2833 22.0661 42.2759 22.0598 42.2669C22.0536 42.2579 22.0496 42.2475 22.0482 42.2366C22.0468 42.2257 22.0481 42.2146 22.0519 42.2043L24.9683 34.35C24.9713 34.3415 24.9759 34.3336 24.982 34.3269C24.988 34.3202 24.9953 34.3148 25.0035 34.3109C25.0117 34.3071 25.0206 34.3049 25.0296 34.3045C25.0386 34.3041 25.0476 34.3055 25.0561 34.3087C25.0646 34.3118 25.0724 34.3166 25.079 34.3228C25.0856 34.329 25.0909 34.3364 25.0946 34.3447C25.0983 34.3529 25.1003 34.3618 25.1005 34.3708C25.1007 34.3799 25.0991 34.3889 25.0958 34.3973L22.1795 42.2516C22.1693 42.279 22.1433 42.296 22.1157 42.296V42.2961ZM16.1023 70.2503C16.0913 70.2503 16.0805 70.2476 16.0708 70.2426C16.061 70.2375 16.0527 70.2301 16.0464 70.2211C16.0401 70.2121 16.0362 70.2017 16.0348 70.1908C16.0334 70.1799 16.0347 70.1689 16.0385 70.1586L21.6627 55.0115C21.6657 55.003 21.6704 54.9951 21.6764 54.9884C21.6825 54.9817 21.6898 54.9762 21.698 54.9724C21.7062 54.9686 21.715 54.9664 21.7241 54.966C21.7331 54.9656 21.7421 54.967 21.7506 54.9702C21.7591 54.9733 21.7668 54.9781 21.7734 54.9843C21.78 54.9905 21.7853 54.9979 21.789 55.0061C21.7927 55.0144 21.7948 55.0233 21.795 55.0323C21.7952 55.0414 21.7936 55.0504 21.7903 55.0588L16.1661 70.2059C16.1559 70.2333 16.1299 70.2502 16.1023 70.2502V70.2503ZM4.82534 62.0586C4.81437 62.0586 4.80355 62.0559 4.79382 62.0508C4.78409 62.0457 4.77574 62.0384 4.76948 62.0294C4.76322 62.0203 4.75923 62.0099 4.75786 61.999C4.75649 61.9882 4.75777 61.9771 4.7616 61.9668L9.30804 49.7312C9.31168 49.7213 9.31756 49.7125 9.32521 49.7053C9.33286 49.6981 9.34207 49.6928 9.35212 49.6898C9.36216 49.6867 9.37278 49.686 9.38314 49.6878C9.3935 49.6895 9.4033 49.6937 9.41178 49.6999L11.3788 51.129L13.1966 46.1951C13.2029 46.1781 13.2156 46.1644 13.2319 46.1568C13.2483 46.1492 13.267 46.1485 13.284 46.1547C13.3009 46.1609 13.3147 46.1737 13.3222 46.19C13.3298 46.2064 13.3306 46.2251 13.3243 46.2421L11.4754 51.2605C11.4718 51.2703 11.4659 51.2792 11.4583 51.2864C11.4506 51.2937 11.4414 51.299 11.4314 51.302C11.4213 51.305 11.4107 51.3057 11.4003 51.3039C11.39 51.3022 11.3802 51.2981 11.3716 51.292L9.40443 49.8627L4.88922 62.0142C4.87902 62.0416 4.85303 62.0585 4.82541 62.0585L4.82534 62.0586Z" fill="#111111"/>
<path d="M22.1194 42.2174C22.0865 42.1933 22.0514 42.1723 22.0146 42.1546C21.6879 41.9984 21.3276 42.1767 21.1725 42.5946C21.0005 43.0579 21.1455 43.6403 21.4964 43.8953C21.8473 44.1503 22.2714 43.9813 22.4434 43.518C22.5986 43.1 22.4957 42.5852 22.2164 42.3012C22.1865 42.2706 22.154 42.2427 22.1194 42.2174Z" fill="white"/>
<path d="M21.8412 44.082C21.7089 44.082 21.5766 44.0373 21.4568 43.9502C21.0833 43.6789 20.9274 43.0601 21.1091 42.5709C21.1984 42.33 21.3554 42.1538 21.5508 42.0747C21.7096 42.0104 21.885 42.0168 22.0443 42.0931C22.0839 42.112 22.1227 42.1353 22.1598 42.1623C22.1964 42.1889 22.2319 42.2195 22.2653 42.2534C22.5684 42.5616 22.6703 43.1034 22.5075 43.5417C22.4104 43.8033 22.23 43.991 22.0127 44.0565C21.9571 44.0734 21.8993 44.082 21.8412 44.082ZM21.7755 42.1664C21.7169 42.1664 21.6585 42.1779 21.6019 42.2008C21.4423 42.2654 21.3125 42.4137 21.2366 42.6182C21.0748 43.0542 21.2094 43.6024 21.5368 43.8402C21.6734 43.9395 21.8287 43.97 21.9733 43.9263C22.1496 43.8731 22.2978 43.7156 22.38 43.4943C22.5229 43.1093 22.4319 42.6169 22.1683 42.3488C22.1402 42.3203 22.1104 42.2945 22.0799 42.2724C22.0503 42.2507 22.0187 42.2318 21.9857 42.2159C21.9168 42.183 21.846 42.1664 21.7756 42.1664H21.7755Z" fill="#111111"/>
<path d="M22.3308 53.3972C21.9799 53.1423 21.5568 53.3118 21.3848 53.7752C21.23 54.1921 21.3321 54.7063 21.6113 54.9901C21.6416 55.021 21.6739 55.0491 21.7082 55.074C21.7425 55.099 21.7776 55.1198 21.813 55.1368C22.1397 55.2931 22.4999 55.1148 22.6547 54.698C22.8268 54.2347 22.6818 53.6522 22.3308 53.3972Z" fill="white"/>
<path d="M22.0532 55.2605C21.9599 55.2601 21.8678 55.2388 21.7838 55.1981C21.7433 55.1786 21.7047 55.1555 21.6684 55.129C21.6307 55.1015 21.5954 55.071 21.5628 55.0377C21.2603 54.7301 21.1585 54.189 21.3211 53.7515C21.4183 53.4895 21.5987 53.3016 21.816 53.236C22.002 53.1795 22.1992 53.2174 22.3709 53.3422C22.7443 53.6135 22.9003 54.2323 22.7186 54.7215C22.6294 54.9617 22.4727 55.1376 22.2775 55.2166C22.2063 55.2456 22.1301 55.2605 22.0532 55.2605ZM21.9863 53.3468C21.9422 53.3468 21.8984 53.3532 21.8554 53.3662C21.6792 53.4194 21.5309 53.5772 21.4486 53.7988C21.3059 54.1831 21.3967 54.6748 21.6598 54.9424C21.6879 54.971 21.7177 54.9968 21.7482 55.0189C21.7786 55.041 21.8104 55.06 21.8424 55.0753C21.9688 55.1358 22.1016 55.1411 22.2264 55.0905C22.3858 55.026 22.5153 54.8781 22.591 54.6742C22.7529 54.2383 22.6182 53.6901 22.2909 53.4522C22.195 53.3827 22.0902 53.3468 21.9862 53.3468H21.9863Z" fill="#111111"/>
<path d="M13.8685 44.58C13.5176 44.325 13.0935 44.4939 12.9215 44.9573C12.7663 45.3752 12.8692 45.8901 13.1484 46.174C13.2007 46.2352 13.268 46.2842 13.3503 46.3206C13.6769 46.477 14.0372 46.2986 14.1924 45.8807C14.3644 45.4174 14.2194 44.835 13.8685 44.58Z" fill="white"/>
<path d="M13.5898 46.4445C13.4966 46.4441 13.4045 46.4228 13.3206 46.3821C13.2313 46.3425 13.1552 46.2871 13.0964 46.2183C12.7966 45.9137 12.6947 45.372 12.8574 44.9337C12.9545 44.6721 13.1349 44.4844 13.3522 44.4188C13.5388 44.3625 13.7362 44.4002 13.9081 44.5251C14.2815 44.7964 14.4375 45.4153 14.2558 45.9045C14.1663 46.1454 14.0094 46.3216 13.8139 46.4007C13.7427 46.4296 13.6666 46.4445 13.5898 46.4446L13.5898 46.4445ZM13.5228 44.5296C13.4787 44.5296 13.4347 44.536 13.3915 44.549C13.2153 44.6023 13.0671 44.7598 12.9849 44.9811C12.8419 45.3661 12.933 45.8584 13.1966 46.1265C13.2453 46.1832 13.3051 46.2265 13.3776 46.2586C13.5055 46.3197 13.6381 46.325 13.763 46.2745C13.9226 46.2099 14.0524 46.0617 14.1284 45.8571C14.2902 45.4212 14.1555 44.873 13.8282 44.6351C13.7322 44.5654 13.6271 44.5295 13.5229 44.5295L13.5228 44.5296Z" fill="#111111"/>
<path d="M28.8241 51.9976C28.7908 51.9733 28.7554 51.9522 28.7183 51.9345C28.3919 51.779 28.0321 51.9574 27.8771 52.3749C27.705 52.8382 27.8501 53.4206 28.201 53.6756C28.5511 53.9299 28.9751 53.761 29.1471 53.2976C29.3022 52.8797 29.1994 52.3651 28.921 52.0815C28.891 52.051 28.8586 52.0229 28.8241 51.9976Z" fill="white"/>
<path d="M28.5442 53.8618C28.4122 53.8618 28.2803 53.8173 28.1609 53.7304C27.7874 53.4591 27.6315 52.8403 27.8132 52.3511C27.9025 52.1105 28.0592 51.9343 28.2545 51.8551C28.4132 51.7907 28.5881 51.7971 28.7474 51.8729C28.7875 51.892 28.8268 51.9154 28.864 51.9425C28.9004 51.9689 28.9358 51.9996 28.9694 52.0336C29.2719 52.3418 29.3733 52.8831 29.2107 53.3211C29.1136 53.5828 28.9331 53.7706 28.7157 53.8363C28.6601 53.8532 28.6023 53.8618 28.5442 53.8618ZM28.4795 51.9467C28.4207 51.9467 28.3623 51.9582 28.3055 51.9813C28.1461 52.0459 28.0165 52.1941 27.9406 52.3984C27.7788 52.8344 27.9134 53.3826 28.2408 53.6205C28.3769 53.7193 28.5316 53.7497 28.6762 53.7061C28.8526 53.6529 29.0009 53.4953 29.0831 53.2739C29.2259 52.8891 29.1353 52.397 28.8722 52.1291C28.8449 52.1012 28.8154 52.0757 28.7839 52.0526C28.754 52.0308 28.7222 52.0118 28.6889 51.9959C28.6203 51.9632 28.5497 51.9468 28.4796 51.9468L28.4795 51.9467Z" fill="#111111"/>
<path d="M38.0764 43.8508L63.7874 41.8833L51.4077 75.2241L25.6968 77.1916L38.0764 43.8508Z" fill="#FF6F1E"/>
<path d="M25.6969 77.2598C25.686 77.2598 25.6752 77.2572 25.6654 77.2521C25.6557 77.247 25.6474 77.2397 25.6411 77.2307C25.6348 77.2217 25.6308 77.2113 25.6295 77.2004C25.6281 77.1895 25.6293 77.1785 25.6331 77.1682L38.0128 43.8274C38.0173 43.8152 38.0253 43.8046 38.0356 43.7967C38.046 43.7889 38.0584 43.7842 38.0714 43.7832L63.7823 41.8158C63.8053 41.8146 63.8279 41.8241 63.8419 41.8427C63.8487 41.8518 63.8532 41.8625 63.8548 41.8738C63.8565 41.8851 63.8553 41.8966 63.8513 41.9073L51.4716 75.2481C51.4671 75.2603 51.4592 75.2709 51.4488 75.2787C51.4384 75.2866 51.426 75.2913 51.4131 75.2922L25.7021 77.2597C25.7004 77.2598 25.6987 77.2598 25.6969 77.2598ZM38.1252 43.9155L25.7977 77.1159L51.3593 75.1599L63.6868 41.9595L38.1252 43.9155Z" fill="#111111"/>
<path d="M45.4517 61.2083L46.77 57.658L44.0321 57.8675L42.7139 61.4178L45.4517 61.2083Z" fill="white"/>
<path d="M42.7135 61.4859C42.7026 61.4859 42.6918 61.4832 42.6821 61.4781C42.6723 61.4731 42.664 61.4657 42.6577 61.4567C42.6514 61.4477 42.6474 61.4373 42.6461 61.4265C42.6447 61.4156 42.6459 61.4045 42.6497 61.3942L43.968 57.8439C43.9725 57.8317 43.9804 57.8211 43.9908 57.8132C44.0012 57.8054 44.0136 57.8007 44.0266 57.7997L46.7645 57.5902C46.7877 57.5889 46.81 57.5986 46.824 57.6171C46.8379 57.6357 46.8415 57.66 46.8334 57.6817L45.5152 61.232C45.5107 61.2442 45.5027 61.2549 45.4924 61.2627C45.482 61.2705 45.4696 61.2752 45.4566 61.2762L42.7187 61.4857C42.717 61.4859 42.7153 61.4859 42.7135 61.4859ZM44.0804 57.9321L42.8144 61.3419L45.4029 61.1438L46.6689 57.734L44.0804 57.9321Z" fill="#111111"/>
<path d="M12.8237 25.5031L38.5347 23.5356L63.7874 41.8835L38.0764 43.851L12.8237 25.5031Z" fill="white"/>
<path d="M38.0766 43.9189C38.0622 43.9189 38.0482 43.9144 38.0366 43.9059L12.7839 25.558C12.7727 25.5498 12.7642 25.5384 12.7596 25.5252C12.7551 25.5121 12.7546 25.4979 12.7584 25.4845C12.7662 25.4571 12.7902 25.4374 12.8187 25.4352L38.5296 23.4677C38.5457 23.4666 38.5617 23.471 38.5748 23.4805L63.8276 41.8283C63.8506 41.845 63.8608 41.8744 63.8531 41.9018C63.8493 41.9152 63.8415 41.9271 63.8307 41.936C63.8199 41.9448 63.8067 41.9501 63.7928 41.9512L38.0819 43.9186C38.0801 43.9188 38.0784 43.9188 38.0767 43.9188L38.0766 43.9189ZM13.0136 25.5567L38.0963 43.7811L63.5979 41.8296L38.5151 23.6052L13.0136 25.5567Z" fill="#111111"/>
<path d="M47.4161 32.9961C44.9224 31.1843 40.8293 29.8687 38.2913 30.063L35.9282 30.2438L37.0355 31.0483L39.3985 30.8675C41.3154 30.7208 44.4069 31.7144 46.2896 33.0824C48.1723 34.4503 48.1436 35.682 46.2267 35.8287L43.8636 36.0095L44.9709 36.814L47.3339 36.6332C49.872 36.439 49.9088 34.8074 47.416 32.9963" fill="#FF6F1E"/>
<path d="M44.9711 36.8822C44.9567 36.8822 44.9427 36.8777 44.9311 36.8692L43.8238 36.0647C43.8125 36.0565 43.8041 36.0451 43.7995 36.0319C43.795 36.0187 43.7946 36.0045 43.7984 35.9911C43.8021 35.9777 43.81 35.9658 43.8207 35.957C43.8315 35.9482 43.8448 35.9429 43.8586 35.9418L46.2217 35.761C46.9962 35.7017 47.4826 35.4576 47.5914 35.0734C47.7348 34.5669 47.2459 33.8614 46.2498 33.1376C44.3781 31.7778 41.3074 30.79 39.4038 30.9356L37.0408 31.1164C37.0247 31.1176 37.0087 31.1131 36.9956 31.1036L35.8884 30.2991C35.8771 30.2909 35.8686 30.2795 35.8641 30.2663C35.8595 30.2532 35.8591 30.2389 35.8629 30.2255C35.8667 30.2121 35.8745 30.2002 35.8853 30.1914C35.8961 30.1826 35.9093 30.1773 35.9232 30.1762L38.2863 29.9954C40.8377 29.8004 44.9517 31.1217 47.4563 32.9414C48.8322 33.9411 49.5014 34.938 49.2924 35.6764C49.1767 36.0846 48.7441 36.5938 47.3394 36.7012L44.9764 36.8821C44.9746 36.8822 44.9729 36.8823 44.9712 36.8823L44.9711 36.8822ZM44.0535 36.0634L44.9908 36.7445L47.3289 36.5655C48.3638 36.4863 49.0146 36.1573 49.1614 35.6392C49.3541 34.9589 48.7034 34.0157 47.3763 33.0514C44.8941 31.2479 40.8209 29.9381 38.2966 30.131L36.118 30.2977L37.0554 30.9787L39.3936 30.7999C41.3242 30.6527 44.4359 31.6515 46.3299 33.0276C47.3747 33.7867 47.8823 34.5458 47.7224 35.1104C47.6336 35.4238 47.303 35.8147 46.2321 35.8966L44.0535 36.0634Z" fill="#111111"/>
<path d="M45.7748 37.398L44.9712 36.8141L43.8639 36.0095L37.0358 31.0483L35.9285 30.2438L35.1249 29.6599C34.5604 29.2497 33.6366 28.9524 33.0609 28.9965L23.8882 29.6984C23.3135 29.7424 23.3052 30.111 23.8697 30.5212L34.5197 38.2591C35.0851 38.67 36.0089 38.9665 36.5837 38.9225L45.7564 38.2206C46.3321 38.1765 46.3403 37.8087 45.7749 37.3978" fill="#FF6F1E"/>
<path d="M36.4678 38.995C35.8775 38.995 35.0167 38.7045 34.4796 38.3142L23.8295 30.5763C23.4943 30.3327 23.3396 30.0928 23.394 29.9006C23.4247 29.7922 23.5344 29.6573 23.8829 29.6307L33.0555 28.9288C33.6442 28.8835 34.5897 29.1872 35.1647 29.6049L45.8147 37.3429C46.1504 37.5868 46.3053 37.8267 46.251 38.0186C46.2203 38.127 46.1104 38.2618 45.7613 38.2886L36.5887 38.9905C36.5485 38.9935 36.5081 38.995 36.4678 38.9949L36.4678 38.995ZM33.1803 29.0603C33.1407 29.0603 33.1027 29.0617 33.0659 29.0645L23.8933 29.7664C23.6856 29.7822 23.5513 29.8447 23.5249 29.9378C23.4966 30.0376 23.5828 30.2289 23.9096 30.4664L34.5596 38.2043C35.1124 38.6059 36.018 38.8979 36.5784 38.8549L45.751 38.153C45.9593 38.1371 46.0938 38.0746 46.1202 37.9816C46.1484 37.882 46.0619 37.6907 45.7348 37.453L35.0847 29.715C34.5683 29.3398 33.7435 29.0603 33.1803 29.0603Z" fill="#111111"/>
<path d="M36.8148 33.7893C36.0121 33.206 34.6993 32.7844 33.8821 32.847C33.2212 32.8975 33.0876 33.2502 33.4861 33.692L31.8579 33.8166C31.6117 33.8355 31.6081 33.9934 31.85 34.1691C32.0918 34.3448 32.4881 34.4722 32.7343 34.4533L34.3624 34.3288C35.1403 34.7416 36.1275 35.0091 36.7884 34.9586C37.6057 34.8961 37.6175 34.3724 36.8148 33.7892" fill="#FFD3A8"/>
<path d="M36.6215 35.0328C35.9749 35.0328 35.0903 34.7884 34.3482 34.3982L32.7396 34.5213C32.4757 34.5413 32.0673 34.411 31.8101 34.2242C31.6524 34.1096 31.581 33.9918 31.609 33.8927C31.6255 33.8344 31.6812 33.762 31.8529 33.7489L33.3503 33.6343C33.169 33.3913 33.1762 33.2158 33.2198 33.107C33.272 32.9763 33.4284 32.8135 33.877 32.7792C34.7067 32.7157 36.0427 33.1441 36.8549 33.7343C37.3212 34.073 37.5373 34.4031 37.4635 34.6636C37.4223 34.809 37.2727 34.9899 36.7937 35.0265C36.7363 35.0309 36.6788 35.033 36.6213 35.0329L36.6215 35.0328ZM34.3626 34.2608C34.3737 34.2608 34.3846 34.2635 34.3945 34.2687C35.1874 34.6895 36.1477 34.9397 36.7835 34.8908C37.0962 34.8669 37.2913 34.773 37.3328 34.6265C37.3882 34.4307 37.1797 34.1382 36.7751 33.8442C35.9852 33.2703 34.6902 32.8529 33.8875 32.9148C33.592 32.9374 33.3998 33.0236 33.3462 33.1574C33.2966 33.2815 33.3643 33.4552 33.5368 33.6464C33.5453 33.6559 33.551 33.6675 33.5532 33.6801C33.5555 33.6926 33.5542 33.7055 33.5494 33.7173C33.5447 33.7291 33.5368 33.7393 33.5265 33.7469C33.5163 33.7544 33.5041 33.7589 33.4914 33.7599L31.8633 33.8844C31.7857 33.8904 31.7449 33.912 31.7399 33.9297C31.7329 33.9548 31.767 34.0246 31.8902 34.1141C32.1168 34.2787 32.5013 34.4038 32.7293 34.3855L34.3574 34.2609C34.3591 34.2608 34.3609 34.2607 34.3626 34.2607V34.2608Z" fill="#111111"/>
<path d="M82.2132 35.1257L103.271 50.3594L103.97 53.6288L81.3154 37.6995L82.2132 35.1257Z" fill="#FFD3A8"/>
<path d="M103.971 53.6969C103.957 53.6969 103.943 53.6926 103.932 53.6845L81.2765 37.7552C81.2644 37.7467 81.2554 37.7345 81.2508 37.7204C81.2463 37.7063 81.2465 37.6912 81.2513 37.6772L82.1491 35.1035C82.1526 35.0935 82.1584 35.0844 82.166 35.0771C82.1736 35.0697 82.1829 35.0642 82.193 35.061C82.2031 35.0578 82.2138 35.057 82.2243 35.0587C82.2348 35.0604 82.2447 35.0646 82.2533 35.0708L103.311 50.3044C103.325 50.3143 103.334 50.3289 103.338 50.3454L104.037 53.6148C104.039 53.6247 104.039 53.635 104.037 53.6449C104.035 53.6547 104.03 53.6639 104.024 53.6718C104.017 53.6797 104.009 53.6861 104 53.6904C103.991 53.6948 103.981 53.6971 103.971 53.6971L103.971 53.6969ZM81.3967 37.6735L103.868 53.4734L103.21 50.3992L82.2476 35.2345L81.3968 37.6735H81.3967Z" fill="#111111"/>
<path d="M103.271 50.3595L104.199 48.457L84.1183 33.8362L82.2134 35.1258L103.271 50.3595Z" fill="white"/>
<path d="M103.272 50.4273C103.257 50.4273 103.243 50.4229 103.232 50.4145L82.1737 35.1809C82.1648 35.1745 82.1576 35.166 82.1527 35.1562C82.1478 35.1464 82.1453 35.1356 82.1455 35.1247C82.1457 35.1137 82.1485 35.103 82.1537 35.0934C82.1589 35.0837 82.1664 35.0755 82.1754 35.0694L84.0803 33.7797C84.1041 33.7637 84.1354 33.7643 84.1585 33.7811L104.24 48.4018C104.266 48.4212 104.275 48.457 104.261 48.4866L103.333 50.3892C103.327 50.4007 103.319 50.4103 103.308 50.4171C103.297 50.4238 103.284 50.4274 103.272 50.4273ZM82.3322 35.1275L103.246 50.2568L104.113 48.4782L84.1171 33.9191L82.3322 35.1275Z" fill="#111111"/>
<path d="M96.4448 44.6246L105.159 26.7578L111.725 57.4604L103.011 75.3273L96.4448 44.6246Z" fill="white"/>
<path d="M103.011 75.3953C102.995 75.3953 102.98 75.39 102.968 75.3802C102.956 75.3704 102.948 75.3567 102.944 75.3415L96.378 44.6388C96.3748 44.6239 96.3767 44.6084 96.3833 44.5948L105.097 26.7279C105.103 26.7152 105.113 26.7046 105.126 26.6979C105.138 26.6911 105.153 26.6884 105.167 26.6902C105.181 26.692 105.194 26.698 105.204 26.7076C105.215 26.7171 105.222 26.7297 105.225 26.7435L111.791 57.4462C111.795 57.4611 111.793 57.4766 111.786 57.4902L103.072 75.3571C103.067 75.3685 103.058 75.3782 103.047 75.3849C103.036 75.3917 103.024 75.3953 103.011 75.3953ZM96.516 44.6333L103.036 75.1203L111.653 57.4517L105.133 26.9648L96.516 44.6333Z" fill="#111111"/>
<path d="M103.271 50.3593L104.199 48.4568L104.899 51.7262L103.971 53.6287L103.271 50.3593Z" fill="white"/>
<path d="M103.97 53.6967C103.955 53.6968 103.94 53.6914 103.928 53.6816C103.916 53.6718 103.907 53.6582 103.904 53.6429L103.205 50.3735C103.201 50.3586 103.203 50.3431 103.21 50.3295L104.138 48.4269C104.144 48.4141 104.154 48.4036 104.167 48.3968C104.179 48.3901 104.193 48.3874 104.207 48.3892C104.221 48.3909 104.235 48.397 104.245 48.4065C104.255 48.4161 104.263 48.4287 104.266 48.4425L104.965 51.7119C104.968 51.7268 104.966 51.7423 104.959 51.756L104.032 53.6585C104.026 53.67 104.017 53.6796 104.006 53.6864C103.996 53.6931 103.983 53.6967 103.97 53.6967ZM103.343 50.368L103.996 53.4217L104.827 51.7174L104.174 48.6637L103.343 50.368Z" fill="#111111"/>
<path d="M130.276 43.2672L138.99 25.4004L145.556 56.1031L136.842 73.9698L130.276 43.2672Z" fill="#FF6F1E"/>
<path d="M136.842 74.0377C136.827 74.0377 136.812 74.0324 136.8 74.0226C136.788 74.0128 136.779 73.9991 136.776 73.9839L130.21 43.2812C130.206 43.2663 130.208 43.2508 130.215 43.2372L138.929 25.3703C138.935 25.3575 138.945 25.3469 138.957 25.3401C138.97 25.3334 138.984 25.3307 138.998 25.3326C139.012 25.3343 139.025 25.3404 139.036 25.3499C139.046 25.3595 139.053 25.3721 139.056 25.3859L145.623 56.0886C145.626 56.1035 145.624 56.119 145.618 56.1326L136.904 73.9995C136.898 74.0109 136.889 74.0206 136.879 74.0273C136.868 74.0341 136.855 74.0377 136.842 74.0377ZM130.347 43.2757L136.868 73.7626L145.485 56.0941L138.965 25.6071L130.347 43.2757Z" fill="#111111"/>
<path d="M96.4448 44.6243L130.276 43.2671L136.843 73.9697L103.011 75.327L96.4448 44.6243Z" fill="#FFD3A8"/>
<path d="M103.011 75.3951C102.979 75.3951 102.951 75.3727 102.944 75.3412L96.378 44.6385C96.3759 44.6289 96.376 44.6188 96.3782 44.6091C96.3804 44.5995 96.3846 44.5904 96.3907 44.5826C96.3968 44.5747 96.4045 44.5683 96.4134 44.5638C96.4222 44.5593 96.4319 44.5567 96.4418 44.5564L130.273 43.1991C130.308 43.1968 130.336 43.2206 130.342 43.2529L136.909 73.9556C136.911 73.9653 136.911 73.9753 136.909 73.985C136.907 73.9947 136.902 74.0037 136.896 74.0116C136.89 74.0194 136.882 74.0258 136.874 74.0303C136.865 74.0349 136.855 74.0374 136.845 74.0378L103.014 75.395H103.011L103.011 75.3951ZM96.528 44.689L103.066 75.2567L136.759 73.905L130.221 43.3374L96.528 44.689Z" fill="#111111"/>
<path d="M118.794 60.8598L118.095 57.5903L114.493 57.7349L115.192 61.0043L118.794 60.8598Z" fill="white"/>
<path d="M115.192 61.0722C115.16 61.0722 115.132 61.0499 115.125 61.0184L114.426 57.749C114.424 57.7393 114.424 57.7292 114.426 57.7196C114.428 57.7099 114.433 57.7008 114.439 57.693C114.445 57.6852 114.452 57.6788 114.461 57.6742C114.47 57.6697 114.48 57.6672 114.49 57.6668L118.092 57.5223C118.125 57.5188 118.155 57.5436 118.162 57.576L118.861 60.8454C118.863 60.8551 118.863 60.8651 118.861 60.8748C118.858 60.8845 118.854 60.8936 118.848 60.9014C118.842 60.9092 118.834 60.9156 118.825 60.9202C118.817 60.9247 118.807 60.9272 118.797 60.9276L115.194 61.0722H115.192L115.192 61.0722ZM114.576 57.7995L115.246 60.9339L118.711 60.7949L118.04 57.6606L114.576 57.7995Z" fill="#111111"/>
<path d="M105.159 26.7576L138.99 25.4004L130.276 43.2672L96.4448 44.6245L105.159 26.7576Z" fill="white"/>
<path d="M96.4445 44.6923C96.433 44.6923 96.4216 44.6894 96.4115 44.6838C96.4014 44.6782 96.3929 44.6701 96.3868 44.6603C96.3807 44.6506 96.3772 44.6394 96.3766 44.6279C96.376 44.6163 96.3783 44.6049 96.3833 44.5945L105.097 26.7276C105.108 26.7052 105.131 26.6905 105.156 26.6895L138.987 25.3323C139.013 25.3301 139.034 25.343 139.047 25.363C139.06 25.3831 139.061 25.4085 139.051 25.43L130.337 43.2969C130.332 43.3079 130.323 43.3173 130.313 43.324C130.303 43.3307 130.291 43.3345 130.279 43.335L96.4473 44.6922H96.4446L96.4445 44.6923ZM105.202 26.8238L96.5556 44.5518L130.233 43.2007L138.879 25.4728L105.202 26.8238Z" fill="#111111"/>
<path d="M114.182 34.7886L98.0152 41.4047L96.4448 44.6245L130.277 43.2673L131.847 40.0474L125.578 36.5367L119.642 38.4919L114.182 34.7886Z" fill="#FF6F1E"/>
<path d="M96.445 44.6925C96.4334 44.6925 96.4221 44.6896 96.412 44.684C96.4019 44.6784 96.3934 44.6703 96.3873 44.6605C96.3812 44.6508 96.3777 44.6396 96.377 44.6281C96.3764 44.6165 96.3788 44.6051 96.3838 44.5947L97.9542 41.3748C97.9615 41.3597 97.9741 41.348 97.9896 41.3416L114.157 34.7255C114.167 34.7213 114.178 34.7197 114.19 34.7208C114.201 34.722 114.212 34.7259 114.221 34.7323L119.653 38.4168L125.557 36.472C125.575 36.4662 125.595 36.4679 125.611 36.4773L131.88 39.988C131.895 39.9965 131.907 40.0105 131.912 40.0271C131.917 40.0436 131.916 40.0616 131.908 40.0772L130.338 43.297C130.332 43.3081 130.324 43.3175 130.314 43.3242C130.304 43.3309 130.292 43.3347 130.279 43.3352L96.4477 44.6925H96.445ZM98.0651 41.4577L96.556 44.5519L130.233 43.2008L131.758 40.0753L125.571 36.6106L119.664 38.5565C119.654 38.5598 119.643 38.5607 119.633 38.5593C119.623 38.5578 119.613 38.554 119.604 38.5481L114.175 34.8653L98.065 41.4577H98.0651Z" fill="#111111"/>
<path d="M128.175 29.0832C126.616 29.1457 125.027 29.8641 124.625 30.6875C124.224 31.5107 125.162 32.1277 126.721 32.0651C128.28 32.0025 129.87 31.2842 130.271 30.4609C130.673 29.6376 129.734 29.0207 128.175 29.0832Z" fill="#FF6F1E"/>
<path d="M126.504 32.1375C125.575 32.1375 124.867 31.8909 124.587 31.4627C124.431 31.2241 124.423 30.9456 124.564 30.6576C124.974 29.8153 126.593 29.0786 128.172 29.0152C129.209 28.9736 130.008 29.2241 130.309 29.6855C130.465 29.9242 130.473 30.2026 130.332 30.4908C129.921 31.333 128.303 32.0697 126.723 32.1331C126.65 32.136 126.577 32.1375 126.504 32.1375ZM128.178 29.1512C126.643 29.2127 125.077 29.9153 124.686 30.7173C124.566 30.9634 124.571 31.1892 124.701 31.3884C124.972 31.8029 125.744 32.0355 126.718 31.9972C128.252 31.9356 129.819 31.233 130.21 30.4311C130.33 30.1849 130.325 29.9591 130.195 29.76C129.924 29.3454 129.151 29.1116 128.178 29.1512Z" fill="#111111"/>
<path d="M94.3354 75.7276L118.095 57.5903L118.794 60.8598L93.8813 79.7157L94.3354 75.7276Z" fill="#FF6F1E"/>
<path d="M93.8815 79.7837C93.8719 79.7837 93.8625 79.7816 93.8537 79.7777C93.845 79.7738 93.8371 79.7681 93.8308 79.7609C93.8244 79.7538 93.8196 79.7454 93.8167 79.7362C93.8138 79.7271 93.8128 79.7175 93.8139 79.7079L94.2679 75.7199C94.269 75.7108 94.2718 75.702 94.2763 75.6941C94.2809 75.6861 94.287 75.6791 94.2943 75.6736L118.054 57.5363C118.063 57.5293 118.074 57.5247 118.085 57.523C118.096 57.5213 118.108 57.5224 118.119 57.5264C118.13 57.5304 118.139 57.5371 118.147 57.5458C118.154 57.5545 118.159 57.5649 118.162 57.5762L118.861 60.8455C118.866 60.8714 118.857 60.8981 118.835 60.914L93.9226 79.7699C93.9107 79.7788 93.8964 79.7837 93.8815 79.7837ZM94.3999 75.7641L93.9671 79.5655L118.719 60.8317L118.051 57.7096L94.3999 75.7641Z" fill="#111111"/>
<path d="M118.095 57.5903L94.3352 75.7276L90.312 74.769L114.492 57.7349L118.095 57.5903Z" fill="white"/>
<path d="M94.3354 75.7955C94.3301 75.7955 94.3248 75.7949 94.3196 75.7937L90.2965 74.8351C90.2837 74.8321 90.2721 74.8255 90.263 74.816C90.254 74.8066 90.2478 74.7947 90.2454 74.7818C90.2429 74.7689 90.2442 74.7556 90.2491 74.7435C90.254 74.7313 90.2623 74.7209 90.2731 74.7134L114.453 57.6792C114.464 57.6716 114.477 57.6673 114.49 57.6668L118.092 57.5223C118.107 57.5217 118.121 57.5257 118.133 57.5338C118.145 57.5419 118.154 57.5536 118.159 57.5672C118.164 57.5808 118.164 57.5956 118.16 57.6095C118.156 57.6233 118.148 57.6355 118.136 57.6443L94.3767 75.7816C94.3648 75.7906 94.3503 75.7955 94.3354 75.7955ZM90.4747 74.7377L94.3198 75.6538L117.883 57.6668L114.515 57.8019L90.4747 74.7377Z" fill="#111111"/>
<path d="M65.1486 81.7869L42.7139 61.4177L44.0321 57.8674L65.6027 77.7988L65.1486 81.7869Z" fill="#FFD3A8"/>
<path d="M65.1483 81.8549C65.1314 81.8549 65.1151 81.8486 65.1026 81.8372L42.6678 61.4681C42.6577 61.4589 42.6507 61.447 42.6474 61.4338C42.6442 61.4206 42.645 61.4068 42.6498 61.394L43.968 57.8437C43.9719 57.8332 43.9783 57.8239 43.9867 57.8164C43.995 57.809 44.0051 57.8038 44.016 57.8012C44.0268 57.7986 44.0382 57.7987 44.049 57.8015C44.0598 57.8043 44.0697 57.8098 44.078 57.8174L65.6486 77.7488C65.6565 77.7561 65.6625 77.7651 65.6662 77.7751C65.6699 77.7851 65.6712 77.7959 65.67 77.8065L65.216 81.7946C65.2141 81.8112 65.2062 81.8265 65.1937 81.8376C65.1812 81.8487 65.1651 81.8549 65.1484 81.8548L65.1483 81.8549ZM42.7933 61.3983L65.0957 81.6473L65.5308 77.8254L44.0601 57.9864L42.7932 61.3983H42.7933Z" fill="#111111"/>
<path d="M67.1096 76.4417L65.6024 77.7989L44.0317 57.8675L46.7696 57.658L67.1096 76.4417Z" fill="white"/>
<path d="M65.6024 77.867C65.5853 77.867 65.5688 77.8605 65.5562 77.8489L43.9856 57.9174C43.9759 57.9084 43.9691 57.8968 43.9659 57.884C43.9627 57.8711 43.9633 57.8577 43.9676 57.8452C43.972 57.8327 43.9799 57.8217 43.9903 57.8136C44.0008 57.8055 44.0134 57.8007 44.0265 57.7996L46.7644 57.5901C46.7737 57.5893 46.7831 57.5905 46.792 57.5936C46.8008 57.5967 46.8089 57.6016 46.8157 57.608L67.1557 76.3917C67.1627 76.3981 67.1682 76.4059 67.172 76.4146C67.1758 76.4233 67.1777 76.4326 67.1777 76.4421C67.1776 76.4516 67.1756 76.4609 67.1717 76.4695C67.1678 76.4782 67.1622 76.4859 67.1551 76.4922L65.6479 77.8494C65.6354 77.8606 65.6192 77.8668 65.6023 77.8668L65.6024 77.867ZM44.1926 57.9235L65.603 77.7069L67.0088 76.4412L46.7454 57.7282L44.1927 57.9236L44.1926 57.9235Z" fill="#111111"/>
<path d="M75.3386 54.0161L113.12 63.0177L108.856 100.468L71.0747 91.4664L75.3386 54.0161Z" fill="white"/>
<path d="M108.856 100.536C108.85 100.536 108.845 100.535 108.84 100.534L71.0586 91.5327C71.0424 91.5288 71.0282 91.5192 71.0187 91.5056C71.0091 91.492 71.0049 91.4753 71.0068 91.4588L75.2707 54.0086C75.2718 53.999 75.2749 53.9898 75.2798 53.9815C75.2847 53.9732 75.2913 53.9661 75.2992 53.9605C75.3071 53.955 75.316 53.9512 75.3255 53.9494C75.3349 53.9476 75.3447 53.9479 75.354 53.9501L113.135 62.9517C113.151 62.9555 113.166 62.9652 113.175 62.9788C113.185 62.9924 113.189 63.009 113.187 63.0256L108.923 100.476C108.921 100.492 108.913 100.508 108.901 100.519C108.888 100.53 108.872 100.536 108.856 100.536ZM71.1488 91.4142L108.797 100.384L113.045 63.07L75.3972 54.1002L71.1488 91.4142Z" fill="#111111"/>
<path d="M93.8816 79.7157L94.3356 75.7276L90.3125 74.769L89.8584 78.7571L93.8816 79.7157Z" fill="white"/>
<path d="M93.8813 79.7835C93.876 79.7835 93.8708 79.7829 93.8655 79.7817L89.8423 78.8231C89.8261 78.8193 89.8119 78.8096 89.8024 78.796C89.7928 78.7824 89.7886 78.7658 89.7905 78.7492L90.2446 74.7612C90.2456 74.7517 90.2487 74.7425 90.2536 74.7342C90.2586 74.7259 90.2652 74.7188 90.2731 74.7132C90.2809 74.7077 90.2899 74.7039 90.2994 74.7021C90.3088 74.7003 90.3185 74.7006 90.3279 74.7028L94.3511 75.6614C94.3672 75.6652 94.3814 75.6749 94.391 75.6885C94.4005 75.7021 94.4048 75.7187 94.4029 75.7352L93.9489 79.7232C93.947 79.7398 93.9391 79.7552 93.9266 79.7663C93.9142 79.7775 93.898 79.7835 93.8813 79.7835ZM89.9325 78.7047L93.8224 79.6315L94.2609 75.7797L90.371 74.8529L89.9324 78.7047H89.9325Z" fill="#111111"/>
<path d="M98.9651 75.7631L113.12 63.0178L108.856 100.468L94.7012 113.213L98.9651 75.7631Z" fill="#FF6F1E"/>
<path d="M94.7014 113.281C94.6918 113.281 94.6823 113.279 94.6735 113.275C94.6648 113.271 94.657 113.266 94.6506 113.259C94.6442 113.251 94.6394 113.243 94.6365 113.234C94.6336 113.225 94.6327 113.215 94.6337 113.206L98.8976 75.7553C98.8995 75.7388 98.9074 75.7235 98.9198 75.7124L113.074 62.9672C113.084 62.958 113.097 62.952 113.111 62.9503C113.125 62.9485 113.139 62.9509 113.151 62.9572C113.163 62.9636 113.173 62.9735 113.18 62.9857C113.186 62.9978 113.189 63.0117 113.187 63.0254L108.923 100.476C108.922 100.492 108.914 100.507 108.901 100.519L94.7469 113.264C94.7344 113.275 94.7182 113.281 94.7014 113.281ZM99.0299 75.7963L94.7893 113.043L108.791 100.435L113.032 63.1884L99.0299 75.7963Z" fill="#111111"/>
<path d="M61.1838 66.7613L75.3383 54.0161L71.0744 91.4663L56.9199 104.212L61.1838 66.7613Z" fill="white"/>
<path d="M56.9201 104.28C56.9105 104.28 56.901 104.278 56.8923 104.274C56.8835 104.27 56.8757 104.264 56.8693 104.257C56.863 104.25 56.8582 104.241 56.8552 104.232C56.8523 104.223 56.8514 104.213 56.8525 104.204L61.1164 66.7537C61.1183 66.7372 61.1261 66.7219 61.1385 66.7108L75.293 53.9656C75.3032 53.9563 75.3161 53.9504 75.3298 53.9486C75.3435 53.9468 75.3574 53.9492 75.3697 53.9555C75.382 53.9619 75.3921 53.9718 75.3986 53.984C75.4051 53.9962 75.4077 54.0101 75.4061 54.0238L71.1422 91.4741C71.1403 91.4906 71.1325 91.5058 71.1201 91.5169L56.9656 104.262C56.9531 104.273 56.9369 104.28 56.9201 104.28ZM61.2486 66.7946L57.008 104.041L71.01 91.4331L75.2506 54.1868L61.2486 66.7946Z" fill="#111111"/>
<path d="M65.6025 77.7988L67.1098 76.4417L66.6557 80.4297L65.1484 81.7869L65.6025 77.7988Z" fill="white"/>
<path d="M65.1486 81.8549C65.139 81.8549 65.1296 81.8529 65.1208 81.849C65.1121 81.8451 65.1042 81.8394 65.0979 81.8322C65.0915 81.8251 65.0867 81.8166 65.0838 81.8075C65.0809 81.7984 65.0799 81.7887 65.081 81.7792L65.535 77.7911C65.5369 77.7746 65.5448 77.7594 65.5571 77.7483L67.0644 76.3911C67.0746 76.3818 67.0875 76.3759 67.1012 76.3741C67.1149 76.3723 67.1288 76.3747 67.1411 76.3811C67.1534 76.3874 67.1635 76.3973 67.17 76.4095C67.1765 76.4217 67.1791 76.4356 67.1775 76.4494L66.7234 80.4374C66.7215 80.4539 66.7137 80.4691 66.7013 80.4802L65.1941 81.8374C65.1816 81.8487 65.1654 81.8549 65.1486 81.8549ZM65.6673 77.8321L65.2365 81.6162L66.5912 80.3963L67.022 76.6123L65.6673 77.8321Z" fill="#111111"/>
<path d="M61.1838 66.7612L98.9651 75.7628L94.7012 113.213L56.9199 104.211L61.1838 66.7612Z" fill="#FFD3A8"/>
<path d="M94.7013 113.281C94.696 113.281 94.6908 113.281 94.6856 113.279L56.9043 104.278C56.8882 104.274 56.8739 104.264 56.8644 104.251C56.8548 104.237 56.8506 104.22 56.8525 104.204L61.1164 66.7537C61.1175 66.7441 61.1206 66.7349 61.1255 66.7266C61.1304 66.7183 61.137 66.7112 61.1449 66.7057C61.1528 66.7001 61.1617 66.6964 61.1712 66.6946C61.1806 66.6928 61.1904 66.693 61.1997 66.6952L98.981 75.6968C98.9971 75.7006 99.0114 75.7103 99.0209 75.7239C99.0305 75.7375 99.0347 75.7542 99.0328 75.7707L94.7689 113.221C94.767 113.238 94.7591 113.253 94.7467 113.264C94.7342 113.275 94.7181 113.281 94.7013 113.281ZM56.9945 104.159L94.6425 113.129L98.8909 75.8152L61.2429 66.8453L56.9945 104.159Z" fill="#111111"/>
<path d="M81.4844 99.0796C80.9593 98.9545 80.4858 99.2737 80.4265 99.7942C80.3731 100.264 80.6752 100.736 81.1204 100.915C81.1686 100.935 81.2185 100.951 81.27 100.963C81.3213 100.975 81.3723 100.983 81.4223 100.987C81.8837 101.024 82.2745 100.717 82.328 100.247C82.3873 99.7268 82.0094 99.2048 81.4844 99.0797" fill="white"/>
<path d="M81.495 101.058C81.4692 101.058 81.4434 101.057 81.4172 101.055C81.3628 101.051 81.308 101.042 81.2544 101.029C81.2001 101.016 81.1469 100.999 81.0951 100.978C80.6122 100.783 80.3028 100.282 80.3591 99.7862C80.3894 99.5207 80.5211 99.2937 80.73 99.1471C80.9478 98.9942 81.2214 98.9467 81.5004 99.0132C82.0569 99.1458 82.4587 99.7027 82.3958 100.255C82.3423 100.724 81.9616 101.058 81.495 101.058ZM81.2569 99.1201C81.093 99.1201 80.9385 99.1671 80.8082 99.2586C80.6316 99.3824 80.5202 99.5753 80.4944 99.8017C80.4455 100.231 80.7257 100.682 81.1461 100.852C81.1917 100.87 81.2388 100.885 81.286 100.897C81.3328 100.908 81.3805 100.915 81.4279 100.919C81.8613 100.953 82.2119 100.667 82.2606 100.239C82.3159 99.7534 81.9608 99.2627 81.4688 99.1456C81.3994 99.1288 81.3282 99.1202 81.2568 99.1201L81.2569 99.1201Z" fill="#111111"/>
<path d="M77.4553 88.1003C77.4052 88.0883 77.3543 88.0803 77.303 88.0761C76.8416 88.0399 76.4507 88.3467 76.3972 88.8162C76.338 89.3366 76.7156 89.8601 77.2407 89.9851C77.7657 90.1102 78.2395 89.7896 78.2987 89.2692C78.3522 88.7997 78.0501 88.3279 77.6049 88.1481C77.5563 88.1284 77.5063 88.1125 77.4553 88.1003Z" fill="white"/>
<path d="M77.4684 90.0805C77.3885 90.0805 77.307 90.0708 77.225 90.0513C76.6684 89.9187 76.2668 89.3611 76.3297 88.8084C76.3862 88.3129 76.8076 87.9698 77.3084 88.0083C77.3627 88.0126 77.4175 88.0212 77.4713 88.0341C77.5255 88.047 77.5788 88.064 77.6305 88.0849C78.1134 88.28 78.4229 88.7812 78.3665 89.2769C78.3362 89.5429 78.2042 89.7703 77.9948 89.9172C77.8411 90.025 77.6598 90.0805 77.4685 90.0805L77.4684 90.0805ZM77.2281 88.1412C76.8268 88.1412 76.511 88.4189 76.4649 88.8239C76.4095 89.3104 76.7646 89.8018 77.2566 89.919C77.4966 89.9762 77.7311 89.9359 77.9166 89.8058C78.0937 89.6816 78.2054 89.4883 78.2312 89.2615C78.2801 88.8325 77.9999 88.381 77.5796 88.2112C77.534 88.1928 77.4869 88.1778 77.4396 88.1666C77.3704 88.15 77.2994 88.1415 77.2282 88.1413L77.2281 88.1412Z" fill="#111111"/>
<path d="M68.5674 87.7679C68.0423 87.6428 67.5688 87.962 67.5095 88.4824C67.4561 88.9519 67.7583 89.4237 68.2034 89.6035C68.2949 89.6431 68.3959 89.6666 68.5053 89.6755C68.9668 89.7118 69.3576 89.405 69.4111 88.9354C69.4703 88.415 69.0925 87.893 68.5675 87.7679" fill="white"/>
<path d="M68.5781 89.7463C68.5524 89.7463 68.5264 89.7453 68.5002 89.7433C68.382 89.7336 68.2732 89.7077 68.1766 89.6659C67.6952 89.4716 67.3858 88.9702 67.4422 88.4746C67.4724 88.2091 67.6041 87.9821 67.813 87.8355C68.0308 87.6827 68.3044 87.6353 68.5834 87.7016C69.14 87.8342 69.5417 88.3911 69.4788 88.943C69.4253 89.4127 69.0446 89.7463 68.578 89.7463L68.5781 89.7463ZM68.3399 87.8086C68.1761 87.8086 68.0216 87.8555 67.8912 87.947C67.7146 88.0709 67.6032 88.2637 67.5775 88.4901C67.5286 88.9191 67.8088 89.3706 68.2292 89.5404C68.3136 89.5768 68.408 89.5992 68.5112 89.6075C68.9449 89.642 69.295 89.3556 69.3438 88.9276C69.3991 88.4418 69.0439 87.9511 68.552 87.834C68.4826 87.8172 68.4114 87.8087 68.34 87.8085L68.3399 87.8086Z" fill="#111111"/>
<path d="M88.0798 86.5991C87.5548 86.474 87.081 86.7945 87.0217 87.315C86.9683 87.7845 87.2705 88.2563 87.7156 88.4361C87.7639 88.4556 87.8137 88.4717 87.8652 88.484C87.9166 88.4962 87.9675 88.5041 88.0175 88.5081C88.4789 88.5444 88.8697 88.2376 88.9232 87.7681C88.9825 87.2476 88.6048 86.7242 88.0798 86.5992" fill="white"/>
<path d="M88.0902 88.5789C88.0645 88.5789 88.0386 88.5779 88.0124 88.5759C87.958 88.5716 87.9032 88.5629 87.8496 88.5501C87.7954 88.5371 87.7421 88.5201 87.6904 88.4992C87.2074 88.3042 86.898 87.803 86.9544 87.3072C86.9846 87.0412 87.1167 86.8138 87.326 86.6669C87.5438 86.5141 87.8172 86.4665 88.0957 86.5328C88.6523 86.6654 89.0539 87.223 88.991 87.7757C88.9375 88.2453 88.5568 88.5789 88.0902 88.5789ZM87.8529 86.6398C87.6891 86.6398 87.5347 86.6868 87.4042 86.7783C87.2272 86.9025 87.1154 87.0958 87.0896 87.3227C87.0408 87.7517 87.3209 88.2033 87.7413 88.3729C87.787 88.3914 87.8342 88.4065 87.8813 88.4177C87.928 88.4288 87.9757 88.4363 88.0232 88.4401C88.4563 88.4741 88.8071 88.1883 88.8558 87.7602C88.9112 87.2737 88.5562 86.7824 88.0643 86.6651C87.995 86.6484 87.9241 86.64 87.8529 86.6398Z" fill="#111111"/>
<path d="M88.2313 111.703C88.2217 111.703 88.2123 111.701 88.2035 111.697C88.1948 111.693 88.187 111.687 88.1806 111.68C88.1742 111.673 88.1694 111.664 88.1665 111.655C88.1636 111.646 88.1626 111.636 88.1637 111.627L90.0398 95.0389L87.197 94.3616C87.1808 94.3578 87.1667 94.3481 87.1571 94.3345C87.1476 94.321 87.1433 94.3044 87.1452 94.2879L87.798 88.4764C87.8022 88.4391 87.8361 88.4125 87.8731 88.4164C87.8911 88.4184 87.9074 88.4274 87.9187 88.4415C87.93 88.4556 87.9351 88.4736 87.9331 88.4915L87.2871 94.2432L90.1299 94.9205C90.1461 94.9243 90.1603 94.934 90.1698 94.9476C90.1794 94.9612 90.1836 94.9778 90.1818 94.9943L88.2989 111.642C88.2971 111.659 88.2891 111.674 88.2767 111.685C88.2642 111.696 88.248 111.703 88.2313 111.703ZM77.454 88.1413C77.4444 88.1413 77.4349 88.1393 77.4261 88.1354C77.4174 88.1315 77.4096 88.1258 77.4032 88.1186C77.3968 88.1115 77.392 88.103 77.3891 88.0939C77.3861 88.0848 77.3852 88.0751 77.3863 88.0656L79.3233 71.0523C79.3256 71.0346 79.3348 71.0185 79.3488 71.0074C79.3629 70.9964 79.3807 70.9913 79.3985 70.9934C79.4163 70.9954 79.4325 71.0043 79.4438 71.0182C79.455 71.0321 79.4603 71.0499 79.4585 71.0677L77.5215 88.081C77.5196 88.0975 77.5117 88.1129 77.4992 88.124C77.4868 88.1351 77.4707 88.1413 77.454 88.1413ZM80.2734 109.822C80.2638 109.822 80.2544 109.82 80.2456 109.816C80.2369 109.812 80.229 109.806 80.2226 109.799C80.2163 109.792 80.2114 109.783 80.2085 109.774C80.2056 109.765 80.2047 109.755 80.2057 109.746L81.2026 100.955C81.2035 100.947 81.2063 100.938 81.2106 100.93C81.2149 100.922 81.2207 100.915 81.2277 100.91C81.2347 100.904 81.2427 100.9 81.2513 100.898C81.2599 100.895 81.2689 100.894 81.2778 100.895C81.2957 100.897 81.3121 100.907 81.3233 100.921C81.3346 100.935 81.3398 100.953 81.3377 100.971L80.3409 109.761C80.339 109.778 80.3311 109.793 80.3187 109.804C80.3062 109.815 80.2901 109.822 80.2734 109.822ZM63.4094 105.809C63.3998 105.809 63.3904 105.807 63.3816 105.803C63.3729 105.799 63.365 105.793 63.3586 105.786C63.3522 105.779 63.3474 105.77 63.3445 105.761C63.3416 105.752 63.3407 105.742 63.3417 105.733L64.7048 93.6858C64.7058 93.6763 64.709 93.667 64.7139 93.6588C64.7188 93.6505 64.7254 93.6433 64.7333 93.6378C64.7412 93.6323 64.7501 93.6285 64.7596 93.6267C64.7691 93.6249 64.7788 93.6251 64.7882 93.6273L67.7622 94.336L68.2929 89.6462C68.2951 89.6283 68.3042 89.6121 68.3183 89.6008C68.3323 89.5896 68.3502 89.5844 68.3681 89.5862C68.386 89.5882 68.4024 89.5972 68.4137 89.6114C68.4249 89.6255 68.4301 89.6435 68.428 89.6614L67.8888 94.4275C67.8877 94.4371 67.8846 94.4463 67.8797 94.4546C67.8748 94.4629 67.8681 94.47 67.8603 94.4756C67.8524 94.4811 67.8434 94.4849 67.8339 94.4867C67.8245 94.4885 67.8147 94.4883 67.8054 94.486L64.8313 93.7774L63.4769 105.748C63.475 105.765 63.4671 105.78 63.4547 105.791C63.4422 105.802 63.4261 105.809 63.4094 105.809Z" fill="#111111"/>
<path d="M75.3386 54.0161L113.12 63.0177L98.9653 75.7629L61.1841 66.7613L75.3386 54.0161Z" fill="white"/>
<path d="M98.9651 75.8311C98.9598 75.8311 98.9545 75.8305 98.9494 75.8293L61.1681 66.8277C61.156 66.8249 61.1449 66.8188 61.1361 66.8101C61.1272 66.8014 61.1209 66.7904 61.1178 66.7784C61.1148 66.7663 61.1151 66.7537 61.1187 66.7418C61.1223 66.7299 61.1291 66.7192 61.1384 66.711L75.2929 53.9657C75.3011 53.9583 75.3109 53.953 75.3216 53.9503C75.3323 53.9476 75.3435 53.9475 75.3542 53.9501L113.135 62.9517C113.147 62.9545 113.159 62.9606 113.167 62.9693C113.176 62.978 113.183 62.989 113.186 63.001C113.189 63.0131 113.188 63.0257 113.185 63.0376C113.181 63.0495 113.174 63.0602 113.165 63.0684L99.0106 75.8137C98.9981 75.8249 98.9819 75.8312 98.9651 75.8312V75.8311ZM61.3257 66.7253L98.9462 75.6886L112.978 63.0539L75.3574 54.0907L61.3257 66.7253Z" fill="#111111"/>
<path d="M86.6052 59.9707L79.7458 60.4647L73.2041 66.3551L92.688 70.9972L101.099 63.4239L86.6052 59.9707Z" fill="#FF6F1E"/>
<path d="M92.6878 71.0654C92.6825 71.0654 92.6772 71.0648 92.672 71.0636L73.1881 66.4215C73.176 66.4186 73.165 66.4125 73.1561 66.4038C73.1472 66.3951 73.1409 66.3841 73.1378 66.3721C73.1348 66.3601 73.1351 66.3474 73.1387 66.3355C73.1423 66.3236 73.1491 66.313 73.1584 66.3047L79.7001 60.4144C79.7114 60.4043 79.7256 60.3982 79.7407 60.3971L86.6001 59.903C86.607 59.9025 86.614 59.903 86.6208 59.9047L101.114 63.3579C101.126 63.3607 101.137 63.3668 101.146 63.3755C101.155 63.3842 101.162 63.3952 101.165 63.4072C101.168 63.4193 101.167 63.4319 101.164 63.4438C101.16 63.4557 101.153 63.4663 101.144 63.4746L92.7333 71.0479C92.7208 71.0592 92.7046 71.0654 92.6878 71.0654ZM73.3458 66.3191L92.6688 70.9229L100.957 63.4602L86.5995 60.0395L79.7739 60.5311L73.3458 66.3191Z" fill="#111111"/>
<path d="M86.6049 59.9707L79.7456 60.4647L84.7359 61.6537L86.6049 59.9707Z" fill="#FFD3A8"/>
<path d="M84.7359 61.7219C84.7306 61.7219 84.7253 61.7213 84.7201 61.72L79.7298 60.5311C79.714 60.5273 79.7001 60.518 79.6905 60.5049C79.681 60.4917 79.6765 60.4756 79.6778 60.4594C79.6791 60.4432 79.6862 60.428 79.6977 60.4166C79.7092 60.4052 79.7245 60.3982 79.7407 60.397L86.6001 59.903C86.6142 59.902 86.6283 59.9054 86.6404 59.9128C86.6525 59.9202 86.662 59.9312 86.6675 59.9442C86.6731 59.9572 86.6744 59.9717 86.6714 59.9855C86.6683 59.9994 86.661 60.0119 86.6505 60.0214L84.7814 61.7043C84.7689 61.7156 84.7527 61.7218 84.7359 61.7218V61.7219ZM80.1908 60.5011L84.7169 61.5794L86.4121 60.053L80.1908 60.5011ZM93.8185 65.7014C93.8133 65.7014 93.808 65.7008 93.8026 65.6996L81.9519 62.876C81.943 62.8741 81.9347 62.8705 81.9273 62.8653C81.9198 62.8601 81.9136 62.8534 81.9087 62.8458C81.9039 62.8381 81.9007 62.8296 81.8992 62.8206C81.8977 62.8117 81.898 62.8026 81.9001 62.7938C81.9022 62.785 81.9061 62.7767 81.9114 62.7694C81.9168 62.7621 81.9235 62.7559 81.9313 62.7512C81.939 62.7466 81.9477 62.7435 81.9566 62.7422C81.9656 62.7409 81.9747 62.7414 81.9835 62.7437L93.8342 65.5673C93.8504 65.5711 93.8647 65.5808 93.8742 65.5945C93.8838 65.6081 93.888 65.6248 93.8861 65.6414C93.8841 65.658 93.8762 65.6732 93.8637 65.6843C93.8513 65.6954 93.8352 65.7015 93.8185 65.7015V65.7014ZM92.0666 67.2789C92.0614 67.2789 92.0561 67.2783 92.0508 67.277L80.2 64.4535C80.1912 64.4516 80.1828 64.448 80.1754 64.4428C80.168 64.4376 80.1617 64.4309 80.1569 64.4233C80.152 64.4156 80.1488 64.4071 80.1473 64.3981C80.1458 64.3892 80.1462 64.3801 80.1483 64.3713C80.1504 64.3625 80.1542 64.3542 80.1595 64.3469C80.1649 64.3396 80.1716 64.3334 80.1794 64.3287C80.1872 64.3241 80.1958 64.321 80.2047 64.3197C80.2137 64.3184 80.2228 64.3189 80.2316 64.3212L92.0823 67.1447C92.0986 67.1486 92.1128 67.1582 92.1224 67.1719C92.1319 67.1856 92.1361 67.2023 92.1342 67.2188C92.1323 67.2354 92.1243 67.2507 92.1118 67.2617C92.0994 67.2728 92.0833 67.2789 92.0666 67.2789ZM90.3147 68.8563C90.3095 68.8563 90.3042 68.8556 90.2989 68.8544L78.4481 66.0309C78.4393 66.029 78.4309 66.0253 78.4235 66.0201C78.4161 66.0149 78.4098 66.0083 78.405 66.0007C78.4002 65.993 78.3969 65.9844 78.3954 65.9755C78.394 65.9666 78.3943 65.9575 78.3964 65.9486C78.3985 65.9398 78.4023 65.9315 78.4077 65.9242C78.413 65.9169 78.4198 65.9108 78.4275 65.9061C78.4353 65.9015 78.4439 65.8984 78.4529 65.8971C78.4618 65.8958 78.4709 65.8963 78.4797 65.8986L90.3305 68.7221C90.3467 68.7259 90.3609 68.7356 90.3705 68.7493C90.38 68.7629 90.3843 68.7796 90.3823 68.7962C90.3804 68.8128 90.3724 68.828 90.36 68.8391C90.3475 68.8502 90.3314 68.8563 90.3147 68.8563V68.8563Z" fill="#111111"/>
</g>
<defs>
<clipPath id="clip0_2154_36702">
<rect width="145.249" height="112.562" fill="white" transform="translate(0.375977 0.71875)"/>
</clipPath>
</defs>
</svg>
