<svg width="250" height="250" viewBox="0 0 250 250" fill="none" xmlns="http://www.w3.org/2000/svg">
<g clip-path="url(#clip0_880_18352)">
<path d="M228.529 197.192L230.626 142.884C230.636 142.647 230.611 142.409 230.552 142.179L229.631 138.589C229.69 138.819 229.715 139.057 229.705 139.294L227.608 193.602C227.529 195.646 225.07 196.939 223.181 195.93L173.008 169.115C172.315 168.744 171.889 168.165 171.726 167.529L172.647 171.119C172.81 171.755 173.236 172.334 173.929 172.705L224.102 199.519C225.991 200.529 228.451 199.236 228.529 197.192Z" fill="#FF6F1E"/>
<path d="M224.953 199.948C224.638 199.891 224.331 199.785 224.042 199.63L173.87 172.816C173.184 172.449 172.706 171.858 172.524 171.15L171.603 167.56C171.595 167.527 171.6 167.493 171.617 167.464C171.634 167.435 171.662 167.414 171.695 167.406C171.728 167.398 171.762 167.403 171.791 167.42C171.82 167.437 171.841 167.465 171.849 167.498C172.013 168.136 172.446 168.671 173.068 169.003L223.241 195.818C224.127 196.291 225.197 196.266 226.104 195.75C226.933 195.278 227.447 194.473 227.481 193.597L229.578 139.289C229.587 139.065 229.564 138.841 229.509 138.623L229.508 138.62C229.5 138.587 229.505 138.553 229.522 138.524C229.539 138.495 229.567 138.474 229.6 138.466C229.616 138.462 229.633 138.461 229.649 138.463C229.666 138.466 229.682 138.471 229.696 138.48C229.71 138.488 229.723 138.5 229.733 138.513C229.743 138.526 229.75 138.541 229.754 138.557L230.675 142.147C230.737 142.389 230.763 142.639 230.753 142.889L228.656 197.197C228.619 198.161 228.056 199.044 227.151 199.559C226.463 199.951 225.687 200.081 224.953 199.948ZM172.123 168.565L172.77 171.087C172.934 171.726 173.367 172.261 173.99 172.593L224.162 199.408C225.048 199.881 226.118 199.856 227.025 199.34C227.854 198.868 228.369 198.063 228.402 197.187L230.499 142.879C230.508 142.654 230.485 142.428 230.429 142.209L229.812 139.804L227.735 193.607C227.698 194.571 227.135 195.454 226.23 195.97C225.247 196.529 224.085 196.556 223.121 196.041L172.949 169.226C172.624 169.052 172.345 168.828 172.123 168.565Z" fill="#111111"/>
<path d="M227.608 193.603C227.53 195.647 225.07 196.94 223.181 195.93L173.008 169.116C171.121 168.107 171.219 165.552 173.186 164.518L225.456 137.024C226.44 136.507 227.522 136.564 228.348 137.005C229.174 137.447 229.745 138.273 229.705 139.295L227.608 193.603L227.608 193.603Z" fill="white"/>
<path d="M224.031 196.358C223.717 196.301 223.41 196.196 223.121 196.041L172.949 169.227C172.054 168.748 171.521 167.885 171.523 166.916C171.525 165.871 172.125 164.932 173.127 164.405L225.396 136.912C226.357 136.406 227.483 136.399 228.408 136.894C229.339 137.391 229.871 138.291 229.832 139.299L227.735 193.607C227.698 194.572 227.135 195.455 226.23 195.97C225.542 196.361 224.766 196.492 224.032 196.359L224.031 196.358ZM227.458 136.827C226.813 136.71 226.128 136.813 225.515 137.135L173.246 164.629C172.328 165.111 171.779 165.967 171.777 166.917C171.775 167.791 172.258 168.571 173.068 169.004L223.241 195.818C224.126 196.292 225.197 196.266 226.104 195.75C226.933 195.279 227.447 194.474 227.481 193.597C227.515 192.721 229.578 139.289 229.578 139.289C229.613 138.379 229.131 137.567 228.288 137.116C228.028 136.977 227.748 136.88 227.458 136.827Z" fill="#111111"/>
<path d="M222.289 151.619L209.469 169.937L204.988 167.542L216.895 148.737L222.289 151.619Z" fill="#FF6F1E"/>
<path d="M209.446 170.061C209.434 170.058 209.421 170.054 209.409 170.048L204.928 167.653C204.913 167.645 204.899 167.634 204.888 167.62C204.878 167.606 204.87 167.591 204.865 167.574C204.861 167.557 204.86 167.54 204.862 167.522C204.865 167.505 204.871 167.489 204.881 167.474L216.787 148.669C216.805 148.642 216.831 148.622 216.862 148.614C216.893 148.606 216.927 148.61 216.955 148.625L222.349 151.508C222.364 151.516 222.378 151.528 222.389 151.542C222.4 151.556 222.408 151.572 222.412 151.59C222.416 151.607 222.417 151.625 222.413 151.643C222.41 151.66 222.403 151.677 222.393 151.691L209.573 170.009C209.559 170.029 209.54 170.044 209.517 170.053C209.495 170.062 209.47 170.065 209.446 170.061L209.446 170.061ZM205.168 167.494L209.429 169.772L222.103 151.663L216.94 148.904L205.168 167.494Z" fill="#111111"/>
<path d="M206.476 174.326L203.672 178.543L199.191 176.149L201.995 171.931L206.476 174.326Z" fill="#FF6F1E"/>
<path d="M203.65 178.669C203.637 178.666 203.624 178.662 203.612 178.656L199.131 176.261C199.116 176.253 199.102 176.241 199.091 176.227C199.08 176.213 199.072 176.197 199.068 176.18C199.064 176.163 199.063 176.145 199.066 176.128C199.069 176.111 199.076 176.094 199.085 176.08L201.888 171.862C201.906 171.835 201.933 171.816 201.963 171.809C201.994 171.801 202.026 171.805 202.054 171.82L206.535 174.215C206.551 174.223 206.565 174.235 206.575 174.249C206.586 174.263 206.594 174.279 206.599 174.296C206.603 174.313 206.604 174.33 206.601 174.348C206.598 174.365 206.591 174.382 206.581 174.396L203.778 178.614C203.764 178.635 203.745 178.651 203.722 178.661C203.699 178.67 203.674 178.673 203.65 178.669ZM199.374 176.104L203.63 178.378L206.293 174.372L202.037 172.097L199.374 176.104Z" fill="#111111"/>
</g>
<g clip-path="url(#clip1_880_18352)">
<path d="M211.815 86.216L209.497 84.1699C211.569 85.9984 212.442 89.0562 211.508 92.2732L184.934 183.769C183.567 188.473 178.85 191.742 174.39 191.065L48.2672 171.927C46.9401 171.738 45.6964 171.167 44.687 170.285L47.0051 172.331C48.0145 173.213 49.2582 173.784 50.5853 173.973L176.709 193.111C181.168 193.788 185.886 190.519 187.252 185.815L213.826 94.3192C214.761 91.1023 213.887 88.0444 211.815 86.216Z" fill="url(#paint0_linear_880_18352)"/>
<path d="M177.886 193.299C177.487 193.299 177.088 193.27 176.694 193.21L50.5704 174.072C49.2249 173.877 47.964 173.299 46.9389 172.406L44.6208 170.36C44.6109 170.351 44.6028 170.34 44.597 170.329C44.5912 170.317 44.5878 170.304 44.587 170.291C44.5862 170.278 44.5879 170.264 44.5922 170.252C44.5965 170.239 44.6032 170.228 44.6119 170.218C44.6206 170.208 44.6312 170.2 44.643 170.194C44.6549 170.189 44.6677 170.185 44.6809 170.184C44.694 170.183 44.7072 170.185 44.7197 170.19C44.7321 170.194 44.7436 170.2 44.7535 170.209C45.7498 171.077 46.9751 171.639 48.2824 171.827L174.406 190.966C178.807 191.633 183.487 188.392 184.838 183.74L211.412 92.2446C212.303 89.1755 211.544 86.11 209.43 84.2447C209.42 84.2361 209.412 84.2255 209.406 84.2136C209.399 84.2017 209.396 84.1886 209.395 84.1753C209.394 84.1619 209.395 84.1485 209.4 84.1358C209.404 84.1232 209.411 84.1114 209.42 84.1014C209.428 84.0914 209.439 84.0832 209.451 84.0774C209.463 84.0715 209.476 84.0682 209.49 84.0675C209.503 84.0668 209.516 84.0688 209.529 84.0734C209.542 84.078 209.553 84.085 209.563 84.0941L211.881 86.14C214.054 88.0575 214.836 91.2019 213.923 94.3466L187.349 185.842C186.092 190.169 182.006 193.299 177.886 193.299ZM45.9777 171.29L47.0715 172.255C48.0678 173.123 49.2931 173.685 50.6004 173.873L176.724 193.011C181.124 193.679 185.805 190.438 187.156 185.786L213.73 94.2909C214.621 91.2216 213.862 88.1562 211.748 86.2909L210.664 85.3338C211.974 87.2264 212.341 89.7636 211.604 92.3009L185.03 183.797C183.773 188.123 179.687 191.253 175.567 191.254C175.168 191.254 174.77 191.224 174.375 191.164L48.2521 172.025C47.4587 171.907 46.6902 171.659 45.9777 171.29Z" fill="#111111"/>
<path d="M205.914 82.5279C210.373 83.2046 212.874 87.5687 211.508 92.2732L184.934 183.769C183.567 188.473 178.85 191.742 174.39 191.065L48.2671 171.927C43.8124 171.251 41.3068 166.886 42.6733 162.182L69.2472 70.6859C70.6136 65.9812 75.3356 62.7133 79.7912 63.3893L205.914 82.5279Z" fill="#FFD3A8"/>
<path d="M175.567 191.254C175.168 191.254 174.77 191.224 174.375 191.165L48.2521 172.026C46.1943 171.714 44.4621 170.605 43.3751 168.903C42.1699 167.017 41.8789 164.557 42.577 162.154L69.1509 70.6582C70.5289 65.9131 75.3093 62.6084 79.8058 63.2903L205.929 82.4288C207.988 82.7414 209.721 83.8502 210.807 85.551C212.012 87.4364 212.303 89.8969 211.604 92.3013L185.03 183.797C183.773 188.124 179.687 191.254 175.567 191.254ZM78.6113 63.4015C74.5773 63.4015 70.5761 66.4707 69.3437 70.714L42.7697 162.21C42.0878 164.557 42.37 166.958 43.5439 168.795C44.5996 170.447 46.2825 171.524 48.2822 171.828L174.405 190.966C178.806 191.634 183.486 188.393 184.838 183.741L211.411 92.2456C212.094 89.8964 211.812 87.4961 210.639 85.6593C209.584 84.0078 207.9 82.931 205.899 82.6275L79.7758 63.4889C79.3904 63.4305 79.0011 63.4013 78.6113 63.4015Z" fill="#111111"/>
<path d="M201.958 86.7022L81.088 68.3608C77.7765 67.8583 74.2702 70.285 73.2546 73.7819L48.0658 160.509C47.0501 164.006 48.9088 167.252 52.2203 167.754L173.09 186.096C176.402 186.598 179.91 184.167 180.925 180.67L206.114 93.9433C207.13 90.4458 205.269 87.2047 201.958 86.7022Z" fill="#FFF7E6"/>
<path d="M173.964 186.261C173.666 186.261 173.369 186.239 173.075 186.195L52.2054 167.853C51.4664 167.751 50.7583 167.49 50.1299 167.087C49.5016 166.685 48.9678 166.151 48.5654 165.522C47.6653 164.114 47.448 162.276 47.9695 160.48L73.1581 73.7543C74.1855 70.2169 77.7495 67.7531 81.1029 68.2619L201.973 86.6033C202.712 86.7056 203.421 86.967 204.05 87.3695C204.679 87.7721 205.213 88.3061 205.616 88.935C206.515 90.3419 206.731 92.1776 206.211 93.9711L181.022 180.698C180.084 183.926 177.036 186.261 173.964 186.261ZM80.2113 68.3959C77.2256 68.3959 74.2634 70.6685 73.3511 73.8103L48.1622 160.536C47.657 162.276 47.8655 164.054 48.7342 165.414C49.1213 166.018 49.6348 166.532 50.2392 166.919C50.8435 167.305 51.5245 167.557 52.2352 167.655L173.105 185.996C176.361 186.491 179.828 184.089 180.829 180.641L206.018 93.9152C206.522 92.1772 206.314 90.4015 205.446 89.0432C205.059 88.4386 204.545 87.9251 203.94 87.5382C203.335 87.1513 202.654 86.9001 201.943 86.8019L81.073 68.4605C80.7878 68.4174 80.4998 68.3957 80.2113 68.3959ZM58.618 115.737C58.0652 115.653 57.4801 116.054 57.3107 116.637C57.1412 117.221 57.4522 117.763 58.0051 117.847C58.5531 117.93 59.139 117.524 59.309 116.94C59.479 116.356 59.166 115.82 58.618 115.737Z" fill="#111111"/>
<path d="M58.1486 117.958C58.0956 117.958 58.0426 117.954 57.9901 117.946C57.8548 117.927 57.7251 117.879 57.6101 117.805C57.4951 117.732 57.3975 117.634 57.3239 117.519C57.242 117.383 57.1899 117.232 57.1711 117.076C57.1522 116.919 57.1669 116.76 57.2144 116.609C57.3965 115.982 58.033 115.546 58.6331 115.637C58.7679 115.656 58.897 115.704 59.0116 115.777C59.1261 115.851 59.2234 115.948 59.2966 116.063C59.3781 116.197 59.4299 116.348 59.4486 116.504C59.4674 116.66 59.4527 116.818 59.4054 116.968C59.2386 117.542 58.696 117.958 58.1486 117.958ZM58.4698 115.826C58.0074 115.826 57.5485 116.178 57.4071 116.665C57.3677 116.788 57.355 116.919 57.3699 117.047C57.3848 117.176 57.4269 117.3 57.4934 117.411C57.5518 117.502 57.6291 117.579 57.7201 117.637C57.8112 117.695 57.9137 117.733 58.0207 117.748C58.5224 117.824 59.0574 117.449 59.2133 116.913C59.2525 116.79 59.2652 116.661 59.2505 116.533C59.2358 116.405 59.1941 116.282 59.1281 116.171C59.07 116.081 58.9931 116.004 58.9026 115.946C58.812 115.888 58.71 115.851 58.6035 115.836C58.5593 115.829 58.5145 115.826 58.4698 115.826Z" fill="#111111"/>
</g>
<g clip-path="url(#clip2_880_18352)">
<path d="M108.964 94.2378L87.5129 90.9834L86.5536 94.2858L108.005 97.5402L108.964 94.2378Z" fill="#FF6F1E"/>
<path d="M108.005 97.6407C108 97.6407 107.995 97.6404 107.99 97.6396L86.5384 94.3852C86.5243 94.383 86.5109 94.3779 86.4989 94.3701C86.487 94.3623 86.4769 94.3521 86.4692 94.3401C86.4615 94.3281 86.4565 94.3146 86.4544 94.3005C86.4524 94.2864 86.4533 94.272 86.4573 94.2584L87.4167 90.956C87.4234 90.9327 87.4384 90.9126 87.4588 90.8995C87.4793 90.8865 87.5038 90.8813 87.5277 90.8849L108.979 94.1394C108.993 94.1415 109.007 94.1467 109.019 94.1544C109.031 94.1622 109.041 94.1724 109.048 94.1844C109.056 94.1964 109.061 94.2099 109.063 94.224C109.065 94.2381 109.064 94.2525 109.06 94.2662L108.101 97.5685C108.095 97.5893 108.082 97.6076 108.065 97.6206C108.048 97.6337 108.027 97.6407 108.005 97.6407ZM86.6814 94.2044L107.933 97.4285L108.836 94.32L87.5844 91.0959L86.6814 94.2044Z" fill="#111111"/>
<path d="M117.686 137.538L75.8331 131.188L74.8752 134.486L116.728 140.836L117.686 137.538Z" fill="#FF6F1E"/>
<path d="M116.728 140.936C116.723 140.936 116.718 140.936 116.713 140.935L74.8601 134.585C74.846 134.583 74.8325 134.578 74.8206 134.57C74.8087 134.563 74.7985 134.552 74.7908 134.54C74.7832 134.528 74.7781 134.515 74.7761 134.501C74.774 134.487 74.775 134.472 74.7789 134.459L75.7369 131.161C75.7437 131.138 75.7587 131.118 75.7791 131.105C75.7995 131.092 75.824 131.086 75.848 131.09L117.701 137.44C117.715 137.442 117.728 137.447 117.74 137.455C117.752 137.462 117.762 137.473 117.77 137.485C117.778 137.497 117.783 137.51 117.785 137.524C117.787 137.538 117.786 137.553 117.782 137.566L116.824 140.864C116.818 140.885 116.805 140.903 116.788 140.916C116.771 140.929 116.75 140.936 116.728 140.936ZM75.0031 134.405L116.656 140.724L117.558 137.62L75.9046 131.301L75.0031 134.405Z" fill="#111111"/>
<path d="M125.791 107.285L97.0853 102.93L96.126 106.232L124.832 110.587L125.791 107.285Z" fill="#FF6F1E"/>
<path d="M124.832 110.688C124.827 110.688 124.822 110.687 124.816 110.686L96.1108 106.331C96.0967 106.329 96.0833 106.324 96.0713 106.316C96.0594 106.309 96.0493 106.298 96.0416 106.286C96.0339 106.274 96.0289 106.261 96.0268 106.247C96.0248 106.233 96.0257 106.218 96.0297 106.205L96.989 102.902C96.9957 102.879 97.0107 102.859 97.0311 102.846C97.0516 102.833 97.076 102.828 97.1 102.831L125.806 107.186C125.82 107.188 125.833 107.194 125.845 107.201C125.857 107.209 125.867 107.219 125.875 107.231C125.883 107.243 125.888 107.257 125.89 107.271C125.892 107.285 125.891 107.299 125.887 107.313L124.927 110.615C124.921 110.636 124.909 110.654 124.891 110.667C124.874 110.68 124.853 110.688 124.832 110.688ZM96.2538 106.151L124.76 110.475L125.663 107.367L97.1568 103.042L96.2538 106.151Z" fill="#111111"/>
<path d="M105.312 146.155L85.4055 143.135L84.4476 146.432L104.354 149.452L105.312 146.155Z" fill="#FFD3A8"/>
<path d="M104.354 149.553C104.349 149.553 104.344 149.553 104.339 149.552L84.4326 146.532C84.4185 146.53 84.405 146.524 84.3931 146.517C84.3812 146.509 84.371 146.499 84.3634 146.487C84.3557 146.475 84.3506 146.461 84.3486 146.447C84.3465 146.433 84.3475 146.419 84.3514 146.405L85.3094 143.107C85.3162 143.084 85.3312 143.064 85.3516 143.051C85.372 143.038 85.3965 143.033 85.4205 143.036L105.327 146.056C105.341 146.058 105.354 146.064 105.366 146.071C105.378 146.079 105.388 146.089 105.396 146.101C105.404 146.113 105.409 146.127 105.411 146.141C105.413 146.155 105.412 146.169 105.408 146.183L104.45 149.481C104.444 149.501 104.431 149.52 104.414 149.533C104.397 149.546 104.376 149.553 104.354 149.553ZM84.5755 146.351L104.282 149.341L105.184 146.237L85.4771 143.247L84.5755 146.351Z" fill="#111111"/>
<path d="M109.505 157.286L82.4856 153.187L81.5277 156.484L108.547 160.583L109.505 157.286Z" fill="#FFD3A8"/>
<path d="M108.547 160.683C108.542 160.683 108.537 160.682 108.532 160.682L81.5125 156.583C81.4985 156.58 81.485 156.575 81.4731 156.567C81.4611 156.56 81.451 156.549 81.4433 156.537C81.4356 156.525 81.4306 156.512 81.4285 156.498C81.4265 156.484 81.4275 156.469 81.4314 156.456L82.3894 153.158C82.3961 153.135 82.411 153.115 82.4315 153.102C82.4519 153.089 82.4765 153.083 82.5005 153.087L109.52 157.186C109.534 157.188 109.547 157.194 109.559 157.201C109.571 157.209 109.581 157.219 109.589 157.231C109.597 157.243 109.602 157.257 109.604 157.271C109.606 157.285 109.605 157.299 109.601 157.313L108.643 160.611C108.637 160.631 108.624 160.65 108.607 160.663C108.59 160.676 108.569 160.683 108.547 160.683ZM81.6555 156.402L108.475 160.471L109.377 157.367L82.5572 153.298L81.6555 156.402Z" fill="#111111"/>
<path d="M129.405 118.328L94.1654 112.981L93.2061 116.284L128.445 121.63L129.405 118.328Z" fill="#FFD3A8"/>
<path d="M128.445 121.731C128.44 121.731 128.435 121.73 128.43 121.729L93.1909 116.383C93.1768 116.381 93.1634 116.376 93.1514 116.368C93.1395 116.36 93.1293 116.35 93.1217 116.338C93.114 116.326 93.1089 116.313 93.1069 116.299C93.1048 116.285 93.1058 116.27 93.1097 116.256L94.0691 112.954C94.0759 112.931 94.0909 112.911 94.1113 112.898C94.1317 112.885 94.1562 112.879 94.1802 112.883L129.419 118.229C129.433 118.231 129.447 118.236 129.459 118.244C129.471 118.252 129.481 118.262 129.489 118.274C129.496 118.286 129.501 118.3 129.503 118.314C129.505 118.328 129.504 118.342 129.501 118.356L128.541 121.658C128.535 121.679 128.523 121.697 128.505 121.71C128.488 121.723 128.467 121.73 128.445 121.731ZM93.3339 116.202L128.374 121.518L129.277 118.41L94.2368 113.094L93.3339 116.202Z" fill="#111111"/>
<path d="M154.219 122.092L133.31 118.92L132.35 122.222L153.26 125.395L154.219 122.092Z" fill="#FF6F1E"/>
<path d="M153.26 125.495C153.255 125.495 153.25 125.495 153.245 125.494L132.335 122.322C132.321 122.32 132.308 122.314 132.296 122.307C132.284 122.299 132.274 122.289 132.266 122.277C132.258 122.265 132.253 122.251 132.251 122.237C132.249 122.223 132.25 122.209 132.254 122.195L133.213 118.893C133.22 118.869 133.235 118.849 133.255 118.836C133.276 118.823 133.3 118.818 133.324 118.821L154.234 121.994C154.248 121.996 154.262 122.001 154.274 122.009C154.286 122.017 154.296 122.027 154.303 122.039C154.311 122.051 154.316 122.064 154.318 122.078C154.32 122.092 154.319 122.107 154.315 122.121L153.356 125.423C153.35 125.444 153.337 125.462 153.32 125.475C153.303 125.488 153.282 125.495 153.26 125.495ZM132.478 122.141L153.188 125.283L154.091 122.174L133.381 119.032L132.478 122.141Z" fill="#111111"/>
<path d="M116.418 126.851L91.2454 123.032L90.2861 126.335L115.459 130.154L116.418 126.851Z" fill="#FFD3A8"/>
<path d="M115.459 130.254C115.454 130.254 115.449 130.254 115.444 130.253L90.2711 126.434C90.257 126.432 90.2436 126.427 90.2316 126.419C90.2197 126.411 90.2095 126.401 90.2019 126.389C90.1942 126.377 90.1891 126.364 90.1871 126.349C90.185 126.335 90.186 126.321 90.1899 126.307L91.1492 123.005C91.156 122.982 91.171 122.961 91.1914 122.948C91.2118 122.935 91.2363 122.93 91.2603 122.934L116.433 126.753C116.447 126.755 116.461 126.76 116.472 126.768C116.484 126.776 116.495 126.786 116.502 126.798C116.51 126.81 116.515 126.823 116.517 126.837C116.519 126.851 116.518 126.866 116.514 126.88L115.555 130.182C115.549 130.203 115.536 130.221 115.519 130.234C115.502 130.247 115.481 130.254 115.459 130.254ZM90.4141 126.253L115.387 130.042L116.29 126.933L91.317 123.145L90.4141 126.253Z" fill="#111111"/>
<path d="M63.972 129.389C63.11 129.258 62.1944 129.888 61.9286 130.803C61.6642 131.713 62.1521 132.556 63.0141 132.687C63.8762 132.817 64.7921 132.188 65.0564 131.278C65.3222 130.363 64.834 129.52 63.972 129.389Z" fill="#FF6F1E"/>
<path d="M63.2418 132.804C63.1608 132.804 63.0798 132.798 62.9992 132.786C62.5762 132.722 62.2201 132.494 61.9964 132.144C61.7512 131.76 61.6916 131.261 61.8325 130.776C62.1106 129.819 63.0772 129.152 63.9871 129.291C64.4098 129.355 64.7656 129.583 64.9891 129.932C65.2349 130.317 65.2944 130.818 65.1525 131.306C64.8999 132.176 64.075 132.804 63.2418 132.804ZM63.7423 129.472C62.9955 129.472 62.2537 130.043 62.0247 130.831C61.8996 131.262 61.9508 131.701 62.165 132.036C62.3571 132.337 62.6641 132.533 63.0291 132.588C63.8442 132.711 64.71 132.111 64.9602 131.25C65.086 130.817 65.0351 130.376 64.8203 130.04C64.6284 129.74 64.3218 129.544 63.957 129.488C63.8859 129.478 63.8142 129.472 63.7423 129.472Z" fill="#111111"/>
<path d="M72.7319 99.2358C71.8698 99.105 70.9529 99.7395 70.6885 100.65C70.424 101.56 70.9105 102.408 71.7726 102.538C72.6346 102.669 73.5519 102.035 73.8164 101.124C74.0806 100.214 73.5938 99.3666 72.7319 99.2358Z" fill="#FF6F1E"/>
<path d="M71.9995 102.655C71.9187 102.655 71.8379 102.649 71.7574 102.637C71.336 102.573 70.9807 102.345 70.7571 101.995C70.5107 101.609 70.4506 101.109 70.5922 100.621C70.8702 99.6643 71.8368 98.9981 72.7467 99.1363C73.1683 99.2003 73.5236 99.4282 73.7473 99.7782C73.9936 100.164 74.0538 100.664 73.9123 101.152C73.6589 102.024 72.8331 102.655 71.9995 102.655ZM72.5021 99.3183C71.7552 99.3183 71.0136 99.8888 70.7844 100.677C70.6589 101.109 70.7104 101.55 70.9257 101.887C71.1177 102.188 71.4238 102.384 71.7873 102.439C72.6018 102.563 73.469 101.96 73.7199 101.096C73.8454 100.664 73.7939 100.223 73.5786 99.8862C73.3864 99.5856 73.0803 99.3896 72.7166 99.3344C72.6456 99.3236 72.5739 99.3182 72.5021 99.3183Z" fill="#111111"/>
<path d="M66.892 119.338C66.0299 119.208 65.1129 119.842 64.8485 120.752C64.5841 121.663 65.0706 122.51 65.9327 122.641C66.7947 122.772 67.712 122.137 67.9764 121.227C68.2406 120.317 67.7539 119.469 66.892 119.338Z" fill="#FF6F1E"/>
<path d="M66.1596 122.757C66.0789 122.757 65.998 122.752 65.9177 122.739C65.4962 122.675 65.141 122.447 64.9174 122.097C64.671 121.712 64.6109 121.211 64.7525 120.724C65.0305 119.767 65.997 119.101 66.9071 119.239C67.3286 119.303 67.6838 119.531 67.9075 119.881C68.154 120.267 68.2141 120.767 68.0725 121.255C67.819 122.127 66.9932 122.757 66.1596 122.757ZM66.6623 119.421C65.9154 119.421 65.1736 119.991 64.9446 120.78C64.8191 121.212 64.8706 121.653 65.086 121.99C65.2781 122.29 65.5841 122.486 65.9477 122.541C66.7619 122.665 67.6293 122.063 67.8802 121.199C68.0057 120.767 67.9542 120.326 67.7387 119.989C67.5466 119.688 67.2405 119.492 66.877 119.437C66.8056 119.426 66.7339 119.421 66.6623 119.421ZM59.5002 168.8C59.4846 168.8 59.4693 168.796 59.4554 168.79C59.4415 168.783 59.4294 168.773 59.4201 168.76C59.4108 168.748 59.4044 168.733 59.4017 168.718C59.3989 168.703 59.3997 168.687 59.404 168.672L84.4079 82.6013C84.4161 82.5769 84.4335 82.5566 84.4564 82.5446C84.4793 82.5326 84.5059 82.53 84.5307 82.5372C84.5555 82.5444 84.5765 82.5608 84.5895 82.5832C84.6024 82.6055 84.6062 82.632 84.6001 82.6571L59.5962 168.728C59.5902 168.749 59.5775 168.767 59.5602 168.78C59.5429 168.793 59.5218 168.8 59.5002 168.8Z" fill="#111111"/>
<path d="M203.6 100.809C203.595 100.809 203.59 100.809 203.585 100.808L71.1071 80.7098C71.0808 80.7059 71.0572 80.6916 71.0415 80.6702C71.0257 80.6489 71.0191 80.6221 71.0231 80.5958C71.0271 80.5696 71.0413 80.546 71.0627 80.5302C71.0841 80.5145 71.1108 80.5079 71.1371 80.5119L203.615 100.61C203.64 100.614 203.663 100.627 203.678 100.647C203.694 100.667 203.702 100.691 203.7 100.717C203.698 100.742 203.687 100.765 203.668 100.783C203.65 100.8 203.625 100.809 203.6 100.809Z" fill="#111111"/>
<path d="M149.479 100.385L116.643 95.4033L115.683 98.7057L148.52 103.687L149.479 100.385Z" fill="#FFD3A8"/>
<path d="M148.52 103.787C148.515 103.787 148.51 103.787 148.505 103.786L115.668 98.8041C115.654 98.802 115.641 98.7968 115.629 98.7891C115.617 98.7813 115.607 98.7711 115.599 98.7591C115.591 98.7471 115.586 98.7336 115.584 98.7195C115.582 98.7054 115.583 98.691 115.587 98.6773L116.547 95.375C116.561 95.3268 116.609 95.2963 116.658 95.3039L149.494 100.286C149.508 100.288 149.522 100.293 149.534 100.301C149.546 100.308 149.556 100.319 149.564 100.331C149.571 100.343 149.576 100.356 149.578 100.37C149.58 100.384 149.579 100.399 149.576 100.412L148.616 103.715C148.61 103.736 148.598 103.754 148.58 103.767C148.563 103.78 148.542 103.787 148.52 103.787ZM115.811 98.6234L148.448 103.575L149.352 100.466L116.714 95.5149L115.811 98.6234Z" fill="#111111"/>
<path d="M171.741 103.762L153.389 100.978L152.43 104.28L170.782 107.064L171.741 103.762Z" fill="#FFD3A8"/>
<path d="M170.782 107.165C170.777 107.165 170.772 107.164 170.767 107.164L152.415 104.379C152.401 104.377 152.387 104.372 152.375 104.364C152.363 104.357 152.353 104.346 152.346 104.334C152.338 104.322 152.333 104.309 152.331 104.295C152.329 104.281 152.33 104.266 152.334 104.253L153.293 100.95C153.307 100.902 153.355 100.871 153.404 100.879L171.756 103.663C171.77 103.666 171.784 103.671 171.796 103.678C171.808 103.686 171.818 103.696 171.825 103.708C171.833 103.72 171.838 103.734 171.84 103.748C171.842 103.762 171.841 103.777 171.837 103.79L170.878 107.093C170.872 107.113 170.859 107.132 170.842 107.145C170.825 107.158 170.804 107.165 170.782 107.165ZM152.558 104.199L170.71 106.953L171.613 103.844L153.461 101.09L152.558 104.199Z" fill="#111111"/>
<path d="M148.902 142.274L127.258 138.99L126.3 142.288L147.944 145.571L148.902 142.274Z" fill="#FFD3A8"/>
<path d="M147.944 145.672C147.939 145.672 147.934 145.672 147.929 145.671L126.285 142.387C126.27 142.385 126.257 142.38 126.245 142.372C126.233 142.364 126.223 142.354 126.215 142.342C126.208 142.33 126.203 142.317 126.201 142.302C126.198 142.288 126.199 142.274 126.203 142.26L127.161 138.963C127.175 138.915 127.223 138.884 127.272 138.892L148.917 142.175C148.931 142.178 148.945 142.183 148.957 142.191C148.969 142.198 148.979 142.209 148.986 142.221C148.994 142.233 148.999 142.246 149.001 142.26C149.003 142.274 149.002 142.289 148.998 142.302L148.04 145.6C148.034 145.621 148.022 145.639 148.004 145.652C147.987 145.665 147.966 145.672 147.944 145.672ZM126.428 142.206L147.873 145.46L148.774 142.356L127.329 139.103L126.428 142.206Z" fill="#111111"/>
<path d="M196.706 94.3836C196.458 94.3459 196.228 94.2379 196.043 94.0567C195.516 93.5353 195.576 92.5995 196.176 91.9738C196.568 91.5621 197.096 91.3835 197.563 91.4543C197.81 91.4919 198.041 91.5998 198.224 91.7808C198.754 92.3078 198.695 93.2386 198.095 93.8643C197.7 94.2757 197.173 94.4543 196.706 94.3836ZM198.074 88.7256L196.714 88.8515L196.659 89.7675C196.277 89.8811 195.903 90.0684 195.554 90.3216L194.958 89.7328L193.935 90.7978L194.532 91.3868C194.301 91.7363 194.126 92.1199 194.014 92.5235L193.115 92.6051L193.03 93.9838L193.929 93.9022C193.986 94.2794 194.114 94.6363 194.306 94.9564L193.629 95.6636L194.526 96.5527L195.204 95.8453C195.504 96.0211 195.832 96.1339 196.173 96.1857C196.2 96.1897 196.226 96.1934 196.252 96.1966L196.196 97.1178L197.551 96.9909L197.611 96.0755C197.994 95.9571 198.368 95.7699 198.716 95.5215L199.312 96.1103L200.33 95.0445L199.738 94.4561C199.977 94.0925 200.149 93.7034 200.251 93.3188L201.151 93.2323L201.237 91.8537L200.338 91.9354C200.286 91.5617 200.158 91.2027 199.961 90.8811L200.638 90.174L199.739 89.2899L199.063 89.9922C198.767 89.8169 198.439 89.7044 198.094 89.6519C198.068 89.6479 198.041 89.6442 198.014 89.6409L198.074 88.7256Z" fill="#FF6F1E"/>
<path d="M196.196 97.218C196.183 97.218 196.169 97.2152 196.157 97.2098C196.144 97.2044 196.133 97.1965 196.123 97.1865C196.114 97.1766 196.107 97.1648 196.102 97.152C196.097 97.1391 196.096 97.1255 196.096 97.1118L196.147 96.2832C195.823 96.2336 195.51 96.1279 195.222 95.9709L194.598 96.6221C194.589 96.6317 194.578 96.6394 194.566 96.6447C194.554 96.6499 194.541 96.6527 194.527 96.6529C194.514 96.6531 194.501 96.6506 194.488 96.6456C194.476 96.6407 194.465 96.6333 194.456 96.6239L193.558 95.7348C193.54 95.7164 193.529 95.6913 193.529 95.6651C193.528 95.6388 193.538 95.6135 193.556 95.5945L194.182 94.9419C194.018 94.6524 193.905 94.3375 193.846 94.0104L193.039 94.0837C193.024 94.0849 193.01 94.083 192.996 94.0782C192.983 94.0734 192.97 94.0657 192.96 94.0558C192.95 94.0457 192.942 94.0335 192.936 94.0201C192.931 94.0066 192.929 93.9922 192.93 93.9778L193.016 92.5991C193.017 92.5752 193.027 92.5527 193.044 92.5355C193.06 92.5184 193.083 92.5078 193.106 92.5056L193.937 92.4303C194.045 92.0674 194.201 91.7211 194.404 91.4012L193.865 90.8693C193.847 90.8508 193.836 90.8257 193.835 90.7994C193.835 90.7731 193.845 90.7478 193.863 90.7288L194.886 89.6638C194.895 89.6543 194.906 89.6466 194.918 89.6413C194.93 89.6361 194.944 89.6333 194.957 89.6331C194.984 89.634 195.009 89.6432 195.028 89.662L195.565 90.1917C195.883 89.9709 196.218 89.8033 196.564 89.6927L196.614 88.846C196.616 88.8221 196.626 88.7995 196.642 88.7823C196.659 88.7651 196.681 88.7545 196.705 88.7523L198.064 88.6264C198.079 88.6251 198.093 88.6269 198.107 88.6318C198.121 88.6366 198.133 88.6443 198.143 88.6544C198.154 88.6645 198.162 88.6767 198.167 88.6902C198.172 88.7037 198.175 88.7181 198.174 88.7326L198.12 89.5551C198.453 89.6069 198.764 89.7117 199.045 89.8671L199.667 89.221C199.686 89.2017 199.711 89.1907 199.738 89.1903C199.751 89.1899 199.765 89.1923 199.777 89.1972C199.789 89.2021 199.8 89.2096 199.81 89.2191L200.708 90.1031C200.727 90.1215 200.738 90.1466 200.738 90.173C200.739 90.1993 200.729 90.2247 200.711 90.2437L200.086 90.8958C200.252 91.1842 200.366 91.4997 200.422 91.8278L201.228 91.7546C201.243 91.7533 201.257 91.7551 201.271 91.7599C201.284 91.7647 201.297 91.7724 201.307 91.7825C201.317 91.7926 201.325 91.8047 201.331 91.8182C201.336 91.8317 201.338 91.8461 201.337 91.8605L201.251 93.2391C201.25 93.2629 201.24 93.2853 201.223 93.3025C201.207 93.3196 201.185 93.3303 201.161 93.3326L200.329 93.4125C200.228 93.766 200.069 94.1193 199.866 94.4427L200.4 94.9741C200.419 94.9926 200.43 95.0176 200.43 95.0438C200.43 95.07 200.42 95.0953 200.402 95.1142L199.385 96.1799C199.375 96.1895 199.364 96.1972 199.352 96.2025C199.34 96.2078 199.327 96.2106 199.314 96.2108C199.3 96.211 199.287 96.2086 199.275 96.2036C199.263 96.1986 199.251 96.1912 199.242 96.1819L198.705 95.6518C198.389 95.8688 198.053 96.0364 197.706 96.1506L197.651 96.9977C197.648 97.0468 197.61 97.0863 197.561 97.0909L196.206 97.2178L196.196 97.218ZM195.204 95.7454C195.221 95.7454 195.238 95.7499 195.254 95.7591C195.542 95.9268 195.859 96.0381 196.188 96.087C196.214 96.0909 196.239 96.0944 196.264 96.0974C196.29 96.1005 196.313 96.1131 196.329 96.1327C196.346 96.1523 196.354 96.1774 196.352 96.2029L196.303 97.0075L197.457 96.8994L197.511 96.0693C197.513 96.0279 197.541 95.9924 197.581 95.9801C197.956 95.8643 198.318 95.6827 198.657 95.4403C198.677 95.4266 198.7 95.4201 198.724 95.4219C198.747 95.4238 198.769 95.4339 198.786 95.4505L199.31 95.9677L200.189 95.0465L199.667 94.5273C199.651 94.511 199.641 94.4896 199.639 94.4666C199.636 94.4437 199.642 94.4206 199.654 94.4014C199.88 94.0572 200.053 93.674 200.154 93.2934C200.159 93.2736 200.17 93.2559 200.186 93.2426C200.201 93.2294 200.221 93.2213 200.241 93.2193L201.056 93.1409L201.13 91.964L200.347 92.0351C200.321 92.0374 200.296 92.0297 200.276 92.0138C200.256 91.9978 200.242 91.9748 200.239 91.9494C200.189 91.5892 200.065 91.2433 199.875 90.9335C199.864 90.9147 199.859 90.8925 199.861 90.8705C199.863 90.8485 199.873 90.8279 199.888 90.8119L200.497 90.1761L199.741 89.4322L199.135 90.0617C199.119 90.078 199.099 90.0884 199.076 90.0915C199.054 90.0945 199.031 90.0899 199.012 90.0785C198.732 89.9126 198.418 89.8025 198.079 89.7511C198.053 89.7471 198.028 89.7436 198.002 89.7405C197.977 89.7374 197.953 89.7247 197.937 89.705C197.921 89.6853 197.913 89.6601 197.914 89.6346L197.966 88.8363L196.809 88.9434L196.759 89.7737C196.758 89.7942 196.75 89.8139 196.738 89.8299C196.725 89.846 196.708 89.8578 196.688 89.8637C196.315 89.9746 195.953 90.156 195.613 90.4028C195.594 90.4167 195.57 90.4234 195.546 90.4216C195.523 90.4198 195.501 90.4097 195.484 90.393L194.96 89.8756L194.076 90.7962L194.602 91.316C194.636 91.3495 194.641 91.4025 194.615 91.4424C194.39 91.7831 194.22 92.1571 194.111 92.5506C194.105 92.5701 194.094 92.5876 194.078 92.6006C194.063 92.6136 194.044 92.6216 194.023 92.6234L193.21 92.6973L193.137 93.8738L193.92 93.8027C193.972 93.7987 194.02 93.8349 194.028 93.8872C194.084 94.2534 194.206 94.5959 194.392 94.9052C194.403 94.924 194.408 94.946 194.406 94.9678C194.403 94.9897 194.394 95.0101 194.378 95.026L193.769 95.6621L194.524 96.4104L195.131 95.7765C195.141 95.7667 195.152 95.7588 195.164 95.7535C195.177 95.7482 195.19 95.7454 195.204 95.7454ZM196.912 94.4993C196.838 94.4993 196.764 94.4938 196.691 94.4828C196.415 94.4408 196.166 94.3182 195.973 94.1283C195.406 93.5681 195.465 92.5708 196.104 91.9048C196.507 91.4821 197.058 91.2766 197.578 91.3556C197.854 91.3976 198.102 91.5201 198.294 91.7099C198.861 92.2727 198.804 93.2703 198.168 93.9339C197.819 94.2968 197.362 94.4993 196.912 94.4993ZM196.721 94.2849C197.176 94.3537 197.662 94.1707 198.023 93.7952C198.584 93.2101 198.643 92.3383 198.153 91.852C197.992 91.6924 197.782 91.5891 197.548 91.5534C197.092 91.4842 196.606 91.6674 196.248 92.043C195.685 92.6308 195.624 93.5021 196.113 93.9857C196.276 94.1456 196.487 94.2492 196.721 94.2849Z" fill="#111111"/>
<path d="M188.237 92.4004C187.913 92.7182 187.539 92.9768 187.138 93.1602L188.672 95.8308C188.743 95.9509 188.859 96.0229 188.991 96.0429C189.123 96.063 189.27 96.0308 189.402 95.9416L189.545 95.8388C189.809 95.6558 189.909 95.3126 189.769 95.0678L188.237 92.4004Z" fill="#FF6F1E"/>
<path d="M189.068 96.1485C189.037 96.1485 189.007 96.1462 188.976 96.1416C188.809 96.1161 188.67 96.0237 188.585 95.8814L187.052 93.2097C187.045 93.1976 187.04 93.1842 187.039 93.1704C187.037 93.1565 187.039 93.1426 187.043 93.1293C187.047 93.1161 187.054 93.1038 187.064 93.0934C187.073 93.083 187.084 93.0747 187.097 93.0689C187.489 92.8892 187.85 92.6402 188.167 92.3286C188.178 92.3178 188.192 92.3097 188.206 92.3049C188.221 92.3001 188.236 92.2986 188.251 92.3007C188.266 92.3028 188.281 92.3084 188.293 92.317C188.306 92.3256 188.317 92.337 188.324 92.3503L189.855 95.0177C190.023 95.3099 189.912 95.7066 189.602 95.9208L189.46 96.0225C189.338 96.1054 189.202 96.1485 189.068 96.1485ZM187.279 93.2039L188.758 95.7806C188.811 95.8691 188.899 95.9275 189.006 95.9437C189.119 95.9607 189.239 95.9305 189.346 95.8584L189.486 95.7571C189.709 95.6031 189.796 95.3166 189.682 95.1173L188.214 92.5603C187.935 92.8187 187.62 93.0354 187.279 93.2039Z" fill="#111111"/>
<path d="M185.552 92.6372C184.308 92.4485 183.609 91.2314 183.991 89.9184C184.372 88.6054 185.69 87.6939 186.933 87.8825C188.177 88.0712 188.876 89.2886 188.494 90.6015C188.113 91.9146 186.796 92.8258 185.552 92.6372ZM187.164 87.0869C185.502 86.8346 183.743 88.0477 183.233 89.8034C182.723 91.5589 183.657 93.1857 185.32 93.438C185.935 93.5314 186.564 93.4229 187.138 93.1607C187.539 92.9773 187.913 92.7188 188.238 92.4009C188.702 91.9451 189.063 91.3681 189.253 90.7167C189.763 88.9609 188.827 87.3391 187.164 87.0869Z" fill="#FF6F1E"/>
<path d="M185.76 93.5703C185.607 93.5703 185.455 93.559 185.304 93.5362C184.518 93.4169 183.856 92.9933 183.441 92.3433C182.982 91.6251 182.871 90.6888 183.136 89.7747C183.658 87.9785 185.472 86.728 187.179 86.9871C187.967 87.1066 188.63 87.5305 189.045 88.1805C189.503 88.8971 189.614 89.8313 189.349 90.7438C189.161 91.3901 188.801 91.9875 188.307 92.4716C187.973 92.7994 187.594 93.0616 187.18 93.2509C186.717 93.4624 186.234 93.5703 185.76 93.5703ZM186.723 87.1532C185.245 87.1532 183.78 88.2769 183.329 89.8305C183.079 90.6893 183.182 91.5658 183.61 92.2356C183.993 92.8361 184.606 93.2279 185.334 93.3384C185.91 93.4257 186.52 93.3325 187.097 93.0689C187.489 92.8894 187.849 92.6403 188.167 92.3287C188.636 91.8688 188.978 91.3014 189.156 90.6881C189.405 89.831 189.303 88.9564 188.877 88.2884C188.493 87.6877 187.879 87.2959 187.149 87.1852C187.008 87.1637 186.866 87.153 186.723 87.1532ZM185.879 92.761C185.765 92.761 185.651 92.7527 185.537 92.7354C184.942 92.645 184.44 92.324 184.126 91.8315C183.778 91.288 183.694 90.5803 183.895 89.8898C184.289 88.5325 185.658 87.5875 186.948 87.7829C187.543 87.8731 188.045 88.1941 188.359 88.6865C188.707 89.2301 188.791 89.938 188.59 90.6288C188.231 91.8661 187.06 92.761 185.879 92.761ZM185.567 92.5374C186.761 92.7189 188.031 91.8371 188.398 90.5729C188.583 89.9375 188.507 89.2892 188.191 88.7943C187.907 88.3512 187.456 88.0623 186.918 87.9808C185.724 87.7995 184.454 88.6812 184.087 89.9456C183.902 90.5808 183.978 91.2289 184.294 91.7238C184.577 92.1669 185.03 92.4559 185.567 92.5374ZM116.321 90.9919C112.468 90.0008 114.23 96.014 111.446 95.8188L111.159 96.8085C113.819 97.4315 108.847 102.418 112.934 102.65L113.21 101.7C112.545 101.613 112.13 101.496 112.285 100.786C112.493 99.7183 113.658 97.2237 112.263 96.4618C113.955 95.8518 113.86 94.9636 114.519 93.0136C114.806 91.9839 115.07 91.7646 116.043 91.9467L116.321 90.9919Z" fill="#111111"/>
<path d="M112.934 102.749L112.928 102.749C112.156 102.706 111.648 102.494 111.376 102.104C110.922 101.452 111.232 100.441 111.531 99.464C111.794 98.6061 112.043 97.7958 111.766 97.3145C111.65 97.1114 111.443 96.9777 111.136 96.9057C111.123 96.9026 111.11 96.8969 111.099 96.8888C111.088 96.8807 111.079 96.8705 111.072 96.8588C111.066 96.847 111.061 96.834 111.059 96.8205C111.058 96.8071 111.059 96.7934 111.063 96.7803L111.35 95.7906C111.357 95.7687 111.37 95.7497 111.389 95.7366C111.408 95.7235 111.431 95.7172 111.453 95.7187C112.635 95.801 112.948 94.6643 113.28 93.4604C113.685 91.9924 114.145 90.3283 116.346 90.8947C116.359 90.898 116.371 90.9039 116.382 90.912C116.392 90.9202 116.401 90.9304 116.408 90.942C116.414 90.9536 116.419 90.9665 116.42 90.9798C116.422 90.9931 116.421 91.0066 116.417 91.0195L116.14 91.9744C116.125 92.0239 116.076 92.0543 116.025 92.0449C115.12 91.8755 114.896 92.0336 114.615 93.0403C114.488 93.4158 114.39 93.7515 114.302 94.0477C113.94 95.2767 113.733 95.979 112.484 96.4845C113.435 97.1978 112.956 98.8062 112.602 99.9977C112.507 100.315 112.426 100.589 112.384 100.805C112.332 101.039 112.346 101.206 112.423 101.317C112.539 101.481 112.804 101.545 113.223 101.6C113.237 101.602 113.251 101.607 113.263 101.615C113.276 101.622 113.286 101.633 113.294 101.645C113.302 101.657 113.307 101.67 113.309 101.685C113.311 101.699 113.31 101.713 113.306 101.727L113.03 102.677C113.018 102.72 112.978 102.749 112.934 102.749ZM111.283 96.7378C111.589 96.8288 111.81 96.9888 111.94 97.2148C112.259 97.7713 111.999 98.6221 111.723 99.5228C111.437 100.454 111.142 101.417 111.54 101.989C111.766 102.313 112.198 102.495 112.86 102.544L113.082 101.783C112.722 101.731 112.418 101.657 112.26 101.432C112.148 101.273 112.124 101.054 112.187 100.764C112.231 100.541 112.314 100.263 112.41 99.9407C112.765 98.7483 113.251 97.1153 112.215 96.5496C112.198 96.5404 112.184 96.5265 112.175 96.5095C112.165 96.4926 112.161 96.4733 112.163 96.4541C112.164 96.4349 112.171 96.4165 112.183 96.4011C112.195 96.3858 112.21 96.3741 112.229 96.3676C113.55 95.8913 113.737 95.2563 114.11 93.9913C114.198 93.6932 114.297 93.3556 114.424 92.9816C114.72 91.9158 115.032 91.6737 115.972 91.8324L116.195 91.0642C114.271 90.6194 113.883 92.0262 113.473 93.514C113.145 94.6993 112.807 95.9234 111.577 95.9235C111.558 95.9235 111.539 95.9232 111.52 95.9226L111.283 96.7378ZM174.811 99.8652L174.49 99.8166L174.213 100.771C176.789 100.82 172.992 104.531 175.162 106.004C172.448 106.585 173.748 111.209 171.38 110.524L171.104 111.474C174.929 112.485 173.159 106.54 175.98 106.642L176.267 105.653C173.699 104.98 178.295 100.206 174.811 99.8652Z" fill="#111111"/>
<path d="M171.901 111.69C171.658 111.69 171.385 111.652 171.078 111.571C171.065 111.568 171.053 111.562 171.043 111.554C171.032 111.546 171.023 111.535 171.017 111.524C171.01 111.512 171.006 111.499 171.004 111.486C171.003 111.473 171.004 111.46 171.008 111.447L171.284 110.497C171.291 110.471 171.308 110.45 171.331 110.437C171.355 110.424 171.382 110.421 171.407 110.428C171.742 110.525 172.008 110.514 172.22 110.395C172.654 110.151 172.844 109.453 173.045 108.713C173.347 107.598 173.688 106.342 174.937 105.959C174 105.161 174.413 103.862 174.749 102.808C174.97 102.114 175.179 101.458 174.946 101.133C174.825 100.964 174.585 100.879 174.211 100.872C174.196 100.872 174.181 100.868 174.167 100.861C174.153 100.854 174.141 100.844 174.132 100.831C174.123 100.819 174.117 100.804 174.114 100.789C174.112 100.774 174.112 100.759 174.117 100.744L174.394 99.789C174.401 99.7657 174.416 99.7457 174.436 99.7326C174.457 99.7195 174.481 99.7143 174.505 99.7179L174.823 99.7662C175.434 99.8264 175.842 100.021 176.069 100.361C176.486 100.984 176.189 101.968 175.901 102.919C175.648 103.757 175.386 104.624 175.668 105.128C175.785 105.336 175.989 105.477 176.292 105.556C176.305 105.559 176.317 105.565 176.328 105.573C176.339 105.582 176.348 105.592 176.354 105.603C176.361 105.615 176.365 105.628 176.366 105.641C176.368 105.654 176.367 105.668 176.363 105.681L176.076 106.67C176.069 106.692 176.056 106.71 176.038 106.724C176.02 106.737 175.998 106.743 175.976 106.742C174.771 106.698 174.455 107.844 174.119 109.056C173.773 110.302 173.388 111.69 171.901 111.69ZM171.229 111.403C173.134 111.856 173.519 110.47 173.926 109.003C174.262 107.793 174.609 106.543 175.905 106.541L176.143 105.721C175.841 105.622 175.623 105.456 175.494 105.225C175.17 104.648 175.432 103.78 175.71 102.861C175.984 101.954 176.268 101.016 175.903 100.472C175.711 100.184 175.35 100.019 174.801 99.9649C174.799 99.9648 174.798 99.9645 174.796 99.9643L174.562 99.9289L174.345 100.677C174.714 100.704 174.965 100.815 175.109 101.016C175.4 101.423 175.187 102.093 174.94 102.869C174.588 103.973 174.19 105.224 175.218 105.921C175.234 105.932 175.247 105.948 175.255 105.966C175.262 105.984 175.264 106.004 175.26 106.023C175.257 106.043 175.247 106.061 175.233 106.074C175.22 106.088 175.202 106.098 175.183 106.102C173.885 106.38 173.541 107.647 173.238 108.766C173.026 109.547 172.826 110.284 172.319 110.569C172.079 110.704 171.794 110.73 171.449 110.646L171.229 111.403ZM126.441 134.504C122.576 133.521 124.344 139.523 121.567 139.331L121.281 140.316C123.925 140.912 118.978 145.918 123.054 146.162L123.332 145.207C122.666 145.119 122.252 145.006 122.402 144.292C122.607 143.222 123.787 140.738 122.378 139.974C124.063 139.37 123.988 138.468 124.636 136.52C124.928 135.492 125.191 135.273 126.165 135.454L126.441 134.504Z" fill="#111111"/>
<path d="M123.054 146.262C123.052 146.262 123.05 146.262 123.048 146.261C122.279 146.215 121.773 146.003 121.501 145.611C121.043 144.953 121.353 143.936 121.652 142.952C121.912 142.095 122.158 141.286 121.882 140.811C121.766 140.612 121.562 140.482 121.259 140.413C121.245 140.41 121.233 140.404 121.222 140.396C121.211 140.388 121.201 140.378 121.194 140.366C121.188 140.355 121.183 140.342 121.181 140.328C121.18 140.315 121.181 140.301 121.184 140.288L121.47 139.303C121.477 139.281 121.49 139.262 121.509 139.249C121.528 139.236 121.551 139.229 121.573 139.231C122.749 139.312 123.061 138.179 123.392 136.979C123.797 135.51 124.255 133.845 126.466 134.407C126.479 134.41 126.491 134.416 126.502 134.424C126.512 134.432 126.521 134.442 126.528 134.454C126.535 134.466 126.539 134.479 126.54 134.492C126.542 134.505 126.541 134.519 126.537 134.532L126.261 135.482C126.254 135.505 126.239 135.526 126.217 135.539C126.196 135.552 126.171 135.557 126.147 135.552C125.242 135.384 125.017 135.542 124.732 136.547C124.612 136.908 124.516 137.234 124.432 137.522C124.064 138.774 123.854 139.49 122.6 139.996C123.556 140.707 123.078 142.304 122.723 143.487C122.626 143.811 122.543 144.091 122.501 144.311C122.451 144.546 122.465 144.713 122.544 144.824C122.671 145.004 122.995 145.061 123.345 145.107C123.359 145.109 123.373 145.114 123.385 145.122C123.397 145.13 123.408 145.14 123.416 145.152C123.423 145.164 123.429 145.178 123.431 145.192C123.433 145.206 123.432 145.221 123.428 145.235L123.15 146.19C123.138 146.232 123.099 146.262 123.054 146.262ZM121.405 140.244C121.708 140.332 121.926 140.488 122.055 140.71C122.375 141.26 122.117 142.11 121.843 143.01C121.558 143.948 121.263 144.919 121.665 145.497C121.891 145.822 122.322 146.005 122.981 146.056L123.203 145.29C122.843 145.237 122.538 145.163 122.38 144.94C122.268 144.781 122.243 144.562 122.304 144.271C122.348 144.043 122.433 143.759 122.532 143.43C122.886 142.246 123.371 140.626 122.331 140.061C122.314 140.052 122.3 140.038 122.291 140.021C122.281 140.004 122.277 139.985 122.279 139.966C122.28 139.946 122.287 139.928 122.299 139.913C122.311 139.897 122.326 139.886 122.345 139.879C123.671 139.403 123.861 138.756 124.24 137.465C124.325 137.176 124.421 136.848 124.541 136.488C124.823 135.493 125.094 135.174 126.094 135.34L126.316 134.576C124.383 134.135 123.995 135.543 123.585 137.032C123.254 138.232 122.911 139.472 121.641 139.435L121.405 140.244ZM152.467 138.452L152.141 138.403L151.865 139.353C152.524 139.443 152.952 139.546 152.793 140.257C152.589 141.373 151.417 143.753 152.817 144.591C150.707 145.129 151.158 147.505 150.074 149.025C149.895 149.193 149.404 149.181 149.032 149.106L148.755 150.061C152.619 151.036 150.83 145.08 153.637 145.224L153.923 144.24C151.356 143.624 155.949 138.799 152.467 138.452Z" fill="#111111"/>
<path d="M149.539 150.269C149.299 150.269 149.031 150.234 148.73 150.158C148.717 150.154 148.705 150.149 148.694 150.141C148.684 150.132 148.675 150.122 148.668 150.111C148.661 150.099 148.657 150.086 148.655 150.073C148.654 150.059 148.655 150.046 148.659 150.033L148.936 149.078C148.951 149.028 149.001 148.997 149.052 149.008C149.464 149.091 149.867 149.07 149.999 148.958C150.381 148.418 150.569 147.757 150.752 147.118C151.054 146.059 151.365 144.966 152.589 144.554C151.659 143.801 152.12 142.255 152.462 141.11C152.559 140.784 152.651 140.477 152.695 140.239C152.746 140.008 152.734 139.845 152.659 139.736C152.535 139.559 152.22 139.503 151.852 139.452C151.838 139.45 151.824 139.445 151.812 139.437C151.8 139.43 151.789 139.419 151.782 139.407C151.774 139.395 151.769 139.382 151.766 139.368C151.764 139.353 151.765 139.339 151.769 139.325L152.045 138.375C152.059 138.327 152.107 138.296 152.156 138.304L152.479 138.353C153.087 138.414 153.494 138.609 153.722 138.95C154.144 139.58 153.844 140.575 153.555 141.537C153.303 142.375 153.042 143.242 153.325 143.733C153.441 143.936 153.645 144.07 153.946 144.142C153.959 144.146 153.971 144.151 153.982 144.16C153.993 144.168 154.002 144.178 154.009 144.19C154.016 144.201 154.02 144.214 154.022 144.228C154.024 144.241 154.022 144.255 154.019 144.268L153.733 145.252C153.726 145.274 153.713 145.293 153.695 145.306C153.676 145.319 153.654 145.326 153.631 145.324C152.438 145.265 152.125 146.4 151.794 147.603C151.447 148.863 151.06 150.268 149.539 150.269ZM148.88 149.988C150.809 150.425 151.194 149.028 151.601 147.55C151.932 146.348 152.275 145.105 153.562 145.122L153.798 144.31C153.498 144.218 153.281 144.058 153.151 143.833C152.826 143.267 153.087 142.399 153.364 141.48C153.64 140.562 153.925 139.613 153.556 139.061C153.363 138.773 153.003 138.606 152.457 138.552L152.452 138.551L152.213 138.515L151.994 139.27C152.371 139.326 152.668 139.4 152.823 139.622C152.932 139.779 152.954 139.994 152.891 140.279C152.846 140.524 152.753 140.836 152.654 141.167C152.311 142.316 151.841 143.89 152.869 144.506C152.886 144.516 152.899 144.531 152.908 144.549C152.916 144.566 152.919 144.586 152.916 144.606C152.914 144.625 152.905 144.644 152.892 144.658C152.879 144.673 152.861 144.684 152.842 144.688C151.559 145.015 151.261 146.063 150.944 147.173C150.756 147.832 150.562 148.513 150.155 149.083C150.151 149.088 150.147 149.093 150.142 149.098C149.942 149.286 149.477 149.284 149.103 149.221L148.88 149.988Z" fill="#111111"/>
<path d="M142.178 83.2355L124.803 80.5996L124.053 83.1824L141.427 85.8183L142.178 83.2355Z" fill="#FF6F1E"/>
<path d="M141.427 85.9188C141.422 85.9188 141.417 85.9185 141.412 85.9177L124.038 83.2818C124.024 83.2796 124.01 83.2745 123.998 83.2667C123.986 83.2589 123.976 83.2487 123.968 83.2367C123.961 83.2247 123.956 83.2112 123.954 83.1971C123.952 83.183 123.953 83.1687 123.957 83.155L124.707 80.5722C124.714 80.5489 124.729 80.5288 124.749 80.5158C124.77 80.5027 124.794 80.4975 124.818 80.5011L142.192 83.137C142.207 83.1391 142.22 83.1443 142.232 83.152C142.244 83.1598 142.254 83.17 142.262 83.182C142.269 83.194 142.274 83.2075 142.276 83.2216C142.279 83.2357 142.278 83.2501 142.274 83.2638L141.523 85.8466C141.517 85.8674 141.505 85.8857 141.487 85.8987C141.47 85.9117 141.449 85.9188 141.427 85.9188ZM124.181 83.101L141.356 85.7066L142.05 83.3177L124.875 80.7121L124.181 83.101Z" fill="#111111"/>
<path d="M154.606 85.1213L145.921 83.8037L145.171 86.3865L153.856 87.7041L154.606 85.1213Z" fill="#FF6F1E"/>
<path d="M153.856 87.8046C153.851 87.8046 153.846 87.8043 153.841 87.8035L145.156 86.4859C145.142 86.4838 145.129 86.4786 145.117 86.4709C145.105 86.4631 145.095 86.4529 145.087 86.4409C145.079 86.4289 145.074 86.4154 145.072 86.4013C145.07 86.3872 145.071 86.3728 145.075 86.3591L145.825 83.7763C145.832 83.753 145.847 83.733 145.868 83.7199C145.888 83.7069 145.912 83.7016 145.936 83.7052L154.621 85.0228C154.635 85.0249 154.648 85.0301 154.66 85.0378C154.672 85.0456 154.682 85.0558 154.69 85.0678C154.698 85.0798 154.703 85.0933 154.705 85.1074C154.707 85.1215 154.706 85.1359 154.702 85.1496L153.952 87.7324C153.946 87.7532 153.933 87.7715 153.916 87.7845C153.898 87.7975 153.877 87.8046 153.856 87.8046ZM145.299 86.3052L153.784 87.5924L154.478 85.2035L145.993 83.9163L145.299 86.3052Z" fill="#111111"/>
</g>
<g clip-path="url(#clip3_880_18352)">
<path d="M19.6032 164.604C20.0784 163.944 20.7847 163.469 21.5162 163.136C21.7626 163.023 22.0148 162.924 22.2716 162.837L49.6434 153.663C49.2614 154.469 50.6381 158.579 51.4215 158.97C51.18 159.047 24.0326 168.157 23.8086 168.22C23.4971 168.312 23.1801 168.385 22.8597 168.438C20.5758 168.975 18.0567 167.136 19.6032 164.604Z" fill="#FF6F1E"/>
<path d="M20.9302 168.459C20.341 168.279 19.8235 167.918 19.4519 167.427C18.8609 166.61 18.8843 165.589 19.5179 164.552C19.5193 164.55 19.5207 164.548 19.5222 164.546C19.9559 163.943 20.613 163.438 21.4747 163.045C21.7237 162.931 21.9786 162.83 22.2382 162.743L49.6116 153.569C49.6302 153.562 49.6502 153.562 49.6692 153.567C49.6882 153.572 49.7052 153.582 49.7183 153.597C49.7313 153.612 49.7397 153.63 49.7425 153.649C49.7452 153.669 49.7422 153.689 49.7338 153.706C49.3787 154.455 50.7385 158.517 51.4661 158.881C51.4839 158.89 51.4986 158.904 51.5084 158.921C51.5182 158.938 51.5226 158.958 51.521 158.978C51.5195 158.998 51.5121 159.016 51.4998 159.032C51.4874 159.048 51.4707 159.059 51.4518 159.065C51.364 159.093 47.6641 160.334 42.9799 161.905C34.5149 164.743 23.98 168.276 23.8356 168.317C23.5203 168.41 23.1997 168.483 22.8754 168.537C22.2319 168.688 21.5595 168.661 20.9302 168.459ZM19.6868 164.659C19.0998 165.622 19.074 166.563 19.6141 167.309C20.2655 168.209 21.5909 168.634 22.8368 168.341C23.1554 168.288 23.4704 168.216 23.7802 168.124C23.9493 168.075 34.912 164.399 42.9165 161.715C47.0441 160.331 50.4072 159.203 51.2103 158.935C50.4291 158.176 49.3323 154.902 49.4978 153.818L22.3033 162.932C22.0504 163.017 21.8021 163.115 21.5594 163.226C20.7295 163.605 20.1 164.087 19.6868 164.659Z" fill="#111111"/>
<path d="M51.421 158.969C51.6751 158.884 51.4832 157.627 50.9922 156.163C50.5013 154.698 49.8974 153.579 49.6433 153.664C49.3892 153.749 49.5812 155.006 50.0721 156.471C50.563 157.936 51.167 159.054 51.421 158.969Z" fill="#FFF7E6"/>
<path d="M51.3277 159.064C51.2486 159.032 51.1786 158.982 51.124 158.916C50.702 158.461 50.0577 156.944 49.6876 155.535C49.5152 154.878 49.2721 153.752 49.5814 153.582C49.6839 153.525 49.8055 153.57 49.941 153.717C50.3628 154.172 51.0073 155.689 51.3775 157.098C51.5499 157.755 51.793 158.881 51.4836 159.051C51.46 159.064 51.4339 159.072 51.407 159.074C51.3801 159.077 51.3531 159.073 51.3277 159.064ZM49.6775 153.76C49.6756 153.76 49.6736 153.759 49.6715 153.758C49.611 153.81 49.5712 154.303 49.8813 155.484C50.2443 156.866 50.8678 158.345 51.2709 158.78C51.3549 158.87 51.3932 158.874 51.3938 158.874C51.4543 158.822 51.4942 158.329 51.184 157.148C50.8209 155.766 50.1975 154.287 49.7944 153.853C49.7632 153.813 49.7232 153.782 49.6775 153.76Z" fill="#111111"/>
<path d="M68.221 153.339C68.4751 153.254 68.2831 151.998 67.7922 150.533C67.3013 149.068 66.6973 147.949 66.4432 148.034C66.1891 148.119 66.3811 149.376 66.872 150.841C67.3629 152.306 67.9669 153.425 68.221 153.339Z" fill="#FFF7E6"/>
<path d="M68.1275 153.434C68.0484 153.402 67.9784 153.352 67.9239 153.286C67.5018 152.831 66.8574 151.314 66.4874 149.905C66.3149 149.249 66.0718 148.122 66.3812 147.952C66.4838 147.895 66.6053 147.94 66.7408 148.087C67.1628 148.542 67.8071 150.059 68.1772 151.468C68.3497 152.125 68.5928 153.252 68.2834 153.422C68.2598 153.435 68.2337 153.442 68.2068 153.445C68.1799 153.447 68.1529 153.443 68.1275 153.434ZM66.4773 148.131C66.4754 148.13 66.4734 148.129 66.4713 148.129C66.4108 148.18 66.3709 148.673 66.6812 149.854C67.0441 151.236 67.6676 152.715 68.0706 153.15C68.1548 153.24 68.193 153.244 68.1935 153.244C68.254 153.193 68.294 152.699 67.9838 151.519C67.6208 150.136 66.9974 148.658 66.5942 148.223C66.5631 148.183 66.523 148.152 66.4773 148.131Z" fill="#111111"/>
<path d="M49.5541 153.797C49.5568 153.769 49.5664 153.742 49.582 153.719C49.5975 153.696 49.6187 153.677 49.6434 153.663L66.4432 148.033C65.9012 148.541 67.561 153.35 68.2212 153.34L51.4214 158.97C51.3666 158.988 51.2918 158.95 51.1973 158.848C50.468 157.93 49.444 155.103 49.5541 153.797Z" fill="white"/>
<path d="M51.3253 159.064C51.2473 159.032 51.1782 158.981 51.1239 158.917C50.3534 157.947 49.3452 155.084 49.4544 153.788C49.4548 153.783 49.4556 153.778 49.4569 153.773C49.4628 153.728 49.4801 153.686 49.5072 153.65C49.5343 153.614 49.5702 153.586 49.6115 153.569L66.4114 147.938C66.433 147.931 66.4565 147.931 66.4779 147.939C66.4993 147.947 66.5173 147.962 66.529 147.982C66.5407 148.001 66.5454 148.024 66.5422 148.047C66.5391 148.07 66.5283 148.09 66.5116 148.106C66.2613 148.34 66.6339 150.069 67.2782 151.663C67.7837 152.914 68.1148 153.241 68.2197 153.24C68.2435 153.239 68.2667 153.247 68.2851 153.263C68.3034 153.278 68.3157 153.299 68.3198 153.323C68.3238 153.346 68.3193 153.37 68.307 153.391C68.2948 153.411 68.2756 153.427 68.253 153.434L51.4533 159.065C51.4116 159.079 51.3666 159.078 51.3253 159.064ZM49.6532 153.814C49.5522 155.076 50.5318 157.85 51.2757 158.786C51.3547 158.871 51.3931 158.875 51.3936 158.875L67.971 153.318C67.6662 153.042 67.3381 152.346 67.0928 151.739C66.7205 150.818 66.1112 148.936 66.2606 148.2L49.6752 153.759C49.6653 153.776 49.6579 153.795 49.6532 153.814Z" fill="#111111"/>
<path d="M73.8936 156.88L75.8985 158.716C73.6866 156.691 72.0234 154.008 71.1963 150.814C68.7416 141.333 74.5855 130.932 84.2523 127.588C90.6658 125.369 97.1475 126.812 101.502 130.799L99.4973 128.964C95.1422 124.976 88.6608 123.534 82.2474 125.752C72.5807 129.096 66.7366 139.497 69.1914 148.979C70.0183 152.172 71.6816 154.855 73.8935 156.88" fill="#FFF7E6"/>
<path d="M75.8676 158.811C75.854 158.807 75.8415 158.8 75.831 158.79L73.8261 156.954C71.5119 154.818 69.8682 152.056 69.0946 149.004C66.6303 139.486 72.5158 129.014 82.2148 125.658C85.3264 124.582 88.5938 124.331 91.6634 124.933C94.6108 125.501 97.3447 126.87 99.5648 128.89L101.57 130.726C101.579 130.735 101.587 130.746 101.593 130.758C101.598 130.77 101.602 130.782 101.602 130.796C101.603 130.809 101.601 130.822 101.596 130.834C101.592 130.847 101.585 130.858 101.576 130.868C101.567 130.877 101.556 130.885 101.544 130.891C101.533 130.896 101.52 130.899 101.507 130.9C101.493 130.901 101.48 130.899 101.468 130.894C101.456 130.89 101.444 130.883 101.435 130.874C99.2416 128.878 96.5412 127.526 93.6298 126.965C90.5948 126.37 87.3633 126.618 84.2854 127.683C74.6829 131.005 68.8549 141.37 71.2933 150.789C72.0572 153.805 73.6807 156.533 75.9663 158.642C75.9831 158.658 75.9942 158.679 75.9976 158.701C76.001 158.724 75.9966 158.747 75.9851 158.767C75.9736 158.786 75.9556 158.802 75.9343 158.81C75.9129 158.818 75.8893 158.818 75.8676 158.811ZM93.5553 125.63C92.9224 125.424 92.2777 125.257 91.6246 125.129C88.5895 124.534 85.3586 124.782 82.2801 125.847C72.6776 129.169 66.8495 139.534 69.2883 148.954C70.0522 151.969 71.6756 154.697 73.9613 156.807L74.1203 156.952C72.6978 155.148 71.6688 153.066 71.0994 150.839C68.6355 141.322 74.5207 130.849 84.2195 127.494C87.3313 126.418 90.5987 126.167 93.6683 126.769C95.7769 127.179 97.785 127.996 99.5802 129.176L99.4296 129.038C97.7379 127.495 95.7347 126.332 93.5553 125.63Z" fill="#111111"/>
<path d="M73.8936 156.88L75.8985 158.716C73.6866 156.691 72.0234 154.008 71.1963 150.814C68.7416 141.333 74.5855 130.932 84.2523 127.588C90.6658 125.369 97.1475 126.812 101.502 130.799L99.4973 128.964C95.1422 124.976 88.6608 123.534 82.2474 125.752C72.5807 129.096 66.7366 139.497 69.1914 148.979C70.0183 152.172 71.6816 154.855 73.8935 156.88" fill="#FFF7E6"/>
<path d="M75.8676 158.811C75.854 158.807 75.8415 158.8 75.831 158.79L73.8261 156.954C71.5119 154.818 69.8682 152.056 69.0946 149.004C66.6303 139.486 72.5158 129.014 82.2148 125.658C85.3264 124.582 88.5938 124.331 91.6634 124.933C94.6108 125.501 97.3447 126.87 99.5648 128.89L101.57 130.726C101.579 130.735 101.587 130.746 101.593 130.758C101.598 130.77 101.602 130.782 101.602 130.796C101.603 130.809 101.601 130.822 101.596 130.834C101.592 130.847 101.585 130.858 101.576 130.868C101.567 130.877 101.556 130.885 101.544 130.891C101.533 130.896 101.52 130.899 101.507 130.9C101.493 130.901 101.48 130.899 101.468 130.894C101.456 130.89 101.444 130.883 101.435 130.874C99.2416 128.878 96.5412 127.526 93.6298 126.965C90.5948 126.37 87.3633 126.618 84.2854 127.683C74.6829 131.005 68.8549 141.37 71.2933 150.789C72.0572 153.805 73.6807 156.533 75.9663 158.642C75.9831 158.658 75.9942 158.679 75.9976 158.701C76.001 158.724 75.9966 158.747 75.9851 158.767C75.9736 158.786 75.9556 158.802 75.9343 158.81C75.9129 158.818 75.8893 158.818 75.8676 158.811ZM93.5553 125.63C92.9224 125.424 92.2777 125.257 91.6246 125.129C88.5895 124.534 85.3586 124.782 82.2801 125.847C72.6776 129.169 66.8495 139.534 69.2883 148.954C70.0522 151.969 71.6756 154.697 73.9613 156.807L74.1203 156.952C72.6978 155.148 71.6688 153.066 71.0994 150.839C68.6355 141.322 74.5207 130.849 84.2195 127.494C87.3313 126.418 90.5987 126.167 93.6683 126.769C95.7769 127.179 97.785 127.996 99.5802 129.176L99.4296 129.038C97.7379 127.495 95.7347 126.332 93.5553 125.63Z" fill="#111111"/>
<path d="M82.2474 125.752C72.5807 129.096 66.7365 139.497 69.1914 148.979C71.6462 158.46 81.4715 163.434 91.1381 160.09C100.81 156.744 106.656 146.349 104.201 136.868C101.746 127.387 91.9195 122.407 82.2474 125.752Z" fill="white"/>
<path d="M79.8007 160.419C78.8596 160.113 77.9477 159.724 77.0758 159.257C73.0869 157.118 70.2523 153.477 69.0942 149.004C66.6299 139.486 72.5154 129.014 82.2144 125.658C87.0618 123.982 92.0689 124.311 96.3127 126.587C100.303 128.727 103.139 132.369 104.297 136.843C106.761 146.358 100.872 156.829 91.1703 160.185C87.3281 161.515 83.3847 161.583 79.8007 160.419ZM82.2802 125.848C72.6777 129.169 66.8497 139.535 69.2883 148.954C70.4323 153.372 73.2315 156.968 77.1708 159.081C81.364 161.329 86.3128 161.654 91.1056 159.996C100.711 156.674 106.542 146.31 104.104 136.894C102.96 132.474 100.16 128.877 96.2188 126.764C92.0245 124.514 87.0742 124.19 82.2802 125.848Z" fill="#111111"/>
<path d="M71.2592 159.75L73.2641 161.586C78.5149 166.393 86.3296 168.132 94.0576 165.458C105.717 161.425 112.767 148.888 109.807 137.458C108.81 133.606 106.804 130.371 104.136 127.928L102.131 126.092C104.799 128.535 106.805 131.77 107.802 135.623C110.762 147.052 103.712 159.59 92.0527 163.623C84.3246 166.296 76.51 164.558 71.2592 159.75Z" fill="url(#paint1_linear_880_18352)"/>
<path d="M80.36 165.816C77.7023 164.959 75.2594 163.542 73.1962 161.66L71.1915 159.824C71.1817 159.815 71.1737 159.804 71.168 159.793C71.1623 159.781 71.1591 159.768 71.1584 159.754C71.1578 159.741 71.1598 159.728 71.1642 159.716C71.1687 159.703 71.1756 159.692 71.1846 159.682C71.1935 159.672 71.2043 159.664 71.2163 159.659C71.2282 159.653 71.2412 159.65 71.2544 159.65C71.2676 159.649 71.2808 159.651 71.2932 159.656C71.3056 159.66 71.3169 159.667 71.3266 159.676C73.9734 162.084 77.2324 163.717 80.746 164.394C84.4083 165.112 88.3067 164.813 92.0199 163.529C103.611 159.518 110.648 147.011 107.705 135.648C106.747 131.947 104.796 128.669 102.064 126.166C102.044 126.148 102.032 126.124 102.031 126.097C102.03 126.07 102.04 126.045 102.057 126.025C102.075 126.005 102.1 125.994 102.127 125.993C102.153 125.991 102.179 126.001 102.199 126.019L104.204 127.855C106.965 130.383 108.936 133.695 109.904 137.433C111.342 142.987 110.489 148.97 107.502 154.281C104.515 159.593 99.752 163.594 94.0902 165.553C90.3437 166.849 86.4092 167.151 82.7125 166.425C81.9168 166.27 81.1312 166.066 80.36 165.816ZM73.3626 161.54C76.0042 163.932 79.2517 165.554 82.7512 166.229C86.4136 166.947 90.312 166.648 94.0251 165.363C105.617 161.354 112.653 148.846 109.711 137.483C108.755 133.792 106.812 130.521 104.091 128.021C105.892 130.242 107.192 132.826 107.9 135.597C109.337 141.15 108.484 147.133 105.497 152.445C102.51 157.756 97.7472 161.758 92.0855 163.717C88.3389 165.013 84.4045 165.315 80.7078 164.59C78.0788 164.079 75.5802 163.041 73.3626 161.54Z" fill="#111111"/>
<path d="M107.803 135.623C110.762 147.052 103.712 159.59 92.0529 163.623C80.3998 167.654 68.5497 161.654 65.5902 150.225C62.6295 138.79 69.6796 126.252 81.3329 122.221C92.9917 118.188 104.842 124.188 107.803 135.623ZM91.1382 160.091C100.81 156.745 106.656 146.35 104.201 136.868C101.746 127.387 91.9196 122.407 82.2474 125.753C72.5808 129.097 66.7366 139.498 69.1914 148.979C71.6463 158.461 81.4715 163.435 91.1382 160.091Z" fill="#FFD3A8"/>
<path d="M78.3565 163.983C77.2345 163.619 76.1472 163.155 75.1077 162.598C70.3024 160.021 66.8879 155.635 65.4933 150.249C64.0549 144.694 64.9074 138.709 67.8941 133.397C70.8801 128.086 75.6403 124.083 81.3003 122.125C84.1589 121.118 87.1937 120.709 90.217 120.921C93.0395 121.118 95.7883 121.91 98.2833 123.244C103.089 125.821 106.504 130.208 107.9 135.597C109.337 141.15 108.484 147.133 105.497 152.445C102.51 157.756 97.7473 161.758 92.0856 163.717C89.228 164.723 86.1944 165.133 83.1723 164.92C81.5353 164.802 79.9183 164.488 78.3565 163.983ZM94.9729 122.049C93.4258 121.549 91.8241 121.237 90.2024 121.121C87.2061 120.91 84.1985 121.317 81.3655 122.315C69.777 126.323 62.7439 138.832 65.6871 150.199C67.0675 155.531 70.4465 159.871 75.2023 162.421C77.6721 163.742 80.3931 164.526 83.1869 164.721C86.182 164.932 89.1884 164.526 92.0204 163.529C103.612 159.518 110.648 147.012 107.706 135.648C106.325 130.313 102.945 125.971 98.1886 123.421C97.1597 122.869 96.0835 122.41 94.9729 122.049ZM79.8007 160.418C78.8596 160.113 77.9477 159.724 77.0758 159.256C73.0868 157.117 70.2522 153.476 69.0942 149.003C66.6299 139.486 72.5154 129.013 82.2144 125.658C87.0617 123.981 92.0688 124.311 96.3127 126.587C100.303 128.726 103.139 132.369 104.297 136.843C106.761 146.357 100.872 156.829 91.1703 160.185C87.3281 161.514 83.3847 161.582 79.8007 160.418ZM93.5262 125.615C89.9824 124.464 86.0822 124.532 82.2802 125.847C72.6776 129.169 66.8495 139.534 69.2883 148.953C70.4323 153.371 73.2316 156.968 77.1708 159.08C81.364 161.328 86.3128 161.654 91.1055 159.996C100.711 156.673 106.542 146.309 104.104 136.893C102.96 132.474 100.16 128.876 96.2188 126.763C95.3573 126.301 94.456 125.917 93.5262 125.615Z" fill="#111111"/>
</g>
<g clip-path="url(#clip4_880_18352)">
<path d="M91.5747 130.961C91.1953 130.733 90.6798 130.914 90.4849 131.327C90.172 132.001 89.915 133.062 90.071 133.922C90.5803 133.77 91.1218 133.763 91.6352 133.9C91.3812 133.273 91.58 132.452 91.821 131.888L91.8245 131.879L91.8251 131.879C91.9902 131.532 91.8773 131.142 91.5747 130.961ZM95.7704 133.479C95.4693 133.298 95.0547 133.369 94.8013 133.662L94.801 133.662L94.798 133.666C94.4113 134.097 93.6274 134.68 92.9831 134.709C93.3411 135.097 93.5669 135.572 93.6442 136.067C94.4867 135.843 95.4266 135.129 95.9026 134.578C96.2058 134.229 96.1474 133.704 95.7704 133.479Z" fill="#111111"/>
<path d="M93.644 136.167C93.6201 136.167 93.5969 136.159 93.5788 136.143C93.5606 136.128 93.5486 136.106 93.5449 136.083C93.4693 135.597 93.2494 135.146 92.9091 134.776C92.8961 134.762 92.8875 134.745 92.8841 134.726C92.8807 134.707 92.8828 134.688 92.8901 134.67C92.8974 134.653 92.9096 134.637 92.9253 134.626C92.9409 134.616 92.9594 134.609 92.9785 134.608C93.5456 134.583 94.2995 134.071 94.7218 133.601L94.7257 133.596L94.7254 133.596C95.0054 133.273 95.4767 133.185 95.8219 133.393C96.0169 133.509 96.1498 133.707 96.1864 133.936C96.2265 134.187 96.1507 134.445 95.9781 134.644C95.473 135.228 94.5179 135.938 93.6698 136.164C93.6613 136.166 93.6527 136.167 93.644 136.167ZM93.1816 134.786C93.454 135.125 93.6391 135.519 93.7232 135.94C94.4987 135.697 95.3738 135.037 95.8266 134.513C95.9603 134.359 96.0192 134.16 95.9885 133.968C95.9609 133.795 95.8651 133.652 95.719 133.564L95.7189 133.564C95.4561 133.407 95.0943 133.477 94.8772 133.727L94.8728 133.733C94.5339 134.11 93.8343 134.665 93.1816 134.786ZM90.071 134.022C90.0475 134.022 90.0248 134.014 90.0068 133.999C89.9887 133.984 89.9766 133.963 89.9723 133.94C89.8043 133.013 90.0943 131.93 90.394 131.285C90.4487 131.169 90.5271 131.066 90.6241 130.983C90.7211 130.899 90.8346 130.837 90.9572 130.8C91.1898 130.729 91.4274 130.756 91.6264 130.875C91.9755 131.084 92.0999 131.534 91.9157 131.922C91.9151 131.923 91.9144 131.925 91.9136 131.926L91.9132 131.927C91.7965 132.2 91.4382 133.147 91.7281 133.862C91.7351 133.88 91.7372 133.899 91.7341 133.917C91.731 133.935 91.7228 133.952 91.7104 133.966C91.6981 133.98 91.6821 133.991 91.6642 133.996C91.6463 134.001 91.6273 134.002 91.6093 133.997C91.1138 133.864 90.5911 133.872 90.0997 134.018C90.0903 134.021 90.0807 134.022 90.071 134.022ZM91.212 130.961C91.1472 130.961 91.0812 130.971 91.0155 130.991C90.9198 131.02 90.8312 131.069 90.7555 131.134C90.6797 131.199 90.6185 131.279 90.5757 131.37C90.2794 132.008 90.0417 132.99 90.1524 133.796C90.5875 133.684 91.0425 133.672 91.4828 133.761C91.2821 133.032 91.5815 132.193 91.7289 131.848C91.7307 131.844 91.7328 131.84 91.7351 131.836L91.7347 131.836C91.8744 131.542 91.7835 131.203 91.5232 131.046C91.4292 130.99 91.3216 130.961 91.212 130.961Z" fill="#111111"/>
<path d="M92.3702 134.211C91.2602 133.532 89.7282 133.712 88.853 134.679C90.618 135.024 92.3469 136.047 93.4639 137.445C93.9965 136.271 93.4769 134.854 92.3702 134.211Z" fill="#FF6F1E"/>
<path d="M93.4638 137.546C93.4335 137.546 93.4045 137.532 93.3854 137.508C92.294 136.142 90.5924 135.121 88.8337 134.778C88.8163 134.774 88.8001 134.766 88.7867 134.755C88.7734 134.743 88.7634 134.728 88.7578 134.711C88.7522 134.694 88.7512 134.676 88.7548 134.659C88.7585 134.641 88.7667 134.625 88.7786 134.612C89.6801 133.616 91.2461 133.407 92.4216 134.125C93.601 134.811 94.0989 136.288 93.5551 137.487C93.5472 137.505 93.5343 137.519 93.5181 137.53C93.5019 137.54 93.4831 137.546 93.4638 137.546ZM89.0523 134.618C90.7354 134.991 92.3509 135.962 93.4348 137.252C93.8313 136.175 93.3625 134.904 92.3197 134.298L92.3177 134.297C91.2933 133.67 89.8957 133.818 89.0523 134.618Z" fill="#111111"/>
<path d="M100.772 142.534L98.1913 140.985C98.0359 140.892 97.8489 140.863 97.6635 140.903L95.2245 141.439C95.3038 141.924 95.3461 142.414 95.351 142.905L97.5931 142.413L99.9332 143.817C100.274 144.022 100.739 143.9 100.971 143.546C101.203 143.191 101.113 142.739 100.772 142.534Z" fill="#FF6F1E"/>
<path d="M100.296 144.017C100.15 144.017 100.007 143.978 99.8814 143.904L97.5755 142.52L95.3723 143.003C95.3578 143.006 95.3427 143.006 95.3282 143.003C95.3136 143 95.3001 142.993 95.2884 142.984C95.2768 142.974 95.2673 142.963 95.2608 142.949C95.2542 142.936 95.2507 142.921 95.2506 142.906C95.2456 142.42 95.2037 141.935 95.1253 141.456C95.1212 141.43 95.1269 141.405 95.1413 141.383C95.1557 141.362 95.1777 141.347 95.2027 141.342L97.6418 140.806C97.8529 140.761 98.0661 140.794 98.2428 140.9L100.824 142.449C100.913 142.502 100.991 142.573 101.052 142.658C101.113 142.742 101.156 142.838 101.179 142.94C101.231 143.164 101.186 143.399 101.054 143.601C100.88 143.868 100.587 144.017 100.296 144.017ZM97.593 142.313C97.6111 142.313 97.6289 142.318 97.6447 142.328L99.9847 143.732C100.28 143.909 100.684 143.801 100.887 143.492C100.989 143.336 101.023 143.156 100.984 142.985C100.967 142.909 100.935 142.838 100.89 142.776C100.845 142.713 100.787 142.66 100.721 142.621L98.1397 141.072C98.007 140.992 97.8453 140.967 97.6847 141.002L95.3384 141.517C95.4026 141.936 95.4396 142.358 95.4492 142.781L97.5716 142.316C97.5786 142.314 97.5858 142.313 97.593 142.313Z" fill="#111111"/>
<path d="M83.4656 132.149L80.8846 130.6C80.5448 130.396 80.0809 130.517 79.849 130.871C79.6171 131.226 79.7055 131.679 80.0453 131.883L82.3865 133.288L82.9015 135.435C83.3659 135.225 83.8445 135.048 84.3338 134.905L83.7741 132.569C83.7532 132.482 83.7152 132.4 83.6622 132.328C83.6093 132.256 83.5424 132.195 83.4656 132.149Z" fill="#FF6F1E"/>
<path d="M82.9016 135.534C82.879 135.534 82.8572 135.527 82.8395 135.513C82.8218 135.499 82.8093 135.479 82.804 135.457L82.2988 133.352L79.9937 131.968C79.8133 131.86 79.6876 131.686 79.64 131.479C79.5891 131.257 79.6346 131.015 79.7651 130.816C80.0255 130.418 80.5509 130.282 80.9363 130.513L83.5175 132.062C83.6056 132.115 83.6824 132.185 83.7432 132.268C83.804 132.35 83.8477 132.444 83.8716 132.544L84.4314 134.88C84.4374 134.905 84.4336 134.932 84.4206 134.954C84.4077 134.976 84.3867 134.993 84.3619 135C83.8772 135.142 83.403 135.317 82.9429 135.525C82.9299 135.531 82.9158 135.534 82.9016 135.534ZM80.521 130.6C80.2969 130.6 80.0692 130.717 79.933 130.925C79.8322 131.079 79.7966 131.265 79.8356 131.434C79.8522 131.509 79.884 131.58 79.929 131.642C79.9739 131.704 80.0311 131.757 80.0971 131.797L82.4382 133.202C82.4613 133.215 82.4778 133.238 82.4841 133.264L82.971 135.294C83.3758 135.116 83.791 134.963 84.2142 134.835L83.6767 132.591C83.6589 132.517 83.6265 132.448 83.5815 132.386C83.5364 132.325 83.4795 132.273 83.4142 132.234L80.8331 130.685C80.7387 130.629 80.6308 130.599 80.521 130.6Z" fill="#111111"/>
<path d="M97.4783 145.719C97.3458 145.64 97.1853 145.605 97.0192 145.626L94.9473 145.89C94.7977 146.42 94.6098 146.938 94.3853 147.441L96.6195 147.157L98.1326 149.918C98.1893 150.022 98.2727 150.108 98.3742 150.169C98.5939 150.301 98.8866 150.307 99.1386 150.158C99.5043 149.942 99.6468 149.485 99.4553 149.137L97.7212 145.972C97.6641 145.868 97.5803 145.781 97.4783 145.719Z" fill="#FF6F1E"/>
<path d="M98.7394 150.369C98.5927 150.37 98.4485 150.33 98.3225 150.255C98.2059 150.185 98.11 150.085 98.0446 149.966L96.5644 147.265L94.3979 147.541C94.3803 147.543 94.3623 147.541 94.3459 147.534C94.3296 147.527 94.3153 147.516 94.3047 147.501C94.2941 147.487 94.2874 147.47 94.2855 147.453C94.2836 147.435 94.2864 147.417 94.2937 147.401C94.5161 146.902 94.7023 146.389 94.8508 145.863C94.8561 145.844 94.8669 145.828 94.8818 145.815C94.8967 145.802 94.9151 145.794 94.9346 145.791L97.0065 145.527C97.1903 145.504 97.3761 145.542 97.5299 145.634C97.6469 145.704 97.7433 145.804 97.809 145.924L99.5432 149.089C99.7596 149.483 99.601 150.001 99.1897 150.244C99.0534 150.325 98.898 150.368 98.7394 150.369ZM96.6196 147.057C96.6559 147.057 96.6898 147.077 96.7074 147.109L98.2204 149.87C98.2684 149.958 98.3393 150.032 98.4257 150.084C98.6219 150.201 98.8755 150.197 99.0875 150.072C99.4067 149.883 99.5323 149.485 99.3673 149.185L97.6331 146.02C97.5845 145.932 97.5132 145.857 97.4266 145.805C97.3114 145.736 97.1713 145.708 97.0319 145.726L95.0255 145.981C94.8939 146.437 94.7343 146.884 94.5476 147.32L96.6067 147.058C96.6112 147.057 96.6154 147.057 96.6196 147.057Z" fill="#111111"/>
<path d="M79.3304 134.829C79.2264 134.768 79.1083 134.733 78.9873 134.73L75.2561 134.616C74.8467 134.603 74.4788 134.924 74.4352 135.334C74.4063 135.616 74.5389 135.866 74.7588 135.998C74.8624 136.06 74.9802 136.094 75.1008 136.097L78.3533 136.196L79.061 138.246C79.4375 137.831 79.8426 137.443 80.2733 137.085L79.6182 135.184C79.5673 135.036 79.4653 134.91 79.3304 134.829Z" fill="#FF6F1E"/>
<path d="M79.061 138.346C79.0401 138.346 79.0198 138.339 79.0028 138.327C78.9858 138.315 78.973 138.298 78.9663 138.278L78.2812 136.293L75.0977 136.196C74.9601 136.192 74.8256 136.154 74.7072 136.083C74.446 135.927 74.3036 135.635 74.3355 135.323C74.3845 134.863 74.8027 134.503 75.2592 134.515L78.9903 134.63C79.1284 134.633 79.2632 134.673 79.382 134.743C79.5368 134.836 79.6539 134.981 79.7128 135.151L80.368 137.052C80.3746 137.071 80.3752 137.092 80.3697 137.111C80.3643 137.131 80.3529 137.148 80.3373 137.161C79.9103 137.517 79.5086 137.902 79.1351 138.313C79.1258 138.323 79.1144 138.331 79.1016 138.337C79.0888 138.343 79.075 138.346 79.061 138.346ZM75.233 134.715C74.8833 134.715 74.5723 134.993 74.5349 135.344C74.5111 135.578 74.6165 135.795 74.8105 135.912C74.897 135.963 74.9986 135.993 75.104 135.996L78.3565 136.095C78.3981 136.097 78.4346 136.123 78.4482 136.163L79.1011 138.054C79.4325 137.699 79.7848 137.365 80.1562 137.052L79.5235 135.216C79.4805 135.09 79.3938 134.983 79.2789 134.915C79.1896 134.862 79.0882 134.832 78.9843 134.83L75.2532 134.715L75.233 134.715Z" fill="#111111"/>
<path d="M89.2411 153.068C88.7415 153.344 88.2215 153.581 87.6855 153.777L87.5251 155.476C87.5103 155.631 87.5446 155.782 87.6235 155.909L89.2607 158.577C89.3166 158.669 89.3938 158.746 89.4859 158.801C89.7161 158.939 90.0247 158.937 90.2809 158.77C90.6372 158.54 90.758 158.078 90.5508 157.74L89.0343 155.268L89.2411 153.068Z" fill="#FF6F1E"/>
<path d="M89.85 159C89.7037 159.001 89.56 158.962 89.4342 158.887C89.3282 158.824 89.2392 158.736 89.1751 158.63L87.538 155.962C87.4473 155.816 87.4083 155.644 87.4253 155.467L87.5857 153.768C87.5893 153.73 87.6148 153.697 87.6511 153.684C88.1821 153.489 88.6975 153.254 89.1926 152.981C89.2085 152.972 89.2266 152.968 89.2448 152.969C89.263 152.97 89.2807 152.975 89.296 152.985C89.3112 152.995 89.3235 153.009 89.3314 153.025C89.3393 153.042 89.3426 153.06 89.3409 153.078L89.1371 155.245L90.6362 157.688C90.8714 158.072 90.7364 158.595 90.3353 158.854C90.191 158.949 90.0225 158.999 89.85 159ZM87.7794 153.85L87.6249 155.486C87.6122 155.619 87.6411 155.748 87.7087 155.857L89.3461 158.526C89.3934 158.603 89.4591 158.669 89.5374 158.715C89.741 158.838 90.0114 158.826 90.226 158.686C90.5369 158.486 90.6439 158.085 90.4651 157.793L88.9486 155.321C88.9373 155.303 88.9322 155.281 88.9343 155.259L89.1236 153.246C88.6893 153.477 88.2403 153.678 87.7794 153.85Z" fill="#111111"/>
<path d="M76.019 145.134L74.0431 146.272L71.0584 146.043C70.6503 146.012 70.2707 146.318 70.2088 146.724C70.1644 147.019 70.2974 147.286 70.5271 147.423C70.6206 147.479 70.726 147.512 70.8346 147.52L74.0564 147.768C74.2096 147.779 74.3663 147.743 74.5056 147.663L76.0318 146.784C75.982 146.235 75.9777 145.683 76.019 145.134Z" fill="#FF6F1E"/>
<path d="M74.1132 147.87C74.0917 147.87 74.0702 147.869 74.0487 147.867L70.8269 147.619C70.7027 147.611 70.5822 147.573 70.4754 147.509C70.2045 147.346 70.0609 147.032 70.1096 146.709C70.1792 146.252 70.6074 145.907 71.066 145.942L74.0199 146.17L75.9689 145.047C75.9847 145.037 76.0027 145.033 76.0209 145.033C76.0391 145.034 76.0569 145.039 76.0723 145.049C76.0877 145.058 76.1002 145.072 76.1084 145.088C76.1166 145.104 76.1203 145.123 76.1189 145.141C76.0783 145.685 76.0825 146.231 76.1315 146.774C76.1332 146.793 76.1295 146.813 76.1207 146.829C76.1119 146.846 76.0984 146.861 76.0817 146.87L74.5555 147.749C74.4213 147.827 74.2687 147.869 74.1132 147.87ZM71.0013 146.14C70.665 146.14 70.3596 146.4 70.3079 146.739C70.2707 146.986 70.3744 147.215 70.5787 147.337C70.6577 147.385 70.7462 147.412 70.842 147.42L74.064 147.668C74.1986 147.678 74.3336 147.646 74.4552 147.576L75.9262 146.729C75.8867 146.258 75.8803 145.785 75.9069 145.314L74.0933 146.359C74.0759 146.369 74.0557 146.373 74.0356 146.372L71.0508 146.142C71.0343 146.141 71.0178 146.14 71.0013 146.14Z" fill="#111111"/>
<path d="M91.4146 135.673C90.6118 135.191 89.748 134.863 88.8531 134.68C87.3857 134.379 85.8351 134.467 84.3339 134.904C83.8446 135.047 83.366 135.224 82.9016 135.434C82.429 135.648 81.9716 135.894 81.5326 136.17C82.2311 137.907 84.39 140.096 87.3563 141.876C90.3227 143.657 93.3216 144.562 95.2564 144.406C95.3245 143.909 95.3561 143.407 95.3509 142.905C95.346 142.414 95.3037 141.924 95.2244 141.439C94.9802 139.955 94.3866 138.579 93.4638 137.446C92.8893 136.74 92.1958 136.14 91.4146 135.673Z" fill="#FFD3A8"/>
<path d="M94.8079 144.524C92.7991 144.524 89.9816 143.569 87.3047 141.963C84.4181 140.231 82.1707 138.026 81.4396 136.208C81.4308 136.186 81.43 136.162 81.4373 136.14C81.4445 136.118 81.4593 136.099 81.4792 136.086C81.9221 135.808 82.3835 135.559 82.8603 135.344C83.329 135.132 83.812 134.953 84.3059 134.809C85.8391 134.362 87.4185 134.284 88.8733 134.582C89.7982 134.771 90.6706 135.11 91.4663 135.587C92.2575 136.061 92.9598 136.668 93.5417 137.383C94.4576 138.508 95.0737 139.906 95.3234 141.424C95.4034 141.913 95.4462 142.409 95.4513 142.905C95.4567 143.405 95.4246 143.915 95.3557 144.42C95.3526 144.443 95.3419 144.464 95.3253 144.479C95.3087 144.495 95.2872 144.505 95.2645 144.506C95.1126 144.518 94.9603 144.524 94.8079 144.524ZM81.6576 136.211C82.4054 137.975 84.5982 140.105 87.408 141.791C90.222 143.48 93.1831 144.441 95.1677 144.313C95.2279 143.844 95.2557 143.371 95.2507 142.907C95.2457 142.421 95.2039 141.936 95.1255 141.456C94.8814 139.972 94.28 138.608 93.3861 137.51C92.8188 136.813 92.1341 136.22 91.363 135.759C90.5868 135.293 89.7355 134.963 88.8329 134.778C87.41 134.487 85.864 134.564 84.3619 135.001C83.8772 135.143 83.403 135.318 82.9429 135.526C82.5001 135.727 82.0708 135.955 81.6576 136.211Z" fill="#111111"/>
<path d="M95.2564 144.406C93.3217 144.563 90.3228 143.657 87.3563 141.877L79.9296 153.231C82.2474 154.622 85.0746 154.731 87.6855 153.778C88.2215 153.582 88.7416 153.345 89.2411 153.069C90.8715 152.17 92.3468 150.836 93.4637 149.128C93.8154 148.592 94.1236 148.028 94.3853 147.442C94.6099 146.939 94.7978 146.421 94.9474 145.891C95.0848 145.404 95.1881 144.908 95.2564 144.406Z" fill="#FFD3A8"/>
<path d="M84.2683 154.497C82.6954 154.497 81.1844 154.1 79.8779 153.316C79.8663 153.309 79.8563 153.3 79.8484 153.289C79.8405 153.278 79.8349 153.266 79.8319 153.253C79.8289 153.24 79.8285 153.226 79.8309 153.213C79.8332 153.2 79.8382 153.187 79.8456 153.176L87.2724 141.822C87.2865 141.8 87.3086 141.785 87.3339 141.779C87.3592 141.773 87.3858 141.777 87.408 141.791C90.2603 143.503 93.2651 144.467 95.2483 144.306C95.2633 144.305 95.2783 144.307 95.2923 144.313C95.3063 144.318 95.3189 144.326 95.3293 144.337C95.3396 144.348 95.3473 144.361 95.3519 144.375C95.3565 144.39 95.3579 144.405 95.3558 144.42C95.2868 144.926 95.1826 145.426 95.0439 145.918C94.8928 146.452 94.7033 146.975 94.4769 147.482C94.213 148.073 93.9022 148.642 93.5476 149.183C92.4596 150.846 90.9872 152.22 89.2896 153.156C88.7855 153.434 88.2607 153.674 87.72 153.872C86.5736 154.29 85.4047 154.497 84.2683 154.497ZM80.0709 153.198C82.2552 154.469 85.0114 154.647 87.6512 153.684C88.1823 153.489 88.6976 153.254 89.1927 152.981C90.8618 152.061 92.3097 150.71 93.3799 149.074C93.7285 148.541 94.0341 147.982 94.2939 147.401C94.5163 146.903 94.7025 146.389 94.851 145.864C94.9759 145.421 95.0724 144.97 95.14 144.515C93.1366 144.628 90.1907 143.678 87.3877 142.012L80.0709 153.198Z" fill="#111111"/>
<path d="M81.5326 136.17C81.0931 136.447 80.6724 136.752 80.2733 137.084C79.8427 137.443 79.4376 137.831 79.061 138.245C78.6271 138.723 78.2317 139.235 77.8785 139.775C76.7616 141.482 76.152 143.336 76.019 145.133C75.9778 145.683 75.982 146.235 76.0317 146.784C76.2758 149.45 77.6117 151.839 79.9296 153.23L87.3564 141.876C84.3899 140.096 82.2311 137.906 81.5326 136.17Z" fill="#FFD3A8"/>
<path d="M79.9295 153.331C79.9113 153.331 79.8935 153.326 79.878 153.316C77.6259 151.965 76.1876 149.587 75.9318 146.793C75.8817 146.239 75.8774 145.682 75.919 145.127C76.0577 143.254 76.7062 141.384 77.7946 139.721C78.1509 139.176 78.5495 138.66 78.9868 138.179C79.3666 137.76 79.7751 137.369 80.2093 137.008C80.6118 136.673 81.0361 136.365 81.4792 136.086C81.4916 136.078 81.5056 136.073 81.5202 136.071C81.5348 136.069 81.5496 136.071 81.5636 136.075C81.5776 136.08 81.5904 136.087 81.6011 136.097C81.6119 136.107 81.6203 136.12 81.6257 136.133C82.3413 137.912 84.5571 140.08 87.4081 141.791C87.4197 141.798 87.4298 141.807 87.4377 141.818C87.4457 141.829 87.4513 141.841 87.4543 141.854C87.4573 141.868 87.4577 141.881 87.4553 141.894C87.4529 141.908 87.4478 141.92 87.4404 141.932L80.0135 153.285C80.0044 153.299 79.992 153.311 79.9773 153.319C79.9626 153.327 79.9462 153.331 79.9295 153.331ZM81.4859 136.319C81.0864 136.576 80.7029 136.858 80.3375 137.162C79.9105 137.517 79.5087 137.902 79.1352 138.313C78.705 138.787 78.3128 139.294 77.9624 139.83C76.8926 141.466 76.2551 143.302 76.1189 145.141C76.0783 145.685 76.0825 146.232 76.1316 146.775C76.3782 149.47 77.7495 151.768 79.8988 153.095L87.2156 141.909C84.4302 140.22 82.254 138.096 81.4859 136.319Z" fill="#111111"/>
</g>
<g clip-path="url(#clip5_880_18352)">
<path d="M62.885 56.9214L61.1011 60.6541L53.3715 59.2366L55.1553 55.5039L62.885 56.9214Z" fill="#FF6F1E"/>
<path d="M61.1012 60.7656C61.0945 60.7656 61.0877 60.7651 61.0809 60.7638L53.3511 59.3463C53.3341 59.3432 53.3181 59.3362 53.3042 59.3259C53.2903 59.3156 53.2791 59.3022 53.2712 59.2868C53.2633 59.2714 53.2591 59.2544 53.2589 59.2372C53.2587 59.2199 53.2625 59.2028 53.2699 59.1872L55.0537 55.4545C55.0644 55.4323 55.0821 55.4141 55.1041 55.4029C55.1261 55.3917 55.1512 55.388 55.1755 55.3925L62.9053 56.81C62.9223 56.8131 62.9383 56.8201 62.9522 56.8304C62.9661 56.8407 62.9774 56.8541 62.9852 56.8695C62.9931 56.8849 62.9973 56.9019 62.9975 56.9192C62.9977 56.9364 62.994 56.9535 62.9865 56.9691L61.2026 60.7018C61.1934 60.7209 61.1791 60.737 61.1611 60.7483C61.1432 60.7596 61.1224 60.7656 61.1012 60.7656ZM53.5362 59.1516L61.0368 60.527L62.7202 57.0045L55.2196 55.6291L53.5362 59.1516Z" fill="#111111"/>
<path d="M53.862 54.639L52.9105 53.0048C52.7315 52.6971 52.7047 52.3842 52.8263 52.1299L51.0425 55.8625C50.9209 56.117 50.9477 56.4299 51.1267 56.7374L52.0781 58.3716C52.3269 58.7991 52.8336 59.1387 53.3714 59.2364L55.1552 55.5036C54.6175 55.406 54.1109 55.0665 53.862 54.639Z" fill="#FF6F1E"/>
<path d="M53.3715 59.3488C53.3647 59.3489 53.358 59.3482 53.3514 59.347C52.7837 59.2439 52.2458 58.8832 51.9809 58.4282L51.0295 56.794C50.8322 56.4553 50.8009 56.1072 50.941 55.814L52.7245 52.0822C52.7306 52.0686 52.7394 52.0562 52.7503 52.046C52.7612 52.0358 52.7741 52.0278 52.7881 52.0226C52.8021 52.0174 52.8171 52.0151 52.832 52.0157C52.847 52.0164 52.8617 52.02 52.8752 52.0264C52.8887 52.0328 52.9009 52.0418 52.9109 52.053C52.9209 52.0641 52.9285 52.0771 52.9334 52.0913C52.9383 52.1054 52.9404 52.1204 52.9394 52.1353C52.9384 52.1503 52.9345 52.1649 52.9278 52.1782L52.9275 52.1789C52.8209 52.4028 52.8493 52.6759 53.0078 52.9481L53.9592 54.5823C54.1924 54.9829 54.6698 55.3011 55.1754 55.393C55.1925 55.3961 55.2085 55.403 55.2224 55.4134C55.2363 55.4237 55.2476 55.437 55.2555 55.4524C55.2634 55.4678 55.2676 55.4848 55.2678 55.5021C55.2681 55.5194 55.2643 55.5365 55.2569 55.5521L53.473 59.2849C53.4639 59.304 53.4495 59.3202 53.4315 59.3315C53.4135 59.3428 53.3927 59.3488 53.3715 59.3488ZM52.6704 52.7169L51.1439 55.911C51.0368 56.135 51.0653 56.4084 51.2238 56.6809L52.1752 58.3151C52.3955 58.6935 52.8338 58.9985 53.3078 59.1084L54.9926 55.5829C54.4788 55.4498 54.0073 55.1122 53.7647 54.6954L52.8132 53.0612C52.7497 52.9537 52.7016 52.8378 52.6704 52.7169Z" fill="#111111"/>
<path d="M69.706 57.3209L61.3998 64.1832L59.616 67.9159L67.9222 61.0536C68.0096 60.9829 68.0802 60.8936 68.1291 60.7923L69.9129 57.0596C69.8641 57.1609 69.7935 57.2501 69.706 57.3209Z" fill="#FF6F1E"/>
<path d="M59.6158 68.028C59.5969 68.028 59.5782 68.0232 59.5615 68.014C59.5449 68.0048 59.5309 67.9916 59.5207 67.9755C59.5106 67.9595 59.5047 67.9411 59.5036 67.9221C59.5025 67.9032 59.5062 67.8842 59.5144 67.8671L61.2982 64.1344C61.3053 64.1196 61.3155 64.1066 61.328 64.0961L69.6343 57.2338L69.6346 57.2335C69.7091 57.1734 69.7692 57.0976 69.8109 57.0114L69.8112 57.0106C69.8245 56.9845 69.8475 56.9646 69.8753 56.9552C69.9031 56.9458 69.9334 56.9476 69.9599 56.9602C69.9864 56.9729 70.0069 56.9953 70.017 57.0229C70.0271 57.0504 70.0261 57.0808 70.0141 57.1076L70.0139 57.108L68.2303 60.8402C68.1744 60.9564 68.0935 61.0588 67.9933 61.14L59.6873 68.0019C59.6674 68.0189 59.642 68.0282 59.6158 68.028ZM61.4905 64.2538L59.937 67.5044L67.8506 60.9666C67.9254 60.9062 67.9858 60.83 68.0275 60.7434L69.5203 57.6198L61.4905 64.2538Z" fill="#111111"/>
<path d="M53.5061 51.6519C53.6887 51.6164 53.8932 51.6168 54.107 51.6567L67.8985 54.2161C68.4352 54.3161 68.9419 54.6557 69.1884 55.0793L69.8303 56.182C70.0781 56.6075 70.0297 57.0552 69.7058 57.3205L61.3996 64.1828C61.2736 64.2874 61.11 64.3615 60.9264 64.3972C60.6915 64.443 60.4283 64.4275 60.1639 64.3544C59.6827 64.2213 59.2609 63.9118 59.0376 63.5283L58.0861 61.8941C57.8372 61.4666 57.8867 61.021 58.2116 60.7531L62.885 56.9206L55.1553 55.503C54.6174 55.4053 54.1108 55.0658 53.8619 54.6383L52.9104 53.0041C52.6871 52.6206 52.7007 52.2286 52.9434 51.9522C53.0796 51.7992 53.2755 51.6967 53.5061 51.6519Z" fill="white"/>
<path d="M60.6498 64.5358C60.483 64.5358 60.3087 64.5115 60.134 64.4632C59.6247 64.3222 59.1785 63.9941 58.9405 63.5853L57.9891 61.9511C57.712 61.4751 57.7713 60.9709 58.1402 60.6667L62.626 56.9877L55.135 55.614C54.5676 55.5109 54.0297 55.1502 53.7647 54.6951L52.8133 53.0609C52.5654 52.6352 52.5825 52.1931 52.8589 51.8784C53.0101 51.7084 53.2264 51.5921 53.4846 51.5419C53.6853 51.5028 53.9017 51.5043 54.1277 51.5466L67.9191 54.106C68.4865 54.2118 69.0229 54.5718 69.2857 55.0231L69.9276 56.1259C70.2051 56.6024 70.146 57.1057 69.7773 57.4081L61.4713 64.2699C61.3312 64.3863 61.1501 64.4687 60.948 64.5081C60.8526 64.5266 60.7526 64.5358 60.6498 64.5358ZM53.5277 51.7625C53.3183 51.8033 53.1454 51.8948 53.0276 52.0272C52.8186 52.2652 52.8109 52.6096 53.0077 52.9477L53.9592 54.5819C54.1925 54.9825 54.6699 55.3007 55.1754 55.3926L62.9054 56.8101C62.9265 56.814 62.9461 56.8238 62.9618 56.8384C62.9775 56.853 62.9887 56.8718 62.994 56.8926C62.9994 56.9134 62.9987 56.9352 62.9921 56.9556C62.9854 56.976 62.973 56.9941 62.9565 57.0077L58.2833 60.8403C57.9998 61.074 57.9615 61.4563 58.1836 61.8378L59.1351 63.472C59.3443 63.8313 59.7402 64.1207 60.1942 64.2463C60.4431 64.3151 60.6889 64.3293 60.9052 64.2871C61.0704 64.255 61.2166 64.1891 61.328 64.0965L69.6344 57.2341C69.9136 57.0053 69.9523 56.6147 69.7333 56.2388L69.0913 55.136C68.86 54.7388 68.3838 54.4211 67.878 54.3268L54.0865 51.7675C53.8912 51.731 53.6981 51.7293 53.5277 51.7625Z" fill="#111111"/>
<path d="M60.9266 64.3982C60.6917 64.4439 60.4285 64.4284 60.1642 64.3553C59.683 64.2222 59.2612 63.9129 59.0379 63.5292L58.0864 61.8951C57.9075 61.5876 57.8827 61.2709 58.0039 61.0176L56.2199 64.7503C56.0989 65.0037 56.1236 65.3204 56.3025 65.6278L57.254 67.262C57.4773 67.6455 57.8991 67.955 58.3803 68.0881C58.6446 68.1612 58.9078 68.1766 59.1427 68.1309C59.3262 68.0952 59.4899 68.0211 59.6158 67.9165L61.3997 64.1838C61.2737 64.2883 61.1101 64.3624 60.9266 64.3982Z" fill="#FF6F1E"/>
<path d="M58.866 68.2688C58.6916 68.2679 58.5181 68.2434 58.3502 68.1961C57.8409 68.0551 57.3947 67.727 57.1567 67.3182L56.2053 65.684C56.011 65.3504 55.9794 64.9923 56.1185 64.7014L57.9024 60.9686C57.9157 60.9425 57.9387 60.9226 57.9665 60.9132C57.9943 60.9038 58.0246 60.9056 58.0511 60.9182C58.0776 60.9309 58.098 60.9533 58.1082 60.9809C58.1183 61.0084 58.1172 61.0388 58.1053 61.0656L58.1052 61.0658C57.9989 61.2884 58.0274 61.5699 58.1835 61.8379L59.135 63.4721C59.3441 63.8312 59.74 64.1208 60.1941 64.2464C60.443 64.3152 60.6888 64.3293 60.9051 64.2872C61.0703 64.2549 61.2166 64.189 61.328 64.0966C61.3477 64.0802 61.3724 64.0711 61.398 64.0707C61.4237 64.0703 61.4486 64.0787 61.4689 64.0944C61.4891 64.1102 61.5033 64.1324 61.5092 64.1573C61.5151 64.1822 61.5123 64.2084 61.5013 64.2315L59.7174 67.9643C59.7104 67.9789 59.7003 67.9919 59.6878 68.0023C59.5475 68.1188 59.3665 68.2012 59.1642 68.2407C59.0688 68.2596 58.9688 68.2688 58.866 68.2688ZM57.8475 61.6052L56.3213 64.7984C56.2149 65.0211 56.2435 65.3026 56.3996 65.5709L57.3511 67.2051C57.5603 67.5642 57.9561 67.8538 58.4102 67.9794C58.6589 68.0482 58.9047 68.0622 59.1212 68.0202C59.2774 67.9897 59.4165 67.9291 59.5254 67.8445L61.146 64.4535C61.083 64.4764 61.0168 64.4947 60.9481 64.5082C60.6978 64.557 60.4164 64.5415 60.1342 64.4635C59.6247 64.3225 59.1785 63.9943 58.9407 63.5856L57.9892 61.9514C57.9255 61.8434 57.8778 61.7268 57.8475 61.6052Z" fill="#111111"/>
<path d="M43.9728 50.9968C43.9284 50.7976 43.9485 50.6129 44.0235 50.4561L42.2397 54.1888C42.1646 54.3458 42.1446 54.5304 42.1889 54.7295L46.2718 73.1567L48.0556 69.424L43.9728 50.9968Z" fill="#FF6F1E"/>
<path d="M46.2718 73.2688C46.2462 73.2688 46.2213 73.26 46.2014 73.244C46.1814 73.228 46.1675 73.2057 46.1619 73.1807L42.079 54.7535C42.0303 54.5348 42.0508 54.3226 42.1381 54.1399L43.922 50.4071C43.9353 50.381 43.9583 50.3611 43.9861 50.3517C44.0139 50.3422 44.0443 50.344 44.0707 50.3567C44.0972 50.3693 44.1177 50.3918 44.1278 50.4194C44.1379 50.4469 44.1369 50.4773 44.1249 50.504C44.0595 50.6409 44.0448 50.8027 44.0825 50.9719L48.1653 69.3993C48.1707 69.4238 48.1678 69.4494 48.157 69.472L46.3731 73.2047C46.364 73.2238 46.3496 73.24 46.3317 73.2514C46.3138 73.2627 46.293 73.2687 46.2718 73.2688ZM43.8677 51.0423L42.341 54.2369C42.2756 54.3738 42.2609 54.5356 42.2986 54.7048L46.3109 72.8135L47.9374 69.4103L43.8677 51.0423Z" fill="#111111"/>
<path d="M46.4732 49.6381C46.8671 49.5614 47.3396 49.6584 47.7364 49.8948C48.1366 50.1327 48.42 50.4868 48.4989 50.8451L52.5526 69.2779C52.6615 69.7772 52.3674 70.1837 51.819 70.2904L50.0801 70.6289C49.6885 70.7052 49.217 70.6102 48.818 70.3743C48.4201 70.1359 48.1367 69.7818 48.0555 69.4239L43.9727 50.9969C43.8617 50.498 44.1546 50.0896 44.703 49.9828L46.4732 49.6381Z" fill="white"/>
<path d="M49.8038 70.7671C49.4587 70.7671 49.0861 70.6635 48.7608 70.4711C48.3382 70.2179 48.0337 69.8359 47.9458 69.4489L43.8628 51.0212C43.8044 50.7589 43.8443 50.5123 43.9779 50.3082C44.1225 50.0874 44.3724 49.9327 44.6813 49.8725L46.4515 49.5278C46.8707 49.446 47.3725 49.5472 47.7938 49.7982C48.2185 50.0507 48.5231 50.433 48.6086 50.8209L52.6624 69.2538C52.7196 69.5162 52.679 69.7623 52.5452 69.9655C52.4001 70.186 52.1498 70.3405 51.8403 70.4008L50.1014 70.7394C50.0061 70.758 49.9062 70.7671 49.8038 70.7671ZM46.7514 49.7245C46.663 49.7245 46.5768 49.7324 46.4946 49.7484L44.7244 50.0931C44.4719 50.1424 44.2788 50.2593 44.1661 50.4313C44.0665 50.5835 44.0376 50.7706 44.0825 50.9724L48.1653 69.3996C48.2398 69.7274 48.5054 70.0558 48.8759 70.2778C49.2509 70.4996 49.6931 70.5897 50.0587 70.5186L51.7976 70.1801C52.0508 70.1308 52.2443 70.0139 52.3575 69.842C52.4572 69.6903 52.4868 69.5035 52.4428 69.3019L48.3891 50.8693C48.3167 50.541 48.0511 50.2129 47.6789 49.9915C47.3879 49.8181 47.0564 49.7245 46.7514 49.7245Z" fill="#111111"/>
<path d="M51.819 70.2901L50.08 70.6287C49.6884 70.705 49.217 70.61 48.8181 70.3741C48.4202 70.1357 48.1367 69.7816 48.0554 69.4238L46.2716 73.1565C46.3528 73.5143 46.6363 73.8684 47.0342 74.1067C47.4333 74.3427 47.9046 74.4377 48.2962 74.3614L50.0352 74.0228C50.3657 73.9585 50.6039 73.7852 50.717 73.5483L52.5009 69.8157C52.3877 70.0525 52.1496 70.2257 51.819 70.2901Z" fill="#FF6F1E"/>
<path d="M48.0198 74.4995C47.6746 74.4995 47.3021 74.3959 46.9769 74.2035C46.5542 73.9504 46.2498 73.5684 46.1618 73.1813C46.1562 73.1566 46.1591 73.1307 46.1701 73.1079L47.9539 69.3752C47.964 69.3542 47.9804 69.3369 48.0008 69.3256C48.0212 69.3143 48.0446 69.3096 48.0677 69.3122C48.0909 69.3148 48.1127 69.3245 48.1301 69.34C48.1475 69.3555 48.1597 69.376 48.165 69.3987C48.2395 69.727 48.5053 70.0556 48.8758 70.2774C49.2508 70.4992 49.693 70.5892 50.0584 70.5182L51.7974 70.1795C52.085 70.1235 52.2986 69.9772 52.3991 69.7674L52.3993 69.7668C52.4126 69.7407 52.4356 69.7208 52.4634 69.7114C52.4912 69.702 52.5215 69.7038 52.548 69.7164C52.5745 69.729 52.595 69.7515 52.6051 69.7791C52.6152 69.8066 52.6142 69.837 52.6022 69.8638L52.6017 69.8649L50.8184 73.5965C50.6866 73.8724 50.416 74.0629 50.0565 74.133L48.3176 74.4715C48.2221 74.4904 48.1222 74.4995 48.0198 74.4995ZM46.3905 73.1685C46.476 73.4844 46.7354 73.7967 47.092 74.0102C47.467 74.232 47.9092 74.3221 48.2747 74.251L50.0137 73.9125C50.3015 73.8564 50.5153 73.7099 50.6156 73.4998L52.1429 70.304C52.0513 70.3467 51.95 70.3792 51.8405 70.4004L50.1015 70.7391C49.6837 70.8205 49.1824 70.7202 48.7607 70.4708C48.4361 70.2764 48.1812 70.0059 48.0406 69.7156L46.3905 73.1685Z" fill="#111111"/>
<path d="M38.7688 58.6941L34.0979 62.5263L32.314 66.259L36.9849 62.4268C37.0736 62.3553 37.1453 62.265 37.1948 62.1625L38.9787 58.4297C38.9292 58.5323 38.8575 58.6226 38.7688 58.6941Z" fill="#FF6F1E"/>
<path d="M32.314 66.3719C32.2949 66.3719 32.2763 66.3671 32.2596 66.3579C32.243 66.3488 32.2289 66.3355 32.2188 66.3195C32.2086 66.3034 32.2027 66.285 32.2016 66.2661C32.2005 66.2471 32.2042 66.2281 32.2124 66.211L33.9963 62.4782C34.0034 62.4634 34.0138 62.4502 34.0265 62.4398L38.6974 58.6076L38.6976 58.6074C38.7735 58.5465 38.8348 58.4694 38.877 58.3817C38.8903 58.3556 38.9133 58.3357 38.9411 58.3263C38.9689 58.3169 38.9992 58.3187 39.0257 58.3313C39.0522 58.3439 39.0727 58.3664 39.0828 58.394C39.0929 58.4215 39.0919 58.4519 39.0799 58.4787L39.0793 58.4799L37.2961 62.2113C37.2395 62.3289 37.1574 62.4324 37.0558 62.5143L32.3851 66.3464C32.3651 66.3629 32.3399 66.3719 32.314 66.3719ZM34.1885 62.5979L32.6334 65.8521L36.9136 62.3405C36.9895 62.2794 37.0509 62.2022 37.0933 62.1145L38.5868 58.9895L34.1885 62.5979Z" fill="#111111"/>
<path d="M44.1576 67.3154L42.3738 71.0481C42.3425 71.1135 42.3019 71.174 42.2534 71.2279C42.1216 71.3781 41.926 71.4829 41.6909 71.5286C41.5074 71.5644 41.2995 71.5626 41.092 71.5229L42.8759 67.7903C43.0834 67.83 43.2912 67.8316 43.4747 67.796C43.7097 67.7502 43.9054 67.6454 44.0372 67.4952C44.0857 67.4414 44.1263 67.3808 44.1576 67.3154Z" fill="#FF6F1E"/>
<path d="M41.4154 71.6671C41.3027 71.6671 41.1867 71.656 41.0709 71.6338C41.054 71.6306 41.038 71.6236 41.0243 71.6132C41.0106 71.6029 40.9994 71.5895 40.9916 71.5742C40.9838 71.5588 40.9797 71.5419 40.9795 71.5247C40.9793 71.5075 40.9831 71.4905 40.9905 71.475L42.7743 67.7423C42.7963 67.6962 42.8468 67.6708 42.8969 67.6804C43.0903 67.7173 43.2826 67.7194 43.4531 67.6862C43.664 67.6452 43.8366 67.5536 43.9525 67.4216C43.9941 67.3755 44.029 67.3235 44.0559 67.2675C44.0692 67.2413 44.0922 67.2214 44.12 67.212C44.1478 67.2026 44.1782 67.2044 44.2046 67.217C44.2311 67.2297 44.2516 67.2522 44.2617 67.2797C44.2718 67.3072 44.2708 67.3376 44.2588 67.3644L44.2584 67.3653L42.4749 71.097C42.4389 71.172 42.3924 71.2415 42.3368 71.3033C42.1886 71.4723 41.9723 71.5887 41.712 71.6395C41.6178 71.6579 41.5179 71.6671 41.4154 71.6671ZM41.2593 71.4344C41.4024 71.4489 41.542 71.4437 41.6693 71.4189C41.8802 71.3778 42.0528 71.2863 42.1687 71.1543C42.2114 71.1066 42.2459 71.055 42.2721 71.0002L43.7966 67.8103C43.7053 67.8533 43.6045 67.8858 43.4962 67.9069C43.3236 67.9405 43.1332 67.9434 42.9408 67.9157L41.2593 71.4344Z" fill="#111111"/>
<path d="M42.876 67.7898L41.0921 71.5225L27.3005 68.9631L29.0845 65.2305L42.876 67.7898Z" fill="#FF6F1E"/>
<path d="M41.0921 71.6351C41.0852 71.6351 41.0783 71.6345 41.0715 71.6332L27.28 69.0739C27.263 69.0707 27.247 69.0637 27.2332 69.0533C27.2194 69.043 27.2081 69.0296 27.2003 69.0142C27.1925 68.9988 27.1883 68.9819 27.1881 68.9646C27.1879 68.9474 27.1917 68.9303 27.1991 68.9148L28.983 65.1821C29.0049 65.1362 29.055 65.1108 29.105 65.12L42.8966 67.6794C42.9136 67.6826 42.9296 67.6896 42.9434 67.6999C42.9572 67.7103 42.9684 67.7236 42.9762 67.739C42.984 67.7544 42.9882 67.7714 42.9884 67.7886C42.9886 67.8059 42.9849 67.8229 42.9775 67.8385L41.1936 71.5711C41.1745 71.6107 41.1347 71.6351 41.0921 71.6351ZM27.4652 68.8796L41.0278 71.3964L42.7113 67.8738L29.1486 65.357L27.4652 68.8796Z" fill="#111111"/>
<path d="M27.7944 64.3679L27.1524 63.2652C26.9745 62.9597 26.9501 62.6416 27.0714 62.3877L25.2876 66.1203C25.1663 66.3742 25.1907 66.6922 25.3686 66.9978L26.0106 68.1005C26.2583 68.5261 26.765 68.8657 27.3004 68.9638L29.0842 65.2311C28.5488 65.1329 28.0421 64.7933 27.7944 64.3679Z" fill="#FF6F1E"/>
<path d="M27.3006 69.0758C27.2939 69.0758 27.2871 69.0752 27.2803 69.074C26.7139 68.9702 26.1774 68.6102 25.9134 68.1567L25.2714 67.0541C25.0779 66.7215 25.0467 66.3634 25.1862 66.0715L26.9696 62.3396L26.97 62.3388C26.9833 62.3126 27.0063 62.2927 27.0341 62.2833C27.0619 62.2739 27.0922 62.2757 27.1187 62.2883C27.1452 62.301 27.1656 62.3235 27.1758 62.351C27.1859 62.3785 27.1848 62.4089 27.1729 62.4357C27.0659 62.6593 27.0939 62.9409 27.2496 63.2081L27.8915 64.311C28.124 64.7101 28.6001 65.0278 29.1045 65.1201C29.1215 65.1232 29.1375 65.1302 29.1514 65.1405C29.1652 65.1508 29.1765 65.1642 29.1844 65.1796C29.1922 65.1949 29.1964 65.2119 29.1967 65.2292C29.1969 65.2465 29.1931 65.2636 29.1857 65.2792L27.4018 69.0119C27.3927 69.0311 27.3784 69.0472 27.3605 69.0585C27.3426 69.0698 27.3218 69.0758 27.3006 69.0758ZM26.9144 62.9767L25.3892 66.1685C25.2823 66.3921 25.3102 66.6736 25.4659 66.9409L26.1078 68.0435C26.3272 68.4206 26.7642 68.7249 27.2371 68.8353L28.9219 65.3096C28.4095 65.1762 27.9391 64.8393 27.6973 64.424L27.0553 63.3211C26.9919 63.2138 26.9445 63.0978 26.9144 62.9767Z" fill="#111111"/>
<path d="M36.0557 55.0502C36.2857 55.0054 36.5481 55.0186 36.8167 55.0929C37.3013 55.2276 37.7219 55.535 37.9452 55.9185L38.8966 57.5527C39.1455 57.9802 39.0949 58.4283 38.7689 58.6942L34.0979 62.5264L41.8255 63.9443C42.3644 64.0441 42.8721 64.3812 43.1211 64.8087L44.0725 66.4429C44.2959 66.8264 44.2835 67.2203 44.0373 67.4951C43.9055 67.6453 43.7099 67.7501 43.4749 67.7958C43.2913 67.8316 43.0835 67.8298 42.876 67.7901L29.0844 65.2309C28.5489 65.1328 28.0422 64.7933 27.7946 64.3677L27.1526 63.265C26.906 62.8414 26.9545 62.3938 27.2771 62.1264L35.5834 55.2641C35.7117 55.1574 35.8735 55.0856 36.0557 55.0502Z" fill="white"/>
<path d="M43.1993 67.9341C43.0866 67.9341 42.9707 67.9229 42.8548 67.9008L29.0638 65.3416C28.4978 65.2379 27.9612 64.8779 27.6973 64.4244L27.0553 63.3216C26.7792 62.8473 26.838 62.3442 27.2052 62.0399L35.5116 55.1775C35.6534 55.0598 35.8293 54.9798 36.0342 54.9399C36.2841 54.8912 36.5651 54.9067 36.8466 54.9845C37.3583 55.1269 37.8052 55.4549 38.0423 55.862L38.9938 57.4962C39.2719 57.9739 39.2115 58.4783 38.8399 58.7814L34.3567 62.4596L41.8458 63.8339C42.4162 63.9394 42.9549 64.2999 43.2182 64.7523L44.1697 66.3865C44.4192 66.8151 44.401 67.2576 44.1211 67.5703C43.9728 67.7392 43.7566 67.8558 43.4963 67.9064C43.4017 67.9249 43.3019 67.9341 43.1993 67.9341ZM36.0772 55.1606C35.9097 55.1932 35.7677 55.2572 35.655 55.3506L27.3485 62.213C27.0706 62.4434 27.0317 62.8342 27.2495 63.2085L27.8915 64.3112C28.1238 64.7103 28.6 65.0279 29.1044 65.1203L42.8962 67.6797C43.0902 67.7167 43.2825 67.7188 43.453 67.6856C43.6639 67.6445 43.8365 67.553 43.9524 67.421C44.1648 67.1838 44.1729 66.8396 43.9749 66.4995L43.0234 64.8653C42.7916 64.4671 42.3132 64.149 41.8046 64.0549L34.0772 62.6369C34.0561 62.6331 34.0366 62.6232 34.0209 62.6086C34.0052 62.594 33.994 62.5753 33.9887 62.5545C33.9833 62.5338 33.984 62.5119 33.9906 62.4915C33.9973 62.4712 34.0096 62.4531 34.0262 62.4395L38.6971 58.6073C38.9785 58.3779 39.0184 57.9862 38.799 57.6093L37.8475 55.9751C37.6392 55.6175 37.2424 55.3282 36.7861 55.2012C36.5385 55.1327 36.2932 55.1186 36.0772 55.1606Z" fill="#111111"/>
</g>
<defs>
<linearGradient id="paint0_linear_880_18352" x1="115.471" y1="181.474" x2="146.376" y2="71.3314" gradientUnits="userSpaceOnUse">
<stop stop-color="#111111"/>
<stop offset="0.46" stop-color="#FF6F1E"/>
<stop offset="0.716" stop-color="#FF6F1E"/>
<stop offset="1" stop-color="#FFD3A8"/>
</linearGradient>
<linearGradient id="paint1_linear_880_18352" x1="108.347" y1="135.141" x2="82.6816" y2="165.131" gradientUnits="userSpaceOnUse">
<stop offset="0.326" stop-color="#3658C1"/>
<stop offset="0.769" stop-color="#B0C3FF"/>
<stop offset="1" stop-color="#3658C1"/>
</linearGradient>
<clipPath id="clip0_880_18352">
<rect width="61.7" height="62.8" fill="white" transform="translate(178.621 127.684) rotate(10.3142)"/>
</clipPath>
<clipPath id="clip1_880_18352">
<rect width="172.1" height="130.1" fill="white" transform="translate(42.2 63.2002)"/>
</clipPath>
<clipPath id="clip2_880_18352">
<rect width="144.3" height="88.3" fill="white" transform="translate(59.4 80.5)"/>
</clipPath>
<clipPath id="clip3_880_18352">
<rect width="81.1" height="67.2" fill="white" transform="translate(39.1567 103.721) rotate(17.9859)"/>
</clipPath>
<clipPath id="clip4_880_18352">
<rect width="31.1" height="28.6" fill="white" transform="translate(70.1 130.4)"/>
</clipPath>
<clipPath id="clip5_880_18352">
<rect width="45" height="25" fill="white" transform="translate(25.1 49.5)"/>
</clipPath>
</defs>
</svg>
