<svg width="24" height="24" viewBox="0 0 24 24" fill="none" xmlns="http://www.w3.org/2000/svg">
<path d="M20.3423 17.1543H18.6947C18.5822 17.1543 18.4767 17.2036 18.4064 17.2903C18.2423 17.4895 18.0665 17.6817 17.8814 17.8645C17.1241 18.6225 16.2271 19.2266 15.24 19.6434C14.2173 20.0753 13.1181 20.2969 12.0079 20.295C10.8853 20.295 9.79779 20.0746 8.77591 19.6434C7.78879 19.2266 6.89179 18.6225 6.13451 17.8645C5.37587 17.109 4.77095 16.2136 4.35326 15.2278C3.91966 14.2059 3.70169 13.1207 3.70169 11.9981C3.70169 10.8754 3.92201 9.79027 4.35326 8.7684C4.77044 7.78168 5.37044 6.89339 6.13451 6.13168C6.89857 5.36996 7.78685 4.76996 8.77591 4.35277C9.79779 3.92152 10.8853 3.70121 12.0079 3.70121C13.1306 3.70121 14.2181 3.91918 15.24 4.35277C16.229 4.76996 17.1173 5.36996 17.8814 6.13168C18.0665 6.31683 18.24 6.50902 18.4064 6.70589C18.4767 6.79261 18.5845 6.84183 18.6947 6.84183H20.3423C20.49 6.84183 20.5814 6.67777 20.4993 6.55355C18.7017 3.7598 15.5564 1.91058 11.9822 1.91996C6.36654 1.93402 1.86419 6.49261 1.92044 12.1012C1.97669 17.6207 6.47201 22.0762 12.0079 22.0762C15.5728 22.0762 18.704 20.2293 20.4993 17.4426C20.579 17.3184 20.49 17.1543 20.3423 17.1543ZM22.4259 11.8504L19.1001 9.22543C18.9759 9.12699 18.7954 9.21605 18.7954 9.37308V11.1543H11.4361C11.3329 11.1543 11.2486 11.2387 11.2486 11.3418V12.6543C11.2486 12.7575 11.3329 12.8418 11.4361 12.8418H18.7954V14.6231C18.7954 14.7801 18.9783 14.8692 19.1001 14.7707L22.4259 12.1457C22.4483 12.1282 22.4664 12.1058 22.4789 12.0802C22.4914 12.0546 22.4979 12.0265 22.4979 11.9981C22.4979 11.9696 22.4914 11.9415 22.4789 11.916C22.4664 11.8904 22.4483 11.868 22.4259 11.8504Z" fill="#FF4D4F"/>
</svg>
