<svg width="104" height="92" viewBox="0 0 104 92" fill="none" xmlns="http://www.w3.org/2000/svg">
<path d="M21.6144 91.1249C18.4402 91.1249 15.2752 88.6813 14.3049 85.3317L0.453516 37.5164C-0.229094 35.1598 0.328888 32.7871 1.90968 31.3245L33.4328 2.27798C34.2165 1.55361 35.2153 1.08841 36.321 0.932881C37.4227 0.778046 38.5977 0.93524 39.7191 1.38781L84.9375 19.6402C87.1907 20.5502 89.0131 22.5751 89.6938 24.9247L103.545 72.74C104.084 74.6 103.859 76.4921 102.928 77.9314C102.095 79.2199 100.77 80.0514 99.1966 80.2727L22.4553 91.0666C22.1767 91.1056 21.8957 91.1251 21.6144 91.125V91.1249ZM37.1586 1.15251C36.889 1.15251 36.6221 1.17082 36.3596 1.20773C35.31 1.35535 34.3629 1.79599 33.6207 2.4822L2.09766 31.5285C0.59464 32.9191 0.0666019 35.184 0.719822 37.4391L14.5712 85.2544C15.5904 88.7728 19.1092 91.2564 22.4168 90.7916L99.1581 79.9977C100.65 79.7878 101.906 79.0004 102.695 77.7805C103.583 76.4089 103.795 74.5998 103.279 72.8171L89.4274 25.0018C88.7699 22.7323 87.0098 20.7763 84.8338 19.8974L39.6154 1.64504C38.8072 1.31886 37.9711 1.15237 37.1586 1.15237V1.15251Z" fill="#111111"/>
<path d="M103.412 72.7786L98.6629 56.3847L89.5605 24.9633C88.8894 22.6468 87.1116 20.668 84.8857 19.7688L39.6672 1.51662C38.5474 1.06474 37.4009 0.921283 36.3404 1.07043C35.2795 1.21958 34.3044 1.66147 33.5267 2.38028L2.00382 31.4267C0.458661 32.8563 -0.0843491 35.1615 0.586754 37.478L14.4382 85.2934C15.4784 88.8845 19.0613 91.4041 22.4362 90.9293L99.1775 80.1354C102.559 79.6598 104.452 76.3698 103.412 72.7786Z" fill="#FF6F1E"/>
<path d="M65.2229 1.09375L45.4941 3.86871L29.4642 6.12339L9.73645 8.89821L20.323 45.4428L49.4004 57.1772C50.5174 57.6295 51.662 57.7731 52.7231 57.6239C53.7837 57.4748 54.7605 57.0328 55.5411 56.3135L75.8087 37.6363L65.2229 1.09375Z" fill="white"/>
<path d="M51.9058 57.8191C51.0581 57.8191 50.188 57.6457 49.3487 57.3056L20.2713 45.5713C20.2518 45.5635 20.2343 45.5513 20.2203 45.5357C20.2062 45.5201 20.1958 45.5015 20.19 45.4813L9.60347 8.93658C9.59789 8.91748 9.59648 8.8974 9.59935 8.87771C9.60221 8.85801 9.60929 8.83917 9.62009 8.82246C9.63089 8.80575 9.64517 8.79157 9.66194 8.78088C9.67871 8.77019 9.69759 8.76324 9.71729 8.76052L65.2037 0.956191C65.2367 0.951533 65.2704 0.958958 65.2984 0.977104C65.3264 0.99525 65.3469 1.0229 65.3562 1.05497L75.942 37.5974C75.9566 37.6479 75.9415 37.7025 75.9028 37.7381L55.6351 56.4155C54.8484 57.1404 53.848 57.6057 52.7425 57.7611C52.4653 57.7999 52.1857 57.8192 51.9058 57.819V57.8191ZM20.4375 45.3392L49.4524 57.0484C50.5261 57.4832 51.6504 57.6346 52.7038 57.4864C53.7534 57.3388 54.702 56.8979 55.4473 56.2114L75.6517 37.5923L65.1233 1.24782L9.91442 9.01316L20.4376 45.3392H20.4375Z" fill="#111111"/>
<path d="M89.5605 24.963L55.541 56.3132C54.7604 57.0325 53.7836 57.4745 52.723 57.6237C51.6621 57.7729 50.5173 57.6292 49.4005 57.1769L0.586548 37.4776L14.4379 85.2929C15.4782 88.884 19.0611 91.4036 22.436 90.9289L99.1773 80.1348C102.558 79.6592 104.452 76.3694 103.412 72.7782L89.5605 24.963Z" fill="#FFD3A8"/>
<path d="M21.6145 91.1249C18.4403 91.1249 15.2753 88.6813 14.3049 85.3318L0.453466 37.5165C0.446286 37.4915 0.446256 37.465 0.453381 37.44C0.460506 37.415 0.474498 37.3925 0.493766 37.3751C0.513034 37.3576 0.536805 37.346 0.562373 37.3414C0.587942 37.3368 0.614282 37.3395 0.638397 37.3491L49.4524 57.0484C50.5261 57.4833 51.6504 57.6346 52.7039 57.4864C53.7534 57.3388 54.7022 56.8979 55.4473 56.2113L89.4667 24.8611C89.4841 24.8451 89.5053 24.8338 89.5282 24.8283C89.5511 24.8228 89.5751 24.8232 89.5978 24.8296C89.6206 24.8359 89.6413 24.848 89.6581 24.8646C89.6748 24.8812 89.6871 24.9018 89.6937 24.9245L103.545 72.7398C104.084 74.5997 103.859 76.4919 102.928 77.9311C102.095 79.2197 100.769 80.051 99.1967 80.2723L22.4554 91.0664C22.1768 91.1054 21.8958 91.1251 21.6145 91.1249ZM0.799068 37.7132L14.5712 85.2545C15.5905 88.7728 19.1097 91.2576 22.4167 90.7918L99.158 79.9977C100.65 79.7878 101.906 79.0005 102.695 77.7805C103.583 76.4089 103.795 74.5999 103.279 72.8172L89.4898 25.2172L55.635 56.4156C54.8483 57.1406 53.848 57.6059 52.7424 57.7614C51.6407 57.9164 50.4671 57.7589 49.3486 57.3059L0.799068 37.7132Z" fill="#111111"/>
<path d="M50.7313 10.25L28.1906 13.4205L29.3339 17.3671L51.8746 14.1968L50.7313 10.25Z" fill="#FFD3A8"/>
<path d="M29.3338 17.5056C29.3038 17.5055 29.2746 17.4957 29.2506 17.4777C29.2267 17.4596 29.2092 17.4343 29.2008 17.4054L28.0574 13.4588C28.0518 13.4397 28.0504 13.4196 28.0533 13.3999C28.0562 13.3802 28.0632 13.3614 28.074 13.3447C28.0848 13.328 28.0991 13.3138 28.1159 13.3031C28.1327 13.2924 28.1515 13.2855 28.1712 13.2827L50.712 10.1122C50.7451 10.1075 50.7787 10.1149 50.8067 10.1331C50.8348 10.1512 50.8553 10.1789 50.8645 10.211L52.0078 14.1578C52.0134 14.1769 52.0148 14.1969 52.0119 14.2166C52.0091 14.2363 52.002 14.2552 51.9912 14.2719C51.9804 14.2886 51.9661 14.3028 51.9493 14.3135C51.9326 14.3242 51.9137 14.3311 51.894 14.3338L29.3533 17.5042C29.3469 17.5051 29.3403 17.5056 29.3338 17.5056ZM28.3682 13.5352L29.4336 17.2127L51.6969 14.0813L50.6315 10.4038L28.3682 13.5352ZM19.4213 24.1052C19.3865 24.1047 19.3532 24.0911 19.328 24.0672C19.3027 24.0432 19.2874 24.0107 19.285 23.976C19.2826 23.9413 19.2933 23.9069 19.315 23.8797C19.3367 23.8525 19.3678 23.8345 19.4021 23.8291L64.6656 17.4626C64.6836 17.46 64.702 17.4609 64.7197 17.4655C64.7373 17.47 64.7539 17.478 64.7685 17.489C64.783 17.4999 64.7953 17.5137 64.8045 17.5294C64.8137 17.5452 64.8197 17.5626 64.8221 17.5806C64.8247 17.5987 64.8236 17.617 64.8191 17.6347C64.8145 17.6523 64.8065 17.6689 64.7956 17.6834C64.7846 17.698 64.7709 17.7102 64.7552 17.7195C64.7395 17.7287 64.7222 17.7348 64.7042 17.7373L19.4407 24.1038C19.4342 24.1048 19.4277 24.1052 19.4211 24.1052H19.4213ZM22.0509 33.1831C22.0161 33.1825 21.9829 33.1689 21.9576 33.145C21.9324 33.121 21.9171 33.0885 21.9147 33.0538C21.9122 33.0191 21.9229 32.9847 21.9446 32.9575C21.9663 32.9304 21.9974 32.9123 22.0318 32.907L67.2953 26.5404C67.3133 26.5379 67.3316 26.5389 67.3493 26.5435C67.3669 26.548 67.3834 26.556 67.398 26.567C67.4125 26.578 67.4247 26.5917 67.434 26.6074C67.4432 26.6231 67.4492 26.6404 67.4518 26.6585C67.4543 26.6765 67.4533 26.6949 67.4487 26.7125C67.4441 26.7301 67.4362 26.7467 67.4252 26.7612C67.4143 26.7758 67.4005 26.788 67.3849 26.7973C67.3692 26.8065 67.3518 26.8126 67.3338 26.8151L22.0703 33.1817C22.0638 33.1826 22.0573 33.1831 22.0508 33.1831H22.0509ZM24.6807 42.2607C24.6459 42.2602 24.6127 42.2466 24.5874 42.2227C24.5622 42.1987 24.5469 42.1662 24.5444 42.1315C24.542 42.0968 24.5527 42.0624 24.5744 42.0352C24.5961 42.008 24.6272 41.99 24.6616 41.9846L69.9251 35.6181C69.9615 35.613 69.9984 35.6225 70.0277 35.6447C70.0571 35.6668 70.0765 35.6997 70.0816 35.7362C70.0867 35.7726 70.0771 35.8096 70.055 35.8389C70.0329 35.8683 70 35.8877 69.9636 35.8928L24.7001 42.2594C24.6936 42.2603 24.6871 42.2608 24.6806 42.2607H24.6807Z" fill="#111111"/>
</svg>
