<svg width="130" height="121" viewBox="0 0 130 121" fill="none" xmlns="http://www.w3.org/2000/svg">
<g clip-path="url(#clip0_880_24575)">
<path d="M54.0176 19.5264L56.3241 27.1211L58.1145 33.0208L61.4561 24.5684L59.6657 18.6688L57.3592 11.0737L54.0176 19.5264Z" fill="#C5C4C4"/>
<path d="M58.1145 33.3656C58.1096 33.3656 58.1051 33.3656 58.1002 33.3656C57.9526 33.3598 57.8254 33.2616 57.7827 33.121L53.6858 19.6267C53.6632 19.5526 53.6664 19.473 53.6948 19.401L57.0367 10.9486C57.0905 10.8121 57.2305 10.7294 57.3737 10.7305C57.521 10.7363 57.6486 10.8345 57.6912 10.9751L61.7882 24.4695C61.8107 24.5436 61.8076 24.6232 61.7791 24.6952L58.4372 33.1475C58.3852 33.2798 58.2566 33.3656 58.1145 33.3656ZM54.3839 19.5415L58.1574 31.9701L61.0897 24.5539L57.3161 12.125L54.3839 19.5415Z" fill="#111111"/>
<path d="M76.4959 31.3741L73.1543 39.8264L58.1143 33.0212L61.4559 24.5688L76.4959 31.3741Z" fill="#C5C4C4"/>
<path d="M73.1547 40.1709C73.1055 40.1709 73.0566 40.1606 73.0112 40.1399L57.9708 33.3347C57.803 33.2589 57.7243 33.0655 57.7916 32.895L61.1335 24.4426C61.1685 24.3548 61.2379 24.2848 61.3263 24.2493C61.4147 24.2138 61.5138 24.2159 61.5998 24.2552L76.6398 31.0604C76.8076 31.1362 76.8863 31.3295 76.819 31.5001L73.4774 39.9524C73.4424 40.0403 73.3731 40.1103 73.2847 40.1458C73.2431 40.1626 73.1987 40.1709 73.1547 40.1709ZM58.5573 32.8429L72.9658 39.3622L76.0533 31.5518L61.6452 25.0326L58.5573 32.8429Z" fill="#111111"/>
<path d="M78.8064 54.709L75.4648 63.1617L73.1548 39.8264L76.4964 31.374L78.8064 54.709Z" fill="#C5C4C4"/>
<path d="M75.4651 63.5064C75.4492 63.5064 75.4329 63.5053 75.4169 63.5029C75.2582 63.4812 75.1351 63.3537 75.1198 63.1956L72.8098 39.8602C72.8043 39.8057 72.8123 39.7513 72.832 39.7003L76.1736 31.2479C76.2326 31.0994 76.3879 31.0088 76.5438 31.0326C76.7026 31.0543 76.8257 31.1818 76.8409 31.34L79.1509 54.6753C79.1565 54.7298 79.1485 54.7842 79.1287 54.8352L75.7871 63.2876C75.7348 63.4209 75.6055 63.506 75.4647 63.506L75.4651 63.5064ZM73.508 39.8753L75.6689 61.7038L78.4531 54.6608L76.2922 32.8324L73.508 39.8753Z" fill="#111111"/>
<path d="M12.3978 60.8589L9.05615 69.3113C14.3764 55.8542 15.4042 36.8678 12.664 20.2243L16.0056 11.772C18.7462 28.4155 17.718 47.4018 12.3978 60.8589Z" fill="#F5F5F5"/>
<path d="M9.05615 69.656C9.01386 69.656 8.97087 69.6484 8.92928 69.6319C8.7511 69.5623 8.6634 69.3624 8.73377 69.1853C13.8027 56.3633 15.1778 37.6236 12.3222 20.2799C12.3125 20.2186 12.3191 20.1559 12.342 20.0983L15.6836 11.646C15.7404 11.5013 15.8916 11.4113 16.0427 11.4296C16.198 11.4458 16.3231 11.5633 16.3484 11.7166C19.2231 29.1761 17.8331 48.055 12.7208 60.9852L9.37922 69.4375C9.32583 69.5733 9.1948 69.6564 9.05649 69.6564L9.05615 69.656ZM13.0214 20.262C15.2898 34.1161 14.8749 48.8544 12.048 60.8005L12.0747 60.7326C17.022 48.2186 18.4508 30.0672 15.8614 13.0777L13.0214 20.262Z" fill="#111111"/>
<path d="M24.5176 19.3052C32.1094 20.2176 40.2031 20.4523 47.9679 19.9799L54.1336 32.8736L71.3169 34.6258L78.8068 54.7093L76.4968 31.374L61.4567 24.5687L59.6663 18.6694C69.373 17.0261 77.6761 14.0554 82.4992 9.6709C119.418 42.3442 125.38 91.5693 115.905 100.183C106.431 108.794 51.4738 104.105 14.5552 71.4321C24.8015 62.1183 27.7279 38.8036 24.5183 19.3055L24.5176 19.3052Z" fill="#F5F5F5"/>
<path d="M98.6319 104.284C91.8308 104.284 83.7787 103.408 75.4482 101.626C62.0031 98.7489 36.1839 91.035 14.3237 71.6889C14.2505 71.6241 14.2082 71.5311 14.2075 71.4339C14.2068 71.3364 14.2477 71.243 14.3202 71.1772C24.8192 61.6339 27.2253 37.8864 24.1752 19.3604C24.1575 19.2533 24.1918 19.1444 24.2674 19.0661C24.343 18.9876 24.4518 18.949 24.5593 18.9624C32.1327 19.8728 40.2198 20.1047 47.9464 19.6351C48.0837 19.6251 48.2196 19.704 48.2809 19.8311L54.3631 32.5498L71.352 34.282C71.4837 34.2955 71.5957 34.382 71.6418 34.505L78.1988 52.0871L76.171 31.6043L61.3129 24.8814C61.2217 24.8404 61.1535 24.7622 61.1247 24.6674L59.3343 18.7681C59.3055 18.6733 59.319 18.571 59.371 18.4872C59.4234 18.4032 59.5097 18.3456 59.6078 18.3291C69.9405 16.5796 77.7749 13.4976 82.2649 9.41602C82.3953 9.29679 82.5963 9.29541 82.7294 9.41291C94.8525 20.1419 104.804 33.7896 111.508 48.8804C116.988 61.2173 120.172 74.408 120.243 85.0702C120.293 92.5274 118.835 97.9843 116.138 100.436C113.335 102.984 106.911 104.284 98.6319 104.284ZM15.0696 71.425C36.7503 90.483 62.2741 98.1018 75.5942 100.952C96.2935 105.38 111.423 103.788 115.67 99.9277C118.184 97.6431 119.597 92.2293 119.55 85.0751C119.409 64.0329 107.894 32.7362 82.4996 10.1331C77.9354 14.1489 70.2094 17.1892 60.1108 18.9421L61.7424 24.319L76.6396 31.0598C76.7523 31.1108 76.8289 31.2173 76.841 31.3396L79.1511 54.675C79.1684 54.8473 79.054 55.0054 78.8838 55.0447C78.7125 55.0826 78.5413 54.991 78.481 54.8287L71.066 34.9461L54.0979 33.2159C53.9773 33.2035 53.8723 33.1297 53.8199 33.0212L47.7547 20.3373C40.2118 20.7818 32.3379 20.5623 24.9326 19.7009C27.8721 38.1765 25.4273 61.6332 15.0696 71.425Z" fill="#111111"/>
<path d="M127.163 103.419L123.822 111.872C123.091 113.719 122.17 115.172 121.075 116.168C109.837 126.383 44.6427 120.822 0.84668 82.0622L4.1883 73.6099C47.9843 112.37 113.178 117.931 124.416 107.716C125.512 106.72 126.433 105.267 127.163 103.419Z" fill="url(#paint0_linear_880_24575)"/>
<path d="M100.595 120.972C92.5317 120.972 82.98 119.931 73.0969 117.817C57.1535 114.407 26.5372 105.26 0.615702 82.3194C0.507204 82.2232 0.47046 82.0702 0.523496 81.9359L3.86546 73.4835C3.90671 73.3788 3.99718 73.3005 4.10742 73.2743C4.21799 73.2475 4.33343 73.2774 4.41835 73.3522C30.2206 96.1876 60.7076 105.295 76.5841 108.691C101.16 113.949 119.131 112.052 124.182 107.461C125.227 106.512 126.119 105.114 126.835 103.307L126.84 103.293C126.91 103.116 127.113 103.029 127.29 103.099C127.468 103.168 127.556 103.368 127.486 103.545C127.482 103.553 127.479 103.56 127.477 103.568L124.144 111.998C123.388 113.91 122.434 115.399 121.308 116.422C117.994 119.435 110.394 120.972 100.595 120.972V120.972ZM1.25733 81.9641C27.0214 104.683 57.4031 113.755 73.2425 117.144C97.819 122.401 115.79 120.504 120.84 115.913C121.888 114.962 122.782 113.559 123.499 111.745L125.218 107.398C125.034 107.602 124.845 107.793 124.65 107.97C118.608 113.462 98.331 114.049 76.4386 109.365C60.5714 105.97 30.171 96.895 4.32961 74.1947L1.25768 81.9645L1.25733 81.9641Z" fill="#111111"/>
<path d="M16.0058 11.7717C25.2005 12.8755 35.0201 13.1422 44.4068 12.536L47.9682 19.9794C40.2034 20.4519 32.1097 20.2172 24.5179 19.3047C27.7278 38.8028 24.8011 62.1175 14.5548 71.4313C51.4734 104.105 106.431 108.793 115.904 100.182C125.38 91.5686 119.418 42.3434 82.4988 9.67011C77.6757 14.0543 69.3722 17.0253 59.6659 18.6686L57.3594 11.0736C69.0232 9.13497 79.0106 5.59642 84.7884 0.344238C128.584 39.104 135.656 97.4978 124.416 107.715C113.179 117.93 47.9845 112.369 4.18848 73.6094C16.3441 62.5599 19.8147 34.9031 16.0058 11.7717Z" fill="white"/>
<path d="M103.937 112.519C95.8739 112.519 86.3219 111.479 76.4388 109.365C60.4958 105.954 29.879 96.807 3.95793 73.8669C3.88479 73.8021 3.8425 73.7091 3.84181 73.6119C3.84111 73.5144 3.88202 73.421 3.95446 73.3552C16.4259 62.0186 19.285 33.8215 15.6633 11.8273C15.6456 11.7201 15.6799 11.6116 15.7555 11.533C15.8307 11.4544 15.9396 11.4169 16.0474 11.4293C25.2337 12.5323 35.0319 12.7962 44.3842 12.1915C44.5291 12.1832 44.6588 12.2601 44.7198 12.3872L48.2808 19.831C48.3304 19.9343 48.3249 20.0553 48.2663 20.1542C48.2077 20.2531 48.1037 20.3161 47.989 20.323C40.3757 20.7858 32.4144 20.5708 24.9328 19.7007C27.8723 38.176 25.4271 61.633 15.0695 71.4248C36.7502 90.4828 62.274 98.1016 75.5941 100.951C96.2934 105.38 111.423 103.788 115.67 99.9276C118.183 97.643 119.597 92.2292 119.55 85.0749C119.409 64.0327 107.894 32.7361 82.4995 10.1329C77.877 14.2001 70.0128 17.2662 59.7238 19.0084C59.5512 19.0381 59.3844 18.9347 59.3338 18.7683L57.0273 11.1732C56.9985 11.0785 57.012 10.9758 57.0644 10.8917C57.1171 10.8076 57.2034 10.7501 57.3018 10.7339C69.7455 8.66534 79.1693 4.98482 84.554 0.0899723C84.6844 -0.029599 84.8854 -0.0306328 85.0185 0.086871C99.393 12.8083 111.192 28.9904 119.141 46.8841C125.639 61.5111 129.414 77.1494 129.498 89.7895C129.558 98.6175 127.836 105.074 124.65 107.97C121.335 110.983 113.736 112.519 103.937 112.519ZM4.70425 73.6036C30.4458 96.255 60.7661 105.307 76.5848 108.691C101.16 113.948 119.131 112.052 124.183 107.461C127.178 104.739 128.863 98.2994 128.806 89.794C128.638 64.8056 114.96 27.6365 84.7897 0.807056C79.3284 5.63677 70.0145 9.2756 57.8048 11.3483L59.9092 18.2776C70.0922 16.5191 77.8188 13.4575 82.2648 9.41619C82.3951 9.29697 82.5962 9.29559 82.7293 9.41309C94.8524 20.1421 104.804 33.7898 111.507 48.8806C116.988 61.2175 120.172 74.4082 120.243 85.0704C120.293 92.5276 118.835 97.9848 116.138 100.436C111.032 105.077 93.9199 105.577 75.4485 101.625C62.0033 98.7488 36.1841 91.0348 14.3239 71.6888C14.2507 71.624 14.2084 71.5309 14.2078 71.4338C14.2071 71.3362 14.248 71.2429 14.3204 71.177C24.8195 61.6337 27.2255 37.8862 24.1754 19.3603C24.1577 19.2531 24.1921 19.1442 24.2676 19.066C24.3432 18.9874 24.452 18.9492 24.5595 18.9626C31.9651 19.8527 39.8627 20.0946 47.434 19.6656L44.1943 12.8948C35.0274 13.4727 25.4403 13.2215 16.4211 12.1681C19.9329 34.113 17.0346 62.0179 4.7039 73.604L4.70425 73.6036Z" fill="#111111"/>
</g>
<defs>
<linearGradient id="paint0_linear_880_24575" x1="7.53462" y1="76.0219" x2="113.888" y2="117.308" gradientUnits="userSpaceOnUse">
<stop stop-color="#F5F5F5"/>
<stop offset="1" stop-color="#A5A5A5"/>
</linearGradient>
<clipPath id="clip0_880_24575">
<rect width="129" height="121" fill="white" transform="translate(0.5)"/>
</clipPath>
</defs>
</svg>
