<svg width="104" height="128" viewBox="0 0 104 128" fill="none" xmlns="http://www.w3.org/2000/svg">
<g clip-path="url(#clip0_2192_35805)">
<path d="M72.1952 36.1236C72.2759 36.2885 71.7899 36.7252 70.8209 37.3103L23.0131 66.1773L49.9919 121.204L97.7998 92.3367C98.7688 91.7515 99.2547 91.3148 99.174 91.15L72.1952 36.1236Z" fill="#FFD3A8"/>
<path d="M50.0256 121.391C49.9847 121.399 49.9426 121.393 49.9055 121.374C49.8685 121.355 49.8386 121.325 49.8204 121.288L22.8415 66.2613C22.8205 66.2185 22.8162 66.1693 22.8297 66.1236C22.8432 66.0778 22.8734 66.0387 22.9143 66.0141L70.7219 37.1472C71.7802 36.5081 71.9758 36.2243 72.0081 36.1633C71.9985 36.1178 72.0059 36.0703 72.0288 36.0298C72.0518 35.9893 72.0887 35.9586 72.1328 35.9435C72.1768 35.9283 72.2248 35.9297 72.2679 35.9475C72.3109 35.9653 72.3459 35.9981 72.3664 36.0399L99.3453 91.0662C99.4088 91.1955 99.5572 91.4984 97.8983 92.5L50.0906 121.367C50.0706 121.379 50.0486 121.387 50.0256 121.391ZM23.2614 66.2501L50.0717 120.933L97.7009 92.1733C98.7272 91.5537 98.942 91.268 98.9836 91.1956L72.1896 36.5465C71.9892 36.7593 71.6118 37.0557 70.9194 37.4737L23.2614 66.2501Z" fill="#111111"/>
<path d="M68.12 87.6967L64.2801 79.8652C66.0614 77.1444 66.3284 73.2541 64.6869 69.9064C62.4708 65.3866 57.611 63.5712 53.8333 65.8524C50.0556 68.1333 48.7894 73.6477 51.0055 78.1675C52.6474 81.5163 55.7377 83.3807 58.7647 83.1973L62.6037 91.0274C63.494 92.8431 65.4624 93.5758 66.9775 92.661C68.4955 91.7445 69.0102 89.5124 68.12 87.6967Z" fill="#FF6F1E"/>
<path d="M66.082 93.2001C65.6348 93.2801 65.1684 93.2546 64.7102 93.1201C63.7506 92.8385 62.9203 92.1062 62.4326 91.1111L58.6488 83.394C55.494 83.5274 52.4374 81.5209 50.8341 78.2512C48.5789 73.6517 49.8802 68.0163 53.7346 65.6888C55.44 64.6592 57.4469 64.4056 59.3859 64.9746C61.6839 65.6489 63.6787 67.4159 64.8585 69.8222C66.4604 73.0898 66.3166 77.0232 64.4991 79.8778L68.2914 87.6125C69.2256 89.5177 68.6803 91.8555 67.0764 92.8242C66.7708 93.0095 66.4337 93.1369 66.082 93.2001ZM56.1894 65.1617C55.4016 65.3027 54.6394 65.5884 53.9323 66.0155C50.243 68.2433 49.007 73.6569 51.1773 78.0835C52.734 81.2588 55.7079 83.1913 58.7536 83.0069C58.7912 83.0046 58.8286 83.0135 58.8612 83.0324C58.8937 83.0514 58.92 83.0795 58.9365 83.1133L62.7756 90.9434C63.2165 91.8426 63.961 92.5026 64.8179 92.7542C65.5281 92.9624 66.26 92.8716 66.8791 92.4976C68.3181 91.6288 68.7979 89.5126 67.9486 87.7805L64.1087 79.9489C64.0942 79.9192 64.0876 79.8863 64.0897 79.8532C64.0917 79.8202 64.1023 79.7883 64.1204 79.7606C65.9217 77.0096 66.0767 73.1744 64.5157 69.9901C63.3829 67.6797 61.4738 65.985 59.2783 65.3407C58.2481 65.0384 57.1976 64.9814 56.1894 65.1617Z" fill="#111111"/>
<path d="M59.8738 39.5805C61.3281 38.7023 63.3237 37.8203 64.3266 37.6124L71.6367 36.0966C72.6414 35.8882 72.275 36.4324 70.8209 37.3105L23.013 66.1773C21.5561 67.0571 19.5632 67.9374 18.5584 68.1459L11.2483 69.6617C10.2454 69.8696 10.6091 69.3272 12.0661 68.4474L59.8738 39.5805Z" fill="white"/>
<path d="M11.1933 69.8667C10.9074 69.9178 10.6002 69.9282 10.5098 69.6982C10.459 69.569 10.3402 69.2664 11.967 68.2841L59.7748 39.4172C61.2435 38.5304 63.2678 37.6371 64.2876 37.4256L71.5977 35.9098C71.9071 35.8457 72.2749 35.8047 72.3753 36.06C72.4261 36.1893 72.5449 36.4921 70.9194 37.4737L23.1117 66.3404C21.6432 67.2271 19.6179 68.1208 18.5971 68.3325L11.287 69.8484C11.2561 69.8548 11.2249 69.861 11.1933 69.8667ZM10.9353 69.5144C10.9949 69.5113 11.0827 69.501 11.2093 69.4749L18.5194 67.9588C19.5051 67.7544 21.4766 66.882 22.914 66.014L70.7219 37.147C71.534 36.6566 71.8381 36.3755 71.9501 36.2436C71.8576 36.2498 71.7657 36.2631 71.6752 36.2833L64.3651 37.7991C63.3807 38.0033 61.41 38.8756 59.9723 39.7436L12.1645 68.6106C11.3522 69.1012 11.0477 69.3825 10.9353 69.5144Z" fill="#111111"/>
<path d="M22.187 63.7719C20.7052 64.6666 20.3317 65.221 21.3537 65.0091C22.3777 64.7967 24.4088 63.8986 25.8906 63.0037C27.3723 62.1088 27.7476 61.5543 26.7235 61.7666C25.7016 61.9786 23.6688 62.8772 22.187 63.7719Z" fill="white"/>
<path d="M21.2976 65.2145C21.0079 65.2663 20.6968 65.277 20.6058 65.045C20.5544 64.9141 20.434 64.6075 22.0885 63.6087C23.5844 62.7054 25.6465 61.7953 26.6852 61.58C26.9986 61.5148 27.3716 61.4733 27.4727 61.7308C27.5241 61.8615 27.6444 62.1679 25.9895 63.1672C24.4934 64.0705 22.4313 64.9807 21.3926 65.1959C21.3614 65.2025 21.3295 65.2088 21.2976 65.2145ZM21.0275 64.863C21.0884 64.8604 21.18 64.8501 21.3149 64.8224C22.3184 64.6144 24.3267 63.7253 25.7918 62.8406C26.6323 62.3331 26.9397 62.0451 27.0504 61.9127C26.9893 61.9151 26.8975 61.9254 26.7623 61.9534C25.7588 62.1614 23.7507 63.0505 22.2855 63.9351C21.4452 64.4427 21.1381 64.7306 21.0275 64.863Z" fill="#111111"/>
<path d="M56.9945 42.7546C55.5127 43.6493 55.1393 44.2037 56.1613 43.9918C57.1854 43.7795 59.2163 42.8813 60.698 41.9866C62.1826 41.0903 62.5551 40.5372 61.531 40.7495C60.5092 40.9613 58.479 41.8582 56.9945 42.7546Z" fill="white"/>
<path d="M56.1052 44.197C55.8155 44.2488 55.5044 44.2595 55.4134 44.0275C55.3621 43.8966 55.2417 43.5901 56.8959 42.5912C58.3917 41.688 60.4538 40.7779 61.4926 40.5626C61.8064 40.4973 62.1798 40.4557 62.2809 40.7132C62.3322 40.8439 62.4526 41.1501 60.797 42.1498C59.3012 43.053 57.2391 43.9632 56.2002 44.1784C56.1686 44.1851 56.137 44.1913 56.1052 44.197ZM55.8354 43.8457C55.8962 43.8431 55.988 43.8327 56.1228 43.8051C57.1262 43.5969 59.1347 42.708 60.5995 41.8233C61.4402 41.3157 61.7477 41.028 61.8586 40.8953C61.7974 40.8978 61.7053 40.908 61.5699 40.9361C60.5664 41.1441 58.5582 42.0332 57.0932 42.9178C56.2529 43.4252 55.9457 43.7131 55.8354 43.8457Z" fill="#111111"/>
<path d="M23.0129 66.1773C21.556 67.0571 19.5631 67.9374 18.5583 68.1459L11.248 69.6617C10.9132 69.7311 10.7309 69.717 10.6903 69.6346L37.6692 124.661C37.7096 124.743 37.8921 124.757 38.2269 124.688L45.537 123.172C46.5417 122.964 48.5347 122.083 49.9916 121.204L23.0129 66.1773Z" fill="#FFD3A8"/>
<path d="M38.1674 124.894C37.8821 124.945 37.5996 124.952 37.4979 124.745L10.5188 69.7183C10.4982 69.6765 10.4936 69.6286 10.5059 69.5837C10.5182 69.5387 10.5466 69.4998 10.5856 69.4743C10.6247 69.4488 10.6717 69.4384 10.7179 69.4452C10.764 69.4519 10.8061 69.4754 10.8361 69.511C10.8698 69.517 10.9703 69.5244 11.2095 69.4748L18.5196 67.959C19.5053 67.7546 21.4768 66.8821 22.9142 66.0139C22.9369 66.0002 22.9622 65.9914 22.9885 65.988C23.0147 65.9845 23.0414 65.9866 23.0669 65.9941C23.0923 66.0016 23.1159 66.0142 23.1361 66.0313C23.1564 66.0484 23.1728 66.0695 23.1845 66.0933L50.1633 121.12C50.1844 121.162 50.1886 121.212 50.1751 121.257C50.1616 121.303 50.1315 121.342 50.0906 121.367C48.6221 122.253 46.5968 123.147 45.5759 123.359L38.2658 124.875C38.2331 124.881 38.2003 124.888 38.1674 124.894ZM37.822 124.538C37.8616 124.544 37.9638 124.547 38.1882 124.501L45.4983 122.985C46.4501 122.788 48.3211 121.968 49.7431 121.13L22.9325 66.4471C21.4824 67.2978 19.577 68.1293 18.5969 68.3326L11.2868 69.8484C11.2006 69.8663 11.1129 69.8818 11.0286 69.8905L37.822 124.538Z" fill="#111111"/>
<path d="M50.0339 27.1802C46.1308 19.2197 38.4158 15.1573 31.2865 16.6358L27.6915 17.3812C34.8211 15.9027 42.5361 19.9651 46.439 27.9256L54.6072 44.5853L58.2021 43.8399L50.0339 27.1802Z" fill="#FF6F1E"/>
<path d="M54.6407 44.7733C54.5999 44.7806 54.5578 44.7744 54.5208 44.7557C54.4838 44.7369 54.454 44.7067 54.4357 44.6695L46.2675 28.0098C44.3914 24.1831 41.5957 21.1649 38.1827 19.2809C34.8874 17.4619 31.1742 16.8547 27.7301 17.5681C27.6252 17.593 27.5258 17.5232 27.5044 17.4201C27.4831 17.3169 27.5494 17.2159 27.6526 17.1945L31.2475 16.4491C34.7833 15.7157 38.5873 16.3386 41.9623 18.2015C45.4441 20.1233 48.2946 23.1992 50.2053 27.0964L58.3734 43.7562C58.3863 43.7823 58.3929 43.811 58.3929 43.8401C58.393 43.8692 58.3863 43.8979 58.3735 43.924C58.3607 43.9501 58.342 43.973 58.319 43.9908C58.296 44.0086 58.2692 44.0209 58.2407 44.0268L54.6458 44.7722L54.6407 44.7733ZM30.956 16.8991C33.4776 16.9591 36.0259 17.6544 38.3676 18.9469C41.8494 20.8687 44.6998 23.9446 46.6105 27.8418L54.7134 44.3687L57.9223 43.7033L49.8625 27.2644C47.9863 23.4377 45.1906 20.4195 41.7777 18.5355C38.4823 16.7165 34.7696 16.1099 31.325 16.8227L30.956 16.8991Z" fill="#111111"/>
<path d="M27.6016 10.3533L24.0067 11.0987C24.7507 10.8489 25.5027 10.646 26.2601 10.489L29.855 9.74357C29.0976 9.90056 28.3454 10.1035 27.6016 10.3533Z" fill="white"/>
<path d="M24.0398 11.2865C23.9924 11.2949 23.9435 11.2851 23.9031 11.259C23.8626 11.2329 23.8335 11.1925 23.8216 11.1459C23.8097 11.0993 23.8158 11.0499 23.8388 11.0076C23.8618 10.9653 23.8999 10.9333 23.9456 10.9179C24.6888 10.6683 25.4545 10.4611 26.2209 10.3021L29.8155 9.55679L29.8159 9.55672C29.8404 9.55126 29.8659 9.55078 29.8906 9.5553C29.9154 9.55983 29.939 9.56927 29.96 9.58307C29.9811 9.59687 29.9991 9.61474 30.0131 9.63564C30.0271 9.65653 30.0368 9.68002 30.0416 9.70471C30.0518 9.75425 30.042 9.80583 30.0142 9.84813C29.9864 9.89042 29.9429 9.91996 29.8934 9.93025C29.1418 10.0862 28.391 10.2893 27.662 10.5341C27.6548 10.5365 27.6474 10.5385 27.64 10.5399L24.0451 11.2855L24.0398 11.2865Z" fill="#111111"/>
<path d="M23.6121 12.2057C34.661 5.53432 49.0039 10.8918 55.4853 24.1113L63.5693 40.5994L58.202 43.8402L50.0338 27.1804C45.2651 17.4539 34.8056 13.547 26.6761 18.4557C18.5466 23.3643 15.8245 35.2305 20.5933 44.957L28.7615 61.6167L23.3916 64.8591L15.3076 48.3709C8.82602 35.1515 12.5631 18.8771 23.6121 12.2057Z" fill="#FFD3A8"/>
<path d="M23.4247 65.0469C23.3838 65.0542 23.3417 65.0481 23.3046 65.0294C23.2676 65.0106 23.2377 64.9803 23.2195 64.9431L15.1355 48.4549C8.59536 35.1153 12.3533 18.7806 23.513 12.0423C28.408 9.0867 34.1905 8.36504 39.7957 10.0099C46.468 11.968 52.249 17.0771 55.6567 24.0273L63.7407 40.5152C63.7617 40.558 63.7659 40.6072 63.7525 40.6529C63.739 40.6987 63.7088 40.7377 63.6679 40.7623L58.3006 44.0031C58.278 44.0168 58.2527 44.0256 58.2264 44.0291C58.2001 44.0325 58.1734 44.0304 58.148 44.0229C58.1226 44.0155 58.099 44.0028 58.0787 43.9857C58.0585 43.9686 58.042 43.9475 58.0304 43.9237L49.8622 27.264C47.3973 22.2366 43.2396 18.5481 38.4553 17.144C34.4462 15.9676 30.298 16.4911 26.7747 18.6184C18.7412 23.4692 16.045 35.2468 20.7645 44.8726L28.9326 61.5324C28.9537 61.5752 28.9579 61.6243 28.9444 61.6701C28.931 61.7158 28.9008 61.7549 28.8599 61.7795L23.49 65.0218C23.47 65.0343 23.4478 65.0428 23.4247 65.0469ZM23.6117 12.2057L23.7104 12.369C18.4114 15.5685 14.6332 21.0754 13.0717 27.8754C11.5083 34.6836 12.3632 41.9326 15.4787 48.2869L23.471 64.588L28.5128 61.5437L20.4215 45.0408C15.6171 35.2419 18.3786 23.2426 26.5772 18.2921C30.1933 16.1086 34.45 15.571 38.5631 16.778C43.4499 18.2121 47.6934 21.9728 50.2052 27.096L58.2815 43.5687L63.3205 40.526L55.3135 24.1949C51.953 17.3406 46.2576 12.3037 39.6878 10.3758C34.1865 8.76129 28.5125 9.46916 23.7103 12.3687L23.6117 12.2057Z" fill="#111111"/>
<path d="M24.0065 11.0987C22.6127 11.5682 21.2747 12.1894 20.0168 12.9511C11.3535 18.1822 7.18548 29.3171 8.91385 40.254C9.39885 43.3312 10.3421 46.3185 11.7122 49.1165L19.7962 65.6047L23.3911 64.8593L15.3071 48.3711C13.937 45.5731 12.9938 42.5858 12.5088 39.5086C10.7804 28.5715 14.9484 17.4366 23.6117 12.2057C24.9025 11.4263 26.2383 10.811 27.6012 10.3533L24.0065 11.0987Z" fill="white"/>
<path d="M19.8301 65.7925C19.7892 65.7998 19.7472 65.7936 19.7102 65.7749C19.6732 65.7561 19.6433 65.7259 19.6251 65.6887L11.5411 49.2005C10.162 46.3856 9.21302 43.38 8.7257 40.2838C6.93618 28.9606 11.4341 17.9109 19.9185 12.788C21.1887 12.0195 22.5393 11.3925 23.9461 10.9181C23.9533 10.9156 23.9607 10.9137 23.9682 10.9122L27.5631 10.1668C27.6634 10.1449 27.7598 10.2062 27.7862 10.3036C27.8125 10.401 27.7585 10.5021 27.6626 10.5342C26.2977 10.9925 24.9682 11.6098 23.711 12.369C15.358 17.4124 10.9322 28.307 12.6977 39.4787C13.1792 42.5373 14.1167 45.5064 15.479 48.2872L23.5629 64.7751C23.5758 64.8012 23.5825 64.83 23.5825 64.8591C23.5825 64.8882 23.5759 64.9169 23.5631 64.9431C23.5503 64.9692 23.5316 64.9921 23.5086 65.0099C23.4856 65.0278 23.4587 65.0401 23.4302 65.046L19.8353 65.7914L19.8301 65.7925ZM24.0566 11.2832C22.6956 11.7412 21.3698 12.3572 20.1157 13.1143C11.763 18.1578 7.33726 29.0524 9.10278 40.2241C9.58432 43.2827 10.5218 46.2518 11.8841 49.0326L19.903 65.3878L23.1118 64.7225L15.136 48.4551C13.757 45.6402 12.8079 42.6346 12.3204 39.5384C10.5311 28.215 15.029 17.1653 23.5133 12.0424C24.1583 11.6528 24.8243 11.2989 25.5081 10.9822L24.0566 11.2832Z" fill="#111111"/>
</g>
<defs>
<clipPath id="clip0_2192_35805">
<rect width="83.7004" height="115.013" fill="white" transform="translate(0.677246 14.7618) rotate(-10.1423)"/>
</clipPath>
</defs>
</svg>
