<svg width="19" height="16" viewBox="0 0 19 16" fill="none" xmlns="http://www.w3.org/2000/svg">
<path d="M10.8335 0.5C6.69183 0.5 3.3335 3.85833 3.3335 8H0.833496L4.07516 11.2417L4.1335 11.3583L7.50016 8H5.00016C5.00016 4.775 7.6085 2.16667 10.8335 2.16667C14.0585 2.16667 16.6668 4.775 16.6668 8C16.6668 11.225 14.0585 13.8333 10.8335 13.8333C9.22516 13.8333 7.76683 13.175 6.71683 12.1167L5.5335 13.3C6.89183 14.6583 8.7585 15.5 10.8335 15.5C14.9752 15.5 18.3335 12.1417 18.3335 8C18.3335 3.85833 14.9752 0.5 10.8335 0.5ZM10.0002 4.66667V8.83333L13.5668 10.95L14.1668 9.94167L11.2502 8.20833V4.66667H10.0002Z" fill="black" fill-opacity="0.45"/>
</svg>
