<svg width="32" height="32" viewBox="0 0 32 32" fill="none" xmlns="http://www.w3.org/2000/svg">
<rect width="32" height="32" rx="16" fill="black" fill-opacity="0.25"/>
<path d="M22.0904 20.4227C21.7588 19.6372 21.2776 18.9238 20.6736 18.3221C20.0714 17.7186 19.3581 17.2375 18.573 16.9053C18.566 16.9018 18.5589 16.9 18.5519 16.8965C19.647 16.1055 20.3589 14.817 20.3589 13.3633C20.3589 10.9551 18.4078 9.00391 15.9996 9.00391C13.5914 9.00391 11.6402 10.9551 11.6402 13.3633C11.6402 14.817 12.3521 16.1055 13.4472 16.8982C13.4402 16.9018 13.4331 16.9035 13.4261 16.907C12.6386 17.2393 11.932 17.7156 11.3255 18.3238C10.7221 18.926 10.241 19.6393 9.90874 20.4244C9.58235 21.193 9.40632 22.0171 9.39018 22.852C9.38971 22.8707 9.393 22.8894 9.39986 22.9068C9.40672 22.9243 9.417 22.9402 9.4301 22.9537C9.44321 22.9671 9.45887 22.9778 9.47617 22.9851C9.49346 22.9923 9.51204 22.9961 9.53081 22.9961H10.5855C10.6628 22.9961 10.7244 22.9346 10.7261 22.859C10.7613 21.502 11.3062 20.2311 12.2695 19.2678C13.2662 18.2711 14.5898 17.7227 15.9996 17.7227C17.4093 17.7227 18.733 18.2711 19.7296 19.2678C20.6929 20.2311 21.2378 21.502 21.273 22.859C21.2748 22.9363 21.3363 22.9961 21.4136 22.9961H22.4683C22.4871 22.9961 22.5057 22.9923 22.5229 22.9851C22.5402 22.9778 22.5559 22.9671 22.569 22.9537C22.5821 22.9402 22.5924 22.9243 22.5993 22.9068C22.6061 22.8894 22.6094 22.8707 22.6089 22.852C22.5914 22.0117 22.4173 21.1943 22.0904 20.4227ZM15.9996 16.3867C15.1927 16.3867 14.4333 16.0721 13.8621 15.5008C13.2908 14.9295 12.9761 14.1701 12.9761 13.3633C12.9761 12.5564 13.2908 11.7971 13.8621 11.2258C14.4333 10.6545 15.1927 10.3398 15.9996 10.3398C16.8064 10.3398 17.5658 10.6545 18.1371 11.2258C18.7083 11.7971 19.023 12.5564 19.023 13.3633C19.023 14.1701 18.7083 14.9295 18.1371 15.5008C17.5658 16.0721 16.8064 16.3867 15.9996 16.3867Z" fill="white"/>
</svg>
