<svg width="640" height="640" viewBox="0 0 640 640" fill="none" xmlns="http://www.w3.org/2000/svg">
<g clip-path="url(#clip0_880_18806)">
<path d="M595.971 227.796L600.567 237.289C601.84 239.918 601.803 243.151 600.167 246.123C599.944 246.528 599.696 246.919 599.425 247.294L594.829 237.801C595.1 237.426 595.348 237.035 595.571 236.63C597.207 233.658 597.244 230.425 595.971 227.796Z" fill="#FF6F1E"/>
<path d="M599.425 247.579C599.372 247.579 599.319 247.564 599.274 247.536C599.229 247.507 599.193 247.467 599.169 247.418L594.573 237.926C594.551 237.879 594.542 237.828 594.546 237.777C594.55 237.726 594.569 237.677 594.599 237.635C594.863 237.269 595.104 236.888 595.322 236.493C596.858 233.704 597.002 230.581 595.717 227.924L595.715 227.92C595.699 227.887 595.69 227.85 595.688 227.813C595.685 227.775 595.691 227.738 595.703 227.703C595.715 227.668 595.734 227.635 595.759 227.607C595.784 227.579 595.814 227.556 595.847 227.54C595.881 227.524 595.917 227.514 595.955 227.512C595.992 227.51 596.029 227.515 596.064 227.527C596.1 227.54 596.132 227.559 596.16 227.584C596.188 227.608 596.211 227.639 596.227 227.672L600.823 237.165C602.191 239.991 602.043 243.306 600.416 246.26C600.187 246.676 599.933 247.077 599.656 247.461C599.629 247.498 599.595 247.527 599.555 247.548C599.515 247.568 599.47 247.579 599.425 247.579ZM595.158 237.829L599.468 246.731C599.628 246.489 599.778 246.24 599.918 245.986C601.455 243.195 601.598 240.07 600.311 237.413L597.11 230.799C597.308 232.786 596.874 234.852 595.82 236.767C595.618 237.133 595.397 237.487 595.158 237.829Z" fill="#111111"/>
<path d="M591.096 223.297C596.418 225.484 598.421 231.453 595.571 236.629C595.348 237.035 595.1 237.426 594.829 237.801C592.212 235.762 589.239 234.027 585.935 232.67C582.632 231.312 579.197 230.414 575.715 229.946C575.884 229.522 576.079 229.11 576.299 228.71C579.15 223.534 585.775 221.11 591.096 223.297Z" fill="#FFD3A8"/>
<path d="M594.829 238.086C594.766 238.086 594.704 238.065 594.655 238.026C592.013 235.968 589.043 234.255 585.827 232.933C582.611 231.611 579.196 230.701 575.678 230.229C575.635 230.223 575.594 230.207 575.558 230.184C575.522 230.16 575.492 230.128 575.47 230.09C575.449 230.053 575.436 230.011 575.432 229.968C575.429 229.925 575.436 229.882 575.452 229.842C575.622 229.412 575.824 228.985 576.051 228.573C578.964 223.282 585.762 220.798 591.205 223.034C593.807 224.103 595.731 226.089 596.624 228.624C597.549 231.253 597.264 234.145 595.82 236.767C595.591 237.182 595.337 237.583 595.06 237.968C595.034 238.004 594.999 238.034 594.959 238.054C594.919 238.075 594.874 238.085 594.829 238.085L594.829 238.086ZM576.12 229.716C579.557 230.208 582.893 231.112 586.043 232.407C589.211 233.709 592.145 235.386 594.767 237.394C594.967 237.103 595.152 236.802 595.322 236.492C596.687 234.014 596.959 231.287 596.088 228.813C595.25 226.432 593.439 224.567 590.989 223.56C585.806 221.43 579.327 223.801 576.549 228.848C576.392 229.131 576.249 229.422 576.12 229.716H576.12Z" fill="#111111"/>
<path d="M523.229 319.737L492.159 306.968C490.881 306.443 489.987 305.56 489.481 304.516L494.077 314.009C494.583 315.053 495.477 315.936 496.755 316.461L527.825 329.23L523.229 319.737V319.737Z" fill="#FF6F1E"/>
<path d="M527.825 329.513C527.788 329.513 527.751 329.506 527.717 329.492L496.646 316.723C495.364 316.196 494.387 315.3 493.821 314.132L489.226 304.639C489.209 304.605 489.2 304.569 489.198 304.531C489.196 304.494 489.201 304.457 489.213 304.422C489.225 304.386 489.244 304.354 489.269 304.326C489.294 304.298 489.324 304.275 489.358 304.259C489.391 304.243 489.428 304.233 489.465 304.231C489.502 304.229 489.539 304.234 489.575 304.246C489.61 304.258 489.642 304.278 489.67 304.302C489.698 304.327 489.721 304.357 489.737 304.391L489.739 304.395C490.243 305.433 491.117 306.232 492.267 306.704L523.337 319.473C523.402 319.5 523.454 319.549 523.485 319.612L528.08 329.104C528.101 329.148 528.111 329.196 528.108 329.244C528.106 329.292 528.091 329.339 528.066 329.379C528.04 329.42 528.004 329.454 527.962 329.477C527.92 329.501 527.873 329.513 527.825 329.513V329.513ZM490.758 306.499L494.333 313.884C494.837 314.924 495.712 315.724 496.863 316.197L527.245 328.683L523.021 319.958L492.051 307.231C491.59 307.043 491.155 306.797 490.758 306.499Z" fill="#111111"/>
<path d="M547.304 329.63C547.298 331.902 546.707 334.255 545.47 336.502C541.439 343.821 532.068 347.25 524.543 344.157C517.018 341.065 514.184 332.621 518.215 325.301C519.452 323.054 521.193 321.174 523.229 319.736L547.304 329.63Z" fill="white"/>
<path d="M530.396 345.575C528.366 345.575 526.341 345.204 524.435 344.42C520.787 342.921 518.089 340.138 516.838 336.584C515.54 332.898 515.941 328.841 517.966 325.164C519.18 322.959 520.944 321.002 523.065 319.504C523.145 319.448 523.247 319.437 523.337 319.473L547.412 329.367C547.464 329.388 547.509 329.425 547.54 329.472C547.571 329.519 547.588 329.574 547.588 329.631C547.581 332.007 546.935 334.43 545.719 336.639C542.647 342.217 536.502 345.575 530.396 345.575ZM523.266 320.059C521.271 321.496 519.612 323.353 518.464 325.439C516.517 328.973 516.13 332.864 517.374 336.396C518.57 339.794 521.154 342.458 524.651 343.894C532.036 346.93 541.264 343.551 545.221 336.365C546.359 334.299 546.978 332.04 547.018 329.82L523.267 320.06L523.266 320.059Z" fill="#111111"/>
<path d="M547.304 329.63L551.9 339.123C551.894 341.395 551.303 343.747 550.066 345.994C546.035 353.314 536.664 356.742 529.139 353.65C525.934 352.333 523.58 350.046 522.245 347.288L517.649 337.795C518.985 340.553 521.338 342.84 524.543 344.157C532.068 347.25 541.439 343.822 545.47 336.501C546.707 334.254 547.298 331.901 547.304 329.63Z" fill="#FF6F1E"/>
<path d="M534.992 355.068C532.963 355.068 530.938 354.697 529.031 353.913C525.851 352.606 523.416 350.358 521.989 347.412L517.394 337.919C517.377 337.886 517.368 337.849 517.366 337.812C517.364 337.775 517.369 337.737 517.381 337.702C517.393 337.667 517.412 337.634 517.437 337.606C517.462 337.578 517.492 337.556 517.526 337.539C517.559 337.523 517.596 337.513 517.633 337.511C517.67 337.509 517.707 337.514 517.743 337.527C517.778 337.539 517.81 337.558 517.838 337.583C517.866 337.608 517.889 337.638 517.905 337.671C519.27 340.49 521.602 342.641 524.651 343.894C532.036 346.929 541.264 343.551 545.221 336.364C546.392 334.239 547.014 331.91 547.02 329.629C547.02 329.565 547.042 329.503 547.082 329.452C547.122 329.402 547.178 329.367 547.241 329.353C547.304 329.339 547.369 329.346 547.427 329.374C547.485 329.402 547.532 329.448 547.56 329.506L552.156 338.999C552.175 339.038 552.184 339.08 552.184 339.124C552.178 341.499 551.531 343.923 550.315 346.132C547.243 351.71 541.098 355.068 534.992 355.068ZM519.561 341.091L522.501 347.164C523.865 349.982 526.198 352.134 529.247 353.387C536.632 356.422 545.86 353.044 549.817 345.857C550.976 343.751 551.598 341.447 551.615 339.187L547.537 330.763C547.362 332.769 546.742 334.78 545.719 336.639C541.627 344.07 532.079 347.561 524.435 344.42C522.522 343.633 520.878 342.506 519.561 341.091L519.561 341.091Z" fill="#111111"/>
<path d="M609.37 259.548L604.774 250.055C609.692 260.212 609.55 272.705 603.227 284.187L591.123 306.167C586.549 314.474 586.505 327.394 587.191 336.37C587.523 340.7 582.531 344.107 578.378 342.4L547.304 329.63L551.9 339.123L582.974 351.893C587.127 353.6 592.119 350.192 591.787 345.863C591.101 336.887 591.145 323.966 595.719 315.66L607.823 293.68C614.146 282.198 614.288 269.705 609.37 259.548Z" fill="url(#paint0_linear_880_18806)"/>
<path d="M585.26 352.62C584.438 352.62 583.624 352.467 582.866 352.155L551.792 339.385C551.727 339.359 551.674 339.309 551.644 339.246L547.048 329.754C547.023 329.702 547.014 329.644 547.023 329.587C547.032 329.53 547.057 329.477 547.097 329.435C547.136 329.393 547.187 329.364 547.244 329.352C547.3 329.34 547.358 329.345 547.412 329.366L578.486 342.136C580.391 342.919 582.683 342.598 584.467 341.299C586.138 340.083 587.05 338.248 586.908 336.391C586.198 327.115 586.311 314.317 590.874 306.03L602.978 284.049C609.045 273.033 609.606 260.687 604.518 250.178C604.502 250.144 604.493 250.108 604.49 250.071C604.488 250.033 604.493 249.996 604.506 249.961C604.518 249.925 604.537 249.893 604.562 249.865C604.587 249.837 604.617 249.814 604.65 249.798C604.684 249.782 604.72 249.772 604.757 249.77C604.795 249.768 604.832 249.773 604.867 249.785C604.903 249.798 604.935 249.817 604.963 249.841C604.991 249.866 605.014 249.896 605.03 249.93L609.626 259.423C614.795 270.1 614.228 282.636 608.072 293.817L595.968 315.797C591.472 323.962 591.367 336.641 592.07 345.841C592.227 347.897 591.228 349.92 589.398 351.252C588.161 352.152 586.698 352.62 585.259 352.62L585.26 352.62ZM552.108 338.901L583.081 351.629C584.987 352.412 587.279 352.091 589.063 350.792C590.734 349.576 591.646 347.741 591.503 345.884C590.794 336.607 590.907 323.81 595.47 315.523L607.574 293.543C613.641 282.526 614.202 270.18 609.114 259.671L607.26 255.841C609.815 265.064 608.527 275.151 603.476 284.324L591.372 306.304C586.876 314.469 586.771 327.148 587.474 336.348C587.631 338.404 586.632 340.427 584.801 341.759C582.858 343.174 580.356 343.519 578.269 342.663L547.883 330.175L552.108 338.901H552.108Z" fill="#111111"/>
<path d="M585.935 232.67C589.239 234.028 592.212 235.762 594.829 237.801C608.504 248.453 612.472 267.399 603.227 284.187L591.123 306.167C586.549 314.473 586.505 327.394 587.191 336.37C587.523 340.699 582.531 344.106 578.378 342.4L547.304 329.63L523.229 319.736L492.159 306.968C488.002 305.26 487.912 299.764 492.01 297.255C500.508 292.054 512.08 283.87 516.654 275.564L528.758 253.584C538.002 236.796 557.522 227.502 575.716 229.946C579.198 230.414 582.632 231.312 585.935 232.67L585.935 232.67Z" fill="#FFD3A8"/>
<path d="M580.664 343.127C579.842 343.127 579.029 342.974 578.27 342.662L492.051 307.231C490.126 306.44 488.882 304.771 488.722 302.768C488.542 300.514 489.745 298.309 491.862 297.012C500.572 291.681 511.9 283.608 516.405 275.427L528.509 253.446C537.605 236.929 557.034 227.149 575.754 229.665C579.32 230.144 582.782 231.066 586.043 232.407C589.307 233.748 592.322 235.488 595.004 237.577C609.102 248.558 612.586 267.782 603.476 284.324L591.372 306.305C586.876 314.469 586.771 327.149 587.475 336.348C587.632 338.404 586.633 340.427 584.802 341.76C583.565 342.66 582.102 343.128 580.664 343.128L580.664 343.127ZM569.854 229.841C553.273 229.841 537.051 239.113 529.007 253.721L516.903 275.701C512.338 283.991 500.927 292.13 492.158 297.497C490.225 298.681 489.125 300.683 489.288 302.722C489.433 304.534 490.518 305.986 492.266 306.704L578.486 342.136C580.391 342.919 582.683 342.598 584.467 341.299C586.138 340.083 587.05 338.248 586.908 336.391C586.198 327.114 586.311 314.316 590.874 306.029L602.978 284.049C611.95 267.757 608.527 248.831 594.655 238.025C592.013 235.967 589.043 234.254 585.827 232.933C582.611 231.61 579.196 230.7 575.678 230.228C573.747 229.969 571.802 229.84 569.854 229.841H569.854Z" fill="#111111"/>
</g>
<g clip-path="url(#clip1_880_18806)">
<path d="M397.907 102.284C402.925 101.578 408.243 105.323 409.787 110.649L530.636 527.55C532.18 532.876 529.364 537.764 524.347 538.469L330.714 565.687C325.684 566.394 320.366 562.649 318.822 557.324L197.973 140.422C196.429 135.096 199.244 130.208 204.274 129.501L397.907 102.284ZM331.916 134.698C335.695 134.167 337.835 130.452 336.671 126.439C335.507 122.427 331.468 119.584 327.689 120.115L278.914 126.971C275.135 127.503 272.995 131.217 274.159 135.228C275.322 139.238 279.363 142.085 283.142 141.554L331.917 134.698" fill="white"/>
<path d="M329.491 566.056C324.736 566.056 319.999 562.407 318.548 557.403L197.699 140.501C196.893 137.721 197.231 134.891 198.627 132.735C199.25 131.776 200.074 130.965 201.043 130.358C202.012 129.75 203.101 129.362 204.236 129.219L397.867 102.001C403.011 101.278 408.481 105.122 410.06 110.569L530.909 527.472C531.715 530.253 531.377 533.085 529.981 535.242C529.36 536.198 528.538 537.008 527.571 537.615C526.605 538.221 525.518 538.609 524.386 538.753L330.753 565.97C330.335 566.028 329.913 566.057 329.491 566.056ZM397.907 102.283L397.947 102.566L204.314 129.783C203.261 129.915 202.249 130.276 201.349 130.839C200.45 131.402 199.684 132.155 199.105 133.045C197.8 135.062 197.487 137.722 198.247 140.343L319.095 557.244C320.599 562.43 325.793 566.091 330.674 565.405L524.307 538.187C525.358 538.055 526.367 537.695 527.264 537.133C528.162 536.57 528.926 535.819 529.503 534.931C530.809 532.913 531.122 530.252 530.362 527.63L409.513 110.728C408.009 105.542 402.822 101.88 397.947 102.566L397.907 102.283ZM282.221 141.902C278.6 141.902 274.991 139.121 273.885 135.307C273.272 133.192 273.535 131.032 274.604 129.379C275.078 128.647 275.705 128.027 276.443 127.562C277.181 127.098 278.011 126.8 278.875 126.689L327.651 119.833C331.573 119.282 335.744 122.21 336.947 126.361C337.56 128.476 337.298 130.637 336.228 132.29C335.755 133.022 335.127 133.642 334.389 134.107C333.652 134.571 332.822 134.869 331.957 134.98L283.182 141.836C282.863 141.88 282.542 141.902 282.221 141.902ZM328.618 120.336C328.32 120.335 328.023 120.356 327.728 120.397L278.953 127.253C278.17 127.353 277.417 127.622 276.748 128.043C276.079 128.464 275.51 129.025 275.081 129.688C274.101 131.202 273.864 133.193 274.431 135.148C275.558 139.038 279.447 141.784 283.1 141.271L331.877 134.416C332.661 134.316 333.413 134.046 334.082 133.626C334.751 133.205 335.32 132.644 335.75 131.981C336.73 130.466 336.967 128.476 336.4 126.52C335.362 122.945 331.991 120.336 328.618 120.336Z" fill="#111111"/>
<path d="M327.689 120.116C331.468 119.584 335.51 122.43 336.672 126.441C337.835 130.452 335.695 134.167 331.917 134.698L283.142 141.554C279.363 142.085 275.321 139.239 274.159 135.228C272.996 131.217 275.136 127.503 278.914 126.971L327.689 120.116Z" fill="#FFD3A8"/>
<path d="M282.221 141.902C278.6 141.902 274.991 139.121 273.886 135.307C273.273 133.193 273.535 131.032 274.605 129.379C275.078 128.647 275.705 128.027 276.443 127.562C277.181 127.098 278.011 126.8 278.876 126.689L327.651 119.833C331.573 119.282 335.743 122.211 336.947 126.362C337.56 128.476 337.298 130.637 336.228 132.29C335.754 133.022 335.127 133.642 334.389 134.107C333.652 134.571 332.821 134.869 331.957 134.98L283.182 141.836C282.863 141.88 282.543 141.902 282.221 141.902ZM328.618 120.336C328.321 120.336 328.024 120.356 327.729 120.397L278.954 127.253C278.17 127.353 277.418 127.623 276.749 128.043C276.08 128.464 275.511 129.025 275.081 129.688C274.101 131.203 273.865 133.193 274.431 135.149C275.468 138.724 278.837 141.333 282.212 141.333C282.51 141.334 282.807 141.313 283.101 141.272L331.877 134.416C332.661 134.316 333.413 134.046 334.082 133.626C334.751 133.205 335.32 132.644 335.75 131.981C336.73 130.466 336.967 128.476 336.4 126.52C335.362 122.945 331.993 120.336 328.618 120.336Z" fill="#111111"/>
<path d="M526.487 545.854L332.841 573.073C323.995 574.317 314.603 567.703 311.877 558.3L191.028 141.398C189.163 134.965 190.902 128.892 195.024 125.299L182.179 136.495C178.057 140.088 176.318 146.161 178.183 152.595L299.033 569.496C301.758 578.899 311.15 585.513 319.997 584.269L513.642 557.05C516.272 556.707 518.744 555.601 520.752 553.868L533.597 542.672C531.588 544.404 529.117 545.51 526.487 545.854Z" fill="url(#paint1_linear_880_18806)"/>
<path d="M317.844 584.703C309.558 584.703 301.295 578.322 298.759 569.576L177.91 152.673C176.078 146.353 177.642 140.072 181.992 136.28L194.837 125.084C194.865 125.058 194.898 125.038 194.933 125.025C194.969 125.013 195.007 125.007 195.045 125.009C195.083 125.011 195.12 125.021 195.154 125.038C195.188 125.054 195.219 125.078 195.244 125.106C195.269 125.135 195.288 125.168 195.299 125.204C195.311 125.241 195.316 125.279 195.313 125.316C195.31 125.354 195.299 125.391 195.282 125.425C195.264 125.459 195.24 125.488 195.211 125.513C191.03 129.158 189.532 135.214 191.301 141.318L312.151 558.221C314.617 566.729 322.642 572.938 330.681 572.938C331.39 572.939 332.099 572.889 332.802 572.791L526.447 545.572C529.021 545.232 531.44 544.149 533.41 542.457C533.467 542.408 533.541 542.383 533.616 542.388C533.692 542.393 533.762 542.428 533.812 542.485C533.861 542.542 533.886 542.616 533.881 542.692C533.876 542.767 533.841 542.837 533.784 542.887L520.94 554.083C518.887 555.848 516.365 556.976 513.682 557.332L320.036 584.551C319.31 584.653 318.577 584.704 317.844 584.703ZM192.287 128.062L182.366 136.71C178.185 140.355 176.687 146.41 178.457 152.515L299.306 569.417C301.99 578.675 311.254 585.21 319.957 583.987L513.603 556.768C516.177 556.428 518.596 555.346 520.565 553.654L530.507 544.988C529.242 545.559 527.901 545.945 526.527 546.136L332.881 573.355C323.908 574.616 314.363 567.898 311.604 558.379L190.755 141.478C189.343 136.609 189.947 131.764 192.287 128.062Z" fill="#111111"/>
<path d="M395.767 94.8996C404.625 93.6543 414.018 100.268 416.744 109.671L537.593 526.573C540.319 535.976 535.346 544.608 526.488 545.853L332.843 573.072C323.996 574.315 314.604 567.702 311.879 558.299L191.028 141.398C188.302 131.995 193.275 123.363 202.133 122.119L395.767 94.8996ZM530.636 527.551L409.787 110.649C408.243 105.324 402.924 101.579 397.907 102.284L204.274 129.502C199.244 130.208 196.429 135.096 197.973 140.422L318.822 557.324C320.366 562.649 325.684 566.395 330.714 565.687L524.347 538.47C529.364 537.764 532.18 532.876 530.636 527.551Z" fill="#FFD3A8"/>
<path d="M330.688 573.507C322.403 573.507 314.139 567.126 311.604 558.379L190.754 141.477C189.349 136.628 189.937 131.693 192.367 127.938C193.447 126.274 194.877 124.866 196.557 123.812C198.237 122.758 200.127 122.083 202.095 121.835L395.727 94.6174C404.707 93.3546 414.258 100.072 417.017 109.592L537.866 526.493C539.272 531.342 538.684 536.277 536.253 540.032C535.173 541.696 533.743 543.104 532.063 544.158C530.384 545.212 528.494 545.887 526.527 546.135L332.881 573.355C332.154 573.456 331.422 573.507 330.688 573.507ZM395.806 95.1812L202.173 122.399C200.287 122.637 198.475 123.283 196.864 124.293C195.253 125.303 193.882 126.653 192.845 128.247C190.505 131.864 189.941 136.628 191.301 141.319L312.151 558.22C314.617 566.728 322.642 572.937 330.68 572.938C331.39 572.938 332.099 572.889 332.801 572.791L526.447 545.571C528.334 545.333 530.146 544.687 531.757 543.677C533.368 542.667 534.739 541.317 535.775 539.723C538.116 536.106 538.679 531.342 537.319 526.651L416.47 109.75C413.786 100.492 404.517 93.957 395.806 95.1812ZM329.491 566.057C324.736 566.057 319.999 562.407 318.548 557.403L197.699 140.501C196.893 137.722 197.231 134.891 198.626 132.735C199.249 131.777 200.074 130.965 201.043 130.358C202.012 129.751 203.101 129.362 204.236 129.219L397.867 102.001C403.011 101.279 408.481 105.122 410.06 110.569L530.909 527.472C531.715 530.253 531.377 533.085 529.981 535.241C529.36 536.198 528.538 537.008 527.571 537.615C526.605 538.221 525.518 538.609 524.386 538.753L330.753 565.969C330.335 566.028 329.913 566.057 329.491 566.057ZM399.134 102.483C398.737 102.483 398.34 102.51 397.947 102.566L204.314 129.783C203.26 129.915 202.248 130.275 201.348 130.839C200.448 131.402 199.682 132.155 199.103 133.045C197.798 135.062 197.485 137.722 198.244 140.343L319.095 557.244C320.599 562.43 325.793 566.091 330.674 565.405L524.307 538.188C525.358 538.055 526.367 537.695 527.264 537.133C528.162 536.57 528.926 535.819 529.503 534.931C530.809 532.913 531.122 530.252 530.362 527.63L409.513 110.728C408.131 105.962 403.636 102.483 399.134 102.483Z" fill="#111111"/>
</g>
<g clip-path="url(#clip2_880_18806)">
<path d="M447.635 471.845L363.768 483.642C353.192 485.129 347.255 495.443 350.509 506.676C353.766 517.921 364.981 525.823 375.556 524.335L459.423 512.539C470 511.051 475.936 500.737 472.679 489.492C469.425 478.259 458.211 470.357 447.635 471.845" fill="#FFD3A8"/>
<path d="M372.983 524.799C363.107 524.799 353.258 517.187 350.236 506.755C348.562 500.978 349.262 495.099 352.155 490.626C354.743 486.626 358.853 484.045 363.728 483.36L447.596 471.563C458.291 470.06 469.665 478.066 472.952 489.413C474.628 495.197 473.929 501.081 471.034 505.557C468.447 509.556 464.338 512.135 459.463 512.821L375.596 524.617C374.728 524.739 373.855 524.799 372.983 524.799L372.983 524.799ZM447.674 472.127L363.807 483.923C359.097 484.586 355.129 487.076 352.633 490.935C349.829 495.27 349.154 500.978 350.782 506.596C353.995 517.688 365.091 525.519 375.517 524.053L459.384 512.257C464.093 511.595 468.061 509.105 470.556 505.247C473.361 500.91 474.035 495.197 472.405 489.571C469.194 478.486 458.099 470.661 447.674 472.127Z" fill="#111111"/>
<path d="M427.302 410.949L347.809 422.13L351.825 435.991L431.317 424.81L427.302 410.949Z" fill="#FF6F1E"/>
<path d="M351.824 436.276C351.763 436.276 351.703 436.256 351.654 436.218C351.604 436.181 351.568 436.129 351.551 436.07L347.536 422.209C347.524 422.17 347.521 422.129 347.527 422.088C347.533 422.048 347.548 422.009 347.57 421.975C347.592 421.94 347.621 421.911 347.656 421.889C347.69 421.868 347.729 421.853 347.769 421.848L427.262 410.667C427.329 410.657 427.398 410.673 427.456 410.71C427.513 410.747 427.555 410.804 427.575 410.87L431.59 424.731C431.602 424.77 431.604 424.811 431.599 424.852C431.593 424.892 431.578 424.931 431.556 424.965C431.534 424.999 431.504 425.028 431.47 425.05C431.436 425.072 431.397 425.086 431.356 425.092L351.864 436.273C351.851 436.275 351.837 436.276 351.824 436.276ZM348.174 422.366L352.029 435.675L430.952 424.574L427.097 411.265L348.174 422.366Z" fill="#111111"/>
<path d="M393.661 385.724L300.968 398.761L304.983 412.622L397.676 399.585L393.661 385.724Z" fill="#FF6F1E"/>
<path d="M304.983 412.907C304.858 412.907 304.746 412.824 304.71 412.701L300.695 398.84C300.683 398.801 300.68 398.76 300.686 398.719C300.692 398.679 300.707 398.64 300.729 398.606C300.751 398.572 300.78 398.543 300.815 398.521C300.849 398.499 300.888 398.484 300.928 398.479L393.621 385.441C393.689 385.432 393.758 385.447 393.815 385.484C393.873 385.521 393.915 385.578 393.934 385.644L397.95 399.505C397.961 399.544 397.964 399.586 397.958 399.626C397.952 399.666 397.938 399.705 397.915 399.739C397.893 399.774 397.864 399.803 397.83 399.825C397.795 399.847 397.756 399.861 397.716 399.866L305.023 412.904C305.01 412.906 304.997 412.907 304.983 412.907ZM301.333 398.997L305.188 412.306L397.312 399.349L393.456 386.04L301.333 398.997Z" fill="#111111"/>
<path d="M457.478 376.747L406.712 383.887L410.727 397.749L461.493 390.608L457.478 376.747Z" fill="#FF6F1E"/>
<path d="M410.727 398.034C410.665 398.033 410.606 398.013 410.556 397.976C410.507 397.939 410.471 397.887 410.454 397.828L406.439 383.967C406.427 383.928 406.424 383.886 406.43 383.846C406.436 383.806 406.451 383.767 406.473 383.733C406.495 383.698 406.524 383.669 406.559 383.647C406.593 383.625 406.632 383.611 406.672 383.605L457.438 376.465C457.506 376.455 457.575 376.47 457.632 376.507C457.69 376.545 457.732 376.602 457.751 376.667L461.766 390.529C461.778 390.568 461.781 390.609 461.775 390.65C461.769 390.69 461.755 390.729 461.732 390.763C461.71 390.797 461.681 390.826 461.647 390.848C461.612 390.87 461.573 390.884 461.533 390.89L410.767 398.03C410.754 398.032 410.741 398.033 410.727 398.033L410.727 398.034ZM407.076 384.124L410.932 397.433L461.128 390.372L457.273 377.063L407.076 384.124V384.124Z" fill="#111111"/>
<path d="M457.365 329.56L447.62 295.92L428.942 231.444C427.565 226.691 423.917 222.63 419.349 220.785L326.562 183.332C324.264 182.405 321.911 182.11 319.735 182.416C317.558 182.722 315.557 183.629 313.961 185.104L249.277 244.707C246.106 247.64 244.992 252.371 246.369 257.124L274.792 355.24C276.926 362.609 284.278 367.78 291.204 366.805L448.676 344.656C455.614 343.68 459.5 336.929 457.365 329.56Z" fill="#FF6F1E"/>
<path d="M289.517 367.208C283.004 367.208 276.509 362.194 274.518 355.32L246.096 257.204C244.695 252.368 245.84 247.5 249.084 244.499L313.769 184.895C315.377 183.409 317.426 182.455 319.695 182.135C321.956 181.818 324.367 182.14 326.668 183.069L419.455 220.522C424.079 222.39 427.818 226.545 429.215 231.366L457.638 329.482C458.744 333.299 458.282 337.182 456.372 340.135C454.662 342.779 451.942 344.485 448.715 344.939L291.243 367.088C290.671 367.168 290.095 367.208 289.517 367.208V367.208ZM321.414 182.586C320.86 182.586 320.313 182.624 319.774 182.699C317.62 183.002 315.677 183.906 314.154 185.315L249.469 244.917C246.385 247.771 245.302 252.418 246.642 257.046L275.065 355.162C277.156 362.382 284.377 367.478 291.164 366.524L448.636 344.375C451.697 343.944 454.275 342.329 455.894 339.825C457.715 337.011 458.151 333.299 457.091 329.641L428.669 231.524C427.319 226.867 423.708 222.854 419.243 221.05L326.455 183.597C324.797 182.927 323.081 182.586 321.414 182.586V182.586Z" fill="#111111"/>
<path d="M379.002 182.465L338.519 188.159L305.625 192.786L265.144 198.479L286.868 273.468L346.534 297.547C348.826 298.475 351.175 298.77 353.352 298.464C355.529 298.158 357.533 297.251 359.135 295.775L400.724 257.45L379.002 182.465Z" fill="white"/>
<path d="M351.675 298.865C349.935 298.865 348.15 298.509 346.428 297.812L286.761 273.733C286.721 273.717 286.685 273.692 286.657 273.66C286.628 273.628 286.606 273.59 286.594 273.548L264.871 198.559C264.86 198.52 264.857 198.479 264.863 198.438C264.868 198.398 264.883 198.359 264.905 198.325C264.927 198.291 264.957 198.262 264.991 198.24C265.025 198.218 265.064 198.203 265.105 198.198L378.962 182.183C379.03 182.174 379.099 182.189 379.156 182.226C379.214 182.264 379.256 182.32 379.275 182.386L400.997 257.371C401.027 257.474 400.996 257.586 400.916 257.659L359.327 295.985C357.713 297.473 355.66 298.427 353.392 298.746C352.823 298.826 352.249 298.865 351.675 298.865V298.865ZM287.102 273.257L346.64 297.284C348.844 298.176 351.151 298.487 353.312 298.183C355.466 297.88 357.413 296.975 358.942 295.566L400.401 257.36L378.797 182.782L265.509 198.716L287.103 273.257H287.102Z" fill="#111111"/>
<path d="M428.942 231.445L359.134 295.775C357.533 297.251 355.528 298.158 353.352 298.464C351.175 298.77 348.826 298.475 346.534 297.547L246.369 257.124L274.792 355.241C276.926 362.609 284.278 367.78 291.203 366.806L448.675 344.656C455.613 343.68 459.499 336.93 457.365 329.561L428.942 231.445Z" fill="#FFD3A8"/>
<path d="M289.518 367.208C283.004 367.208 276.51 362.193 274.518 355.32L246.096 257.204C246.081 257.153 246.081 257.098 246.095 257.047C246.11 256.996 246.139 256.95 246.178 256.914C246.218 256.878 246.267 256.854 246.319 256.845C246.372 256.835 246.426 256.841 246.475 256.861L346.641 297.283C348.844 298.175 351.151 298.486 353.313 298.182C355.466 297.879 357.413 296.974 358.942 295.565L428.749 231.235C428.785 231.202 428.829 231.179 428.876 231.168C428.923 231.157 428.972 231.158 429.018 231.171C429.065 231.184 429.108 231.208 429.142 231.242C429.176 231.277 429.202 231.319 429.215 231.365L457.638 329.482C458.744 333.298 458.282 337.181 456.372 340.134C454.662 342.778 451.942 344.484 448.715 344.938L291.243 367.088C290.672 367.168 290.095 367.208 289.518 367.208ZM246.805 257.608L275.065 355.162C277.157 362.381 284.378 367.48 291.164 366.524L448.636 344.375C451.698 343.944 454.275 342.328 455.895 339.825C457.715 337.011 458.151 333.299 457.092 329.641L428.797 231.966L359.327 295.985C357.713 297.472 355.66 298.427 353.392 298.746C351.131 299.064 348.723 298.741 346.428 297.812L246.805 257.608Z" fill="#111111"/>
<path d="M349.265 201.253L303.012 207.759L305.358 215.857L351.611 209.352L349.265 201.253Z" fill="#FFD3A8"/>
<path d="M305.357 216.143C305.296 216.143 305.236 216.122 305.187 216.085C305.138 216.048 305.102 215.996 305.085 215.937L302.738 207.839C302.727 207.799 302.724 207.758 302.73 207.718C302.736 207.677 302.75 207.639 302.772 207.605C302.795 207.57 302.824 207.541 302.858 207.519C302.893 207.497 302.932 207.483 302.972 207.477L349.225 200.972C349.293 200.962 349.362 200.977 349.42 201.014C349.477 201.052 349.519 201.108 349.538 201.174L351.884 209.273C351.896 209.312 351.899 209.353 351.893 209.394C351.887 209.434 351.872 209.473 351.85 209.507C351.828 209.541 351.799 209.571 351.764 209.592C351.73 209.614 351.691 209.629 351.651 209.634L305.398 216.14C305.384 216.142 305.371 216.143 305.357 216.143ZM303.376 207.996L305.562 215.542L351.246 209.116L349.06 201.57L303.376 207.996ZM285.017 229.685C284.946 229.684 284.877 229.656 284.826 229.607C284.774 229.558 284.742 229.491 284.737 229.42C284.733 229.349 284.755 229.278 284.799 229.222C284.844 229.166 284.907 229.129 284.978 229.118L377.858 216.054C377.895 216.049 377.933 216.051 377.969 216.06C378.005 216.07 378.039 216.086 378.069 216.109C378.099 216.131 378.124 216.159 378.143 216.192C378.162 216.224 378.174 216.26 378.179 216.297C378.184 216.334 378.182 216.371 378.173 216.408C378.163 216.444 378.147 216.478 378.125 216.508C378.102 216.537 378.074 216.563 378.042 216.582C378.01 216.601 377.974 216.613 377.937 216.618L285.057 229.682C285.044 229.684 285.03 229.685 285.017 229.685H285.017ZM290.413 248.313C290.342 248.311 290.273 248.284 290.222 248.234C290.17 248.185 290.138 248.119 290.134 248.047C290.129 247.976 290.151 247.906 290.195 247.85C290.24 247.794 290.303 247.757 290.374 247.746L383.254 234.682C383.291 234.677 383.328 234.679 383.365 234.688C383.401 234.698 383.435 234.714 383.465 234.737C383.494 234.759 383.519 234.787 383.538 234.819C383.557 234.852 383.57 234.887 383.575 234.924C383.58 234.961 383.578 234.999 383.569 235.035C383.559 235.071 383.543 235.105 383.52 235.135C383.498 235.165 383.47 235.19 383.438 235.209C383.405 235.228 383.37 235.24 383.333 235.246L290.453 248.31C290.44 248.312 290.426 248.313 290.413 248.313H290.413ZM295.809 266.94C295.738 266.939 295.67 266.911 295.618 266.862C295.566 266.813 295.535 266.746 295.53 266.675C295.525 266.603 295.547 266.533 295.591 266.477C295.636 266.421 295.7 266.384 295.77 266.373L388.65 253.309C388.725 253.299 388.801 253.318 388.861 253.364C388.921 253.409 388.961 253.477 388.971 253.552C388.982 253.626 388.962 253.702 388.917 253.762C388.871 253.823 388.804 253.862 388.729 253.873L295.849 266.937C295.836 266.939 295.823 266.94 295.809 266.94H295.809Z" fill="#111111"/>
</g>
<g clip-path="url(#clip3_880_18806)">
<path d="M150.713 453.397C151.891 446.029 154.087 440.085 156.052 435.092C156.087 435.006 156.142 435.002 156.248 435.019C150.403 449.395 149.041 461.584 153.207 462.244C157.372 462.905 165.488 451.787 171.333 437.411C177.178 423.036 178.539 410.846 174.374 410.186C170.208 409.526 162.093 420.644 156.248 435.019C156.142 435.003 156.087 435.007 156.078 435.029C158.623 428.956 161.926 421.818 167.131 414.925C170.305 410.836 173.196 408.543 175.211 408.862C179.606 409.559 178.17 422.419 172.003 437.586C165.836 452.753 157.274 464.483 152.879 463.786C150.483 463.406 149.82 459.41 150.713 453.397Z" fill="white"/>
<path d="M153.128 464.139C157.799 464.343 166.125 452.913 172.306 437.709C177.369 425.258 179.381 413.859 177.199 409.991C176.727 409.156 176.076 408.667 175.262 408.538C172.629 408.113 169.242 411.67 166.872 414.724C161.644 421.647 158.33 428.807 155.777 434.898L155.773 434.906C155.77 434.915 155.766 434.925 155.764 434.934C155.758 434.945 155.753 434.957 155.748 434.969C153.775 439.98 151.573 445.943 150.389 453.344L150.388 453.348C149.418 459.885 150.285 463.706 152.828 464.109C152.927 464.125 153.027 464.135 153.128 464.139ZM174.921 409.162C175.001 409.165 175.08 409.173 175.16 409.185C175.774 409.283 176.254 409.652 176.627 410.313C178.718 414.019 176.691 425.183 171.699 437.462C165.699 452.217 157.096 464.114 152.93 463.462C151.719 463.269 150.974 461.904 150.742 459.611C150.877 460.226 151.065 460.753 151.307 461.182C151.757 461.978 152.379 462.445 153.155 462.568C153.248 462.583 153.344 462.592 153.441 462.597C157.875 462.79 165.774 451.951 171.636 437.534C176.437 425.727 178.344 414.918 176.273 411.248C175.823 410.451 175.201 409.985 174.425 409.862C173.6 409.728 172.636 410.018 171.581 410.669C172.872 409.639 174.004 409.122 174.921 409.162ZM174.094 410.486C174.172 410.49 174.247 410.497 174.322 410.509C174.899 410.6 175.35 410.947 175.702 411.57C177.681 415.078 175.759 425.653 171.029 437.287C165.345 451.266 157.211 462.551 153.258 461.92C152.681 461.829 152.23 461.482 151.879 460.86C149.9 457.352 151.821 446.777 156.551 435.142C162.127 421.429 170.066 410.311 174.094 410.486Z" fill="#111111"/>
<path d="M156.078 435.028C151.028 447.835 146.715 463.901 154.849 467.711C155.032 467.79 155.225 467.846 155.422 467.877C160.227 468.639 169.587 455.815 176.329 439.234C182.796 423.33 184.504 409.746 180.393 407.991C169.055 403.567 157.372 431.795 156.078 435.028C156.087 435.006 156.142 435.002 156.248 435.019C162.093 420.643 170.208 409.525 174.374 410.186C178.539 410.846 177.178 423.035 171.333 437.411C165.488 451.786 157.373 462.904 153.207 462.244C149.041 461.583 150.403 449.394 156.248 435.019C156.142 435.002 156.087 435.006 156.078 435.028Z" fill="white"/>
<path d="M155.698 468.233C160.79 468.455 169.88 455.965 176.633 439.357C183.215 423.167 184.887 409.553 180.522 407.689C168.882 403.146 157.083 431.635 155.773 434.905L155.773 434.906L155.773 434.906C155.772 434.907 155.772 434.908 155.772 434.909C150.67 447.846 146.346 464.09 154.709 468.007C155.022 468.144 155.357 468.22 155.698 468.233ZM178.243 407.864C178.92 407.893 179.598 408.032 180.274 408.296C184.16 409.955 182.258 423.78 176.026 439.11C169.462 455.253 160.064 468.275 155.473 467.553C155.303 467.526 155.136 467.477 154.977 467.409C152.804 466.391 150.894 464.071 150.653 459.145C150.789 459.963 151.006 460.647 151.308 461.181C151.757 461.978 152.379 462.444 153.155 462.567C153.249 462.582 153.344 462.592 153.441 462.596C157.875 462.789 165.775 451.95 171.637 437.534C176.437 425.727 178.344 414.917 176.273 411.247C175.823 410.451 175.202 409.984 174.425 409.861C173.6 409.728 172.637 410.017 171.581 410.669C173.699 408.902 175.964 407.765 178.243 407.864ZM174.094 410.486C174.172 410.49 174.247 410.497 174.322 410.509C174.899 410.6 175.35 410.947 175.702 411.57C177.681 415.077 175.759 425.653 171.029 437.287C165.345 451.266 157.211 462.551 153.258 461.92C152.681 461.828 152.23 461.481 151.879 460.859C149.9 457.352 151.821 446.777 156.551 435.142C162.127 421.429 170.066 410.311 174.094 410.486Z" fill="#111111"/>
<path d="M228.378 432.961C235.411 436.08 242.101 442.138 245.023 449.136C248.365 457.142 248.609 470.091 238.293 480.236C235.644 482.842 230.891 486.233 223.289 487.588C216.27 488.84 208.938 485.986 206.431 485.033C213.878 478.811 227.683 450.807 228.378 432.961Z" fill="#FFD3A8"/>
<path d="M218.498 488.207C220.086 488.276 221.721 488.201 223.347 487.911C231.031 486.541 235.841 483.109 238.523 480.47C248.955 470.209 248.707 457.11 245.325 449.01C242.515 442.279 236.072 436.015 228.511 432.661C228.462 432.639 228.409 432.63 228.355 432.633C228.302 432.637 228.25 432.654 228.204 432.682C228.159 432.71 228.121 432.749 228.094 432.796C228.067 432.842 228.052 432.894 228.05 432.948C227.366 450.513 213.741 478.498 206.22 484.782C206.177 484.818 206.143 484.866 206.123 484.92C206.103 484.973 206.098 485.031 206.107 485.087C206.117 485.144 206.141 485.197 206.177 485.241C206.213 485.285 206.261 485.319 206.314 485.34L206.44 485.387C208.521 486.179 213.249 487.978 218.498 488.207ZM228.684 433.459C235.908 436.792 242.026 442.811 244.72 449.263C248.023 457.174 248.262 469.971 238.064 480.003C235.448 482.576 230.751 485.925 223.232 487.266C216.72 488.427 209.972 486.022 207.058 484.921C214.665 477.984 227.782 450.876 228.684 433.459Z" fill="#111111"/>
<path d="M47.165 392.314C62.1936 356.454 75.3459 338.344 83.7332 329.466C85.9849 327.083 92.8368 319.831 99.4048 318.75C106.63 317.562 109.735 322.744 110.735 325.027C115.173 335.164 111.655 353.612 109.936 361.073C108.299 368.181 103.316 389.809 88.8836 419.886C82.6759 432.822 72.6885 451.083 60.3625 464.613C54.6453 470.889 46.2748 477.749 38.8652 474.792L38.823 474.774C36.4925 473.667 29.4011 470.299 31.637 448.188C33.8781 426.026 43.5319 401.532 47.165 392.314Z" fill="#FF6F1E"/>
<path d="M42.1147 475.815C48.7564 476.104 55.6647 470.256 60.6045 464.834C72.9573 451.274 82.9615 432.983 89.179 420.027C103.628 389.918 108.616 368.262 110.255 361.146C111.981 353.653 115.512 335.121 111.034 324.894C110.004 322.541 106.802 317.202 99.3511 318.426C92.6756 319.524 85.7663 326.836 83.4961 329.239C75.0884 338.138 61.9097 356.282 46.8621 392.187L46.8595 392.193C43.2212 401.425 33.556 425.947 31.3104 448.154C29.0509 470.497 36.2996 473.939 38.6816 475.07L38.7318 475.092C39.8105 475.522 40.9543 475.767 42.1147 475.815ZM101.917 318.914C107.182 319.144 109.588 323.223 110.434 325.157C114.833 335.205 111.328 353.569 109.616 360.999C107.981 368.097 103.005 389.699 88.5873 419.744C82.389 432.66 72.4186 450.891 60.1195 464.392C54.4726 470.591 46.2219 477.377 38.9863 474.487C36.6847 473.396 29.7503 470.103 31.9627 448.221C34.1994 426.106 43.8381 401.649 47.4683 392.438C62.4771 356.626 75.6033 338.549 83.9715 329.691C86.2059 327.326 93.0006 320.135 99.4582 319.073C100.34 318.928 101.158 318.881 101.917 318.914Z" fill="#111111"/>
<path d="M62.52 405.595L158.529 454.837C158.662 454.906 158.806 454.953 158.961 454.977C161.918 455.446 167.679 447.554 171.828 437.35C175.855 427.446 176.884 419.004 174.237 418.088L72.267 382.79C73.9096 383.358 73.2712 388.597 70.7721 394.743C68.1975 401.075 64.6229 405.973 62.788 405.682C62.6918 405.666 62.6025 405.637 62.52 405.595Z" fill="#FFD3A8"/>
<path d="M159.131 455.323C162.669 455.477 168.468 446.484 172.131 437.474C175.467 429.269 176.839 421.838 175.543 418.982C175.262 418.361 174.858 417.956 174.344 417.778L72.3743 382.48C72.3333 382.465 72.2898 382.458 72.2462 382.46C72.2026 382.462 72.1598 382.472 72.1203 382.491C72.0809 382.509 72.0455 382.536 72.0164 382.568C71.9872 382.601 71.9648 382.639 71.9505 382.68C71.9362 382.721 71.9303 382.765 71.9331 382.808C71.9359 382.852 71.9474 382.895 71.9669 382.934C71.9863 382.973 72.0134 383.007 72.0465 383.036C72.0796 383.064 72.118 383.086 72.1595 383.099C72.3355 383.16 72.4816 383.317 72.594 383.564C73.3296 385.186 72.4554 389.733 70.4684 394.62C67.7792 401.234 64.3002 405.576 62.8394 405.358C62.7781 405.348 62.7228 405.33 62.6698 405.303C62.5924 405.263 62.5024 405.256 62.4196 405.282C62.3368 405.309 62.268 405.368 62.2283 405.445C62.1886 405.522 62.1813 405.612 62.208 405.695C62.2347 405.778 62.2932 405.847 62.3706 405.886L158.38 455.129C158.547 455.214 158.725 455.272 158.91 455.301C158.983 455.313 159.057 455.32 159.131 455.323ZM73.2678 383.483L174.13 418.397C174.467 418.514 174.742 418.802 174.946 419.253C176.153 421.913 174.746 429.304 171.524 437.227C167.09 448.133 161.474 455.059 159.013 454.654C158.897 454.636 158.785 454.599 158.68 454.546L63.6925 405.827C65.5809 404.971 68.4776 401.26 71.0764 394.867C73.0888 389.917 73.9503 385.406 73.2678 383.483Z" fill="#111111"/>
<path d="M61.6347 392.405C66.4035 381.026 70.8151 382.352 72.2648 382.788C73.9101 383.353 73.2724 388.594 70.7721 394.743C68.1976 401.075 64.6229 405.972 62.7881 405.681C62.6913 405.666 62.6013 405.636 62.5178 405.593C59.1434 403.773 58.8545 399.459 61.6347 392.405Z" fill="#FFD3A8"/>
<path d="M62.8643 406.019C64.6402 406.096 68.0585 402.288 71.0756 394.867C73.1593 389.743 74.0088 385.091 73.1897 383.291C72.9997 382.873 72.7241 382.6 72.3709 382.479C70.8399 382.018 66.215 380.627 61.332 392.279L61.3294 392.285C58.4772 399.521 58.8151 403.969 62.3615 405.882C62.5174 405.963 62.6889 406.01 62.8643 406.019ZM70.8089 382.844C71.3911 382.869 71.8545 383.008 72.1704 383.103C72.3344 383.16 72.4809 383.315 72.5932 383.563C73.3306 385.183 72.4567 389.73 70.4686 394.62C67.7793 401.234 64.3004 405.577 62.8396 405.358C62.78 405.349 62.7223 405.33 62.6686 405.303C59.4722 403.578 59.232 399.399 61.9392 392.53C65.5277 383.967 68.8456 382.758 70.8089 382.844Z" fill="#111111"/>
<path d="M60.5957 400.336C59.4919 399.865 60.0469 396.088 61.8353 391.901C63.6237 387.714 65.9682 384.702 67.072 385.173C68.1758 385.644 67.6208 389.421 65.8324 393.608C64.044 397.795 61.6994 400.807 60.5957 400.336Z" fill="white"/>
<path d="M60.8012 400.711C62.4053 400.781 64.8398 396.956 66.3552 393.23C67.8084 389.656 68.349 386.482 67.6999 385.332C67.4905 384.961 67.2002 384.844 66.9931 384.811C65.3837 384.553 62.8801 388.472 61.3312 392.283C59.878 395.857 59.3374 399.03 59.9865 400.18C60.1959 400.551 60.4863 400.668 60.6933 400.701C60.729 400.706 60.765 400.71 60.8012 400.711ZM66.8486 385.454C66.863 385.455 66.8771 385.456 66.8908 385.459C66.9511 385.468 67.0413 385.499 67.1288 385.654C67.5908 386.472 67.2646 389.252 65.7481 392.982C63.8891 397.554 61.6256 400.179 60.7964 400.053C60.736 400.043 60.6458 400.012 60.5583 399.857C60.0963 399.039 60.4225 396.259 61.9389 392.529C63.7668 388.033 65.9997 385.417 66.8486 385.454Z" fill="#111111"/>
<path d="M95.8356 401.62C108.118 371.413 113.213 344.71 109.843 332.939C110.376 334.8 110.376 334.8 109.843 332.939C123.161 379.006 161.487 400.872 175.915 409.103C176.583 409.475 177.065 410.218 177.369 411.278C178.659 415.787 176.708 426.015 172.003 437.586C166.783 450.424 159.847 460.8 155.175 463.261C154.327 463.707 153.554 463.893 152.879 463.786C152.774 463.769 152.673 463.746 152.575 463.715C146.272 461.79 137.665 459.359 126.964 457.641C86.9709 451.22 61.4966 463.879 51.9045 468.647C64.1017 462.221 82.2087 435.135 95.8356 401.62Z" fill="#FFD3A8"/>
<path d="M51.8899 468.975C51.9452 468.977 52.0001 468.965 52.0496 468.94C61.6132 464.187 87.0184 451.561 126.912 457.964C137.594 459.68 146.186 462.106 152.478 464.029C152.591 464.063 152.709 464.09 152.827 464.109C153.56 464.228 154.402 464.038 155.327 463.551C160.177 460.997 167.159 450.37 172.307 437.709C176.93 426.338 179.041 415.927 177.683 411.187C177.35 410.022 176.809 409.225 176.074 408.816C161.681 400.605 123.439 378.787 110.158 332.847C110.141 332.789 110.109 332.737 110.065 332.696L110.063 332.695L110.063 332.694L110.062 332.694L110.061 332.693L110.06 332.692L110.059 332.691L110.057 332.69L110.056 332.689L110.056 332.689L110.055 332.688L110.055 332.688L110.054 332.687L110.054 332.687C110.053 332.686 110.053 332.686 110.052 332.686C110.052 332.685 110.052 332.685 110.051 332.685C110.05 332.684 110.051 332.684 110.05 332.684C110.049 332.683 110.049 332.683 110.049 332.683L110.047 332.682L110.046 332.681C110.046 332.68 110.046 332.681 110.045 332.68L110.044 332.679L110.044 332.678L110.042 332.678L110.042 332.677C110.042 332.677 110.041 332.677 110.041 332.676L110.039 332.675C110.039 332.675 110.038 332.675 110.038 332.674L110.037 332.674C110.036 332.673 110.035 332.675 110.036 332.673L110.034 332.672L110.033 332.671L110.032 332.67L110.03 332.669L110.029 332.668L110.028 332.667C110.028 332.667 110.028 332.667 110.026 332.666C109.991 332.642 109.952 332.625 109.91 332.617C109.909 332.616 109.909 332.616 109.908 332.616L109.906 332.616C109.906 332.616 109.905 332.616 109.905 332.615L109.903 332.615C109.903 332.615 109.901 332.615 109.901 332.615C109.824 332.601 109.745 332.614 109.678 332.653C109.611 332.692 109.559 332.754 109.533 332.827L109.532 332.829L109.532 332.831L109.532 332.831L109.531 332.832L109.531 332.834C109.53 332.835 109.53 332.836 109.53 332.836L109.529 332.838C109.529 332.839 109.529 332.839 109.529 332.84C109.529 332.841 109.529 332.842 109.528 332.842L109.527 332.843L109.527 332.845L109.527 332.847C109.526 332.848 109.526 332.848 109.526 332.849L109.526 332.851L109.525 332.853L109.524 332.854L109.524 332.856L109.524 332.858L109.523 332.86C109.522 332.861 109.523 332.862 109.522 332.862C109.522 332.863 109.522 332.863 109.522 332.864L109.522 332.866L109.521 332.868L109.521 332.87L109.52 332.872L109.518 332.885L109.515 332.911L109.514 332.913L109.513 332.937L109.514 332.938C109.513 332.969 109.518 332.999 109.526 333.029L109.53 333.042C111.189 338.853 110.794 348.279 108.386 360.302C105.913 372.65 101.468 386.895 95.5307 401.497C82.1877 434.313 64.1844 461.807 51.75 468.358C51.6862 468.391 51.6353 468.445 51.6052 468.511C51.575 468.576 51.5673 468.65 51.5833 468.72C51.5992 468.79 51.6379 468.853 51.6934 468.899C51.7488 468.945 51.8179 468.972 51.8899 468.975ZM110.872 455.656C84.4858 454.508 66.0463 461.603 56.0918 466.25C68.2898 456.588 84.1195 431.305 96.1391 401.743C106.738 375.676 112.271 351.581 111.033 337.828C125.563 380.754 161.803 401.429 175.753 409.388C176.333 409.71 176.769 410.376 177.053 411.367C178.352 415.904 176.201 426.391 171.699 437.462C166.604 449.993 159.746 460.482 155.021 462.97C154.224 463.39 153.521 463.556 152.93 463.462C152.842 463.448 152.754 463.427 152.67 463.401C146.358 461.473 137.738 459.039 127.015 457.317C121.342 456.406 115.958 455.878 110.872 455.656Z" fill="#111111"/>
<path d="M154.865 467.718C155.044 467.794 155.231 467.847 155.422 467.877C160.227 468.639 169.588 455.815 176.329 439.234C182.796 423.33 184.504 409.746 180.394 407.991C180.394 407.991 226.728 427.729 227.356 428.071C228.127 428.482 229.407 429.292 230.356 431.227C234.236 439.143 227.182 458.642 221.825 469.074C214.465 483.406 207.706 489.666 201.729 487.7C200.601 487.366 154.865 467.718 154.865 467.718Z" fill="#FF6F1E"/>
<path d="M203.592 488.375C209.232 488.62 215.455 482.195 222.117 469.223C227.504 458.735 234.583 439.106 230.651 431.082C229.683 429.107 228.395 428.253 227.511 427.781C226.879 427.436 182.42 408.497 180.522 407.689L180.522 407.689C180.482 407.672 180.44 407.663 180.397 407.662C180.354 407.662 180.311 407.67 180.271 407.686C180.231 407.702 180.195 407.726 180.164 407.756C180.133 407.786 180.109 407.822 180.092 407.862C180.075 407.901 180.066 407.944 180.065 407.987C180.065 408.03 180.073 408.073 180.089 408.113C180.105 408.153 180.129 408.189 180.159 408.22C180.189 408.25 180.225 408.275 180.265 408.292C184.16 409.956 182.258 423.78 176.026 439.11C169.462 455.253 160.064 468.275 155.473 467.553C155.309 467.527 155.147 467.481 154.994 467.416C154.914 467.382 154.823 467.381 154.743 467.413C154.662 467.445 154.597 467.509 154.563 467.589C154.529 467.669 154.528 467.759 154.56 467.84C154.593 467.92 154.656 467.985 154.736 468.019C156.604 468.822 200.503 487.678 201.636 488.014C202.28 488.226 202.932 488.346 203.592 488.375ZM181.926 409C198.235 415.948 226.592 428.044 227.201 428.36C228.006 428.789 229.178 429.567 230.062 431.371C231.745 434.806 231.46 440.944 229.238 449.121C227.503 455.506 224.623 462.908 221.533 468.924C214.262 483.083 207.637 489.298 201.831 487.389C200.975 487.135 172.837 475.08 156.667 468.135C161.885 466.923 170.29 454.957 176.633 439.357C182.356 425.282 184.367 413.153 181.926 409Z" fill="#111111"/>
<path d="M35.4522 427.521C38.8591 413.386 44.6794 398.62 47.1647 392.314C50.9616 383.254 62.5157 355.685 78.546 335.544C89.5359 321.736 98.2781 316.425 105.273 319.305C111.065 321.69 113.706 330.095 112.712 342.972C111.096 363.905 102.89 386.071 99.386 395.536C87.3406 428.074 64.2224 467.456 47.877 474.346C38.3511 478.361 31.354 471.651 31.2389 458.392C31.1662 450.01 31.816 442.608 35.4522 427.521ZM40.7119 469.383C52.2735 471.217 74.7971 440.358 91.0198 400.46C107.242 360.562 111.021 326.732 99.4597 324.899C87.898 323.065 65.3745 353.924 49.1518 393.822C32.9291 433.72 29.1503 467.55 40.7119 469.383Z" fill="white"/>
<path d="M42.1644 475.823C43.9917 475.903 45.9553 475.512 48.0043 474.648C64.4302 467.725 87.6242 428.252 99.6935 395.65C103.203 386.171 111.419 363.975 113.039 342.998C114.045 329.968 111.331 321.445 105.398 319.002C98.2503 316.058 89.3819 321.402 78.2896 335.34C62.2301 355.517 50.6635 383.117 46.8626 392.187C44.372 398.505 38.5459 413.287 35.1334 427.444C31.4893 442.564 30.8379 449.986 30.9107 458.395C30.9764 465.972 33.2343 471.605 37.2682 474.256C38.7381 475.223 40.3869 475.746 42.1644 475.823ZM101.866 318.884C103.004 318.933 104.096 319.175 105.148 319.608C110.797 321.935 113.367 330.223 112.385 342.947C110.772 363.833 102.578 385.969 99.0791 395.421C87.0567 427.896 64.0137 467.189 47.7499 474.044C43.9182 475.659 40.4191 475.543 37.6285 473.708C33.8391 471.217 31.6297 465.633 31.5672 458.389C31.4947 450.033 32.1429 442.652 35.7714 427.598C39.1731 413.485 44.9875 398.733 47.4706 392.434C51.2602 383.391 62.8007 355.854 78.8033 335.748C88.0159 324.172 95.6046 318.611 101.866 318.884ZM41.4058 469.782C47.0994 470.029 55.2118 463.328 64.3827 450.764C73.8998 437.726 83.4677 419.904 91.3232 400.584C104.585 367.968 109.889 338.174 104.223 328.133C103.067 326.084 101.482 324.888 99.5107 324.575C93.7945 323.664 85.3673 330.395 75.7887 343.517C66.2715 356.556 56.7037 374.378 48.8482 393.698C35.5863 426.314 30.2819 456.107 35.9486 466.149C37.1042 468.198 38.6895 469.394 40.6606 469.707C40.9038 469.746 41.1529 469.77 41.4058 469.782ZM98.7484 325.157C98.9735 325.167 99.1925 325.188 99.408 325.222C101.171 325.502 102.599 326.589 103.651 328.455C109.226 338.334 103.907 367.893 90.7158 400.337C82.8795 419.609 73.3394 437.381 63.8529 450.378C54.9351 462.595 46.8213 469.359 41.4226 469.125C41.1975 469.116 40.9785 469.094 40.763 469.06C38.9999 468.78 37.572 467.693 36.5196 465.828C30.9447 455.948 36.2639 426.389 49.4552 393.946C57.2915 374.673 66.8316 356.901 76.3181 343.904C85.2359 331.687 93.3501 324.922 98.7484 325.157Z" fill="#111111"/>
<path d="M187.11 481.629L166.435 470.268L161.863 477.302L151.898 481.468C150.906 481.884 150.39 483.009 150.721 484.06L152.92 491.089L133.037 524.126L127.528 526.168C125.131 526.656 123.844 529.348 124.947 531.582C128.154 538.085 130.28 546.086 134.194 549.62C134.719 550.095 135.312 550.511 135.952 550.863C139.698 552.921 145.025 552.781 147.304 549.545L187.11 481.629Z" fill="#FFD3A8"/>
<path d="M140.857 552.55C143.5 552.665 146.091 551.837 147.572 549.733L187.393 481.795C187.415 481.757 187.429 481.715 187.435 481.672C187.441 481.628 187.438 481.584 187.426 481.542C187.414 481.5 187.394 481.46 187.367 481.426C187.34 481.391 187.306 481.363 187.268 481.342L166.593 469.98C166.52 469.94 166.435 469.929 166.355 469.95C166.274 469.97 166.205 470.02 166.16 470.089L161.642 477.038L151.771 481.165C150.629 481.644 150.03 482.959 150.408 484.158L152.563 491.046L132.815 523.858L127.437 525.851C126.22 526.107 125.205 526.903 124.648 528.038C124.365 528.612 124.217 529.243 124.218 529.883C124.219 530.523 124.368 531.154 124.653 531.727C125.671 533.791 126.588 536.028 127.476 538.192C129.419 542.93 131.253 547.406 133.974 549.863C134.529 550.361 135.14 550.792 135.794 551.149C137.293 551.973 139.087 552.473 140.857 552.55ZM186.657 481.754L147.021 549.378C144.842 552.47 139.615 552.5 136.11 550.574C135.48 550.228 134.91 549.825 134.415 549.376C131.804 547.019 129.997 542.61 128.083 537.943C127.191 535.769 126.269 533.521 125.241 531.437C125.001 530.954 124.875 530.422 124.875 529.882C124.874 529.343 124.998 528.811 125.237 528.327C125.708 527.368 126.566 526.697 127.593 526.489C127.61 526.485 127.626 526.481 127.642 526.475L133.151 524.433C133.221 524.407 133.28 524.358 133.318 524.294L153.201 491.257C153.225 491.218 153.24 491.173 153.246 491.127C153.251 491.081 153.247 491.035 153.233 490.99L151.034 483.962C150.757 483.082 151.192 482.119 152.025 481.77L161.99 477.604C162.05 477.579 162.102 477.536 162.138 477.48L166.544 470.702L186.657 481.754Z" fill="#111111"/>
<path d="M119.266 528.826C119.49 527.678 120.073 526.622 120.929 525.832C121.634 525.183 122.503 524.738 123.442 524.547L128.188 522.772L147.387 490.872L145.415 484.567C145.217 483.936 145.19 483.289 145.308 482.681C145.461 481.891 145.862 481.171 146.452 480.625C146.764 480.337 147.124 480.107 147.516 479.943L157.024 475.968L160.745 470.242L166.434 470.268L161.862 477.302L151.897 481.467C150.905 481.884 150.39 483.009 150.72 484.06L152.919 491.088L133.036 524.126L127.527 526.168C125.218 526.638 123.94 529.152 124.834 531.333C127.052 535.657 130.493 546.528 134.193 549.62C137.726 552.848 144.636 553.354 147.303 549.544C145.203 552.999 141.372 554.364 137.484 553.869C126.166 552.429 124.351 541.495 119.737 532.33C119.199 531.246 119.034 530.014 119.266 528.826Z" fill="white"/>
<path d="M138.504 554.285C142.371 554.454 145.715 552.79 147.584 549.715C147.629 549.642 147.644 549.555 147.625 549.471C147.606 549.388 147.556 549.315 147.484 549.269C147.413 549.222 147.326 549.205 147.242 549.222C147.158 549.238 147.084 549.286 147.035 549.356C146.073 550.731 144.416 551.613 142.369 551.838C139.515 552.153 136.395 551.187 134.415 549.378C131.869 547.25 129.403 541.257 127.422 536.441C126.548 534.318 125.794 532.485 125.127 531.183C124.74 530.238 124.797 529.148 125.294 528.218C125.774 527.319 126.611 526.689 127.593 526.489C127.61 526.486 127.626 526.481 127.642 526.475L133.151 524.433C133.22 524.407 133.279 524.358 133.318 524.295L153.201 491.258C153.225 491.218 153.24 491.174 153.246 491.128C153.251 491.082 153.247 491.035 153.233 490.991L151.034 483.962C150.757 483.082 151.192 482.12 152.025 481.77L161.989 477.605C162.05 477.579 162.102 477.536 162.138 477.481L166.71 470.447C166.742 470.397 166.76 470.34 166.762 470.281C166.765 470.223 166.751 470.164 166.723 470.112C166.666 470.007 166.554 469.935 166.436 469.94L160.747 469.915C160.636 469.915 160.532 469.971 160.471 470.064L156.804 475.705L147.39 479.64C146.963 479.819 146.571 480.071 146.23 480.384C145.59 480.979 145.155 481.761 144.987 482.618C144.855 483.3 144.894 484.004 145.102 484.666L147.031 490.83L127.967 522.505L123.351 524.231C122.363 524.438 121.45 524.908 120.707 525.592C119.808 526.42 119.182 527.546 118.944 528.763C118.697 530.028 118.87 531.312 119.444 532.476C120.399 534.373 121.244 536.371 122.061 538.302C125.265 545.876 128.291 553.031 137.444 554.194C137.795 554.239 138.149 554.27 138.504 554.285ZM144.573 551.989C142.664 553.317 140.207 553.884 137.526 553.544C128.748 552.427 125.793 545.442 122.665 538.046C121.843 536.105 120.995 534.098 120.03 532.183C119.524 531.163 119.368 530.005 119.588 528.888C119.799 527.808 120.355 526.808 121.152 526.073C121.813 525.465 122.628 525.048 123.509 524.868C123.525 524.864 123.541 524.86 123.557 524.854L128.304 523.079C128.373 523.053 128.432 523.004 128.47 522.941L147.669 491.041C147.693 491.002 147.708 490.957 147.713 490.911C147.719 490.865 147.714 490.819 147.701 490.774L145.728 484.47C145.553 483.912 145.519 483.315 145.631 482.744C145.772 482.024 146.137 481.366 146.675 480.867C146.959 480.605 147.287 480.395 147.643 480.245L157.151 476.271C157.212 476.246 157.264 476.203 157.3 476.148L160.924 470.572L165.833 470.594L161.643 477.039L151.772 481.166C150.63 481.645 150.032 482.959 150.409 484.159L152.564 491.046L132.816 523.858L127.438 525.852C126.275 526.097 125.284 526.845 124.716 527.909C124.425 528.451 124.258 529.049 124.226 529.663C124.194 530.276 124.299 530.889 124.532 531.457C125.199 532.76 125.984 534.669 126.816 536.691C128.825 541.573 131.325 547.65 133.984 549.872C136.086 551.793 139.411 552.826 142.441 552.491C143.204 552.406 143.92 552.237 144.573 551.989Z" fill="#111111"/>
</g>
<g clip-path="url(#clip4_880_18806)">
<path d="M237.811 139.257L227.861 143.961L226.988 149.862L236.938 145.158C242.033 142.75 245.21 138.288 245.934 133.393L246.807 127.492C246.083 132.387 242.906 136.849 237.811 139.257Z" fill="#FFD3A8"/>
<path d="M226.963 150.146C226.924 150.142 226.887 150.131 226.852 150.112C226.818 150.094 226.788 150.069 226.764 150.038C226.74 150.008 226.722 149.973 226.712 149.935C226.702 149.898 226.7 149.859 226.706 149.82L227.578 143.919C227.592 143.825 227.652 143.744 227.738 143.703L237.689 138.999C242.487 136.731 245.79 132.413 246.525 127.45C246.537 127.375 246.577 127.309 246.638 127.264C246.698 127.219 246.774 127.199 246.849 127.21C246.886 127.215 246.922 127.228 246.954 127.247C246.986 127.266 247.014 127.292 247.036 127.322C247.059 127.352 247.075 127.386 247.084 127.422C247.093 127.459 247.095 127.496 247.089 127.533L247.088 127.538L246.216 133.435C245.453 138.587 242.031 143.067 237.06 145.416L227.11 150.12C227.064 150.141 227.013 150.15 226.963 150.146ZM228.12 144.153L227.347 149.376L236.816 144.9C241.614 142.632 244.917 138.315 245.652 133.351L245.926 131.498C244.383 134.931 241.573 137.793 237.933 139.514L228.12 144.153Z" fill="#111111"/>
<path d="M225.509 158.841C225.06 159.051 224.568 159.151 224.073 159.133C223.578 159.115 223.094 158.979 222.662 158.736L210.741 152.053L209.868 157.955L221.789 164.637C222.221 164.88 222.705 165.016 223.2 165.034C223.695 165.052 224.187 164.952 224.636 164.742C225.423 164.371 226.02 163.669 226.153 162.767L227.026 156.865C226.893 157.767 226.296 158.469 225.509 158.841Z" fill="#FFD3A8"/>
<path d="M223.024 165.308C222.549 165.266 222.08 165.125 221.65 164.887L209.729 158.203C209.679 158.175 209.638 158.132 209.613 158.08C209.587 158.028 209.578 157.97 209.587 157.913L210.46 152.012C210.466 151.966 210.484 151.923 210.511 151.885C210.539 151.848 210.575 151.818 210.616 151.798C210.657 151.778 210.703 151.768 210.749 151.769C210.795 151.77 210.841 151.782 210.881 151.805L222.801 158.488C223.604 158.933 224.57 158.97 225.387 158.584C226.136 158.229 226.631 157.588 226.744 156.824C226.756 156.75 226.797 156.683 226.857 156.638C226.918 156.594 226.993 156.574 227.068 156.584C227.105 156.59 227.141 156.602 227.173 156.622C227.205 156.641 227.233 156.666 227.255 156.696C227.277 156.726 227.294 156.76 227.303 156.797C227.312 156.833 227.314 156.871 227.308 156.908L226.435 162.809C226.293 163.765 225.682 164.563 224.758 165C224.217 165.254 223.619 165.361 223.024 165.308ZM210.179 157.802L221.929 164.389C222.731 164.835 223.698 164.871 224.514 164.485C225.264 164.131 225.758 163.49 225.871 162.725L226.497 158.5C226.244 158.747 225.952 158.949 225.632 159.098C224.648 159.563 223.487 159.52 222.523 158.985L210.963 152.504L210.179 157.802Z" fill="#111111"/>
<path d="M163.843 174.223C155.399 178.215 144.88 175.057 140.355 167.16L114.109 121.357C112.315 118.228 111.733 114.826 112.209 111.61L111.336 117.512C110.86 120.727 111.442 124.13 113.236 127.259L139.482 173.062C144.007 180.958 154.526 184.116 162.97 180.125L209.868 157.955L210.742 152.053L163.843 174.223Z" fill="#FFD3A8"/>
<path d="M153.549 182.059C147.709 181.549 142.198 178.374 139.235 173.203L112.988 127.4C111.219 124.312 110.55 120.878 111.054 117.47L111.927 111.569C111.932 111.532 111.945 111.496 111.964 111.464C111.983 111.432 112.009 111.404 112.039 111.381C112.069 111.359 112.103 111.343 112.14 111.334C112.176 111.325 112.214 111.323 112.251 111.329C112.288 111.334 112.324 111.347 112.356 111.366C112.388 111.385 112.416 111.411 112.438 111.441C112.461 111.471 112.477 111.505 112.486 111.541C112.495 111.578 112.497 111.615 112.491 111.652C112.006 114.933 112.65 118.24 114.356 121.216L140.603 167.019C145.047 174.775 155.418 177.891 163.721 173.966L210.619 151.796C210.666 151.774 210.718 151.765 210.769 151.77C210.82 151.776 210.869 151.794 210.911 151.825C210.952 151.856 210.985 151.897 211.004 151.945C211.024 151.992 211.031 152.044 211.023 152.095L210.15 157.997C210.136 158.091 210.076 158.172 209.99 158.213L163.092 180.383C160.057 181.817 156.753 182.339 153.549 182.059ZM111.89 115.718L111.618 117.553C111.133 120.834 111.777 124.141 113.483 127.117L139.73 172.92C144.174 180.676 154.544 183.792 162.848 179.867L209.608 157.762L210.381 152.539L163.965 174.481C155.399 178.53 144.696 175.31 140.108 167.302L113.861 121.499C112.812 119.668 112.15 117.715 111.89 115.718Z" fill="#111111"/>
<path d="M195.182 64.8653C203.626 60.8736 214.132 64.0368 218.658 71.9342L244.905 117.737C249.43 125.634 246.256 135.265 237.811 139.257L227.861 143.961L227.048 156.663C226.98 157.662 226.354 158.442 225.509 158.841C225.06 159.051 224.568 159.151 224.073 159.133C223.578 159.115 223.094 158.979 222.662 158.736L210.741 152.054L163.843 174.224C155.399 178.216 144.88 175.058 140.355 167.161L114.109 121.358C109.583 113.461 112.77 103.824 121.214 99.8323L195.182 64.8653Z" fill="white"/>
<path d="M154.422 176.158C148.582 175.647 143.071 172.473 140.108 167.302L113.861 121.499C111.674 117.682 111.176 113.332 112.46 109.25C113.792 105.012 116.858 101.577 121.092 99.5747L195.06 64.6079C203.62 60.5617 214.316 63.7848 218.905 71.793L245.152 117.596C247.341 121.416 247.84 125.769 246.556 129.852C245.226 134.083 242.164 137.515 237.933 139.515L228.135 144.147L227.333 156.681C227.261 157.726 226.625 158.629 225.631 159.099C224.649 159.563 223.486 159.521 222.523 158.986L210.73 152.374L163.965 174.482C160.93 175.916 157.626 176.438 154.422 176.158ZM195.182 64.8654L195.304 65.1229L121.336 100.09C117.247 102.023 114.288 105.336 113.004 109.42C111.769 113.35 112.249 117.539 114.356 121.216L140.603 167.019C145.047 174.775 155.418 177.892 163.721 173.967L210.619 151.796C210.66 151.777 210.706 151.767 210.751 151.769C210.797 151.771 210.841 151.783 210.881 151.805L222.801 158.488C223.604 158.934 224.57 158.97 225.387 158.584C226.192 158.204 226.706 157.478 226.763 156.644L227.576 143.943C227.579 143.892 227.596 143.843 227.624 143.801C227.653 143.759 227.692 143.726 227.738 143.704L237.689 139C241.774 137.069 244.729 133.759 246.012 129.681C247.247 125.752 246.766 121.56 244.657 117.879L218.41 72.076C213.966 64.3201 203.601 61.2015 195.304 65.1232L195.182 64.8654Z" fill="#111111"/>
<path d="M152.954 126.338C150.074 127.699 148.986 131 150.529 133.693C152.079 136.398 155.674 137.471 158.554 136.109C161.445 134.743 162.528 131.458 160.978 128.754C159.435 126.061 155.846 124.971 152.954 126.338Z" fill="#111111"/>
<path d="M155.323 136.955C153.267 136.775 151.326 135.657 150.282 133.834C149.509 132.486 149.334 130.946 149.789 129.498C150.261 127.999 151.342 126.785 152.832 126.08C155.845 124.657 159.61 125.792 161.225 128.612C162.002 129.966 162.179 131.507 161.725 132.952C161.255 134.446 160.172 135.659 158.676 136.366C157.61 136.87 156.449 137.054 155.323 136.955ZM153.076 126.595C151.731 127.231 150.757 128.323 150.333 129.669C149.926 130.963 150.084 132.342 150.777 133.551C152.248 136.119 155.682 137.151 158.432 135.851C159.782 135.213 160.759 134.122 161.18 132.781C161.586 131.49 161.426 130.11 160.73 128.895C159.259 126.327 155.825 125.296 153.076 126.595ZM177.108 114.919C174.229 116.281 173.14 119.582 174.683 122.274C176.233 124.979 179.828 126.052 182.707 124.691C185.599 123.324 186.681 120.04 185.132 117.335C183.589 114.643 179.999 113.552 177.108 114.919Z" fill="#111111"/>
<path d="M179.478 125.538C177.422 125.358 175.481 124.239 174.436 122.416C173.664 121.068 173.489 119.527 173.944 118.079C174.415 116.58 175.496 115.367 176.986 114.662C179.998 113.239 183.763 114.374 185.38 117.194C186.156 118.548 186.333 120.089 185.879 121.533C185.409 123.028 184.326 124.241 182.83 124.949C181.764 125.453 180.603 125.636 179.478 125.538ZM180.295 114.639C179.266 114.549 178.205 114.716 177.23 115.177C175.885 115.813 174.911 116.904 174.488 118.25C174.081 119.545 174.238 120.924 174.931 122.133C176.402 124.701 179.836 125.733 182.585 124.433C183.936 123.795 184.913 122.704 185.334 121.362C185.74 120.071 185.58 118.691 184.884 117.477C183.935 115.82 182.168 114.802 180.295 114.639ZM201.262 103.501C198.383 104.863 197.294 108.164 198.837 110.857C200.387 113.561 203.982 114.634 206.861 113.273C209.753 111.906 210.836 108.622 209.286 105.917C207.743 103.225 204.154 102.134 201.262 103.501Z" fill="#111111"/>
<path d="M203.631 114.119C201.575 113.94 199.634 112.821 198.589 110.998C197.817 109.65 197.642 108.11 198.097 106.661C198.569 105.162 199.649 103.949 201.14 103.244C204.152 101.82 207.917 102.955 209.534 105.776C210.31 107.13 210.487 108.671 210.033 110.115C209.563 111.61 208.48 112.823 206.983 113.53C205.917 114.034 204.757 114.218 203.631 114.119ZM204.449 103.22C203.419 103.13 202.359 103.298 201.384 103.759C200.038 104.395 199.064 105.487 198.641 106.833C198.234 108.127 198.391 109.506 199.084 110.715C200.555 113.283 203.989 114.315 206.739 113.015C208.09 112.377 209.067 111.286 209.488 109.944C209.894 108.653 209.734 107.273 209.038 106.059C208.089 104.401 206.322 103.384 204.449 103.22Z" fill="#111111"/>
</g>
<defs>
<linearGradient id="paint0_linear_880_18806" x1="574.192" y1="318.296" x2="625.954" y2="278.074" gradientUnits="userSpaceOnUse">
<stop offset="0.189" stop-color="#FF6F1E"/>
<stop offset="0.593" stop-color="#FFD3A8"/>
<stop offset="1" stop-color="#FF6F1E"/>
</linearGradient>
<linearGradient id="paint1_linear_880_18806" x1="257.719" y1="131.145" x2="421.375" y2="569.588" gradientUnits="userSpaceOnUse">
<stop stop-color="#111111"/>
<stop offset="0.31" stop-color="#FF6F1E"/>
<stop offset="0.761" stop-color="#FF6F1E"/>
<stop offset="1" stop-color="#111111"/>
</linearGradient>
<clipPath id="clip0_880_18806">
<rect width="124.416" height="132.864" fill="white" transform="translate(488.704 222.208)"/>
</clipPath>
<clipPath id="clip1_880_18806">
<rect width="361.472" height="490.24" fill="white" transform="translate(177.152 94.4639)"/>
</clipPath>
<clipPath id="clip2_880_18806">
<rect width="228.352" height="342.784" fill="white" transform="translate(245.504 182.016)"/>
</clipPath>
<clipPath id="clip3_880_18806">
<rect width="216.576" height="234.24" fill="white" transform="matrix(-0.999054 -0.0434906 -0.0434906 0.999054 253.311 324.82)"/>
</clipPath>
<clipPath id="clip4_880_18806">
<rect width="136.448" height="123.136" fill="white" transform="translate(116.471 55.2178) rotate(4.99817)"/>
</clipPath>
</defs>
</svg>
