<svg width="47" height="62" viewBox="0 0 47 62" fill="none" xmlns="http://www.w3.org/2000/svg">
<g clip-path="url(#clip0_1311_8805)">
<path d="M9.85929 59.6941L12.8786 61.8902C14.1801 61.1949 38.9082 47.9847 45.0852 28.8304C48.0175 19.738 45.1025 10.6809 38.4667 5.8543L35.4474 3.6582C42.0832 8.48485 44.9982 17.542 42.0659 26.6343C35.8889 45.7887 11.1608 58.9989 9.85929 59.6941Z" fill="url(#paint0_linear_1311_8805)"/>
<path d="M12.8786 61.9983C12.8965 61.9983 12.9143 61.9941 12.9306 61.9854C15.5988 60.56 39.1727 47.52 45.1895 28.8631C46.6163 24.439 46.7128 19.8911 45.469 15.7114C44.2516 11.6209 41.8526 8.18182 38.5314 5.76605L35.5121 3.56985C35.4633 3.53431 35.395 3.54496 35.3592 3.59333C35.3235 3.64181 35.3341 3.70974 35.3828 3.74528C42.1412 8.66117 44.7851 17.846 41.9619 26.6006C35.9712 45.177 12.4678 58.1767 9.8075 59.5978C9.77446 59.6155 9.75281 59.6488 9.75018 59.686C9.74756 59.7233 9.7644 59.7592 9.7947 59.7813L12.814 61.9775C12.8331 61.9913 12.8558 61.9983 12.8786 61.9983ZM37.6646 5.40507L38.402 5.9416C45.1604 10.8573 47.8043 20.0421 44.9812 28.7967C39.0337 47.2387 15.8248 60.1852 12.8875 61.7614L10.0636 59.7073C13.3685 57.9229 36.2547 45.0102 42.1701 26.6669C43.5969 22.2427 43.6935 17.695 42.4496 13.5152C41.5136 10.3704 39.8794 7.61073 37.6646 5.40496V5.40507Z" fill="#111111"/>
<path d="M28.8989 0.654416C17.8559 -2.00375 5.84822 5.31846 2.07837 17.0082C-4.09871 36.1626 9.16142 58.5169 9.85937 59.6935C11.1609 58.9982 35.8889 45.788 42.066 26.6336C45.8358 14.9439 39.9406 3.31225 28.8989 0.654416Z" fill="white"/>
<path d="M9.85933 59.8028C9.87683 59.8028 9.89455 59.7986 9.91107 59.7899C12.5793 58.3645 36.1532 45.3252 42.1701 26.6675C43.1465 23.6398 43.501 20.5731 43.2239 17.5526C42.9559 14.6333 42.1149 11.9046 40.7241 9.44244C38.1723 4.92503 33.9819 1.76686 28.9245 0.549467C17.8453 -2.11706 5.75521 5.25122 1.97409 16.9757C-4.04427 35.6378 8.33371 57.3365 9.76493 59.7494C9.78528 59.7836 9.8217 59.8028 9.85922 59.8028H9.85933ZM24.2923 0.220879C25.8222 0.220879 27.3571 0.395879 28.873 0.760772C33.8705 1.96371 38.0115 5.08481 40.5333 9.54896C43.3359 14.5105 43.8565 20.7258 41.9617 26.6012C36.0354 44.978 12.9704 57.8974 9.90013 59.5487C8.24675 56.739 -3.73812 35.4008 2.18245 17.042C5.41154 7.02927 14.7509 0.220879 24.2923 0.220879Z" fill="#111111"/>
<path d="M6.30427 23.5451C6.28655 21.7635 6.55967 19.917 7.15579 18.0686C9.97744 9.31889 18.9649 3.83844 27.2295 5.8278C35.494 7.81715 39.9065 16.5232 37.0848 25.2728C36.4956 27.0998 35.634 28.7866 34.5699 30.2903C32.1037 33.7751 29.8095 35.6535 25.9737 36.9241C20.3274 38.7946 13.4441 37.6689 9.69262 33.0051C7.55699 30.4576 6.34037 27.1339 6.30427 23.5451Z" fill="#FFE7BA"/>
<path d="M20.6048 37.8912C22.4318 37.8912 24.2759 37.6007 26.0084 37.0267C29.7482 35.7878 32.0928 33.9789 34.6594 30.3523C35.7591 28.7984 36.6102 27.1004 37.189 25.3054C38.6234 20.8576 38.2281 16.1504 36.1045 12.391C34.1908 9.00312 31.0481 6.63453 27.2553 5.72159C18.9491 3.72234 9.88613 9.24584 7.05179 18.0348C6.46497 19.8544 6.17676 21.7085 6.19502 23.5457C6.2309 27.107 7.44326 30.4909 9.60863 33.0742C11.4042 35.3065 13.995 36.8446 17.0992 37.5206C18.2363 37.7682 19.4172 37.8912 20.6048 37.8912ZM23.7819 5.52952C24.925 5.52952 26.0712 5.66018 27.2039 5.93279C30.937 6.83138 34.0302 9.16269 35.9138 12.4974C38.0078 16.2043 38.3968 20.8485 36.9808 25.2389C36.4088 27.013 35.5676 28.6912 34.4805 30.2272C31.9442 33.811 29.6291 35.598 25.9392 36.8204C19.8784 38.8282 13.2327 37.2313 9.77828 32.9367C7.64353 30.3902 6.44911 27.0548 6.41389 23.5435C6.39573 21.7296 6.68056 19.8986 7.26016 18.1011C9.67339 10.6181 16.6526 5.52941 23.782 5.52941L23.7819 5.52952Z" fill="#111111"/>
<path d="M33.544 16.9624C35.6328 17.4653 36.7485 19.6664 36.0353 21.8779C35.3222 24.0893 33.0503 25.4735 30.9614 24.9707C28.8725 24.4679 27.7579 22.2684 28.471 20.057C29.1842 17.8456 31.4552 16.4596 33.544 16.9624Z" fill="#FFC069"/>
<path d="M31.8315 25.1817C33.6921 25.1818 35.5114 23.8582 36.1393 21.9107C36.5088 20.7652 36.4064 19.5518 35.8585 18.5818C35.3635 17.7054 34.5506 17.0927 33.5697 16.8566C31.4299 16.3413 29.0961 17.7622 28.3668 20.0237C27.9975 21.1692 28.0996 22.3823 28.6472 23.3517C29.1419 24.2276 29.9547 24.84 30.9355 25.0761C31.2319 25.1475 31.5325 25.1817 31.8315 25.1817ZM33.5182 17.0678C34.4393 17.2896 35.2028 17.865 35.6678 18.6882C36.186 19.6057 36.2821 20.7562 35.9311 21.8444C35.2363 23.9989 33.0188 25.3537 30.987 24.8649C30.0658 24.6431 29.3027 24.0679 28.8379 23.2453C28.3199 22.3282 28.2241 21.1782 28.5751 20.09C29.2701 17.935 31.4876 16.5795 33.5182 17.0678Z" fill="#111111"/>
<path d="M15.1607 12.5376C17.2495 13.0405 18.3652 15.2415 17.652 17.453C16.9389 19.6644 14.667 21.0486 12.5782 20.5459C10.4894 20.0431 9.37456 17.8436 10.0877 15.6322C10.8009 13.4208 13.0719 12.0348 15.1607 12.5376Z" fill="#FFC069"/>
<path d="M13.4486 20.7569C15.3091 20.7571 17.1283 19.4335 17.7563 17.486C18.1257 16.3403 18.0233 15.1269 17.4755 14.1569C16.9804 13.2806 16.1675 12.6679 15.1867 12.4318C13.0468 11.9164 10.7131 13.3376 9.98387 15.5989C9.6145 16.7444 9.71666 17.9575 10.2642 18.9269C10.7589 19.8028 11.5717 20.4152 12.5526 20.6514C12.8491 20.7228 13.1495 20.7571 13.4486 20.7571V20.7569ZM15.1352 12.643C16.0564 12.8647 16.8197 13.4402 17.2847 14.2633C17.803 15.1809 17.8991 16.3314 17.5481 17.4196C16.8532 19.5741 14.6352 20.929 12.604 20.4401C11.6829 20.2182 10.9196 19.6431 10.455 18.8205C9.93695 17.9035 9.84113 16.7534 10.1921 15.6652C10.8871 13.51 13.1045 12.1543 15.1352 12.643Z" fill="#111111"/>
<path d="M23.3559 17.8394C25.4447 18.3422 26.5608 20.542 25.8476 22.7535C25.1345 24.9649 22.8621 26.3505 20.7732 25.8477C18.6844 25.3449 17.5702 23.144 18.2833 20.9327C18.9965 18.7213 21.2671 17.3367 23.3558 17.8394" fill="white"/>
<path d="M21.6434 26.0587C23.504 26.0587 25.3237 24.7345 25.9519 22.7864C26.3212 21.6413 26.2189 20.4284 25.6713 19.4589C25.1762 18.5825 24.3631 17.9697 23.3817 17.7335C21.2424 17.2183 18.9084 18.6385 18.1794 20.8992C17.8098 22.0452 17.912 23.2589 18.4599 24.2289C18.9546 25.1048 19.7671 25.717 20.7476 25.953C21.044 26.0244 21.3442 26.0587 21.6433 26.0587H21.6434ZM22.4839 17.8451C22.7666 17.8451 23.0502 17.8773 23.3303 17.9447C24.252 18.1666 25.0155 18.742 25.4806 19.5653C25.9986 20.4823 26.0946 21.6322 25.7438 22.72C25.0488 24.8752 22.8307 26.2305 20.7992 25.7417C19.8784 25.5201 19.1154 24.945 18.6508 24.1225C18.1325 23.205 18.0366 22.0542 18.3877 20.9655C18.9867 19.1082 20.7171 17.8451 22.4839 17.8451Z" fill="#111111"/>
<path d="M30.1777 27.4008C32.0251 27.8455 33.529 28.8876 34.5701 30.2902C31.1955 35.6957 25.9739 36.9241 25.9739 36.9241C26.2166 33.7663 24.8391 30.8682 22.3755 29.2883C24.5958 27.5337 27.4566 26.7458 30.1777 27.4008Z" fill="#FFC069"/>
<path d="M25.9737 37.0323C25.9821 37.0323 25.9905 37.0313 25.9988 37.0294C26.0514 37.017 31.3033 35.7284 34.6627 30.347C34.6864 30.3092 34.6844 30.261 34.6578 30.2252C33.559 28.745 32.0186 27.7316 30.2031 27.2946C27.533 26.6518 24.655 27.3474 22.3072 29.2028C22.2796 29.2247 22.2643 29.2582 22.2661 29.2932C22.2678 29.3282 22.2864 29.3602 22.316 29.3792C24.7425 30.9353 26.1023 33.823 25.8646 36.9153C25.862 36.9499 25.876 36.9837 25.9026 37.0062C25.9226 37.0232 25.9479 37.0323 25.9737 37.0323ZM34.4375 30.2952C31.437 35.0515 26.9527 36.5322 26.0932 36.7787C26.2779 33.7192 24.9367 30.8714 22.5624 29.2803C24.8348 27.5366 27.5927 26.8899 30.1517 27.506C31.8924 27.925 33.3726 28.8888 34.4375 30.2953V30.2952Z" fill="#111111"/>
<path d="M11.7945 22.976C14.5165 23.6312 16.4937 25.5836 17.3438 28.0773C14.2902 28.3292 11.3761 30.1944 9.6928 33.0054C9.6928 33.0054 6.20667 29.2278 6.30555 23.487C8.03757 22.7518 9.9471 22.5313 11.7945 22.976Z" fill="#FFC069"/>
<path d="M9.69279 33.1134C9.69651 33.1134 9.70023 33.1132 9.70405 33.1128C9.7384 33.1093 9.76914 33.0899 9.78686 33.0603C11.4388 30.3018 14.3379 28.4337 17.3528 28.185C17.3864 28.1823 17.4168 28.1642 17.4352 28.1363C17.4537 28.1084 17.4582 28.0735 17.4473 28.0417C16.5464 25.3988 14.4954 23.5137 11.8202 22.8697C10.0083 22.4334 8.08656 22.6121 6.26256 23.3864C6.22285 23.4032 6.19682 23.4416 6.19616 23.4844C6.09772 29.2024 9.57696 33.04 9.61218 33.078C9.63296 33.1007 9.66227 33.1133 9.69279 33.1133V33.1134ZM17.1944 27.981C14.208 28.276 11.351 30.1153 9.67726 32.8202C9.12128 32.1598 6.35312 28.6128 6.41394 23.5588C8.17472 22.8265 10.0248 22.661 11.7688 23.0809C14.3253 23.6964 16.2958 25.4787 17.1944 27.981Z" fill="#111111"/>
<path d="M19.99 28.277C23.8608 29.1933 26.2983 32.841 25.9738 36.9245C20.4305 38.729 13.4442 37.6692 9.69275 33.0054C11.8628 29.4113 15.9853 27.3359 19.99 28.277Z" fill="white"/>
<path d="M20.6671 37.864C22.4792 37.864 24.3019 37.5829 26.008 37.0275C26.0499 37.0139 26.0795 36.9765 26.083 36.9327C26.243 34.9203 25.7326 32.9382 24.6458 31.3516C23.547 29.7472 21.9026 28.6176 20.0156 28.1709H20.0154C18.056 27.7106 16.013 27.9426 14.1066 28.842C12.2781 29.7048 10.6773 31.1633 9.59908 32.9492C9.57556 32.9881 9.57884 33.0375 9.60739 33.073C11.3949 35.2952 13.999 36.8247 17.1384 37.4966C18.2857 37.7421 19.4741 37.8639 20.667 37.8639L20.6671 37.864ZM25.8703 36.8433C20.9167 38.4296 13.8218 37.8977 9.82604 32.9962C12.0706 29.3357 16.1356 27.4827 19.9649 28.3824C23.6839 29.2629 26.1581 32.8142 25.8702 36.8432L25.8703 36.8433Z" fill="#111111"/>
</g>
<defs>
<linearGradient id="paint0_linear_1311_8805" x1="17.7667" y1="61.2017" x2="43.5545" y2="9.54224" gradientUnits="userSpaceOnUse">
<stop stop-color="#FFC16A"/>
<stop offset="1" stop-color="#FFE5B5"/>
</linearGradient>
<clipPath id="clip0_1311_8805">
<rect width="46" height="62" fill="white" transform="matrix(-1 0 0 1 46.3335 0)"/>
</clipPath>
</defs>
</svg>
