<svg width="51" height="55" viewBox="0 0 51 55" fill="none" xmlns="http://www.w3.org/2000/svg">
<g clip-path="url(#clip0_880_17173)">
<path d="M11.9621 39.5483L3.39061 27.0547L0.0761719 28.1522L8.64769 40.6458C19.2689 56.1269 34.2874 56.0712 40.9101 53.8783L44.2245 52.7808C37.6019 54.9737 22.5833 55.0293 11.9621 39.5483Z" fill="url(#paint0_linear_880_17173)"/>
<path d="M33.7496 55.0006C31.575 55.0006 29.0335 54.7371 26.2579 53.9636C23.0386 53.0664 19.989 51.6034 17.1942 49.6154C13.9733 47.3243 11.0767 44.321 8.58505 40.6893L0.0134527 28.1957C-0.000159366 28.1759 -0.00365745 28.1508 0.00394708 28.128C0.0116277 28.1052 0.0294983 28.0873 0.0522358 28.0798L3.36674 26.9823C3.39891 26.9719 3.43405 26.9836 3.45321 27.0115L12.0247 39.5051C16.7033 46.3244 22.621 50.7702 29.6131 52.7188C36.947 54.7629 42.6328 53.2276 44.2006 52.7084C44.2408 52.6948 44.2836 52.7168 44.2967 52.7569C44.3099 52.797 44.2882 52.8402 44.2483 52.8535C44.2462 52.8542 44.244 52.8549 44.2418 52.8556L40.9338 53.951C39.9495 54.2769 37.3533 55.0006 33.7496 55.0006ZM0.196342 28.193L8.71029 40.6026C13.3888 47.4219 19.3064 51.8677 26.2987 53.8163C33.6325 55.8604 39.3183 54.3251 40.8861 53.8058L42.0381 53.4244C39.3756 53.9557 34.9061 54.3524 29.5724 52.866C26.353 51.9688 23.3035 50.5059 20.5086 48.5178C17.2877 46.2267 14.3912 43.2234 11.8995 39.5918L3.36028 27.1453L0.196342 28.193Z" fill="#111111"/>
<path d="M3.39061 27.0545L0.0761719 28.152L9.8997 5.53794L13.2141 4.44043L3.39061 27.0545Z" fill="#FFD3A8"/>
<path d="M0.0760497 28.2286C0.0550612 28.2286 0.0344529 28.2198 0.0198522 28.2037C-0.000375845 28.1814 -0.00562297 28.1493 0.00631614 28.1217L9.82985 5.50751C9.83852 5.48757 9.85525 5.47237 9.87578 5.46549L13.1902 4.36806C13.219 4.35874 13.2501 4.36684 13.2703 4.38907C13.2905 4.41137 13.2958 4.44346 13.2838 4.47111L3.46029 27.0853C3.45162 27.1053 3.43489 27.1205 3.41436 27.1273L0.0998518 28.2249C0.0919431 28.2274 0.0839584 28.2287 0.0760497 28.2287V28.2286ZM9.9557 5.59993L0.213692 28.0262L3.33444 26.9929L13.0764 4.56667L9.9557 5.59993Z" fill="#111111"/>
<path d="M13.2142 4.44008L35.5588 0.0761719L44.1303 12.5697C55.7846 29.5566 49.7189 47.1386 45.9069 52.0919C40.5652 54.8153 23.6165 56.5346 11.9621 39.5477L3.39062 27.0542L13.2142 4.44008Z" fill="white"/>
<path d="M37.1143 53.8989C35.2729 53.8989 33.3019 53.7149 31.2859 53.2862C27.7761 52.5397 24.4466 51.1384 21.3896 49.1212C17.8105 46.7593 14.6174 43.5531 11.8994 39.5913L3.32788 27.0977C3.31297 27.076 3.31031 27.0481 3.32073 27.0238L13.1444 4.40969C13.1544 4.38662 13.175 4.36997 13.1996 4.36523L35.5442 0.00133033C35.574 -0.00424581 35.6042 0.00797587 35.6213 0.0329539L44.1929 12.5266C46.9106 16.4878 48.8424 20.7506 49.9344 25.1968C50.867 28.9931 51.1899 32.9136 50.8943 36.8494C50.3833 43.6524 48.0514 49.4304 45.9671 52.1388C45.9602 52.1477 45.9514 52.1551 45.9413 52.1602C43.9896 53.1553 40.8146 53.8989 37.1143 53.8989H37.1143ZM3.47716 27.046L12.0246 39.5046C18.351 48.7257 26.008 52.0074 31.3174 53.1367C37.3376 54.4173 42.9534 53.5054 45.8571 52.0318C47.9248 49.3356 50.2347 43.5978 50.7425 36.8379C51.1902 30.8777 50.3955 21.8367 44.0675 12.6133L35.5243 0.160823L13.2678 4.50754L3.47716 27.046Z" fill="#111111"/>
<path d="M15.2094 7.34697L6.58398 27.2022L14.1097 38.1714C24.3419 53.0855 39.2227 51.5757 43.9133 49.1848C47.2594 44.8357 52.5853 29.399 42.3531 14.4849L34.8274 3.51562L15.2094 7.34697Z" fill="#FFD3A8"/>
<path d="M36.1925 50.7805C34.5753 50.7805 32.8441 50.6189 31.0737 50.2424C27.991 49.5867 25.0666 48.356 22.3817 46.5843C19.2382 44.5101 16.434 41.6941 14.0469 38.2149L6.52124 27.2457C6.50633 27.224 6.50367 27.196 6.51409 27.1717L15.1397 7.31661C15.1497 7.29362 15.1703 7.27697 15.195 7.27223L34.813 3.44089C34.8428 3.43501 34.873 3.44753 34.8901 3.47251L42.4158 14.4418C44.8025 17.9205 46.4989 21.6643 47.4581 25.569C48.277 28.903 48.5606 32.3462 48.301 35.8027C47.8523 41.7772 45.8043 46.8523 43.9736 49.2318C43.9667 49.2407 43.958 49.248 43.9478 49.2532C42.2328 50.1273 39.4435 50.7806 36.1927 50.7806L36.1925 50.7805ZM6.67059 27.1939L14.1722 38.1282C24.1006 52.5992 38.7049 51.741 43.8636 49.1246C47.5354 44.334 52.2231 29.0059 42.2904 14.5284L34.7929 3.60038L15.263 7.41461L6.67052 27.194L6.67059 27.1939Z" fill="#111111"/>
<path d="M24.5413 20.9491C22.5084 22.654 22.2329 26.0365 23.9256 28.5036C25.179 30.3305 27.1594 31.1421 28.9281 30.75L31.8618 35.0261C32.5411 36.0162 33.7649 36.2675 34.5812 35.5829C35.3975 34.8983 35.5085 33.5277 34.8292 32.5375L31.8954 28.2614C32.7138 26.484 32.54 24.1571 31.2866 22.3303C29.5939 19.8631 26.5736 19.2447 24.5413 20.9492" fill="#FF6F1E"/>
<path d="M33.5219 36.0451C33.4403 36.0451 33.358 36.0395 33.2752 36.0281C32.7004 35.9491 32.162 35.5997 31.7983 35.0695L28.8934 30.8354C27.0522 31.2195 25.0823 30.3256 23.862 28.547C22.1503 26.0519 22.4327 22.6172 24.4916 20.8905C25.4095 20.1208 26.5718 19.7873 27.7645 19.9507C29.1543 20.1415 30.4606 20.9931 31.3482 22.2869C32.5684 24.0654 32.8151 26.4025 31.9816 28.2537L34.8908 32.4942C35.5939 33.5188 35.4764 34.9307 34.629 35.6415C34.314 35.9057 33.9279 36.045 33.5219 36.0451V36.0451ZM28.9271 30.6736C28.9518 30.6736 28.9753 30.6857 28.9897 30.7067L31.9235 34.9829C32.2631 35.4778 32.7632 35.8036 33.2958 35.8768C33.7473 35.9389 34.1864 35.8137 34.5315 35.5243C35.3202 34.8628 35.4253 33.5425 34.7656 32.581L31.8318 28.3049C31.8165 28.2826 31.8142 28.254 31.8254 28.2295C32.6585 26.42 32.422 24.1215 31.223 22.3737C30.3596 21.1152 29.0915 20.2874 27.7439 20.1023C26.5945 19.9445 25.4737 20.266 24.589 21.0079C22.5888 22.6854 22.3188 26.0286 23.9872 28.4604C25.1833 30.2039 27.1162 31.0731 28.9107 30.6755C28.9162 30.6743 28.9217 30.6736 28.9271 30.6736Z" fill="#111111"/>
</g>
<defs>
<linearGradient id="paint0_linear_880_17173" x1="16.0504" y1="24.3265" x2="29.7841" y2="60.3421" gradientUnits="userSpaceOnUse">
<stop offset="0.576" stop-color="#FF6F1E"/>
<stop offset="1" stop-color="#111111"/>
</linearGradient>
<clipPath id="clip0_880_17173">
<rect width="51" height="55" fill="white"/>
</clipPath>
</defs>
</svg>
