<svg width="49" height="58" viewBox="0 0 49 58" fill="none" xmlns="http://www.w3.org/2000/svg">
<g clip-path="url(#clip0_1311_8831)">
<path d="M34.0087 1.19953C45.0431 4.77235 49.6135 16.1657 44.2191 26.6455C35.3801 43.8171 8.19518 53.6118 6.76436 54.1272C6.19737 52.9648 -4.57602 30.8795 4.26296 13.7079C9.6575 3.22815 22.9758 -2.37279 34.0087 1.19953Z" fill="white"/>
<path d="M6.76458 54.2488C6.71787 54.2488 6.67341 54.2229 6.65211 54.1794C5.48872 51.7942 -4.46581 30.3941 4.15195 13.6525C9.56493 3.13666 22.9762 -2.50164 34.0479 1.08326C39.3048 2.78539 43.2927 6.3111 45.2768 11.0108C47.3485 15.9179 47.0124 21.4898 44.3304 26.7001C35.7178 43.4317 9.74105 53.1844 6.80743 54.2414C6.79336 54.2465 6.77878 54.2489 6.76446 54.2489L6.76458 54.2488ZM27.0567 0.246963C17.9207 0.246963 8.64007 5.47541 4.37441 13.7623C-4.08005 30.1867 5.46792 51.1549 6.82811 53.9736C10.2221 52.7405 35.6342 43.0522 44.108 26.59C46.7568 21.444 47.0902 15.9444 45.0466 11.1039C43.0907 6.47086 39.1569 2.99447 33.9697 1.31491C31.7329 0.590539 29.3995 0.246963 27.0567 0.246963Z" fill="#111111"/>
<path d="M31.6227 5.83786C23.3647 3.16395 13.3967 7.3552 9.35897 15.1991C7.11168 19.5649 7.19152 24.1671 9.11334 27.829C12.3851 34.371 21.5124 36.5404 28.2951 34.0398C32.8837 32.4861 37.0235 29.236 39.2644 24.8824C43.3021 17.0384 39.8806 8.51176 31.6227 5.83786Z" fill="#FFE7BA"/>
<path d="M22.4605 35.1614C17.0522 35.1617 11.4577 32.7934 9.00166 27.8823C6.97732 24.025 7.06663 19.3811 9.24791 15.1438C13.3057 7.26033 23.3605 3.03356 31.6619 5.7215C35.6052 6.99828 38.5966 9.64326 40.0852 13.169C41.6393 16.8499 41.3873 21.0292 39.3758 24.9369C37.2049 29.1544 33.181 32.5143 28.3359 34.1548C26.5244 34.8226 24.5054 35.1613 22.4605 35.1614ZM26.4182 5.15518C19.5918 5.15518 12.6575 9.06169 9.47025 15.2536C7.32534 19.4206 7.23565 23.9836 9.22412 27.7727C11.6355 32.5944 17.1333 34.9187 22.4527 34.9189C24.4707 34.9189 26.4625 34.5846 28.2512 33.9252C33.0387 32.304 37.0112 28.9883 39.1531 24.8271C41.1315 20.9837 41.3806 16.8766 39.8548 13.2623C38.3943 9.80327 35.4569 7.20748 31.5835 5.9534C29.9122 5.41222 28.1686 5.15531 26.418 5.15531L26.4182 5.15518Z" fill="#111111"/>
<path d="M28.2698 12.3511C25.8547 11.5691 22.9395 12.7949 21.7587 15.0887C20.5779 17.3827 21.5786 19.8763 23.9937 20.6583C26.4088 21.4403 29.3225 20.2142 30.5033 17.9202C31.6841 15.6263 30.6848 13.1331 28.2698 12.3511Z" fill="#FFC069"/>
<path d="M25.5114 21.0144C24.9838 21.0144 24.4584 20.9371 23.9547 20.7739C22.7767 20.3925 21.8827 19.6016 21.4374 18.5468C20.973 17.4468 21.0477 16.199 21.6476 15.0334C22.8532 12.6913 25.8416 11.436 28.309 12.2348C29.4865 12.6161 30.3801 13.4066 30.8251 14.4608C31.2896 15.5608 31.2147 16.8088 30.6146 17.9747C29.6551 19.8386 27.5673 21.0144 25.5114 21.0144ZM26.7459 12.2372C24.7822 12.2372 22.7873 13.3616 21.87 15.1434C21.3032 16.2445 21.2313 17.4201 21.6676 18.4536C22.0848 19.4417 22.9247 20.1834 24.0329 20.5421C26.3868 21.3043 29.2398 20.1033 30.3921 17.8649C30.9593 16.7633 31.0313 15.5875 30.5949 14.5541C30.178 13.5667 29.3384 12.8253 28.2308 12.4667C27.7505 12.3112 27.2491 12.2372 26.7459 12.2372Z" fill="#111111"/>
<path d="M22.6968 23.1773C17.8587 21.6108 12.1175 23.6717 9.11328 27.8284C12.385 34.3704 21.5123 36.5399 28.295 34.0394C29.8159 29.4023 27.5349 24.7438 22.6968 23.1773Z" fill="#FFC069"/>
<path d="M22.4605 35.1613C17.0514 35.1613 11.4575 32.7932 9.00173 27.8825C8.98167 27.8423 8.98554 27.7947 9.01194 27.7582C10.49 25.7131 12.6791 24.1092 15.176 23.2419C17.7011 22.3648 20.3861 22.3009 22.7363 23.0617C25.0918 23.8244 26.9583 25.3661 27.9923 27.4028C29.0149 29.4173 29.1648 31.7876 28.4138 34.077C28.4022 34.1125 28.3747 34.1407 28.3391 34.1538C26.5262 34.8221 24.5061 35.1611 22.4605 35.1611V35.1613ZM9.2582 27.8402C12.6011 34.4169 21.716 36.3048 28.1948 33.9462C29.6905 29.293 27.3695 24.8192 22.6579 23.2937C17.9311 21.7632 12.3084 23.6749 9.25807 27.8402H9.2582Z" fill="#111111"/>
<path d="M44.4283 9.54102L46.4838 13.2918C49.1887 18.2275 49.3313 24.4586 46.2749 30.3965C37.4358 47.5681 10.2508 57.3626 8.82013 57.8782L6.76465 54.1274C8.19546 53.6119 35.3804 43.8174 44.2194 26.6457C47.2758 20.7079 47.1332 14.4767 44.4283 9.54102Z" fill="url(#paint0_linear_1311_8831)"/>
<path d="M8.81995 58.0003C8.77523 58.0003 8.73238 57.9766 8.71021 57.936L6.65473 54.1852C6.63767 54.1541 6.63518 54.1172 6.64801 54.0841C6.66084 54.0511 6.68762 54.0251 6.7215 54.013C9.64578 52.9594 35.5385 43.239 44.108 26.5908C47.0391 20.8966 47.1157 14.7034 44.3184 9.5988C44.2858 9.53936 44.3085 9.46539 44.3692 9.43354C44.4297 9.40156 44.5053 9.4239 44.5378 9.48334C44.5399 9.48712 44.5421 9.49115 44.5442 9.49493L46.5933 13.2341C49.4296 18.4097 49.3542 24.6852 46.3859 30.4514C37.7733 47.1831 11.7965 56.9358 8.86292 57.9927C8.84884 57.9979 8.83427 58.0003 8.81995 58.0003ZM6.94184 54.1934L8.87837 57.727C12.2522 56.5017 37.6853 46.8118 46.1633 30.3416C49.0945 24.6474 49.1711 18.454 46.3737 13.3496L45.7035 12.1266C47.2704 16.715 46.8089 21.8854 44.3302 26.7007C35.8365 43.2015 10.4542 52.9146 6.94159 54.1933L6.94184 54.1934Z" fill="#111111"/>
</g>
<defs>
<linearGradient id="paint0_linear_1311_8831" x1="8.63242" y1="45.614" x2="46.2063" y2="22.0407" gradientUnits="userSpaceOnUse">
<stop stop-color="#FFC069"/>
<stop offset="1" stop-color="#FFE7BA"/>
</linearGradient>
<clipPath id="clip0_1311_8831">
<rect width="48" height="58" fill="white" transform="translate(0.666992)"/>
</clipPath>
</defs>
</svg>
