<svg width="145" height="45" viewBox="0 0 145 45" fill="none" xmlns="http://www.w3.org/2000/svg">
<path d="M16.0977 31.4336C12.0547 31.4336 9.5 29.5 9.30078 26.5L9.28906 26.3125H12.6992L12.7109 26.4297C12.8398 27.6953 14.2109 28.5508 16.1914 28.5508C18.0781 28.5508 19.3789 27.6484 19.3789 26.3477V26.3359C19.3789 25.2227 18.5469 24.6016 16.4492 24.168L14.668 23.8047C11.1523 23.0898 9.64062 21.4492 9.64062 18.8828V18.8711C9.64062 15.7305 12.3359 13.6562 16.0859 13.6562C20.0352 13.6562 22.3555 15.7422 22.5781 18.5664L22.5898 18.7188H19.2617L19.2383 18.5781C19.0391 17.3711 17.8672 16.5273 16.0859 16.5273C14.3398 16.5391 13.1797 17.3359 13.1797 18.6016V18.6133C13.1797 19.7148 14 20.3711 15.9922 20.7812L17.7852 21.1445C21.3594 21.8828 22.918 23.3125 22.918 25.9492V25.9609C22.918 29.3125 20.3164 31.4336 16.0977 31.4336ZM31.6016 31.2695C27.6758 31.2695 25.2969 28.7031 25.2969 24.5664V24.5547C25.2969 20.4531 27.6992 17.8164 31.4609 17.8164C35.2227 17.8164 37.5664 20.3945 37.5664 24.2969V25.3633H28.6836C28.7188 27.4844 29.8555 28.7148 31.6719 28.7148C33.1719 28.7148 34.0039 27.918 34.2383 27.4258L34.2734 27.3555H37.4609L37.4375 27.4727C37.0391 29.0898 35.375 31.2695 31.6016 31.2695ZM31.5195 20.3828C30.0312 20.3828 28.9297 21.3906 28.7188 23.2188H34.2852C34.0742 21.3438 33.0078 20.3828 31.5195 20.3828ZM46.0508 31.2695C42.0195 31.2695 39.7344 28.8203 39.7344 24.5312V24.5078C39.7344 20.2656 42.0078 17.8164 46.0508 17.8164C49.4727 17.8164 51.5 19.6797 51.8047 22.5625V22.5977H48.6172L48.6055 22.5742C48.3828 21.3203 47.5273 20.5 46.0625 20.5C44.2227 20.5 43.2148 21.9297 43.2148 24.5078V24.5312C43.2148 27.1445 44.2344 28.5859 46.0625 28.5859C47.4688 28.5859 48.3008 27.918 48.6055 26.6289L48.6289 26.582H51.793L51.7812 26.6523C51.4297 29.4648 49.4141 31.2695 46.0508 31.2695ZM59.9492 31.0469C56.8086 31.0469 55.543 30.0273 55.543 27.5195V20.6758H53.5508V18.0977H55.543V15.0156H59V18.0977H61.6602V20.6758H59V26.7344C59 27.8945 59.4922 28.4102 60.6523 28.4102C61.0977 28.4102 61.332 28.3867 61.6602 28.3516V30.8945C61.2383 30.9766 60.6055 31.0469 59.9492 31.0469ZM70.1445 31.2695C66.1719 31.2695 63.7812 28.75 63.7812 24.5547V24.5312C63.7812 20.3711 66.207 17.8164 70.1445 17.8164C74.082 17.8164 76.5078 20.3594 76.5078 24.5312V24.5547C76.5078 28.7617 74.1172 31.2695 70.1445 31.2695ZM70.1445 28.5859C71.9609 28.5859 73.0039 27.0977 73.0039 24.5547V24.5312C73.0039 22.0117 71.9492 20.5 70.1445 20.5C68.3281 20.5 67.2852 22.0117 67.2852 24.5312V24.5547C67.2852 27.0977 68.3164 28.5859 70.1445 28.5859ZM79.2969 31V18.0977H82.7188V20.1016H82.9297C83.3398 18.707 84.5117 17.8867 86.1875 17.8867C86.6445 17.8867 87.125 17.957 87.4648 18.0508V21.0391C86.9492 20.9219 86.4219 20.8398 85.8945 20.8398C83.9492 20.8398 82.7188 21.9531 82.7188 23.7812V31H79.2969Z" fill="black"/>
<path d="M97.4844 31.4336C92.457 31.4336 89.3398 28.0117 89.3398 22.5508V22.5273C89.3398 17.0547 92.5039 13.6562 97.4844 13.6562C102.465 13.6562 105.617 17.0664 105.617 22.5273V22.5508C105.617 28.0117 102.477 31.4336 97.4844 31.4336ZM97.4844 28.4336C100.238 28.4336 102.008 26.125 102.008 22.5508V22.5273C102.008 18.9414 100.227 16.6562 97.4844 16.6562C94.7305 16.6562 92.9492 18.9414 92.9492 22.5273V22.5508C92.9492 26.125 94.6953 28.4336 97.4844 28.4336ZM108.641 31V18.0977H112.062V20.0898H112.273C112.859 18.6953 114.137 17.8164 115.977 17.8164C118.848 17.8164 120.395 19.5742 120.395 22.6562V31H116.973V23.4297C116.973 21.6133 116.223 20.6523 114.605 20.6523C113.023 20.6523 112.062 21.7891 112.062 23.5352V31H108.641ZM129.383 31.2695C125.457 31.2695 123.078 28.7031 123.078 24.5664V24.5547C123.078 20.4531 125.48 17.8164 129.242 17.8164C133.004 17.8164 135.348 20.3945 135.348 24.2969V25.3633H126.465C126.5 27.4844 127.637 28.7148 129.453 28.7148C130.953 28.7148 131.785 27.918 132.02 27.4258L132.055 27.3555H135.242L135.219 27.4727C134.82 29.0898 133.156 31.2695 129.383 31.2695ZM129.301 20.3828C127.812 20.3828 126.711 21.3906 126.5 23.2188H132.066C131.855 21.3438 130.789 20.3828 129.301 20.3828Z" fill="#FF6F1E"/>
</svg>
