<svg width="640" height="640" viewBox="0 0 640 640" fill="none" xmlns="http://www.w3.org/2000/svg">
<g clip-path="url(#clip0_880_18514)">
<path d="M134.006 388.871L91.102 289.844L66.4067 292.931L109.31 391.957C162.473 514.663 267.651 534.999 316.995 528.832L341.69 525.745C292.346 531.913 187.169 511.577 134.006 388.871Z" fill="url(#paint0_linear_880_18514)"/>
<path d="M265.351 526.784C250.133 523.783 232.708 518.437 214.341 509.208C193.039 498.504 173.698 484.085 156.857 466.353C137.449 445.918 121.285 420.959 108.813 392.174L65.9086 293.147C65.875 293.069 65.8598 292.985 65.8644 292.901C65.8689 292.817 65.893 292.734 65.9347 292.661C65.9764 292.588 66.0347 292.525 66.1048 292.478C66.1749 292.431 66.2549 292.402 66.3386 292.391L91.0344 289.305C91.2737 289.277 91.5036 289.407 91.5995 289.628L134.503 388.655C157.921 442.706 193.255 481.901 239.523 505.15C288.052 529.537 329.941 526.666 341.623 525.206C341.763 525.193 341.902 525.236 342.012 525.324C342.122 525.413 342.193 525.54 342.21 525.68C342.228 525.82 342.19 525.961 342.106 526.074C342.022 526.187 341.897 526.262 341.758 526.285L341.71 526.29L317.062 529.371C309.729 530.288 290.57 531.756 265.351 526.784ZM67.1922 293.381L109.808 391.742C133.226 445.792 168.56 484.988 214.828 508.237C263.357 532.623 305.245 529.753 316.927 528.292L325.51 527.22C306.151 527.254 274.331 523.855 239.037 506.121C217.734 495.417 198.394 480.998 181.553 463.266C162.145 442.83 145.98 417.872 133.508 389.087L90.7662 290.434L67.1922 293.381Z" fill="#111111"/>
<path d="M91.1017 289.844L66.4064 292.931L166.07 148.651L190.765 145.564L91.1017 289.844Z" fill="#FFD3A8"/>
<path d="M66.3012 293.464C66.2128 293.447 66.1301 293.408 66.0606 293.35C65.9911 293.293 65.9369 293.219 65.903 293.136C65.8691 293.052 65.8565 292.961 65.8663 292.871C65.8762 292.782 65.9082 292.696 65.9594 292.622L165.623 148.342C165.711 148.214 165.849 148.131 166.002 148.112L190.697 145.026C190.801 145.013 190.906 145.03 191.001 145.076C191.095 145.121 191.174 145.193 191.229 145.283C191.34 145.466 191.333 145.698 191.211 145.874L91.5476 290.155C91.4597 290.282 91.3218 290.365 91.1687 290.385L66.4729 293.471C66.4141 293.478 66.3564 293.476 66.3011 293.465L66.3012 293.464ZM166.377 149.16L67.5412 292.241L90.7932 289.336L189.629 146.255L166.377 149.16Z" fill="#111111"/>
<path d="M190.764 145.565L353.101 145.94L396.005 244.966C454.339 379.608 387.852 493.951 354.404 523.263C313.299 534.9 192.339 523.513 134.005 388.871L91.1008 289.845L190.764 145.565Z" fill="white"/>
<path d="M290.403 523.742C276.696 521.035 263.308 516.906 250.453 511.422C226.912 501.369 205.527 486.994 186.892 468.697C165.073 447.274 147.112 420.489 133.507 389.088L90.6034 290.061C90.5668 289.976 90.5522 289.884 90.5612 289.792C90.5701 289.7 90.6022 289.611 90.6544 289.535L190.319 145.256C190.369 145.183 190.436 145.124 190.514 145.083C190.592 145.042 190.678 145.021 190.766 145.022L353.103 145.397C353.319 145.399 353.513 145.526 353.599 145.724L396.503 244.751C410.106 276.148 417.797 308.566 419.36 341.105C420.696 368.889 417.596 396.697 410.146 423.759C397.269 470.536 373.051 507.645 354.762 523.673C354.701 523.726 354.63 523.764 354.552 523.786C339.534 528.038 316.298 528.848 290.403 523.742L290.403 523.742ZM91.7187 289.906L134.502 388.656C166.168 461.744 215.266 495.214 250.878 510.422C291.257 527.668 331.804 529.052 354.139 522.774C372.295 506.809 396.305 469.95 409.1 423.47C420.381 382.488 427.181 318.29 395.507 245.183L352.745 146.482L191.048 146.109L91.7187 289.906Z" fill="#111111"/>
<path d="M200.75 168.607L113.242 295.284L150.912 382.229C202.128 500.441 308.329 510.437 344.423 500.222C373.786 474.485 432.162 374.093 380.946 255.881L343.276 168.936L200.75 168.607Z" fill="#FFD3A8"/>
<path d="M288.212 500.704C276.174 498.328 264.416 494.702 253.126 489.885C232.449 481.056 213.666 468.43 197.299 452.36C178.136 433.545 162.362 410.022 150.414 382.445L112.745 295.5C112.708 295.415 112.694 295.323 112.703 295.231C112.712 295.139 112.744 295.05 112.796 294.974L200.304 168.298C200.354 168.225 200.421 168.166 200.499 168.126C200.577 168.085 200.664 168.064 200.752 168.064L343.279 168.394C343.385 168.394 343.488 168.425 343.576 168.483C343.664 168.541 343.734 168.624 343.776 168.721L381.444 255.666C393.391 283.239 400.144 311.709 401.518 340.286C402.691 364.686 399.968 389.108 393.426 412.875C382.118 453.955 360.847 486.551 344.782 500.632C344.722 500.685 344.65 500.724 344.573 500.746C331.376 504.481 310.963 505.191 288.213 500.705L288.212 500.704ZM113.861 295.345L151.409 382.013C201.105 496.713 304.481 510.875 344.159 499.732C376.404 471.363 430.165 370.849 380.448 256.097L342.921 169.479L201.034 169.152L113.86 295.346L113.861 295.345Z" fill="#111111"/>
<path d="M247.46 276.419C230.902 285.514 224.35 308.741 232.823 328.296C239.096 342.776 251.846 351.174 264.759 350.878L279.444 384.771C282.844 392.619 291.065 396.061 297.713 392.41C304.362 388.758 307.013 379.345 303.612 371.497L288.928 337.603C297.084 326.327 299.05 309.847 292.776 295.367C284.303 275.812 264.013 267.328 247.46 276.42" fill="#FF6F1E"/>
<path d="M289.675 394.176C289.104 394.063 288.536 393.91 287.972 393.716C284.058 392.372 280.768 389.19 278.947 384.987L264.407 351.427C250.997 351.567 238.434 342.611 232.326 328.513C223.758 308.736 230.43 285.153 247.199 275.943C254.675 271.838 263.265 271.114 271.388 273.9C280.854 277.149 288.83 284.895 293.274 295.15C299.381 309.247 297.912 325.899 289.548 337.669L304.11 371.281C307.629 379.402 304.877 389.094 297.975 392.886C295.448 394.284 292.508 394.741 289.676 394.175L289.675 394.176ZM264.864 350.345C265.037 350.379 265.185 350.496 265.257 350.662L279.941 384.556C281.642 388.478 284.696 391.443 288.323 392.689C291.398 393.745 294.642 393.477 297.453 391.934C303.877 388.405 306.417 379.334 303.115 371.714L288.43 337.82C288.393 337.733 288.378 337.638 288.389 337.545C288.399 337.451 288.433 337.361 288.489 337.285C296.792 325.806 298.28 309.437 292.278 295.584C287.957 285.608 280.214 278.08 271.037 274.929C263.209 272.242 254.926 272.94 247.721 276.897C231.429 285.845 224.969 308.806 233.32 328.081C239.307 341.901 251.645 350.634 264.747 350.335C264.786 350.334 264.826 350.337 264.864 350.345Z" fill="#111111"/>
</g>
<g clip-path="url(#clip1_880_18514)">
<path d="M563.877 397.534C563.601 400.423 562.34 402.867 560.455 404.605L550.824 413.485C552.709 411.747 553.971 409.304 554.246 406.415C554.535 403.393 553.691 400.4 552.06 397.894C550.064 394.827 546.891 392.488 543.172 391.719C541.72 391.418 540.303 391.381 538.966 391.574C536.745 391.895 534.747 392.853 533.181 394.297L542.811 385.416C544.378 383.972 546.376 383.014 548.597 382.693C549.933 382.5 551.35 382.538 552.803 382.838C556.522 383.607 559.695 385.945 561.69 389.013C563.321 391.519 564.165 394.513 563.877 397.534Z" fill="#FF6F1E"/>
<path d="M543.862 383.94C543.367 384.267 542.899 384.634 542.462 385.036L532.832 393.917C532.735 394.01 532.678 394.138 532.674 394.272C532.67 394.407 532.719 394.539 532.81 394.638C532.902 394.738 533.028 394.797 533.163 394.805C533.297 394.812 533.429 394.766 533.529 394.677L533.531 394.675C535.042 393.283 536.948 392.386 539.041 392.084C540.352 391.895 541.707 391.942 543.07 392.224C546.513 392.936 549.633 395.104 551.629 398.173C553.252 400.668 554 403.577 553.734 406.363C553.478 409.043 552.351 411.375 550.475 413.104C550.378 413.197 550.321 413.325 550.317 413.46C550.313 413.595 550.362 413.726 550.454 413.826C550.545 413.925 550.672 413.985 550.806 413.992C550.94 413.999 551.072 413.953 551.173 413.864L560.803 404.984C562.839 403.107 564.112 400.479 564.388 397.585C564.677 394.567 563.871 391.423 562.121 388.732C559.974 385.433 556.615 383.1 552.905 382.333C551.424 382.027 549.95 381.976 548.521 382.183C546.827 382.428 545.244 383.028 543.862 383.94ZM536.964 391.51L543.16 385.796C544.672 384.403 546.577 383.506 548.672 383.204C549.983 383.014 551.338 383.061 552.701 383.343C556.144 384.055 559.263 386.224 561.26 389.293C562.883 391.788 563.631 394.696 563.365 397.483C563.109 400.163 561.982 402.494 560.106 404.224L553.892 409.954C554.353 408.842 554.645 407.666 554.757 406.466C555.046 403.448 554.24 400.303 552.49 397.613C550.343 394.314 546.984 391.981 543.274 391.214C541.793 390.908 540.319 390.857 538.89 391.063C538.236 391.158 537.592 391.307 536.964 391.51Z" fill="#111111"/>
<path d="M493.484 353.143L483.854 362.024C480.174 365.417 477.113 369.509 474.855 374.169L484.486 365.288C486.744 360.629 489.804 356.536 493.484 353.143Z" fill="#FF6F1E"/>
<path d="M493.201 352.712C493.178 352.727 493.156 352.744 493.135 352.763L483.505 361.644C479.724 365.131 476.657 369.269 474.393 373.942C474.34 374.05 474.327 374.173 474.356 374.29C474.384 374.407 474.453 374.51 474.549 374.582C474.645 374.654 474.763 374.69 474.883 374.684C475.002 374.678 475.116 374.63 475.204 374.549L484.835 365.669C484.882 365.625 484.92 365.573 484.948 365.516C487.157 360.958 490.146 356.924 493.833 353.524C493.929 353.437 493.988 353.316 493.998 353.187C494.009 353.057 493.971 352.929 493.891 352.826C493.811 352.723 493.696 352.655 493.568 352.634C493.44 352.612 493.309 352.64 493.201 352.712ZM476.726 371.742C478.735 368.269 481.255 365.121 484.203 362.404L487.128 359.707C485.98 361.385 484.957 363.145 484.066 364.975L476.726 371.742Z" fill="#111111"/>
<path d="M474.067 394.796L464.436 403.677L471.897 405.22L481.528 396.339L474.067 394.796Z" fill="white"/>
<path d="M473.783 394.365C473.76 394.38 473.738 394.397 473.718 394.415L464.087 403.296C464.018 403.36 463.967 403.442 463.942 403.534C463.916 403.625 463.916 403.721 463.941 403.813C463.967 403.904 464.017 403.987 464.086 404.052C464.156 404.117 464.241 404.161 464.334 404.181L471.796 405.724C471.875 405.741 471.958 405.738 472.036 405.716C472.115 405.695 472.187 405.654 472.247 405.599L481.877 396.719C481.947 396.654 481.997 396.572 482.023 396.481C482.049 396.39 482.049 396.293 482.023 396.202C481.998 396.11 481.947 396.028 481.878 395.963C481.809 395.898 481.723 395.853 481.63 395.834L474.169 394.291C474.103 394.277 474.035 394.276 473.968 394.289C473.902 394.302 473.839 394.327 473.783 394.365ZM465.523 403.375L474.222 395.353L480.44 396.639L471.741 404.661L465.523 403.375Z" fill="#111111"/>
<path d="M466.78 387.286L457.15 396.166L464.436 403.677L474.067 394.796L466.78 387.286Z" fill="#FF6F1E"/>
<path d="M466.496 386.854C466.473 386.87 466.451 386.887 466.431 386.905L456.8 395.786C456.75 395.833 456.709 395.889 456.681 395.951C456.652 396.014 456.637 396.082 456.635 396.15C456.633 396.219 456.645 396.288 456.67 396.352C456.695 396.416 456.733 396.475 456.781 396.524L464.067 404.035C464.161 404.131 464.288 404.187 464.422 404.191C464.556 404.195 464.686 404.146 464.784 404.056L474.415 395.175C474.465 395.129 474.506 395.073 474.535 395.01C474.563 394.948 474.579 394.88 474.58 394.811C474.582 394.742 474.57 394.674 474.545 394.609C474.52 394.545 474.482 394.487 474.434 394.437L467.148 386.927C467.064 386.841 466.953 386.786 466.834 386.773C466.716 386.76 466.596 386.789 466.496 386.854ZM457.886 396.188L466.761 388.004L473.329 394.774L464.454 402.958L457.886 396.188Z" fill="#111111"/>
<path d="M551.62 435.711C545.6 441.262 537.925 444.942 529.394 446.174C524.271 446.914 518.838 446.771 513.272 445.62C498.987 442.665 486.796 433.681 479.128 421.896C475.798 416.777 473.321 411.13 471.897 405.219L481.527 396.338C482.951 402.249 485.429 407.896 488.759 413.016C496.427 424.8 508.618 433.784 522.902 436.739C528.469 437.891 533.901 438.034 539.025 437.294C547.556 436.061 555.231 432.381 561.251 426.83L551.62 435.711Z" fill="white"/>
<path d="M481.244 395.908C481.221 395.923 481.199 395.94 481.179 395.958L471.549 404.839C471.481 404.901 471.432 404.98 471.405 405.068C471.379 405.155 471.376 405.249 471.398 405.338C472.824 411.257 475.281 416.922 478.699 422.177C486.735 434.526 499.299 443.255 513.171 446.124C518.676 447.263 524.16 447.451 529.471 446.684C538.012 445.45 545.793 441.787 551.97 436.09L561.601 427.209C561.698 427.116 561.755 426.989 561.759 426.854C561.763 426.719 561.714 426.588 561.622 426.488C561.531 426.389 561.404 426.329 561.27 426.322C561.136 426.315 561.004 426.36 560.903 426.45C554.878 432.005 547.287 435.579 538.951 436.783C533.757 437.533 528.393 437.349 523.006 436.234C509.402 433.42 497.077 424.855 489.191 412.735C485.837 407.579 483.427 402.023 482.028 396.219C482.009 396.138 481.97 396.063 481.916 396.001C481.862 395.938 481.793 395.89 481.716 395.859C481.639 395.828 481.556 395.817 481.474 395.825C481.392 395.834 481.313 395.862 481.244 395.908ZM472.469 405.394L481.241 397.306C482.692 402.918 485.075 408.293 488.33 413.296C496.366 425.646 508.93 434.375 522.801 437.244C528.306 438.382 533.79 438.571 539.102 437.803C544.504 437.023 549.603 435.27 554.183 432.647L551.272 435.33C545.247 440.886 537.656 444.46 529.32 445.664C524.126 446.414 518.762 446.23 513.374 445.115C499.77 442.301 487.446 433.736 479.559 421.616C476.262 416.548 473.878 411.091 472.469 405.394Z" fill="#111111"/>
<path d="M460.26 391.94L450.629 400.82L457.149 396.166L466.78 387.285L460.26 391.94Z" fill="#FF6F1E"/>
<path d="M466.497 386.854L466.481 386.865L459.961 391.52C459.944 391.532 459.927 391.546 459.911 391.56L450.281 400.441C450.081 400.624 450.06 400.933 450.231 401.144C450.403 401.356 450.708 401.401 450.929 401.241L457.449 396.586C457.467 396.574 457.483 396.56 457.499 396.546L467.13 387.665C467.224 387.578 467.283 387.457 467.293 387.329C467.303 387.2 467.265 387.071 467.185 386.969C467.105 386.867 466.99 386.798 466.863 386.777C466.735 386.756 466.605 386.783 466.497 386.854Z" fill="#111111"/>
<path d="M441.712 388.103L432.081 396.984L450.629 400.82L460.26 391.94L441.712 388.103Z" fill="white"/>
<path d="M441.428 387.673C441.405 387.688 441.383 387.705 441.363 387.724L431.732 396.604C431.663 396.669 431.613 396.751 431.587 396.842C431.561 396.933 431.561 397.03 431.586 397.121C431.612 397.213 431.662 397.295 431.732 397.36C431.801 397.425 431.887 397.47 431.979 397.489L450.528 401.325C450.608 401.342 450.69 401.339 450.769 401.317C450.847 401.296 450.919 401.256 450.979 401.2L460.609 392.32C460.679 392.256 460.729 392.174 460.755 392.082C460.781 391.991 460.781 391.895 460.755 391.803C460.73 391.712 460.68 391.629 460.61 391.564C460.541 391.499 460.455 391.455 460.363 391.435L441.814 387.599C441.68 387.571 441.542 387.598 441.428 387.673ZM433.168 396.683L441.867 388.662L459.172 392.241L450.473 400.262L433.168 396.683Z" fill="#111111"/>
<path d="M430.085 379.065L420.455 387.946L432.081 396.984L441.712 388.103L430.085 379.065Z" fill="#FF6F1E"/>
<path d="M429.802 378.634C429.779 378.649 429.757 378.666 429.737 378.685L420.106 387.565C420.052 387.616 420.009 387.678 419.98 387.747C419.952 387.817 419.939 387.891 419.942 387.966C419.946 388.041 419.965 388.114 419.999 388.181C420.034 388.247 420.082 388.306 420.141 388.352L431.768 397.39C431.864 397.465 431.983 397.503 432.105 397.498C432.226 397.494 432.342 397.446 432.431 397.363L442.061 388.483C442.116 388.432 442.159 388.37 442.187 388.301C442.216 388.232 442.229 388.157 442.226 388.082C442.222 388.007 442.203 387.934 442.168 387.867C442.134 387.801 442.086 387.742 442.027 387.696L430.4 378.658C430.224 378.521 429.982 378.515 429.802 378.634ZM421.251 387.913L430.116 379.739L440.916 388.135L432.052 396.31L421.251 387.913Z" fill="#111111"/>
<path d="M418.486 383.3L408.855 392.18L420.455 387.946L430.086 379.065L418.486 383.3Z" fill="#FF6F1E"/>
<path d="M418.202 382.869C418.179 382.884 418.157 382.901 418.137 382.92L408.506 391.801C408.419 391.881 408.362 391.99 408.346 392.108C408.33 392.226 408.355 392.346 408.417 392.448C408.479 392.55 408.574 392.627 408.686 392.667C408.799 392.706 408.921 392.706 409.033 392.665L420.633 388.431C420.695 388.408 420.754 388.372 420.804 388.326L430.434 379.446C430.522 379.365 430.578 379.257 430.594 379.139C430.611 379.021 430.586 378.901 430.524 378.799C430.462 378.697 430.366 378.62 430.254 378.58C430.142 378.54 430.019 378.541 429.908 378.582L418.308 382.816C418.27 382.829 418.235 382.847 418.202 382.869ZM411.101 390.812L418.76 383.75L427.84 380.435L420.181 387.498L411.101 390.812Z" fill="#111111"/>
<path d="M392.302 370.608L382.671 379.489L390.142 388.31L399.773 379.429L392.302 370.608Z" fill="#FF6F1E"/>
<path d="M392.017 370.177C391.994 370.192 391.972 370.209 391.952 370.228L382.322 379.109C382.224 379.199 382.165 379.323 382.157 379.456C382.149 379.589 382.193 379.72 382.279 379.821L389.751 388.643C389.796 388.696 389.851 388.739 389.913 388.77C389.975 388.801 390.043 388.82 390.112 388.824C390.181 388.829 390.25 388.819 390.315 388.796C390.381 388.773 390.441 388.737 390.491 388.69L400.122 379.809C400.22 379.719 400.278 379.595 400.286 379.462C400.294 379.329 400.251 379.198 400.164 379.097L392.693 370.275C392.611 370.179 392.497 370.116 392.373 370.098C392.248 370.08 392.122 370.108 392.017 370.177ZM383.382 379.534L392.257 371.35L399.061 379.383L390.186 387.567L383.382 379.534Z" fill="#111111"/>
<path d="M399.773 379.428L390.142 388.309L408.855 392.18L418.486 383.299L399.773 379.428Z" fill="white"/>
<path d="M399.489 378.998C399.466 379.013 399.444 379.03 399.424 379.049L389.794 387.93C389.724 387.994 389.674 388.076 389.648 388.167C389.622 388.258 389.622 388.355 389.648 388.446C389.673 388.538 389.723 388.62 389.793 388.685C389.862 388.75 389.948 388.795 390.041 388.814L408.754 392.684C408.833 392.701 408.916 392.699 408.994 392.677C409.073 392.655 409.145 392.615 409.205 392.56L418.835 383.679C418.905 383.615 418.955 383.533 418.981 383.442C419.007 383.35 419.007 383.254 418.981 383.162C418.956 383.071 418.906 382.988 418.836 382.923C418.767 382.858 418.681 382.814 418.588 382.795L399.875 378.924C399.742 378.897 399.603 378.923 399.489 378.998ZM391.23 388.009L399.929 379.987L417.399 383.601L408.7 391.623L391.23 388.009Z" fill="#111111"/>
<path d="M383.773 376.12L374.142 385L382.671 379.489L392.301 370.608L383.773 376.12Z" fill="#FF6F1E"/>
<path d="M383.489 375.689C383.466 375.704 383.445 375.721 383.424 375.74L373.794 384.621C373.697 384.707 373.638 384.827 373.626 384.957C373.615 385.086 373.653 385.216 373.732 385.319C373.812 385.422 373.927 385.491 374.056 385.512C374.184 385.533 374.315 385.506 374.423 385.434L382.951 379.922C382.975 379.907 382.998 379.888 383.02 379.869L392.65 370.988C392.747 370.901 392.807 370.781 392.818 370.652C392.829 370.522 392.792 370.393 392.712 370.29C392.632 370.187 392.517 370.118 392.389 370.097C392.261 370.075 392.13 370.103 392.022 370.175L383.493 375.686L383.489 375.689ZM378.915 381.302L384.09 376.529L387.53 374.306L382.355 379.079L378.915 381.302Z" fill="#111111"/>
<path d="M375.545 374.418L365.914 383.299L374.143 385L383.773 376.12L375.545 374.418Z" fill="white"/>
<path d="M375.26 373.987C375.237 374.002 375.216 374.019 375.196 374.037L365.565 382.918C365.495 382.982 365.445 383.064 365.419 383.156C365.394 383.247 365.393 383.343 365.419 383.435C365.445 383.526 365.495 383.609 365.564 383.674C365.633 383.739 365.719 383.783 365.812 383.803L374.04 385.504C374.12 385.521 374.202 385.518 374.281 385.497C374.359 385.475 374.431 385.435 374.491 385.38L384.122 376.499C384.191 376.435 384.242 376.353 384.267 376.262C384.293 376.17 384.293 376.074 384.268 375.982C384.242 375.891 384.192 375.808 384.123 375.743C384.053 375.678 383.967 375.634 383.875 375.615L375.647 373.913C375.513 373.885 375.374 373.912 375.26 373.987ZM367.001 382.998L375.7 374.976L382.685 376.421L373.986 384.443L367.001 382.998Z" fill="#111111"/>
<path d="M347.94 363.742L365.905 383.296L375.535 374.415L357.57 354.861L347.94 363.742Z" fill="white"/>
<path d="M357.294 354.433C357.271 354.448 357.249 354.465 357.229 354.484L347.598 363.364C347.548 363.41 347.508 363.465 347.48 363.527C347.451 363.588 347.435 363.654 347.433 363.722C347.43 363.79 347.441 363.857 347.464 363.921C347.488 363.984 347.524 364.043 347.57 364.093L365.536 383.647C365.629 383.747 365.757 383.807 365.893 383.813C366.03 383.819 366.163 383.771 366.263 383.678L375.893 374.798C375.943 374.752 375.983 374.697 376.012 374.636C376.04 374.574 376.056 374.508 376.059 374.44C376.061 374.373 376.05 374.305 376.027 374.241C376.003 374.178 375.968 374.119 375.922 374.07L357.955 354.515C357.872 354.425 357.76 354.367 357.639 354.352C357.518 354.337 357.396 354.366 357.294 354.433ZM348.674 363.776L357.55 355.592L374.818 374.386L365.942 382.57L348.674 363.776Z" fill="#111111"/>
<path d="M371.331 341.884L361.7 350.764L347.947 363.744L357.578 354.864L371.331 341.884Z" fill="white"/>
<path d="M371.047 341.453C371.024 341.468 371.002 341.485 370.982 341.504L361.351 350.384L347.594 363.369C347.494 363.462 347.436 363.591 347.431 363.728C347.427 363.864 347.476 363.997 347.569 364.097C347.663 364.198 347.792 364.257 347.928 364.262C348.064 364.267 348.197 364.218 348.296 364.125L357.927 355.244L371.684 342.26C371.778 342.172 371.836 342.051 371.845 341.922C371.855 341.793 371.816 341.665 371.735 341.564C371.655 341.462 371.54 341.394 371.412 341.374C371.285 341.353 371.154 341.381 371.047 341.453Z" fill="#111111"/>
<path d="M574.386 399.708C571.924 425.526 548.881 442.113 522.903 436.74C502.414 432.502 486.231 415.857 481.528 396.339L474.066 394.796L466.78 387.285L460.26 391.939L441.712 388.103L430.085 379.065L418.486 383.299L399.773 379.428L392.302 370.607L383.773 376.119L375.545 374.417L357.578 354.863L371.331 341.883L484.486 365.287C492.656 348.428 511.329 338.997 531.823 343.236C557.8 348.61 576.85 373.89 574.386 399.708ZM552.803 382.838C546.033 381.438 540.036 385.751 539.395 392.471C538.753 399.203 543.71 405.781 550.48 407.182C557.238 408.58 563.234 404.267 563.877 397.534C564.518 390.815 559.56 384.236 552.803 382.838Z" fill="#FFD3A8"/>
<path d="M371.047 341.453C371.022 341.469 370.999 341.488 370.978 341.508L357.225 354.488C357.127 354.581 357.069 354.709 357.065 354.845C357.06 354.98 357.109 355.112 357.201 355.212L375.167 374.767C375.241 374.847 375.337 374.901 375.443 374.923L383.671 376.625C383.803 376.652 383.94 376.626 384.053 376.554L392.203 371.286L399.382 379.762C399.456 379.85 399.558 379.911 399.671 379.934L418.384 383.804C418.478 383.824 418.574 383.817 418.664 383.784L429.997 379.648L441.398 388.511C441.461 388.56 441.533 388.593 441.611 388.609L460.158 392.445C460.228 392.46 460.299 392.46 460.368 392.445C460.437 392.431 460.502 392.402 460.56 392.361L466.721 387.963L473.699 395.155C473.771 395.229 473.864 395.28 473.965 395.302L481.107 396.778C486.081 416.868 502.798 433.108 522.802 437.245C535.711 439.916 548.278 437.353 558.185 430.034C567.777 422.946 573.713 412.195 574.899 399.76C577.382 373.73 558.104 348.148 531.925 342.733C511.904 338.592 492.78 347.415 484.2 364.704L371.433 341.379C371.299 341.351 371.161 341.378 371.047 341.453ZM358.301 354.891L371.49 342.442L484.384 365.793C484.495 365.816 484.612 365.802 484.714 365.751C484.816 365.701 484.899 365.618 484.948 365.516C488.175 358.857 492.999 353.463 498.846 349.601C508.013 343.547 519.699 341.255 531.721 343.742C557.399 349.053 576.309 374.137 573.875 399.657C572.717 411.798 566.927 422.29 557.572 429.203C547.899 436.348 535.625 438.845 523.005 436.235C503.279 432.155 486.812 416.074 482.028 396.22C482.005 396.124 481.955 396.037 481.885 395.969C481.814 395.901 481.726 395.854 481.63 395.834L474.323 394.323L467.148 386.926C467.062 386.838 466.948 386.783 466.825 386.772C466.703 386.761 466.581 386.794 466.481 386.865L460.143 391.39L441.931 387.623L430.4 378.659C430.331 378.605 430.25 378.57 430.164 378.556C430.078 378.543 429.99 378.551 429.908 378.581L418.445 382.765L400.049 378.96L392.693 370.275C392.612 370.179 392.499 370.116 392.376 370.098C392.252 370.079 392.126 370.107 392.022 370.174L383.669 375.572L375.81 373.947L358.301 354.891ZM543.87 383.935C543.705 384.044 543.543 384.157 543.382 384.276C540.8 386.184 539.202 389.076 538.884 392.42C538.219 399.389 543.375 406.238 550.379 407.687C553.843 408.403 557.218 407.715 559.884 405.745C562.469 403.835 564.069 400.937 564.389 397.585C565.053 390.623 559.902 383.781 552.905 382.334C549.64 381.659 546.456 382.227 543.87 383.935ZM558.829 405.224C556.474 406.779 553.568 407.295 550.582 406.677C544.08 405.332 539.291 398.982 539.907 392.522C540.198 389.473 541.65 386.839 543.995 385.107C546.424 383.31 549.517 382.684 552.701 383.343C559.197 384.686 563.981 391.029 563.365 397.483C563.073 400.54 561.62 403.179 559.271 404.914C559.126 405.021 558.979 405.125 558.829 405.224Z" fill="#111111"/>
</g>
<g clip-path="url(#clip2_880_18514)">
<path d="M350.481 212.546L362.578 218.805L333.651 235.683L321.554 229.424L350.481 212.546Z" fill="#FF6F1E"/>
<path d="M333.732 236.075C333.643 236.094 333.55 236.082 333.467 236.039L321.37 229.78C321.306 229.747 321.252 229.698 321.214 229.637C321.175 229.576 321.154 229.506 321.152 229.434C321.151 229.362 321.168 229.291 321.203 229.228C321.239 229.166 321.29 229.114 321.352 229.077L350.279 212.199C350.397 212.13 350.544 212.126 350.666 212.189L362.763 218.448C362.827 218.481 362.881 218.531 362.919 218.591C362.957 218.652 362.978 218.722 362.98 218.794C362.982 218.866 362.964 218.937 362.929 219C362.894 219.063 362.843 219.115 362.78 219.151L333.854 236.028C333.816 236.051 333.775 236.067 333.732 236.075ZM322.387 229.403L333.64 235.225L361.746 218.827L350.493 213.005L322.387 229.403Z" fill="#111111"/>
<path d="M440.422 81.6955L452.519 87.9539C473.238 98.6735 486.064 119.483 484.467 144.734C481.954 184.478 444.658 220.176 401.166 224.468C386.901 225.875 373.739 223.727 362.578 218.804L350.481 212.546C361.642 217.468 374.804 219.617 389.069 218.209C432.562 213.918 469.857 178.22 472.37 138.476C473.967 113.224 461.142 92.4151 440.422 81.6955Z" fill="#FF6F1E"/>
<path d="M410.619 223.435C407.519 224.073 404.381 224.554 401.205 224.867C387.372 226.231 373.959 224.262 362.416 219.171L350.296 212.902C350.204 212.854 350.134 212.772 350.101 212.673C350.068 212.575 350.075 212.467 350.12 212.373C350.165 212.279 350.245 212.207 350.343 212.171C350.44 212.134 350.548 212.138 350.644 212.179C362.061 217.214 375.334 219.161 389.03 217.81C392.166 217.5 395.283 217.026 398.37 216.39C437.502 208.339 469.654 175.069 471.97 138.451C473.503 114.209 461.64 93.1247 440.237 82.0521C440.19 82.0282 440.147 81.9952 440.113 81.9549C440.078 81.9146 440.052 81.8679 440.036 81.8174C440.019 81.7669 440.013 81.7136 440.018 81.6608C440.022 81.6079 440.037 81.5564 440.061 81.5093C440.086 81.4621 440.119 81.4204 440.16 81.3863C440.201 81.3522 440.248 81.3266 440.299 81.3109C440.35 81.2952 440.403 81.2896 440.456 81.2947C440.509 81.2997 440.56 81.3152 440.607 81.3402L452.704 87.5985C474.398 98.8223 486.422 120.191 484.868 144.76C482.53 181.726 450.09 215.312 410.618 223.436L410.619 223.435ZM356.892 215.411L362.763 218.449C374.157 223.473 387.431 225.419 401.127 224.069C404.263 223.759 407.38 223.285 410.467 222.649C449.599 214.597 481.751 181.327 484.067 144.71C485.6 120.467 473.737 99.3835 452.334 88.3105L449.257 86.7185C465.443 98.7005 474.104 117.423 472.771 138.502C470.433 175.467 437.993 209.053 398.521 217.177C395.421 217.815 392.284 218.295 389.108 218.608C377.828 219.721 366.827 218.617 356.892 215.412L356.892 215.411Z" fill="#111111"/>
<path d="M398.171 74.2784C441.663 69.9873 474.883 98.7288 472.37 138.476C469.857 178.219 432.561 213.918 389.069 218.209C374.804 219.617 361.641 217.468 350.481 212.546L321.554 229.424L333.157 201.218C320.702 189.644 313.666 173.099 314.873 154.015C317.387 114.268 354.682 78.5688 398.171 74.2784Z" fill="white"/>
<path d="M398.521 217.176C395.421 217.814 392.284 218.294 389.108 218.608C375.35 219.965 362.007 218.024 350.506 212.995L321.757 229.77C321.685 229.812 321.601 229.83 321.517 229.822C321.434 229.815 321.355 229.781 321.291 229.726C321.228 229.671 321.184 229.597 321.164 229.516C321.145 229.434 321.152 229.349 321.184 229.271L332.682 201.321C319.772 189.215 313.308 172.418 314.473 153.989C316.994 114.119 354.526 78.183 398.132 73.8788C420.337 71.688 441.122 78.1933 455.158 91.7259C467.661 103.78 473.916 120.392 472.771 138.501C470.433 175.466 437.993 209.054 398.521 217.176L398.521 217.176ZM350.4 212.153C350.481 212.136 350.566 212.145 350.643 212.179C362.06 217.214 375.334 219.161 389.029 217.81C432.265 213.546 469.472 177.944 471.969 138.451C473.1 120.58 466.931 104.192 454.6 92.3033C440.733 78.934 420.18 72.5095 398.211 74.6773C354.975 78.9427 317.771 114.545 315.274 154.04C314.118 172.32 320.567 188.97 333.431 200.924C333.491 200.979 333.533 201.052 333.55 201.132C333.568 201.211 333.56 201.294 333.529 201.37L322.377 228.479L350.278 212.199C350.316 212.177 350.357 212.161 350.4 212.152L350.4 212.153Z" fill="#111111"/>
<path d="M429.086 109.995C430.869 109.819 432.61 110.362 433.93 111.678C436.711 114.451 436.562 119.609 433.599 123.192L389.309 176.816C387.761 178.691 385.737 179.774 383.757 179.969C382.132 180.129 380.534 179.688 379.258 178.6L355.119 158.016C352.153 155.485 351.994 150.386 354.766 146.624C356.341 144.485 358.525 143.24 360.662 143.03C362.284 142.869 363.878 143.305 365.16 144.397L384.265 160.693L423.532 113.15C425.09 111.266 427.113 110.19 429.086 109.995Z" fill="#FFD3A8"/>
<path d="M384.546 180.254C384.297 180.305 384.047 180.344 383.796 180.368C382.014 180.544 380.309 180.025 378.997 178.906L354.858 158.322C351.74 155.661 351.553 150.307 354.441 146.387C356.03 144.231 358.278 142.863 360.622 142.631C362.403 142.455 364.107 142.974 365.42 144.092L384.215 160.124L423.222 112.895C424.78 111.011 426.902 109.808 429.047 109.596C431.02 109.401 432.855 110.04 434.214 111.395C437.134 114.306 436.997 119.713 433.908 123.448L389.618 177.071C388.244 178.735 386.428 179.866 384.546 180.254L384.546 180.254ZM360.017 143.534C358.152 143.918 356.385 145.103 355.089 146.862C352.444 150.451 352.575 155.319 355.38 157.712L379.519 178.295C380.664 179.271 382.155 179.724 383.718 179.57C385.655 179.38 387.578 178.283 389 176.561L433.289 122.937C436.122 119.513 436.282 114.59 433.647 111.963C432.462 110.781 430.856 110.224 429.126 110.394C427.193 110.584 425.265 111.683 423.842 113.405L384.575 160.948C384.541 160.99 384.5 161.023 384.452 161.048C384.405 161.073 384.354 161.088 384.301 161.093C384.247 161.097 384.194 161.091 384.143 161.075C384.093 161.059 384.046 161.033 384.005 160.998L364.899 144.702C363.738 143.713 362.286 143.273 360.701 143.429C360.472 143.452 360.243 143.487 360.018 143.533L360.017 143.534Z" fill="#111111"/>
</g>
<defs>
<linearGradient id="paint0_linear_880_18514" x1="183.427" y1="288.272" x2="229.522" y2="558.726" gradientUnits="userSpaceOnUse">
<stop offset="0.576" stop-color="#FF6F1E"/>
<stop offset="1" stop-color="#111111"/>
</linearGradient>
<clipPath id="clip0_880_18514">
<rect width="363.776" height="391.168" fill="white" transform="matrix(0.981109 0.193454 -0.192231 0.98135 104.362 96.3398)"/>
</clipPath>
<clipPath id="clip1_880_18514">
<rect width="181.248" height="179.2" fill="white" transform="matrix(0.834475 -0.551046 -0.550719 -0.834691 442.974 508.702)"/>
</clipPath>
<clipPath id="clip2_880_18514">
<rect width="179.712" height="149.504" fill="white" transform="translate(293.466 94.9082) rotate(-11.6272)"/>
</clipPath>
</defs>
</svg>
