<svg width="300" height="301" viewBox="0 0 300 301" fill="none" xmlns="http://www.w3.org/2000/svg">
<g clip-path="url(#clip0_880_19774)">
<path d="M88.2412 61.9193C86.1214 62.2189 84.9367 64.2795 85.5893 66.5228L136.673 242.135C137.326 244.378 139.568 245.954 141.688 245.654L223.288 234.117C225.402 233.818 226.587 231.758 225.934 229.514L174.851 53.9025C174.198 51.6592 171.955 50.0833 169.841 50.3823L88.241 61.9195L88.2412 61.9193ZM142.04 64.0631L121.486 66.9692C119.893 67.1944 118.189 65.9967 117.697 64.3071C117.206 62.6176 118.106 61.0517 119.699 60.8266L140.253 57.9204C141.846 57.6953 143.55 58.893 144.041 60.5824C144.533 62.2721 143.632 63.8379 142.04 64.0631" fill="white"/>
<path d="M141.119 245.869C141.318 245.872 141.516 245.86 141.713 245.832L223.313 234.295C224.323 234.152 225.175 233.616 225.711 232.787C226.308 231.863 226.452 230.652 226.107 229.464L175.023 53.8524C174.348 51.5307 172.013 49.8938 169.816 50.2047L88.2159 61.7418C87.2025 61.8851 86.3489 62.4214 85.812 63.2519C85.2155 64.1751 85.0714 65.3855 85.4169 66.573L136.501 242.185C137.115 244.298 139.108 245.843 141.119 245.869ZM170.409 50.5255C172.264 50.5494 174.107 51.9873 174.678 53.9525L225.762 229.564C226.079 230.652 225.95 231.756 225.41 232.592C224.931 233.333 224.168 233.812 223.262 233.94L141.663 245.477C139.634 245.764 137.473 244.242 136.845 242.085L85.7615 66.4727C85.4451 65.3853 85.5734 64.2823 86.1136 63.4466C86.593 62.7049 87.3574 62.2254 88.2663 62.0971L169.866 50.5599C170.046 50.5346 170.227 50.5232 170.409 50.5257L170.409 50.5255ZM121.057 67.1756C121.208 67.1775 121.36 67.1682 121.511 67.1468L142.065 64.2407C142.839 64.1312 143.492 63.7189 143.906 63.0794C144.365 62.3681 144.477 61.4397 144.214 60.5323C143.697 58.7565 141.909 57.5055 140.228 57.743L119.674 60.6491C118.9 60.7586 118.247 61.1709 117.833 61.8104C117.374 62.5217 117.262 63.4499 117.525 64.3573C117.996 65.9736 119.519 67.1556 121.057 67.1756L121.057 67.1756ZM140.683 58.0726C142.067 58.0904 143.442 59.1646 143.869 60.6326C144.104 61.4401 144.007 62.2609 143.604 62.8849C143.248 63.4356 142.684 63.7911 142.015 63.8856L121.46 66.7917C119.949 67.0056 118.338 65.8683 117.869 64.2572C117.635 63.4499 117.731 62.6289 118.134 62.0051C118.49 61.4544 119.055 61.099 119.724 61.0043L140.278 58.0982C140.412 58.0793 140.547 58.0707 140.683 58.0726Z" fill="#111111"/>
<path d="M140.253 57.9207C141.845 57.6955 143.55 58.8932 144.041 60.5827C144.533 62.2722 143.632 63.8382 142.04 64.0634L121.485 66.9695C119.893 67.1947 118.189 65.997 117.697 64.3075C117.206 62.6181 118.106 61.052 119.699 60.827L140.253 57.9207Z" fill="#FFD3A8"/>
<path d="M121.057 67.176C121.208 67.178 121.36 67.1687 121.511 67.1473L142.065 64.2412C142.839 64.1319 143.492 63.7194 143.906 63.0799C144.365 62.3685 144.478 61.4402 144.214 60.533C143.697 58.7571 141.909 57.5056 140.228 57.7435L119.674 60.6496C118.9 60.759 118.246 61.1714 117.833 61.8109C117.374 62.5222 117.261 63.4505 117.525 64.3577C117.995 65.9741 119.519 67.1562 121.057 67.176ZM140.683 58.0731C142.067 58.0909 143.442 59.1651 143.869 60.6331C144.104 61.4404 144.007 62.2613 143.604 62.8852C143.248 63.4359 142.684 63.7912 142.015 63.8859L121.46 66.792C119.949 67.0059 118.338 65.8688 117.869 64.2574C117.635 63.4502 117.731 62.6292 118.134 62.0054C118.49 61.4547 119.054 61.0991 119.724 61.0046L140.278 58.0985C140.412 58.0797 140.547 58.0711 140.683 58.0729L140.683 58.0731Z" fill="#111111"/>
<path d="M224.193 237.228L142.588 248.766C138.86 249.293 134.899 246.51 133.747 242.549L82.6633 66.9374C81.8749 64.2273 82.6057 61.6679 84.3417 60.1526L78.9321 64.8747C77.1962 66.3899 76.4655 68.9493 77.2538 71.6594L128.338 247.271C129.49 251.232 133.451 254.015 137.179 253.488L218.784 241.95C219.963 241.784 220.978 241.307 221.779 240.607L227.189 235.885C226.388 236.585 225.372 237.061 224.193 237.228Z" fill="url(#paint0_linear_880_19774)"/>
<path d="M136.178 253.73C136.521 253.735 136.864 253.713 137.204 253.665L218.809 242.127C219.981 241.962 221.049 241.482 221.897 240.742L227.307 236.02C227.342 235.988 227.364 235.944 227.368 235.897C227.371 235.849 227.355 235.802 227.324 235.767C227.292 235.731 227.248 235.709 227.201 235.705C227.153 235.702 227.106 235.718 227.071 235.749C226.275 236.444 225.271 236.894 224.168 237.05L142.563 248.588C138.924 249.102 135.046 246.371 133.92 242.499L82.8357 66.8867C82.0941 64.3376 82.7164 61.8087 84.4598 60.2871C84.4775 60.2716 84.4921 60.2528 84.5025 60.2317C84.513 60.2106 84.5192 60.1876 84.5208 60.1641C84.5224 60.1406 84.5193 60.117 84.5118 60.0947C84.5043 60.0724 84.4924 60.0517 84.4769 60.034C84.4615 60.0163 84.4426 60.0017 84.4215 59.9913C84.4004 59.9808 84.3774 59.9746 84.3539 59.973C84.3304 59.9714 84.3068 59.9744 84.2845 59.982C84.2622 59.9895 84.2415 60.0013 84.2238 60.0168L78.8142 64.7388C76.9647 66.3534 76.3008 69.0242 77.0817 71.7089L128.166 247.321C129.235 250.996 132.692 253.685 136.178 253.73ZM225.573 237.057L221.661 240.472C220.865 241.166 219.861 241.616 218.759 241.772L137.153 253.31C133.514 253.825 129.636 251.093 128.51 247.22L77.4261 71.6087C76.6846 69.0596 77.3069 66.5308 79.0502 65.0091L82.9524 61.6028C82.1153 63.1317 81.9295 65.0556 82.4912 66.9869L133.575 242.599C134.749 246.636 138.804 249.482 142.613 248.943L224.218 237.405C224.681 237.34 225.136 237.224 225.573 237.057Z" fill="#111111"/>
<path d="M87.3369 58.809C83.6034 59.3369 81.511 62.9759 82.663 66.9369L133.747 242.549C134.899 246.51 138.86 249.293 142.588 248.766L224.193 237.228C227.926 236.7 230.019 233.061 228.867 229.1L177.783 53.4882C176.631 49.5272 172.67 46.7441 168.937 47.2718L87.3369 58.809ZM225.935 229.515C226.588 231.758 225.403 233.819 223.288 234.118L141.688 245.655C139.569 245.954 137.326 244.378 136.674 242.135L85.5897 66.523C84.9371 64.2796 86.1218 62.2191 88.2418 61.9195L169.841 50.3823C171.956 50.0833 174.198 51.6593 174.851 53.9027L225.935 229.515Z" fill="#FFD3A8"/>
<path d="M141.587 249.008C141.93 249.012 142.272 248.991 142.613 248.943L224.218 237.405C225.963 237.158 227.432 236.234 228.357 234.803C229.39 233.206 229.638 231.109 229.039 229.05L177.955 53.4378C176.781 49.4008 172.724 46.5549 168.912 47.094L87.312 58.6312C85.5677 58.8778 84.0979 59.8017 83.1731 61.2327C82.1406 62.8304 81.892 64.9277 82.491 66.9868L133.575 242.599C134.644 246.274 138.101 248.963 141.587 249.008L141.587 249.008ZM169.94 47.3875C173.274 47.4305 176.585 50.011 177.611 53.5381L228.695 229.15C229.265 231.109 229.032 233.098 228.056 234.609C227.188 235.951 225.808 236.818 224.168 237.05L142.563 248.588C142.239 248.634 141.912 248.654 141.586 248.649C138.254 248.607 134.946 246.026 133.919 242.498L82.8356 66.8865C82.2657 64.9273 82.4985 62.9376 83.4745 61.4273C84.3418 60.085 85.7226 59.2182 87.3623 58.9863L168.962 47.4493C169.286 47.4037 169.613 47.3831 169.94 47.3875ZM141.12 245.869C141.318 245.872 141.516 245.86 141.714 245.832L223.314 234.295C224.324 234.152 225.176 233.616 225.712 232.787C226.309 231.863 226.453 230.652 226.107 229.464L175.024 53.8523C174.348 51.5305 172.012 49.8939 169.816 50.2045L88.2167 61.7417C87.2031 61.885 86.3495 62.4212 85.8128 63.2519C85.2163 64.1751 85.0722 65.3856 85.4176 66.5731L136.501 242.185C137.116 244.298 139.109 245.844 141.12 245.869ZM170.41 50.5254C172.265 50.5493 174.107 51.9873 174.679 53.9526L225.763 229.564C226.079 230.652 225.951 231.756 225.411 232.592C224.932 233.333 224.169 233.811 223.263 233.94L141.664 245.477C139.634 245.764 137.473 244.242 136.846 242.085L85.7621 66.4728C85.4457 65.3854 85.574 64.2823 86.1142 63.4465C86.5935 62.7046 87.3582 62.2253 88.267 62.0968L169.867 50.5598C170.047 50.5345 170.228 50.5229 170.41 50.5254Z" fill="#111111"/>
</g>
<g clip-path="url(#clip1_880_19774)">
<path d="M267.889 122.832L265.226 119.867C266.354 121.123 266.614 123.061 265.727 124.873L250.44 156.107C249.224 158.591 246.313 159.897 243.937 159.024L214.072 148.042C213.429 147.806 212.891 147.434 212.473 146.968L215.135 149.933C215.553 150.399 216.091 150.771 216.734 151.007L246.599 161.989C248.975 162.862 251.886 161.556 253.102 159.072L268.389 127.838C269.276 126.026 269.016 124.088 267.889 122.832V122.832Z" fill="url(#paint1_linear_880_19774)"/>
<path d="M248.144 162.379C247.605 162.379 247.069 162.29 246.558 162.102L216.693 151.12C216.046 150.882 215.492 150.509 215.046 150.013L212.384 147.048C212.373 147.036 212.364 147.023 212.359 147.008C212.353 146.993 212.351 146.977 212.352 146.961C212.352 146.945 212.356 146.929 212.363 146.915C212.37 146.901 212.379 146.888 212.391 146.877C212.403 146.866 212.417 146.858 212.432 146.853C212.447 146.848 212.463 146.846 212.479 146.847C212.495 146.848 212.51 146.852 212.524 146.859C212.539 146.866 212.551 146.876 212.562 146.888C212.981 147.355 213.503 147.705 214.113 147.93L243.978 158.911C246.294 159.763 249.145 158.481 250.333 156.054L265.619 124.821C266.454 123.116 266.265 121.203 265.137 119.947C265.117 119.924 265.106 119.893 265.108 119.861C265.11 119.83 265.124 119.801 265.148 119.78C265.171 119.759 265.202 119.748 265.233 119.749C265.264 119.751 265.294 119.764 265.315 119.787L267.978 122.752C269.17 124.081 269.374 126.098 268.497 127.891L253.21 159.125C252.231 161.125 250.165 162.379 248.144 162.379L248.144 162.379ZM213.476 147.906L215.224 149.853C215.643 150.32 216.165 150.67 216.775 150.895L246.641 161.876C248.957 162.728 251.807 161.446 252.995 159.019L268.282 127.786C269.116 126.081 268.927 124.168 267.8 122.913L266.051 120.965C266.54 122.164 266.48 123.606 265.834 124.926L250.548 156.16C249.569 158.16 247.503 159.413 245.482 159.414C244.943 159.414 244.407 159.324 243.896 159.136L214.031 148.155C213.84 148.085 213.655 148.002 213.476 147.906Z" fill="#111111"/>
<path d="M263.627 118.793C266.003 119.667 266.943 122.389 265.727 124.873L250.44 156.107C249.224 158.591 246.313 159.897 243.937 159.024L214.072 148.042C211.696 147.169 210.756 144.446 211.972 141.962L227.259 110.728C228.475 108.244 231.386 106.938 233.762 107.811L263.627 118.793Z" fill="white"/>
<path d="M245.481 159.413C244.942 159.413 244.406 159.324 243.895 159.136L214.03 148.154C212.919 147.746 212.068 146.923 211.634 145.838C211.149 144.63 211.233 143.197 211.864 141.908L227.151 110.675C228.391 108.141 231.375 106.805 233.803 107.698L263.668 118.68C264.778 119.088 265.629 119.911 266.064 120.996C266.549 122.204 266.465 123.637 265.834 124.925L250.547 156.159C249.568 158.159 247.502 159.413 245.481 159.413ZM232.212 107.66C230.281 107.66 228.304 108.862 227.366 110.78L212.079 142.014C211.478 143.242 211.397 144.603 211.856 145.749C212.265 146.77 213.067 147.544 214.113 147.929L243.978 158.911C246.294 159.762 249.144 158.481 250.332 156.054L265.619 124.82C266.22 123.592 266.301 122.231 265.842 121.085C265.433 120.064 264.631 119.29 263.585 118.905L233.72 107.923C233.234 107.744 232.725 107.66 232.212 107.66Z" fill="#111111"/>
<path d="M235.373 140.564C234.804 140.355 234.107 140.667 233.816 141.261C232.642 143.661 231.419 145.594 230.31 147.105C229.913 147.648 229.997 148.348 230.496 148.67C230.557 148.709 230.621 148.741 230.689 148.766C231.169 148.943 231.773 148.748 232.121 148.272C233.321 146.637 234.629 144.565 235.876 142.019C236.166 141.424 235.942 140.773 235.373 140.564Z" fill="#FFD3A8"/>
<path d="M231.057 148.95C230.918 148.95 230.779 148.926 230.648 148.879C230.572 148.851 230.5 148.815 230.432 148.771C230.183 148.61 230.015 148.358 229.96 148.06C229.896 147.716 229.989 147.342 230.214 147.034C231.498 145.284 232.674 143.324 233.709 141.209C234.026 140.562 234.791 140.222 235.415 140.452C235.705 140.558 235.928 140.773 236.041 141.057C236.167 141.37 236.146 141.74 235.984 142.071C234.872 144.343 233.605 146.453 232.218 148.343C231.937 148.728 231.491 148.95 231.057 148.95H231.057ZM235.001 140.619C234.573 140.619 234.133 140.887 233.924 141.314C232.883 143.442 231.7 145.414 230.407 147.176C230.221 147.431 230.144 147.737 230.196 148.016C230.239 148.249 230.368 148.445 230.562 148.57C230.614 148.603 230.671 148.631 230.73 148.653C231.17 148.815 231.715 148.625 232.025 148.202C233.403 146.322 234.663 144.224 235.768 141.966C235.901 141.695 235.919 141.397 235.819 141.146C235.731 140.926 235.558 140.76 235.332 140.677C235.226 140.638 235.114 140.618 235.001 140.619Z" fill="#111111"/>
<path d="M237.226 136.782C236.587 136.547 235.906 136.458 235.23 136.499C234.214 136.561 233.205 136.916 232.325 137.507C231.446 138.097 230.692 138.929 230.201 139.932C229.257 141.862 228.283 143.436 227.397 144.682C227.008 145.229 227.104 145.926 227.612 146.239C227.668 146.274 227.728 146.303 227.79 146.326C228.276 146.505 228.887 146.301 229.233 145.815C230.199 144.454 231.25 142.754 232.261 140.689C232.44 140.323 232.683 139.992 232.979 139.711C233.411 139.298 233.944 139.005 234.5 138.865C235.057 138.725 235.632 138.737 236.171 138.935C236.531 139.067 236.831 139.267 237.073 139.517C237.436 139.893 237.664 140.382 237.732 140.917C237.799 141.453 237.709 142.027 237.433 142.591C236.443 144.614 235.416 146.351 234.426 147.826C234.053 148.382 234.17 149.073 234.688 149.37C234.736 149.398 234.786 149.421 234.838 149.44C235.338 149.624 235.963 149.404 236.303 148.9C237.359 147.326 238.447 145.483 239.492 143.348C239.819 142.68 240.004 141.99 240.052 141.322C240.126 140.319 239.9 139.363 239.417 138.567C238.932 137.772 238.183 137.133 237.225 136.781" fill="#FFD3A8"/>
<path d="M235.211 149.625C235.069 149.626 234.929 149.601 234.796 149.552C234.738 149.531 234.682 149.505 234.628 149.474C234.368 149.325 234.187 149.081 234.118 148.785C234.04 148.448 234.115 148.074 234.326 147.759C235.412 146.142 236.421 144.385 237.325 142.538C237.579 142.018 237.679 141.462 237.612 140.932C237.547 140.418 237.331 139.957 236.987 139.6C236.748 139.355 236.46 139.169 236.13 139.048C235.634 138.866 235.081 138.843 234.529 138.981C233.985 139.118 233.477 139.4 233.061 139.798C232.776 140.069 232.541 140.389 232.368 140.742C231.464 142.589 230.442 144.319 229.33 145.885C228.959 146.407 228.294 146.639 227.748 146.438C227.678 146.413 227.611 146.38 227.548 146.341C227.294 146.185 227.122 145.935 227.061 145.637C226.992 145.296 227.079 144.922 227.299 144.612C228.318 143.178 229.258 141.586 230.093 139.879C230.579 138.887 231.328 138.032 232.258 137.408C233.165 136.798 234.19 136.443 235.222 136.379C235.937 136.336 236.625 136.433 237.266 136.669C238.222 137.02 239 137.655 239.519 138.505C240.021 139.331 240.247 140.309 240.171 141.331C240.12 142.034 239.928 142.73 239.599 143.401C238.639 145.364 237.563 147.236 236.402 148.967C236.121 149.383 235.662 149.625 235.211 149.625ZM235.237 138.652C235.574 138.652 235.903 138.709 236.212 138.823C236.576 138.957 236.895 139.162 237.158 139.433C237.54 139.828 237.779 140.336 237.85 140.902C237.922 141.479 237.815 142.081 237.54 142.644C236.631 144.501 235.617 146.267 234.525 147.893C234.351 148.152 234.288 148.458 234.352 148.731C234.405 148.961 234.546 149.151 234.747 149.266C234.789 149.29 234.833 149.311 234.878 149.327C235.332 149.494 235.901 149.281 236.203 148.833C237.358 147.112 238.428 145.249 239.384 143.296C239.699 142.652 239.883 141.986 239.932 141.314C240.004 140.341 239.79 139.413 239.314 138.63C238.824 137.827 238.087 137.227 237.183 136.894C236.574 136.67 235.919 136.577 235.236 136.619C234.247 136.68 233.263 137.021 232.391 137.607C231.496 138.208 230.775 139.03 230.308 139.985C229.467 141.703 228.52 143.307 227.494 144.751C227.312 145.007 227.24 145.313 227.296 145.589C227.343 145.821 227.477 146.016 227.674 146.137C227.723 146.167 227.775 146.193 227.83 146.213C228.277 146.378 228.825 146.181 229.134 145.746C230.239 144.191 231.254 142.472 232.152 140.637C232.338 140.258 232.59 139.915 232.895 139.624C233.341 139.198 233.886 138.895 234.47 138.749C234.721 138.685 234.979 138.653 235.237 138.652V138.652Z" fill="#111111"/>
<path d="M239.076 132.999C237.938 132.581 236.731 132.424 235.528 132.498C233.723 132.61 231.928 133.243 230.362 134.292C228.797 135.342 227.458 136.818 226.585 138.602C226.286 139.215 225.966 139.817 225.628 140.409C225.297 140.987 225.471 141.659 226.016 141.911C226.04 141.922 226.065 141.933 226.09 141.942C226.625 142.138 227.288 141.872 227.604 141.32C227.972 140.678 228.319 140.024 228.644 139.359C229.083 138.463 229.673 137.677 230.366 137.017C231.405 136.029 232.68 135.323 234.015 134.988C235.349 134.652 236.735 134.68 238.022 135.153C238.878 135.468 239.601 135.949 240.182 136.55C241.053 137.451 241.599 138.626 241.761 139.908C241.923 141.192 241.706 142.577 241.048 143.92C240.719 144.593 240.375 145.259 240.017 145.918C239.699 146.502 239.89 147.168 240.443 147.405C240.459 147.412 240.476 147.419 240.493 147.425C241.039 147.626 241.714 147.344 242.022 146.778C242.399 146.086 242.761 145.385 243.107 144.677C243.689 143.489 244.015 142.264 244.102 141.076C244.232 139.295 243.83 137.592 242.968 136.176C242.108 134.759 240.78 133.626 239.076 132.999Z" fill="#FFD3A8"/>
<path d="M240.863 147.609C240.703 147.61 240.544 147.578 240.396 147.515C240.259 147.457 240.135 147.371 240.034 147.262C239.932 147.153 239.855 147.024 239.807 146.883C239.695 146.561 239.733 146.188 239.912 145.86C240.269 145.203 240.612 144.539 240.941 143.868C241.565 142.593 241.807 141.229 241.643 139.923C241.481 138.651 240.947 137.513 240.096 136.633C239.51 136.026 238.798 135.566 237.98 135.266C236.763 134.818 235.402 134.762 234.045 135.104C232.717 135.438 231.473 136.129 230.449 137.104C229.744 137.775 229.173 138.551 228.752 139.412C228.426 140.079 228.078 140.735 227.708 141.38C227.368 141.975 226.639 142.271 226.049 142.054C226.021 142.044 225.993 142.033 225.966 142.02C225.831 141.958 225.71 141.869 225.612 141.757C225.513 141.645 225.439 141.514 225.395 141.372C225.291 141.046 225.338 140.673 225.524 140.349C225.861 139.76 226.179 139.159 226.477 138.549C227.333 136.801 228.654 135.294 230.295 134.193C231.898 133.119 233.705 132.491 235.521 132.379C236.778 132.301 237.988 132.472 239.117 132.887C240.797 133.504 242.164 134.62 243.071 136.114C243.955 137.566 244.353 139.285 244.221 141.085C244.13 142.325 243.792 143.552 243.215 144.73C242.868 145.44 242.505 146.142 242.128 146.836C241.866 147.316 241.36 147.609 240.863 147.609V147.609ZM235.791 134.643C236.577 134.643 237.344 134.776 238.063 135.041C238.915 135.354 239.657 135.833 240.268 136.466C241.155 137.384 241.713 138.569 241.88 139.893C242.051 141.246 241.8 142.656 241.156 143.973C240.826 144.648 240.481 145.315 240.122 145.975C239.976 146.244 239.944 146.546 240.033 146.804C240.07 146.914 240.13 147.014 240.209 147.099C240.288 147.183 240.384 147.25 240.49 147.295C240.505 147.301 240.519 147.307 240.534 147.312C241.03 147.495 241.638 147.235 241.917 146.721C242.293 146.03 242.654 145.331 243 144.625C243.563 143.474 243.894 142.277 243.983 141.068C244.11 139.318 243.724 137.648 242.866 136.239C241.988 134.792 240.663 133.711 239.035 133.112C237.937 132.708 236.76 132.542 235.536 132.618C233.762 132.728 231.996 133.342 230.429 134.392C228.822 135.47 227.53 136.944 226.693 138.655C226.392 139.27 226.072 139.875 225.732 140.468C225.58 140.735 225.54 141.038 225.623 141.299C225.658 141.41 225.715 141.511 225.792 141.598C225.868 141.685 225.962 141.755 226.067 141.803C226.088 141.812 226.11 141.821 226.131 141.829C226.615 142.007 227.216 141.757 227.501 141.26C227.867 140.621 228.213 139.969 228.537 139.307C228.971 138.42 229.559 137.621 230.284 136.93C231.338 135.927 232.619 135.216 233.986 134.872C234.591 134.72 235.197 134.644 235.791 134.644V134.643Z" fill="#111111"/>
<path d="M240.927 129.218C238.508 128.328 235.876 128.26 233.359 128.875C230.841 129.489 228.434 130.783 226.444 132.621C225.947 133.08 225.87 133.802 226.272 134.235C226.375 134.345 226.502 134.43 226.644 134.481C227.038 134.626 227.531 134.526 227.897 134.188C229.542 132.669 231.538 131.595 233.62 131.087C235.704 130.579 237.869 130.635 239.873 131.371C241.875 132.108 243.426 133.419 244.453 135.071C245.479 136.723 245.976 138.713 245.858 140.792C245.832 141.257 246.092 141.633 246.486 141.778C246.626 141.83 246.782 141.852 246.949 141.839C247.586 141.788 248.132 141.239 248.168 140.611C248.309 138.092 247.709 135.692 246.469 133.696C245.231 131.7 243.344 130.107 240.927 129.218" fill="#FFD3A8"/>
<path d="M246.856 141.963C246.716 141.964 246.576 141.939 246.445 141.891C245.987 141.723 245.71 141.289 245.738 140.786C245.854 138.736 245.374 136.782 244.351 135.134C243.303 133.448 241.74 132.186 239.831 131.484C237.919 130.781 235.781 130.684 233.648 131.204C231.565 131.712 229.604 132.774 227.978 134.276C227.591 134.634 227.051 134.759 226.602 134.594C226.443 134.536 226.299 134.441 226.184 134.317C225.986 134.104 225.884 133.817 225.895 133.511C225.909 133.151 226.08 132.795 226.362 132.534C228.359 130.689 230.768 129.384 233.33 128.759C235.961 128.116 238.602 128.236 240.968 129.106C243.336 129.977 245.273 131.542 246.57 133.634C247.835 135.668 248.429 138.084 248.287 140.618C248.247 141.302 247.651 141.904 246.958 141.959C246.923 141.962 246.89 141.963 246.856 141.963L246.856 141.963ZM236.34 130.635C237.577 130.635 238.784 130.844 239.914 131.259C241.873 131.98 243.478 133.276 244.554 135.008C245.604 136.697 246.096 138.7 245.977 140.799C245.955 141.195 246.171 141.535 246.527 141.666C246.655 141.713 246.794 141.731 246.939 141.72C247.517 141.674 248.015 141.173 248.048 140.604C248.187 138.12 247.606 135.753 246.367 133.76C245.098 131.714 243.203 130.183 240.885 129.331C238.564 128.477 235.971 128.36 233.387 128.992C230.864 129.607 228.492 130.893 226.525 132.71C226.288 132.928 226.146 133.223 226.135 133.52C226.126 133.762 226.205 133.987 226.36 134.154C226.449 134.25 226.561 134.324 226.685 134.369C227.05 134.503 227.494 134.398 227.816 134.1C229.471 132.57 231.469 131.488 233.591 130.971C234.512 130.747 235.435 130.635 236.34 130.635Z" fill="#111111"/>
<path d="M242.785 125.442L242.776 125.438C240.642 124.652 238.381 124.357 236.126 124.498C233.87 124.637 231.62 125.211 229.5 126.162C228.893 126.434 228.559 127.116 228.755 127.684C228.854 127.968 229.066 128.17 229.33 128.267C229.593 128.364 229.908 128.356 230.212 128.219C232.052 127.394 234.005 126.896 235.959 126.776C237.913 126.654 239.869 126.909 241.723 127.591C243.567 128.269 245.132 129.304 246.386 130.598C247.641 131.892 248.585 133.443 249.184 135.154C249.282 135.436 249.493 135.636 249.755 135.733C250.02 135.83 250.337 135.821 250.642 135.683C251.249 135.409 251.581 134.726 251.382 134.159C250.695 132.19 249.607 130.401 248.158 128.908C246.712 127.417 244.906 126.221 242.786 125.441" fill="#FFD3A8"/>
<path d="M250.128 135.917C249.986 135.918 249.846 135.893 249.714 135.844C249.406 135.731 249.178 135.5 249.071 135.193C248.47 133.475 247.538 131.957 246.3 130.681C245.02 129.361 243.466 128.359 241.682 127.702C239.887 127.043 237.964 126.771 235.966 126.895C234.036 127.014 232.116 127.496 230.261 128.328C229.938 128.473 229.593 128.491 229.288 128.379C228.979 128.265 228.749 128.032 228.642 127.722C228.427 127.098 228.79 126.348 229.451 126.052C231.616 125.081 233.86 124.517 236.119 124.377C238.462 124.231 240.715 124.55 242.818 125.325L242.786 125.441L242.827 125.328C244.917 126.097 246.739 127.273 248.244 128.823C249.698 130.322 250.792 132.104 251.495 134.119C251.714 134.742 251.353 135.492 250.691 135.791C250.507 135.875 250.315 135.917 250.128 135.917L250.128 135.917ZM236.902 126.626C238.593 126.626 240.225 126.911 241.764 127.477C243.583 128.146 245.167 129.168 246.472 130.514C247.734 131.815 248.684 133.363 249.297 135.114C249.38 135.352 249.557 135.531 249.797 135.619C250.044 135.71 250.326 135.694 250.593 135.573C251.144 135.324 251.448 134.707 251.269 134.198C250.577 132.216 249.501 130.464 248.072 128.991C246.593 127.466 244.8 126.309 242.744 125.553L242.735 125.55C240.664 124.787 238.443 124.473 236.134 124.616C233.903 124.755 231.688 125.311 229.549 126.27C228.998 126.518 228.692 127.134 228.869 127.644C228.952 127.884 229.13 128.066 229.371 128.154C229.616 128.244 229.897 128.228 230.163 128.109C232.045 127.265 233.992 126.776 235.951 126.655C236.27 126.636 236.587 126.626 236.901 126.626H236.902Z" fill="#111111"/>
<path d="M244.628 121.655C241.317 120.438 237.76 120.177 234.279 120.735C233.64 120.837 233.137 121.424 233.156 122.046C233.168 122.473 233.421 122.804 233.785 122.937C233.952 122.999 234.143 123.019 234.344 122.987C237.45 122.49 240.615 122.721 243.574 123.809C246.514 124.89 248.894 126.686 250.638 128.949C250.748 129.091 250.895 129.199 251.064 129.26C251.429 129.395 251.883 129.321 252.245 129.031C252.772 128.609 252.907 127.887 252.547 127.419C250.594 124.884 247.918 122.865 244.628 121.655Z" fill="#FFD3A8"/>
<path d="M251.436 129.445C251.295 129.446 251.155 129.421 251.022 129.373C250.833 129.304 250.666 129.182 250.543 129.022C248.768 126.719 246.344 124.955 243.532 123.921C240.702 122.881 237.531 122.598 234.363 123.105C234.148 123.139 233.934 123.12 233.743 123.05C233.32 122.895 233.049 122.511 233.036 122.05C233.015 121.371 233.564 120.728 234.259 120.617C237.855 120.041 241.454 120.361 244.669 121.543C247.865 122.718 250.622 124.725 252.641 127.346C253.041 127.865 252.896 128.663 252.319 129.125C252.057 129.334 251.742 129.445 251.436 129.445V129.445ZM237.423 122.62C239.573 122.62 241.673 122.982 243.615 123.696C246.469 124.746 248.931 126.537 250.732 128.876C250.829 129 250.958 129.094 251.105 129.148C251.444 129.273 251.852 129.192 252.17 128.937C252.646 128.557 252.772 127.909 252.452 127.493C250.46 124.907 247.74 122.928 244.587 121.768C241.41 120.6 237.852 120.284 234.297 120.854C233.717 120.947 233.258 121.48 233.275 122.043C233.286 122.405 233.496 122.704 233.826 122.825C233.978 122.881 234.151 122.896 234.325 122.869C235.35 122.704 236.386 122.621 237.424 122.621L237.423 122.62Z" fill="#111111"/>
<path d="M246.499 117.883L246.478 117.875L246.458 117.868C245.091 117.365 243.687 117.001 242.266 116.767C241.655 116.666 241.009 117.09 240.822 117.712C240.658 118.266 240.913 118.791 241.402 118.971C241.464 118.994 241.528 119.01 241.593 119.021L241.593 119.02C242.892 119.235 244.173 119.568 245.425 120.028C246.675 120.487 247.843 121.056 248.922 121.715C248.979 121.749 249.038 121.778 249.098 121.8C249.587 121.98 250.198 121.774 250.543 121.286C250.93 120.738 250.832 120.042 250.324 119.73C249.142 119.007 247.865 118.385 246.499 117.883" fill="#FFD3A8"/>
<path d="M249.467 121.983C249.327 121.984 249.189 121.96 249.057 121.912C248.988 121.887 248.922 121.855 248.86 121.816C247.771 121.152 246.602 120.588 245.384 120.14C244.171 119.694 242.895 119.357 241.591 119.14C241.585 119.14 241.579 119.14 241.573 119.139C241.501 119.127 241.43 119.108 241.361 119.083C240.801 118.877 240.527 118.286 240.708 117.677C240.911 116.999 241.619 116.538 242.285 116.648C243.734 116.887 245.152 117.259 246.499 117.755L246.54 117.77H246.54C247.887 118.265 249.181 118.89 250.386 119.627C250.64 119.783 250.814 120.032 250.875 120.33C250.945 120.671 250.86 121.044 250.641 121.355C250.359 121.753 249.908 121.984 249.467 121.984V121.983ZM241.596 118.899C241.601 118.899 241.607 118.9 241.613 118.901C242.938 119.12 244.234 119.461 245.466 119.914C246.699 120.368 247.883 120.939 248.985 121.612C249.034 121.641 249.085 121.667 249.14 121.687C249.587 121.851 250.136 121.653 250.445 121.216C250.626 120.96 250.697 120.654 250.64 120.378C250.593 120.146 250.458 119.952 250.261 119.831C249.069 119.102 247.789 118.484 246.457 117.994L246.42 117.981C245.084 117.489 243.68 117.121 242.246 116.884C241.694 116.793 241.107 117.179 240.937 117.745C240.793 118.229 241.006 118.697 241.443 118.857C241.492 118.875 241.543 118.889 241.596 118.899V118.899Z" fill="#111111"/>
</g>
<g clip-path="url(#clip2_880_19774)">
<path d="M207.887 202.448L138.409 212.213C136.885 212.427 136.033 213.915 136.502 215.532L140.039 227.735C140.508 229.352 142.121 230.488 143.645 230.274L213.123 220.509C214.646 220.295 215.5 218.812 215.032 217.195L211.494 204.992C211.025 203.375 209.41 202.234 207.887 202.448Z" fill="#FFD3A8"/>
<path d="M143.276 230.42C141.82 230.42 140.369 229.302 139.925 227.769L136.387 215.566C136.139 214.711 136.243 213.839 136.674 213.174C137.058 212.58 137.669 212.196 138.393 212.095L207.871 202.33C209.448 202.108 211.125 203.288 211.61 204.959L215.147 217.162C215.395 218.016 215.291 218.885 214.862 219.548C214.477 220.142 213.865 220.526 213.14 220.628L143.662 230.393C143.534 230.411 143.405 230.42 143.276 230.42H143.276ZM207.887 202.448L207.904 202.567L138.426 212.332C137.772 212.424 137.221 212.77 136.875 213.305C136.483 213.911 136.389 214.711 136.618 215.5L140.155 227.702C140.607 229.261 142.165 230.361 143.629 230.156L213.107 220.39C213.762 220.298 214.314 219.953 214.661 219.417C215.052 218.813 215.145 218.015 214.917 217.229L211.379 205.026C210.927 203.465 209.367 202.361 207.904 202.567L207.887 202.448H207.887Z" fill="#111111"/>
<path d="M203.972 179.019C202.767 174.862 198.617 171.939 194.705 172.489L133.89 181.037C129.973 181.588 127.775 185.402 128.981 189.559C130.184 193.71 134.334 196.633 138.251 196.082L199.067 187.534C202.979 186.985 205.176 183.17 203.972 179.019L203.972 179.019Z" fill="white"/>
<path d="M137.298 196.269C133.635 196.269 129.985 193.453 128.866 189.593C128.245 187.451 128.504 185.271 129.577 183.613C130.537 182.13 132.063 181.173 133.873 180.919L194.689 172.371C198.653 171.814 202.869 174.781 204.088 178.986C204.708 181.125 204.448 183.303 203.375 184.961C202.416 186.443 200.891 187.4 199.084 187.654L138.268 196.201C137.947 196.246 137.622 196.269 137.298 196.269V196.269ZM195.661 172.543C195.347 172.543 195.034 172.565 194.722 172.609L133.906 181.156C132.166 181.401 130.7 182.32 129.779 183.744C128.743 185.343 128.495 187.451 129.096 189.526C130.186 193.286 133.736 196.029 137.294 196.029C137.608 196.029 137.922 196.008 138.235 195.964L199.051 187.416C200.788 187.172 202.253 186.253 203.174 184.83C204.209 183.231 204.458 181.125 203.857 179.053C202.767 175.29 199.217 172.543 195.661 172.543L195.661 172.543Z" fill="#111111"/>
<path d="M142.642 183.727L142.279 186.905L142.237 186.91L140.116 184.099L139.101 185.028L141.765 187.384L141.777 187.423L138.68 187.434L139.103 188.894L141.984 188.064L141.997 188.109L140.834 191.003L142.212 191.613L142.646 188.396L142.688 188.39L144.778 191.229L145.83 190.278L143.137 187.972L143.124 187.927L146.294 187.884L145.87 186.423L142.938 187.284L142.925 187.239L144.07 184.283L142.642 183.727Z" fill="#111111"/>
<path d="M142.212 191.733C142.195 191.733 142.179 191.73 142.163 191.723L140.785 191.113C140.756 191.1 140.734 191.077 140.722 191.048C140.711 191.019 140.711 190.987 140.722 190.958L141.816 188.237L139.136 189.009C139.105 189.018 139.073 189.014 139.045 188.999C139.017 188.984 138.996 188.958 138.988 188.927L138.564 187.467C138.559 187.449 138.558 187.43 138.562 187.412C138.565 187.394 138.572 187.377 138.584 187.362C138.595 187.347 138.609 187.335 138.626 187.326C138.642 187.318 138.66 187.314 138.679 187.314L141.494 187.304L139.022 185.118C139.009 185.106 138.999 185.093 138.992 185.077C138.985 185.062 138.981 185.046 138.981 185.029C138.981 185.012 138.985 184.995 138.991 184.98C138.998 184.964 139.008 184.951 139.02 184.939L140.035 184.011C140.047 183.999 140.062 183.991 140.078 183.985C140.094 183.98 140.11 183.978 140.127 183.98C140.144 183.981 140.16 183.986 140.174 183.994C140.189 184.002 140.202 184.014 140.212 184.027L142.188 186.646L142.522 183.713C142.524 183.695 142.531 183.677 142.54 183.662C142.55 183.646 142.564 183.633 142.579 183.624C142.595 183.614 142.613 183.608 142.631 183.607C142.649 183.605 142.668 183.608 142.685 183.615L144.114 184.171C144.143 184.182 144.167 184.205 144.18 184.234C144.193 184.263 144.193 184.296 144.182 184.326L143.103 187.11L145.837 186.308C145.852 186.303 145.868 186.302 145.883 186.304C145.899 186.305 145.914 186.31 145.928 186.318C145.942 186.325 145.954 186.335 145.964 186.348C145.974 186.36 145.981 186.374 145.986 186.39L146.409 187.85C146.414 187.868 146.415 187.886 146.412 187.904C146.409 187.923 146.401 187.94 146.39 187.955C146.379 187.97 146.365 187.982 146.348 187.99C146.332 187.999 146.314 188.003 146.295 188.003L143.405 188.043L145.908 190.186C145.921 190.197 145.931 190.211 145.939 190.227C145.946 190.242 145.95 190.259 145.95 190.276C145.95 190.293 145.947 190.31 145.94 190.325C145.933 190.341 145.923 190.355 145.911 190.366L144.859 191.318C144.846 191.329 144.831 191.338 144.816 191.343C144.8 191.348 144.783 191.35 144.766 191.348C144.749 191.347 144.733 191.341 144.719 191.333C144.704 191.325 144.691 191.314 144.681 191.3L142.732 188.652L142.331 191.629C142.327 191.658 142.313 191.684 142.291 191.703C142.269 191.722 142.241 191.733 142.212 191.733L142.212 191.733ZM140.988 190.94L142.114 191.439L142.526 188.38C142.534 188.327 142.575 188.285 142.629 188.277L142.671 188.271C142.692 188.268 142.714 188.271 142.734 188.279C142.754 188.288 142.771 188.301 142.784 188.319L144.796 191.051L145.648 190.28L143.059 188.063C143.041 188.047 143.028 188.027 143.022 188.005L143.009 187.96C143.004 187.942 143.003 187.924 143.006 187.906C143.009 187.887 143.017 187.87 143.028 187.855C143.039 187.84 143.053 187.828 143.069 187.82C143.086 187.812 143.104 187.807 143.122 187.807L146.135 187.765L145.788 186.572L142.971 187.398C142.941 187.407 142.908 187.404 142.88 187.388C142.852 187.373 142.831 187.347 142.822 187.317L142.809 187.272C142.802 187.247 142.803 187.22 142.813 187.195L143.915 184.351L142.743 183.894L142.398 186.918C142.395 186.944 142.383 186.969 142.365 186.988C142.346 187.007 142.322 187.019 142.295 187.023L142.253 187.029C142.232 187.032 142.211 187.029 142.191 187.021C142.171 187.012 142.154 186.999 142.141 186.982L140.099 184.276L139.28 185.026L141.844 187.294C141.861 187.309 141.874 187.328 141.88 187.35L141.891 187.389C141.897 187.407 141.898 187.426 141.894 187.444C141.891 187.462 141.883 187.48 141.872 187.495C141.861 187.509 141.847 187.521 141.83 187.53C141.814 187.538 141.795 187.543 141.777 187.543L138.839 187.553L139.185 188.745L141.951 187.948C141.981 187.939 142.014 187.943 142.042 187.958C142.07 187.974 142.09 187.999 142.099 188.03L142.112 188.075C142.12 188.101 142.118 188.128 142.108 188.153L140.988 190.94L140.988 190.94ZM154.64 182.04L154.272 185.219L154.235 185.224L152.109 182.413L151.095 183.342L153.759 185.698L153.77 185.738L150.678 185.747L151.102 187.208L153.977 186.378L153.99 186.423L152.827 189.317L154.205 189.927L154.644 186.71L154.681 186.705L156.771 189.543L157.824 188.592L155.13 186.286L155.117 186.241L158.287 186.198L157.864 184.737L154.931 185.598L154.918 185.553L156.064 182.597L154.64 182.04Z" fill="#111111"/>
<path d="M154.205 190.047C154.188 190.047 154.171 190.044 154.156 190.037L152.778 189.427C152.75 189.415 152.727 189.391 152.715 189.363C152.704 189.334 152.704 189.302 152.715 189.273L153.809 186.552L151.134 187.323C151.104 187.332 151.071 187.328 151.043 187.313C151.015 187.297 150.995 187.272 150.986 187.241L150.562 185.781C150.557 185.763 150.556 185.744 150.56 185.726C150.563 185.708 150.57 185.69 150.582 185.676C150.593 185.661 150.607 185.649 150.624 185.64C150.64 185.632 150.659 185.628 150.677 185.627L153.486 185.619L151.015 183.432C151.002 183.421 150.992 183.407 150.985 183.392C150.978 183.377 150.974 183.36 150.974 183.343C150.974 183.326 150.977 183.31 150.984 183.294C150.991 183.279 151.001 183.265 151.013 183.254L152.028 182.325C152.04 182.314 152.055 182.305 152.07 182.3C152.086 182.295 152.103 182.293 152.12 182.294C152.136 182.296 152.152 182.301 152.167 182.309C152.182 182.317 152.194 182.328 152.204 182.341L154.182 184.955L154.521 182.026C154.523 182.008 154.529 181.991 154.539 181.975C154.549 181.96 154.562 181.947 154.578 181.937C154.594 181.928 154.611 181.922 154.63 181.921C154.648 181.919 154.666 181.922 154.683 181.929L156.107 182.485C156.136 182.497 156.16 182.52 156.173 182.549C156.186 182.578 156.186 182.611 156.175 182.641L155.096 185.424L157.829 184.622C157.844 184.618 157.86 184.617 157.876 184.618C157.892 184.62 157.907 184.625 157.921 184.632C157.935 184.64 157.947 184.65 157.957 184.662C157.966 184.675 157.974 184.689 157.978 184.704L158.402 186.164C158.407 186.182 158.408 186.201 158.404 186.219C158.401 186.237 158.394 186.254 158.383 186.269C158.372 186.284 158.357 186.296 158.341 186.305C158.325 186.313 158.306 186.318 158.288 186.318L155.397 186.358L157.901 188.501C157.914 188.512 157.924 188.526 157.931 188.541C157.939 188.557 157.942 188.573 157.943 188.59C157.943 188.607 157.939 188.624 157.933 188.64C157.926 188.656 157.916 188.67 157.903 188.681L156.851 189.633C156.839 189.644 156.824 189.652 156.808 189.658C156.792 189.663 156.775 189.665 156.759 189.663C156.742 189.661 156.726 189.656 156.711 189.648C156.697 189.64 156.684 189.628 156.674 189.615L154.729 186.973L154.323 189.944C154.319 189.973 154.305 189.999 154.283 190.018C154.261 190.037 154.233 190.048 154.204 190.048L154.205 190.047ZM152.981 189.255L154.108 189.753L154.525 186.693C154.528 186.668 154.54 186.644 154.559 186.625C154.577 186.606 154.601 186.595 154.627 186.591L154.664 186.586C154.685 186.583 154.707 186.586 154.727 186.594C154.747 186.602 154.764 186.616 154.777 186.633L156.789 189.365L157.642 188.594L155.052 186.377C155.034 186.362 155.021 186.342 155.015 186.32L155.002 186.275C154.997 186.257 154.996 186.238 154.999 186.22C155.002 186.202 155.01 186.185 155.021 186.17C155.032 186.155 155.046 186.143 155.062 186.135C155.079 186.126 155.097 186.122 155.115 186.121L158.128 186.08L157.782 184.886L154.964 185.713C154.934 185.722 154.901 185.718 154.873 185.703C154.845 185.688 154.824 185.662 154.815 185.631L154.802 185.587C154.795 185.561 154.796 185.534 154.806 185.51L155.908 182.665L154.741 182.208L154.391 185.232C154.388 185.259 154.376 185.283 154.358 185.302C154.339 185.321 154.315 185.334 154.289 185.337L154.252 185.343C154.231 185.346 154.209 185.343 154.189 185.335C154.17 185.327 154.152 185.313 154.139 185.296L152.093 182.591L151.274 183.34L153.838 185.608C153.855 185.624 153.867 185.643 153.874 185.665L153.885 185.704C153.89 185.722 153.891 185.741 153.888 185.759C153.884 185.777 153.877 185.794 153.866 185.809C153.855 185.824 153.84 185.836 153.824 185.845C153.807 185.853 153.789 185.857 153.77 185.857L150.838 185.867L151.183 187.059L153.944 186.263C153.975 186.254 154.007 186.258 154.035 186.273C154.063 186.288 154.084 186.314 154.093 186.345L154.106 186.39C154.113 186.415 154.112 186.443 154.102 186.468L152.982 189.254L152.981 189.255ZM166.633 180.354L166.27 183.532L166.228 183.538L164.108 180.727L163.093 181.656L165.757 184.012L165.768 184.051L162.671 184.062L163.095 185.522L165.97 184.693L165.983 184.737L164.825 187.631L166.198 188.242L166.637 185.024L166.679 185.018L168.764 187.858L169.817 186.906L167.129 184.6L167.116 184.555L170.285 184.511L169.862 183.051L166.929 183.911L166.916 183.867L168.057 180.911L166.633 180.354Z" fill="#111111"/>
<path d="M166.199 188.362C166.182 188.362 166.166 188.358 166.15 188.352L164.777 187.741C164.749 187.728 164.726 187.705 164.715 187.676C164.703 187.648 164.703 187.616 164.714 187.587L165.803 184.866L163.128 185.638C163.098 185.646 163.065 185.643 163.037 185.627C163.009 185.612 162.989 185.586 162.98 185.556L162.556 184.095C162.551 184.078 162.55 184.059 162.554 184.041C162.557 184.022 162.565 184.005 162.576 183.99C162.587 183.975 162.601 183.963 162.618 183.955C162.634 183.947 162.653 183.942 162.671 183.942L165.486 183.933L163.014 181.746C163.001 181.735 162.991 181.721 162.984 181.706C162.977 181.691 162.974 181.674 162.973 181.657C162.973 181.64 162.977 181.624 162.983 181.608C162.99 181.593 163 181.579 163.012 181.568L164.027 180.639C164.039 180.628 164.054 180.619 164.07 180.614C164.086 180.609 164.102 180.607 164.119 180.608C164.136 180.61 164.152 180.615 164.166 180.623C164.181 180.631 164.194 180.642 164.204 180.655L166.18 183.274L166.514 180.341C166.516 180.323 166.523 180.306 166.533 180.29C166.543 180.275 166.556 180.262 166.572 180.252C166.587 180.243 166.605 180.237 166.623 180.235C166.642 180.234 166.66 180.237 166.677 180.243L168.101 180.8C168.13 180.812 168.154 180.834 168.167 180.863C168.18 180.893 168.18 180.925 168.169 180.955L167.095 183.738L169.829 182.936C169.844 182.932 169.86 182.93 169.875 182.932C169.891 182.934 169.906 182.939 169.92 182.946C169.934 182.954 169.946 182.964 169.956 182.976C169.966 182.989 169.973 183.003 169.978 183.018L170.401 184.478C170.406 184.496 170.407 184.515 170.404 184.533C170.401 184.551 170.393 184.568 170.382 184.583C170.371 184.598 170.357 184.61 170.34 184.619C170.324 184.627 170.306 184.632 170.287 184.632L167.397 184.672L169.895 186.816C169.908 186.827 169.918 186.841 169.926 186.856C169.933 186.871 169.937 186.888 169.937 186.905C169.937 186.922 169.934 186.939 169.927 186.955C169.92 186.97 169.91 186.984 169.898 186.996L168.845 187.947C168.833 187.959 168.818 187.967 168.802 187.972C168.786 187.978 168.77 187.979 168.753 187.978C168.736 187.976 168.72 187.971 168.705 187.963C168.691 187.954 168.678 187.943 168.668 187.929L166.724 185.281L166.318 188.259C166.314 188.287 166.3 188.314 166.278 188.333C166.256 188.352 166.228 188.362 166.199 188.362V188.362ZM164.98 187.569L166.102 188.067L166.519 185.008C166.522 184.982 166.534 184.958 166.553 184.94C166.571 184.921 166.595 184.909 166.621 184.906L166.663 184.899C166.707 184.893 166.751 184.912 166.777 184.947L168.783 187.68L169.636 186.909L167.051 184.691C167.034 184.676 167.021 184.655 167.014 184.633L167.001 184.588C166.996 184.571 166.995 184.552 166.999 184.534C167.002 184.516 167.009 184.499 167.02 184.484C167.031 184.469 167.045 184.457 167.062 184.448C167.078 184.44 167.096 184.435 167.115 184.435L170.127 184.394L169.781 183.2L166.964 184.027C166.933 184.035 166.9 184.032 166.872 184.017C166.844 184.001 166.824 183.975 166.815 183.945L166.802 183.9C166.794 183.875 166.796 183.848 166.805 183.824L167.902 180.98L166.735 180.523L166.39 183.546C166.387 183.572 166.376 183.597 166.357 183.616C166.338 183.635 166.314 183.647 166.288 183.651L166.246 183.657C166.225 183.66 166.203 183.657 166.183 183.649C166.163 183.641 166.146 183.627 166.133 183.61L164.092 180.905L163.273 181.654L165.837 183.922C165.854 183.937 165.866 183.957 165.873 183.979L165.884 184.018C165.889 184.036 165.89 184.054 165.887 184.073C165.883 184.091 165.876 184.108 165.865 184.123C165.854 184.138 165.839 184.15 165.823 184.158C165.806 184.167 165.788 184.171 165.769 184.171L162.831 184.181L163.177 185.374L165.938 184.577C165.968 184.568 166.001 184.572 166.029 184.587C166.057 184.603 166.077 184.629 166.086 184.659L166.099 184.704C166.107 184.73 166.105 184.757 166.096 184.782L164.98 187.568L164.98 187.569ZM178.627 178.669L178.264 181.847L178.222 181.853L176.102 179.042L175.087 179.97L177.751 182.327L177.762 182.366L174.665 182.376L175.089 183.837L177.97 183.006L177.983 183.051L176.819 185.946L178.197 186.556L178.631 183.339L178.673 183.333L180.758 186.172L181.816 185.22L179.122 182.914L179.11 182.87L182.279 182.826L181.856 181.365L178.923 182.226L178.91 182.181L180.056 179.225L178.627 178.669Z" fill="#111111"/>
<path d="M178.197 186.676C178.18 186.676 178.164 186.672 178.149 186.665L176.77 186.055C176.742 186.043 176.719 186.02 176.708 185.991C176.696 185.962 176.696 185.93 176.708 185.901L177.802 183.18L175.121 183.952C175.091 183.961 175.058 183.957 175.03 183.942C175.002 183.926 174.982 183.901 174.973 183.87L174.55 182.41C174.544 182.392 174.544 182.373 174.547 182.355C174.55 182.337 174.558 182.319 174.569 182.305C174.58 182.29 174.594 182.278 174.611 182.269C174.628 182.261 174.646 182.256 174.664 182.256L177.479 182.247L175.007 180.06C174.994 180.049 174.984 180.036 174.977 180.02C174.97 180.005 174.967 179.988 174.967 179.971C174.966 179.955 174.97 179.938 174.977 179.923C174.983 179.907 174.993 179.893 175.006 179.882L176.02 178.953C176.033 178.942 176.047 178.934 176.063 178.928C176.079 178.923 176.096 178.921 176.112 178.923C176.129 178.924 176.145 178.929 176.16 178.937C176.174 178.945 176.187 178.956 176.197 178.97L178.173 181.589L178.507 178.656C178.51 178.637 178.516 178.62 178.526 178.604C178.536 178.589 178.549 178.576 178.565 178.566C178.58 178.557 178.598 178.551 178.616 178.55C178.635 178.548 178.653 178.551 178.67 178.557L180.099 179.114C180.128 179.125 180.152 179.148 180.165 179.177C180.178 179.206 180.179 179.239 180.167 179.269L179.088 182.052L181.822 181.25C181.837 181.246 181.853 181.245 181.868 181.246C181.884 181.248 181.899 181.253 181.913 181.26C181.927 181.268 181.939 181.278 181.949 181.291C181.959 181.303 181.966 181.317 181.971 181.332L182.394 182.792C182.399 182.81 182.4 182.829 182.397 182.847C182.394 182.865 182.386 182.883 182.375 182.897C182.364 182.912 182.35 182.924 182.333 182.933C182.317 182.941 182.299 182.946 182.28 182.946L179.39 182.986L181.893 185.129C181.906 185.14 181.917 185.154 181.924 185.169C181.931 185.185 181.935 185.202 181.935 185.219C181.935 185.236 181.932 185.253 181.925 185.268C181.918 185.284 181.908 185.298 181.896 185.309L180.838 186.262C180.826 186.273 180.811 186.281 180.795 186.286C180.779 186.292 180.762 186.293 180.746 186.292C180.729 186.29 180.713 186.285 180.698 186.276C180.684 186.268 180.671 186.257 180.661 186.243L178.717 183.596L178.316 186.572C178.312 186.601 178.298 186.627 178.276 186.646C178.254 186.665 178.226 186.676 178.197 186.676H178.197ZM176.973 185.883L178.1 186.381L178.512 183.323C178.519 183.269 178.561 183.227 178.614 183.22L178.656 183.214C178.7 183.208 178.743 183.226 178.769 183.262L180.776 185.994L181.634 185.222L179.044 183.005C179.026 182.99 179.013 182.97 179.007 182.948L178.994 182.903C178.989 182.885 178.988 182.867 178.991 182.848C178.994 182.83 179.002 182.813 179.013 182.798C179.024 182.783 179.038 182.771 179.054 182.763C179.071 182.754 179.089 182.75 179.108 182.75L182.12 182.708L181.774 181.514L178.956 182.341C178.941 182.345 178.925 182.347 178.91 182.345C178.894 182.344 178.879 182.339 178.865 182.331C178.851 182.324 178.839 182.313 178.829 182.301C178.819 182.289 178.812 182.274 178.808 182.259L178.795 182.215C178.787 182.189 178.788 182.162 178.798 182.138L179.9 179.293L178.728 178.837L178.383 181.86C178.38 181.887 178.369 181.911 178.35 181.93C178.331 181.949 178.307 181.962 178.281 181.966L178.239 181.971C178.217 181.974 178.196 181.972 178.176 181.963C178.156 181.955 178.139 181.942 178.126 181.925L176.085 179.219L175.266 179.969L177.83 182.237C177.847 182.252 177.859 182.271 177.866 182.293L177.877 182.332C177.882 182.35 177.883 182.369 177.88 182.387C177.876 182.405 177.869 182.423 177.858 182.438C177.847 182.452 177.832 182.464 177.816 182.473C177.799 182.481 177.781 182.486 177.762 182.486L174.824 182.496L175.17 183.688L177.936 182.891C177.967 182.882 178 182.886 178.027 182.901C178.055 182.917 178.076 182.943 178.085 182.973L178.098 183.018C178.105 183.044 178.104 183.071 178.094 183.096L176.973 185.883ZM190.62 176.983L190.258 180.161L190.221 180.166L188.095 177.356L187.08 178.285L189.744 180.641L189.755 180.68L186.663 180.69L187.087 182.15L189.963 181.321L189.976 181.366L188.812 184.26L190.191 184.87L190.629 181.652L190.666 181.647L192.757 184.486L193.809 183.534L191.116 181.229L191.103 181.184L194.272 181.14L193.849 179.68L190.916 180.54L190.903 180.496L192.049 177.539L190.62 176.983Z" fill="#111111"/>
<path d="M190.19 184.99C190.173 184.99 190.157 184.986 190.142 184.979L188.763 184.37C188.735 184.357 188.712 184.334 188.701 184.305C188.689 184.276 188.689 184.244 188.701 184.215L189.794 181.494L187.12 182.265C187.089 182.274 187.056 182.271 187.028 182.255C187 182.24 186.98 182.214 186.971 182.184L186.548 180.723C186.543 180.705 186.542 180.687 186.545 180.668C186.548 180.65 186.556 180.633 186.567 180.618C186.578 180.603 186.592 180.591 186.609 180.583C186.626 180.574 186.644 180.57 186.662 180.57L189.472 180.561L187 178.374C186.987 178.363 186.977 178.35 186.97 178.334C186.963 178.319 186.96 178.302 186.959 178.286C186.959 178.269 186.963 178.252 186.969 178.237C186.976 178.221 186.986 178.207 186.998 178.196L188.013 177.267C188.025 177.256 188.04 177.248 188.056 177.242C188.072 177.237 188.088 177.235 188.105 177.236C188.122 177.238 188.138 177.243 188.152 177.251C188.167 177.259 188.18 177.27 188.19 177.284L190.167 179.897L190.5 176.97C190.502 176.951 190.509 176.934 190.519 176.918C190.528 176.903 190.542 176.89 190.558 176.881C190.573 176.871 190.591 176.865 190.609 176.864C190.628 176.862 190.646 176.865 190.663 176.871L192.092 177.428C192.121 177.439 192.145 177.462 192.158 177.491C192.171 177.52 192.172 177.553 192.16 177.583L191.081 180.367L193.815 179.565C193.83 179.56 193.846 179.559 193.861 179.56C193.877 179.562 193.892 179.567 193.906 179.574C193.92 179.582 193.932 179.592 193.942 179.605C193.952 179.617 193.959 179.631 193.964 179.646L194.387 181.107C194.392 181.124 194.393 181.143 194.39 181.161C194.387 181.179 194.379 181.197 194.368 181.211C194.357 181.226 194.343 181.238 194.326 181.247C194.31 181.255 194.292 181.26 194.273 181.26L191.383 181.3L193.886 183.443C193.899 183.454 193.909 183.468 193.917 183.483C193.924 183.499 193.928 183.515 193.928 183.532C193.928 183.549 193.925 183.566 193.918 183.582C193.911 183.598 193.901 183.612 193.889 183.623L192.837 184.575C192.824 184.586 192.809 184.594 192.794 184.6C192.778 184.605 192.761 184.607 192.744 184.605C192.727 184.603 192.711 184.598 192.697 184.59C192.682 184.582 192.669 184.57 192.66 184.557L190.714 181.915L190.309 184.886C190.305 184.915 190.291 184.941 190.269 184.96C190.247 184.979 190.219 184.99 190.19 184.99L190.19 184.99ZM188.967 184.197L190.093 184.696L190.51 181.636C190.514 181.61 190.526 181.586 190.544 181.567C190.563 181.549 190.587 181.537 190.612 181.533L190.649 181.528C190.671 181.525 190.693 181.528 190.713 181.536C190.733 181.545 190.75 181.558 190.763 181.576L192.774 184.308L193.627 183.537L191.037 181.32C191.019 181.304 191.007 181.284 191 181.262L190.987 181.217C190.982 181.2 190.981 181.181 190.984 181.163C190.987 181.144 190.995 181.127 191.006 181.112C191.017 181.098 191.031 181.085 191.048 181.077C191.064 181.069 191.082 181.064 191.101 181.064L194.113 181.022L193.767 179.829L190.95 180.655C190.919 180.664 190.886 180.661 190.858 180.645C190.83 180.63 190.81 180.604 190.801 180.574L190.788 180.529C190.78 180.504 190.782 180.477 190.791 180.452L191.893 177.608L190.721 177.151L190.376 180.175C190.373 180.201 190.362 180.226 190.343 180.245C190.325 180.264 190.3 180.276 190.274 180.28L190.237 180.285C190.216 180.288 190.194 180.285 190.175 180.277C190.155 180.269 190.138 180.256 190.125 180.239L188.078 177.533L187.259 178.283L189.823 180.551C189.84 180.566 189.852 180.585 189.859 180.607L189.87 180.646C189.875 180.664 189.876 180.683 189.873 180.701C189.869 180.719 189.862 180.737 189.851 180.752C189.84 180.766 189.825 180.779 189.809 180.787C189.792 180.795 189.774 180.8 189.755 180.8L186.823 180.809L187.168 182.001L189.929 181.205C189.96 181.196 189.992 181.2 190.02 181.215C190.048 181.231 190.069 181.256 190.078 181.287L190.091 181.332C190.098 181.358 190.097 181.385 190.087 181.41L188.967 184.197L188.967 184.197Z" fill="#111111"/>
<path d="M187.086 128.002L178.413 98.0851C177.601 95.2821 174.795 93.3064 172.154 93.6776L116.309 101.527C113.663 101.899 112.183 104.477 112.995 107.28L121.668 137.196C122.482 140.005 125.281 141.976 127.928 141.604L183.772 133.755C186.413 133.383 187.9 130.81 187.086 128.002Z" fill="#FFD3A8"/>
<path d="M127.285 141.768C124.796 141.768 122.314 139.854 121.553 137.229L112.88 107.313C112.458 105.856 112.635 104.373 113.366 103.244C114.02 102.233 115.06 101.581 116.293 101.407L172.137 93.5585C174.833 93.1796 177.701 95.1949 178.529 98.0513L187.202 127.968C187.624 129.425 187.447 130.907 186.717 132.036C186.062 133.048 185.022 133.7 183.789 133.873L127.945 141.722C127.726 141.753 127.506 141.768 127.285 141.768ZM172.8 93.7525C172.59 93.7525 172.38 93.7667 172.171 93.7961L116.326 101.645C115.163 101.809 114.183 102.423 113.567 103.374C112.874 104.445 112.708 105.856 113.111 107.246L121.784 137.163C122.58 139.909 125.328 141.847 127.911 141.485L183.756 133.636C184.919 133.472 185.899 132.858 186.515 131.906C187.208 130.836 187.374 129.425 186.971 128.035L178.298 98.1182C177.567 95.5944 175.186 93.7525 172.8 93.7525Z" fill="#111111"/>
<path d="M181.643 136.93L172.97 107.014C172.157 104.211 169.352 102.235 166.71 102.606L110.866 110.455C108.219 110.827 106.739 113.405 107.552 116.208L116.225 146.125C117.039 148.934 119.838 150.904 122.484 150.532L178.329 142.683C180.97 142.312 182.457 139.739 181.643 136.93Z" fill="white"/>
<path d="M121.841 150.697C119.351 150.697 116.87 148.782 116.109 146.158L107.436 116.241C107.014 114.785 107.191 113.302 107.922 112.172C108.576 111.162 109.616 110.51 110.849 110.336L166.693 102.487C169.389 102.108 172.256 104.124 173.085 106.98L181.757 136.897C182.18 138.353 182.003 139.836 181.272 140.965C180.618 141.976 179.578 142.629 178.345 142.802L122.501 150.651C122.282 150.681 122.062 150.697 121.841 150.697H121.841ZM167.356 102.681C167.146 102.681 166.936 102.695 166.726 102.725L110.882 110.574C109.719 110.737 108.739 111.351 108.123 112.303C107.43 113.374 107.264 114.785 107.666 116.175L116.339 146.091C117.135 148.837 119.884 150.776 122.467 150.413L178.311 142.564C179.474 142.401 180.454 141.786 181.071 140.835C181.763 139.764 181.93 138.353 181.527 136.963L172.854 107.047C172.122 104.523 169.741 102.681 167.356 102.681H167.356Z" fill="#111111"/>
<path d="M124.524 115.669L113.859 117.168L116.19 125.208L126.855 123.709L124.524 115.669Z" fill="#FF6F1E"/>
<path d="M116.19 125.328C116.164 125.328 116.139 125.319 116.118 125.304C116.097 125.288 116.082 125.266 116.075 125.241L113.744 117.201C113.739 117.185 113.738 117.167 113.741 117.15C113.743 117.133 113.749 117.117 113.758 117.103C113.768 117.088 113.78 117.076 113.795 117.067C113.809 117.057 113.826 117.051 113.843 117.049L124.507 115.55C124.536 115.546 124.565 115.552 124.589 115.568C124.613 115.584 124.631 115.608 124.639 115.635L126.97 123.676C126.975 123.692 126.976 123.709 126.974 123.726C126.971 123.743 126.965 123.76 126.956 123.774C126.946 123.789 126.934 123.801 126.919 123.81C126.905 123.819 126.889 123.825 126.871 123.828L116.207 125.327C116.201 125.328 116.196 125.328 116.19 125.328ZM114.013 117.267L116.276 125.075L126.701 123.609L124.438 115.802L114.013 117.267Z" fill="#111111"/>
<path d="M130.091 137.823L117.924 139.533L118.894 142.879L131.061 141.169L130.091 137.823Z" fill="#FF6F1E"/>
<path d="M118.894 142.999C118.868 142.999 118.842 142.99 118.822 142.975C118.801 142.959 118.786 142.937 118.778 142.912L117.809 139.567C117.804 139.55 117.802 139.533 117.805 139.516C117.807 139.499 117.814 139.482 117.823 139.468C117.832 139.454 117.845 139.441 117.859 139.432C117.874 139.423 117.89 139.417 117.907 139.414L130.074 137.704C130.103 137.7 130.132 137.707 130.156 137.722C130.181 137.738 130.198 137.762 130.206 137.79L131.176 141.135C131.181 141.152 131.182 141.169 131.18 141.186C131.177 141.203 131.171 141.22 131.162 141.234C131.153 141.249 131.14 141.261 131.126 141.27C131.111 141.279 131.095 141.285 131.078 141.288L118.911 142.998C118.905 142.999 118.899 142.999 118.894 142.999ZM118.077 139.633L118.98 142.746L130.907 141.069L130.005 137.956L118.077 139.633Z" fill="#111111"/>
<path d="M145.527 135.653L133.359 137.363L134.329 140.709L146.497 138.999L145.527 135.653Z" fill="#FF6F1E"/>
<path d="M134.329 140.83C134.303 140.83 134.278 140.822 134.257 140.806C134.236 140.79 134.221 140.768 134.214 140.743L133.244 137.398C133.239 137.381 133.238 137.364 133.241 137.347C133.243 137.33 133.249 137.313 133.258 137.299C133.268 137.285 133.28 137.272 133.295 137.263C133.309 137.254 133.326 137.248 133.343 137.245L145.51 135.535C145.569 135.527 145.625 135.563 145.642 135.621L146.612 138.966C146.617 138.983 146.618 139 146.615 139.017C146.613 139.034 146.607 139.051 146.597 139.065C146.588 139.08 146.576 139.092 146.561 139.101C146.547 139.11 146.53 139.116 146.513 139.119L134.346 140.829C134.341 140.83 134.335 140.83 134.329 140.83H134.329ZM133.513 137.464L134.415 140.577L146.343 138.9L145.44 135.787L133.513 137.464Z" fill="#111111"/>
<path d="M160.963 133.484L148.801 135.194L149.771 138.54L161.933 136.83L160.963 133.484Z" fill="#FF6F1E"/>
<path d="M149.771 138.659C149.745 138.659 149.719 138.651 149.699 138.635C149.678 138.62 149.663 138.598 149.655 138.573L148.685 135.227C148.681 135.211 148.679 135.193 148.682 135.176C148.684 135.159 148.691 135.143 148.7 135.128C148.709 135.114 148.722 135.102 148.736 135.092C148.751 135.083 148.767 135.077 148.784 135.075L160.946 133.365C160.975 133.361 161.004 133.368 161.028 133.384C161.052 133.399 161.07 133.423 161.078 133.451L162.048 136.797C162.053 136.813 162.054 136.83 162.052 136.847C162.049 136.864 162.043 136.881 162.034 136.895C162.024 136.91 162.012 136.922 161.997 136.931C161.983 136.94 161.967 136.946 161.95 136.949L149.787 138.658C149.782 138.659 149.776 138.659 149.77 138.659H149.771ZM148.955 135.293L149.857 138.406L161.779 136.73L160.877 133.617L148.955 135.293Z" fill="#111111"/>
<path d="M176.404 131.313L164.236 133.024L165.206 136.369L177.374 134.659L176.404 131.313Z" fill="#FF6F1E"/>
<path d="M165.206 136.49C165.18 136.49 165.155 136.482 165.134 136.466C165.113 136.45 165.098 136.428 165.091 136.404L164.121 133.058C164.116 133.041 164.115 133.024 164.117 133.007C164.12 132.99 164.126 132.974 164.135 132.959C164.145 132.945 164.157 132.932 164.172 132.923C164.186 132.914 164.202 132.908 164.22 132.906L176.387 131.196C176.446 131.187 176.502 131.224 176.519 131.281L177.489 134.627C177.494 134.643 177.495 134.66 177.492 134.678C177.49 134.695 177.484 134.711 177.474 134.725C177.465 134.74 177.453 134.752 177.438 134.761C177.424 134.77 177.407 134.776 177.39 134.779L165.223 136.489C165.217 136.49 165.212 136.49 165.206 136.49ZM164.39 133.124L165.292 136.237L177.22 134.561L176.317 131.448L164.39 133.124Z" fill="#111111"/>
<path d="M173.683 109.476C163.307 108.605 158.982 93.683 158.982 93.683C164.644 92.8873 167.132 86.8779 167.132 86.8779C167.132 86.8779 172.773 91.7447 178.435 90.949C178.435 90.949 182.761 105.871 173.683 109.476M165.891 82.5977C165.891 82.5977 162.462 90.8881 154.654 91.9855C154.654 91.9855 155.12 93.5925 156.104 95.9336C157.003 98.0739 158.334 100.828 160.138 103.53C163.422 108.449 168.271 113.197 174.924 113.756C178.034 112.52 180.002 110.321 181.204 107.713C184.838 99.8296 181.472 88.2163 181.472 88.2163C173.67 89.3129 165.891 82.5977 165.891 82.5977Z" fill="#FF6F1E"/>
<path d="M174.924 113.876C174.92 113.876 174.917 113.876 174.913 113.876C169.28 113.402 164.275 109.943 160.039 103.597C158.525 101.329 157.163 98.7665 155.993 95.9799C155.018 93.6592 154.544 92.0349 154.539 92.0187C154.534 92.0022 154.533 91.9849 154.535 91.9678C154.538 91.9508 154.544 91.9345 154.553 91.9201C154.563 91.9056 154.575 91.8933 154.59 91.8841C154.604 91.8749 154.62 91.8688 154.637 91.8665C158.63 91.3054 161.445 88.8063 163.103 86.8088C164.906 84.6379 165.771 82.5722 165.78 82.5515C165.787 82.534 165.798 82.5185 165.813 82.5062C165.827 82.4939 165.844 82.4852 165.863 82.4808C165.881 82.4764 165.901 82.4765 165.919 82.481C165.937 82.4855 165.955 82.4943 165.969 82.5067C166.046 82.5735 173.798 89.1736 181.455 88.0973C181.514 88.089 181.571 88.1254 181.587 88.1827C181.621 88.2993 184.924 99.9296 181.313 107.763C179.971 110.673 177.837 112.727 174.968 113.868C174.954 113.873 174.939 113.876 174.924 113.876V113.876ZM154.809 92.0839C154.941 92.5137 155.404 93.9574 156.214 95.887C157.379 98.6596 158.733 101.209 160.238 103.464C164.425 109.736 169.36 113.157 174.905 113.634C177.702 112.515 179.784 110.506 181.095 107.662C184.492 100.294 181.699 89.5001 181.384 88.3491C180.831 88.4219 180.278 88.4554 179.73 88.4554C176.283 88.4555 172.992 87.1343 170.699 85.9241C168.213 84.6116 166.411 83.1826 165.936 82.7919C165.702 83.3083 164.837 85.095 163.292 86.9565C161.626 88.9659 158.807 91.4742 154.809 92.0839ZM173.683 109.596C173.679 109.596 173.676 109.596 173.673 109.595C168.263 109.142 164.524 104.843 162.339 101.316C159.98 97.5069 158.877 93.7539 158.866 93.7165C158.861 93.7 158.86 93.6826 158.863 93.6656C158.865 93.6485 158.871 93.6322 158.881 93.6178C158.89 93.6033 158.902 93.5911 158.917 93.5818C158.931 93.5726 158.948 93.5666 158.965 93.5642C164.492 92.7874 166.996 86.8914 167.021 86.8319C167.028 86.8144 167.039 86.7989 167.054 86.7867C167.068 86.7744 167.085 86.7657 167.104 86.7613C167.122 86.757 167.141 86.757 167.16 86.7615C167.178 86.766 167.195 86.7747 167.21 86.7871C167.266 86.8354 172.876 91.609 178.418 90.8302C178.477 90.8219 178.533 90.8582 178.55 90.9156C178.561 90.953 179.636 94.7113 179.583 98.8622C179.512 104.385 177.488 108.094 173.727 109.588C173.713 109.593 173.698 109.596 173.683 109.596L173.683 109.596ZM159.137 93.7811C159.353 94.4765 160.451 97.8131 162.546 101.194C164.698 104.666 168.372 108.896 173.665 109.354C178.27 107.508 179.295 102.63 179.343 98.859C179.39 95.1181 178.515 91.7009 178.347 91.0816C177.954 91.132 177.56 91.1555 177.169 91.1555C172.43 91.1559 167.967 87.7129 167.176 87.0707C166.747 87.996 164.21 92.985 159.137 93.7811Z" fill="#111111"/>
<path d="M167.131 86.8771C167.131 86.8771 164.643 92.8864 158.981 93.6822C158.981 93.6822 163.307 108.604 173.683 109.475C182.76 105.87 178.434 90.948 178.434 90.948C172.773 91.7438 167.131 86.877 167.131 86.877" fill="#FFD3A8"/>
<path d="M173.684 109.596L173.673 109.595C168.264 109.141 164.525 104.842 162.34 101.316C159.981 97.5066 158.878 93.7536 158.867 93.7162C158.862 93.6997 158.861 93.6823 158.864 93.6653C158.866 93.6483 158.872 93.632 158.882 93.6175C158.891 93.6031 158.903 93.5908 158.918 93.5816C158.932 93.5723 158.949 93.5663 158.966 93.5639C164.493 92.7871 166.997 86.8912 167.021 86.8317C167.029 86.8142 167.04 86.7987 167.055 86.7864C167.069 86.7741 167.086 86.7654 167.105 86.7611C167.123 86.7567 167.142 86.7567 167.161 86.7612C167.179 86.7657 167.196 86.7744 167.211 86.7868C167.267 86.8351 172.877 91.6087 178.419 90.8299C178.478 90.8216 178.534 90.858 178.551 90.9153C178.562 90.9527 179.636 94.711 179.584 98.8619C179.513 104.385 177.488 108.094 173.728 109.587C173.714 109.593 173.699 109.596 173.684 109.596L173.684 109.596ZM159.138 93.7809C159.354 94.4762 160.452 97.8128 162.547 101.194C164.698 104.665 168.372 108.896 173.665 109.354C178.269 107.509 179.295 102.633 179.344 98.8637C179.392 95.1225 178.516 91.7014 178.348 91.0813C177.955 91.1317 177.561 91.1553 177.17 91.1553C172.431 91.1556 167.968 87.7126 167.177 87.0704C166.748 87.9958 164.211 92.9847 159.138 93.7809Z" fill="#111111"/>
<path d="M109.503 73.3158C108.341 69.3099 104.343 66.4946 100.569 67.0251C96.7991 67.5549 94.6769 71.2304 95.8383 75.2363C96.6271 77.9571 99.1445 79.9054 99.9003 80.4384C99.901 80.4434 99.9014 80.4483 99.902 80.4534C99.9289 80.4703 99.9566 80.4857 99.9836 80.5022C100.026 80.5279 100.058 80.5473 100.08 80.561L100.058 80.5469C102.813 82.1808 106.744 81.9653 108.669 79.2211L108.668 79.2199C109.778 77.6798 110.15 75.5495 109.502 73.3157L109.503 73.3158Z" fill="#FF6F1E"/>
<path d="M103.834 81.696C102.519 81.696 101.174 81.3379 100.034 80.6717C100.028 80.669 100.021 80.6658 100.015 80.6621C99.9842 80.6425 99.9528 80.6233 99.9212 80.6043L99.8875 80.5843C99.8708 80.5745 99.854 80.5646 99.8377 80.5543C99.8209 80.5438 99.807 80.5293 99.7972 80.5121C98.9978 79.9432 96.5125 77.994 95.7225 75.2692C95.1241 73.2051 95.3747 71.1042 96.4099 69.5049C97.3362 68.074 98.8069 67.1509 100.551 66.9057C104.375 66.3682 108.442 69.2285 109.617 73.2817C110.25 75.4628 109.942 77.6467 108.775 79.2762C108.772 79.2808 108.77 79.2851 108.767 79.2894C107.849 80.5976 106.401 81.434 104.689 81.6443C104.405 81.6789 104.12 81.6962 103.834 81.696ZM100.109 80.4379C100.113 80.4395 100.116 80.4412 100.119 80.4431C102.734 81.9941 106.604 81.9383 108.561 79.1643C108.564 79.159 108.567 79.1538 108.571 79.149C109.703 77.5783 110 75.464 109.387 73.3484C108.244 69.4054 104.295 66.6217 100.585 67.1431C98.9102 67.3785 97.4992 68.2635 96.6113 69.6351C95.6139 71.176 95.374 73.2051 95.953 75.2022C96.7326 77.8913 99.2239 79.8142 99.9689 80.3396C99.9814 80.3484 99.9921 80.3595 100 80.3723L100.009 80.3775L100.046 80.3993C100.07 80.4142 100.092 80.4271 100.109 80.4381L100.109 80.4379Z" fill="#111111"/>
<path d="M101.532 70.3479C100.43 70.5028 99.8093 71.5801 100.148 72.7493C100.487 73.9186 101.659 74.744 102.761 74.5891C103.863 74.4342 104.483 73.357 104.144 72.1877C103.805 71.0185 102.639 70.1923 101.532 70.3479Z" fill="white"/>
<path d="M102.494 74.7282C101.424 74.7282 100.359 73.9079 100.033 72.7833C99.8513 72.1566 99.9286 71.5167 100.245 71.0279C100.53 70.5883 100.981 70.3048 101.515 70.2297C102.673 70.0669 103.904 70.9306 104.259 72.1549C104.441 72.7828 104.364 73.4231 104.048 73.9113C103.764 74.3501 103.313 74.6332 102.778 74.7085C102.683 74.7218 102.588 74.7282 102.494 74.7282ZM101.548 70.4672C101.084 70.5325 100.693 70.7778 100.446 71.1581C100.168 71.5886 100.101 72.1566 100.263 72.7164C100.586 73.8305 101.699 74.6176 102.744 74.4707C103.21 74.4053 103.602 74.1602 103.847 73.7808C104.125 73.3509 104.192 72.7826 104.029 72.2215C103.706 71.1072 102.593 70.3204 101.548 70.4672Z" fill="#111111"/>
<path d="M103.134 75.8757C100.925 76.1862 99.5885 78.1618 99.9017 80.4528C102.662 82.1891 106.707 82.0169 108.669 79.2206C107.676 77.0254 105.348 75.5644 103.134 75.8757Z" fill="white"/>
<path d="M103.845 81.6938C102.424 81.6938 100.993 81.2808 99.838 80.5544C99.8231 80.5451 99.8105 80.5326 99.801 80.5179C99.7916 80.5031 99.7854 80.4865 99.783 80.4691C99.4585 78.0956 100.892 76.0699 103.118 75.7571C105.36 75.4419 107.741 76.8778 108.778 79.1713C108.787 79.1903 108.79 79.2112 108.788 79.232C108.786 79.2527 108.779 79.2726 108.767 79.2897C107.588 80.9698 105.726 81.6938 103.845 81.6938ZM100.013 80.3811C102.588 81.9701 106.542 81.968 108.531 79.2077C107.522 77.0456 105.27 75.6967 103.151 75.9946C101.044 76.2908 99.7313 78.1311 100.013 80.3811Z" fill="#111111"/>
<path d="M168.283 59.4291L159.489 60.665C158.946 60.7413 158.644 61.2673 158.811 61.8438L158.884 62.0954C159.049 62.6661 159.623 63.0745 160.166 62.9981L168.959 61.7622C169.502 61.6859 169.803 61.1545 169.638 60.5838L169.565 60.3322C169.398 59.7558 168.826 59.3529 168.283 59.4292" fill="#FF6F1E"/>
<path d="M160.035 63.1268C159.483 63.1268 158.935 62.7058 158.768 62.1284L158.695 61.8768C158.6 61.551 158.64 61.2184 158.805 60.9643C158.954 60.7339 159.191 60.5854 159.472 60.5458L168.265 59.31C168.863 59.2261 169.497 59.6694 169.679 60.2984L169.752 60.55C169.846 60.8744 169.806 61.2068 169.641 61.4619C169.491 61.6927 169.255 61.8413 168.975 61.8806L160.182 63.1166C160.133 63.1234 160.084 63.1268 160.034 63.1268H160.035ZM168.416 59.5395C168.377 59.5395 168.338 59.5421 168.299 59.5477L159.505 60.7836C159.294 60.8132 159.117 60.9239 159.006 61.0948C158.88 61.2904 158.85 61.5511 158.925 61.8101L158.998 62.0617C159.149 62.5803 159.664 62.9471 160.148 62.8791L168.942 61.6431C169.152 61.6136 169.328 61.503 169.439 61.3317C169.566 61.135 169.597 60.8744 169.522 60.617L169.449 60.3654C169.311 59.8881 168.863 59.5395 168.416 59.5395Z" fill="#111111"/>
<path d="M169.511 63.6644L160.717 64.9004C160.174 64.9767 159.873 65.5081 160.04 66.0845L160.112 66.3307C160.279 66.9068 160.851 67.3098 161.394 67.2335L170.187 65.9976C170.73 65.9213 171.033 65.3953 170.866 64.8192L170.795 64.573C170.628 63.9965 170.054 63.5881 169.511 63.6644Z" fill="#FF6F1E"/>
<path d="M161.263 67.3623C160.712 67.3623 160.163 66.9413 159.996 66.3638L159.924 66.1177C159.829 65.7899 159.87 65.4552 160.036 65.1991C160.185 64.969 160.421 64.8206 160.7 64.7813L169.494 63.5453C170.091 63.4613 170.726 63.9073 170.909 64.5393L170.981 64.7855C171.075 65.1111 171.035 65.4435 170.87 65.6975C170.721 65.9279 170.484 66.0765 170.203 66.116L161.41 67.3519C161.361 67.3587 161.312 67.3622 161.263 67.3621L161.263 67.3623ZM169.527 63.783L160.733 65.0189C160.524 65.0483 160.348 65.1587 160.237 65.3296C160.109 65.5271 160.079 65.79 160.155 66.0508L160.226 66.297C160.377 66.8157 160.893 67.1824 161.376 67.1144L170.17 65.8784C170.381 65.8488 170.558 65.7382 170.669 65.5671C170.796 65.3715 170.825 65.111 170.75 64.8522L170.679 64.606C170.528 64.0841 170.011 63.7151 169.527 63.783Z" fill="#111111"/>
<path d="M170.74 67.9059L161.946 69.1418C161.403 69.2181 161.101 69.7437 161.268 70.3202L161.341 70.5718C161.506 71.1425 162.08 71.5513 162.623 71.4748L171.416 70.2389C171.959 70.1626 172.261 69.6309 172.095 69.0601L172.022 68.8086C171.855 68.2321 171.283 67.8295 170.74 67.9058" fill="#FF6F1E"/>
<path d="M162.493 71.6035C161.942 71.6035 161.393 71.1824 161.226 70.6049L161.153 70.3532C161.058 70.0274 161.098 69.695 161.263 69.441C161.412 69.2107 161.649 69.0621 161.93 69.0225L170.723 67.7866C171.321 67.7026 171.955 68.1459 172.138 68.7748L172.21 69.0265C172.305 69.3509 172.264 69.6835 172.099 69.9387C171.949 70.1694 171.713 70.318 171.433 70.3574L162.64 71.5933C162.591 71.6001 162.542 71.6035 162.493 71.6035ZM170.757 68.0242L161.963 69.2602C161.752 69.2898 161.575 69.4005 161.464 69.5714C161.338 69.767 161.308 70.0276 161.383 70.2863L161.456 70.538C161.607 71.0569 162.123 71.4238 162.606 71.3557L171.4 70.1197C171.61 70.0902 171.786 69.9796 171.897 69.8082C172.025 69.6115 172.055 69.3509 171.98 69.0932L171.907 68.8415C171.757 68.3229 171.241 67.9562 170.757 68.0242Z" fill="#111111"/>
</g>
<g clip-path="url(#clip3_880_19774)">
<path d="M86.4179 177.239C86.4822 177.37 86.0948 177.718 85.3224 178.185L47.2134 201.195L68.719 245.058L106.828 222.048C107.6 221.581 107.988 221.233 107.923 221.102L86.4179 177.239Z" fill="#FFD3A8"/>
<path d="M68.7467 245.209C68.7142 245.215 68.6806 245.21 68.6511 245.195C68.6215 245.18 68.5977 245.156 68.5832 245.126L47.0775 201.263C47.0607 201.229 47.0574 201.19 47.0681 201.153C47.0789 201.117 47.1029 201.086 47.1355 201.066L85.2444 178.055C86.088 177.546 86.2439 177.32 86.2697 177.271C86.262 177.235 86.2679 177.197 86.2862 177.165C86.3045 177.132 86.3339 177.108 86.369 177.096C86.4041 177.084 86.4424 177.085 86.4767 177.099C86.511 177.113 86.539 177.139 86.5553 177.173L108.061 221.036C108.112 221.139 108.23 221.38 106.907 222.179L68.7986 245.189C68.7827 245.199 68.7651 245.206 68.7467 245.209ZM47.4122 201.254L68.7835 244.843L106.75 221.918C107.568 221.424 107.739 221.197 107.773 221.139L86.4143 177.576C86.2546 177.746 85.9538 177.982 85.4018 178.316L47.4122 201.254Z" fill="#111111"/>
<path d="M83.17 218.35L80.1092 212.107C81.5291 209.938 81.7419 206.837 80.4334 204.169C78.6669 200.566 74.7931 199.119 71.7817 200.937C68.7704 202.755 67.7611 207.151 69.5276 210.754C70.8364 213.423 73.2998 214.91 75.7127 214.763L78.7729 221.005C79.4825 222.452 81.0516 223.036 82.2593 222.307C83.4694 221.577 83.8797 219.797 83.17 218.35Z" fill="#FF6F1E"/>
<path d="M81.5454 222.737C81.189 222.801 80.8172 222.78 80.452 222.673C79.6871 222.449 79.0252 221.865 78.6364 221.072L75.6203 214.92C73.1055 215.026 70.669 213.427 69.3909 210.821C67.5933 207.154 68.6305 202.662 71.703 200.807C73.0624 199.986 74.6622 199.784 76.2078 200.237C78.0396 200.775 79.6297 202.183 80.5702 204.102C81.8471 206.706 81.7325 209.842 80.2837 212.117L83.3066 218.283C84.0513 219.801 83.6166 221.665 82.3381 222.437C82.0945 222.585 81.8258 222.686 81.5454 222.737ZM73.6598 200.387C73.0318 200.499 72.4242 200.727 71.8606 201.067C68.9197 202.843 67.9345 207.158 69.6645 210.687C70.9054 213.218 73.276 214.758 75.7038 214.611C75.7338 214.61 75.7636 214.617 75.7896 214.632C75.8155 214.647 75.8364 214.669 75.8496 214.696L78.9098 220.938C79.2613 221.655 79.8547 222.181 80.5379 222.381C81.1039 222.547 81.6874 222.475 82.1808 222.177C83.328 221.484 83.7104 219.797 83.0334 218.417L79.9725 212.174C79.9609 212.15 79.9557 212.124 79.9573 212.098C79.959 212.071 79.9674 212.046 79.9819 212.024C81.4177 209.831 81.5413 206.774 80.2969 204.235C79.3939 202.394 77.8721 201.043 76.1221 200.529C75.3009 200.288 74.4635 200.243 73.6598 200.387Z" fill="#111111"/>
<path d="M76.5964 179.995C77.7556 179.295 79.3464 178.592 80.1458 178.426L85.9729 177.218C86.7738 177.052 86.4817 177.486 85.3226 178.186L47.2136 201.196C46.0522 201.898 44.4636 202.599 43.6627 202.765L37.8356 203.974C37.0361 204.139 37.326 203.707 38.4875 203.006L76.5964 179.995Z" fill="white"/>
<path d="M37.7924 204.137C37.5645 204.177 37.3197 204.186 37.2476 204.002C37.2071 203.899 37.1125 203.658 38.4092 202.875L76.5182 179.864C77.6889 179.158 79.3026 178.445 80.1155 178.277L85.9426 177.069C86.1892 177.018 86.4824 176.985 86.5624 177.188C86.6029 177.291 86.6976 177.533 85.4019 178.315L47.293 201.326C46.1224 202.033 44.508 202.745 43.6942 202.914L37.8671 204.122C37.8425 204.127 37.8176 204.132 37.7924 204.137ZM37.5868 203.856C37.6343 203.853 37.7043 203.845 37.8052 203.824L43.6323 202.616C44.418 202.453 45.9895 201.757 47.1354 201.066L85.2444 178.055C85.8918 177.664 86.1342 177.44 86.2235 177.335C86.1497 177.34 86.0765 177.35 86.0043 177.366L80.1772 178.575C79.3926 178.737 77.8216 179.433 76.6756 180.125L38.5666 203.135C37.9191 203.526 37.6764 203.751 37.5868 203.856Z" fill="#111111"/>
<path d="M46.5554 199.278C45.3743 199.991 45.0765 200.433 45.8912 200.264C46.7074 200.095 48.3265 199.379 49.5076 198.666C50.6888 197.953 50.9879 197.511 50.1716 197.68C49.357 197.849 47.7366 198.565 46.5554 199.278Z" fill="white"/>
<path d="M45.8458 200.428C45.6149 200.47 45.3669 200.478 45.2944 200.293C45.2534 200.189 45.1575 199.945 46.4762 199.148C47.6687 198.428 49.3125 197.703 50.1404 197.531C50.3903 197.479 50.6876 197.446 50.7682 197.652C50.8091 197.756 50.9051 198 49.5859 198.797C48.3933 199.517 46.7495 200.242 45.9216 200.414C45.8967 200.419 45.8713 200.424 45.8458 200.428ZM45.6305 200.148C45.679 200.146 45.7521 200.138 45.8596 200.116C46.6595 199.95 48.2604 199.241 49.4283 198.536C50.0983 198.132 50.3433 197.902 50.4316 197.797C50.3829 197.798 50.3097 197.807 50.2019 197.829C49.402 197.995 47.8013 198.703 46.6333 199.409C45.9635 199.813 45.7187 200.043 45.6305 200.148Z" fill="#111111"/>
<path d="M74.3014 182.525C73.1202 183.238 72.8226 183.68 73.6373 183.511C74.4536 183.342 76.0725 182.626 77.2536 181.913C78.437 181.198 78.7339 180.758 77.9176 180.927C77.1031 181.096 75.4848 181.811 74.3014 182.525Z" fill="white"/>
<path d="M73.5929 183.675C73.362 183.716 73.1139 183.724 73.0414 183.539C73.0005 183.435 72.9045 183.191 74.2232 182.395C75.4155 181.675 77.0593 180.949 77.8873 180.777C78.1375 180.725 78.4351 180.692 78.5157 180.898C78.5566 181.002 78.6526 181.246 77.3328 182.043C76.1405 182.763 74.4967 183.488 73.6686 183.66C73.6435 183.665 73.6182 183.67 73.5929 183.675ZM73.3778 183.394C73.4263 183.392 73.4995 183.384 73.6069 183.362C74.4068 183.196 76.0078 182.488 77.1754 181.782C77.8455 181.378 78.0907 181.148 78.1791 181.043C78.1303 181.045 78.0569 181.053 77.949 181.075C77.1491 181.241 75.5482 181.95 74.3804 182.655C73.7106 183.059 73.4657 183.289 73.3778 183.394Z" fill="#111111"/>
<path d="M47.2136 201.196C46.0523 201.898 44.4636 202.599 43.6627 202.765L37.8354 203.974C37.5686 204.029 37.4232 204.018 37.3909 203.952L58.8965 247.815C58.9287 247.881 59.0742 247.892 59.3411 247.837L65.1682 246.629C65.9691 246.462 67.5578 245.761 68.7191 245.059L47.2136 201.196Z" fill="#FFD3A8"/>
<path d="M59.2937 248.001C59.0662 248.042 58.841 248.047 58.76 247.882L37.2541 204.019C37.2377 203.986 37.234 203.947 37.2439 203.911C37.2537 203.876 37.2763 203.845 37.3074 203.824C37.3385 203.804 37.376 203.796 37.4128 203.801C37.4496 203.806 37.4831 203.825 37.5071 203.854C37.5339 203.858 37.614 203.864 37.8047 203.825L43.6318 202.616C44.4175 202.453 45.989 201.758 47.1349 201.066C47.1529 201.055 47.1731 201.048 47.194 201.045C47.215 201.043 47.2363 201.044 47.2566 201.05C47.2768 201.056 47.2956 201.066 47.3118 201.08C47.3279 201.093 47.341 201.11 47.3503 201.129L68.8559 244.992C68.8727 245.026 68.8761 245.066 68.8653 245.102C68.8546 245.139 68.8305 245.17 68.7979 245.189C67.6274 245.896 66.0129 246.609 65.1992 246.777L59.3721 247.986C59.346 247.991 59.3199 247.996 59.2937 248.001ZM59.0183 247.718C59.0499 247.722 59.1314 247.725 59.3102 247.688L65.1373 246.48C65.896 246.322 67.3874 245.668 68.5209 245.001L47.1495 201.411C45.9936 202.089 44.4746 202.752 43.6934 202.914L37.8663 204.123C37.7976 204.137 37.7277 204.149 37.6605 204.156L59.0183 247.718Z" fill="#111111"/>
<path d="M68.7524 170.11C65.6411 163.765 59.4913 160.526 53.8082 161.705L50.9426 162.299C56.6258 161.121 62.7757 164.359 65.8868 170.704L72.3979 183.984L75.2635 183.39L68.7524 170.11Z" fill="#FF6F1E"/>
<path d="M72.4246 184.134C72.392 184.14 72.3585 184.135 72.329 184.12C72.2995 184.105 72.2757 184.081 72.2612 184.051L65.7501 170.771C64.2545 167.721 62.026 165.315 59.3054 163.813C56.6786 162.363 53.7187 161.879 50.9733 162.448C50.8897 162.468 50.8105 162.412 50.7934 162.33C50.7764 162.248 50.8293 162.167 50.9116 162.15L53.7772 161.556C56.5956 160.971 59.6279 161.468 62.3182 162.953C65.0937 164.485 67.3658 166.936 68.8889 170.043L75.4 183.323C75.4102 183.344 75.4156 183.367 75.4156 183.39C75.4156 183.413 75.4103 183.436 75.4001 183.457C75.3898 183.478 75.375 183.496 75.3566 183.51C75.3383 183.524 75.3169 183.534 75.2942 183.539L72.4286 184.133L72.4246 184.134ZM53.5448 161.914C55.5548 161.962 57.5861 162.516 59.4528 163.547C62.2282 165.079 64.5004 167.531 66.0235 170.637L72.4825 183.811L75.0404 183.281L68.6157 170.177C67.1201 167.127 64.8916 164.721 62.171 163.219C59.5442 161.769 56.5847 161.285 53.8389 161.854L53.5448 161.914Z" fill="#111111"/>
<path d="M50.8712 156.697L48.0056 157.291C48.5987 157.092 49.1981 156.93 49.8018 156.805L52.6674 156.211C52.0637 156.336 51.4641 156.498 50.8712 156.697Z" fill="white"/>
<path d="M48.0319 157.441C47.9941 157.448 47.9552 157.44 47.9229 157.419C47.8907 157.398 47.8675 157.366 47.858 157.329C47.8485 157.292 47.8534 157.252 47.8717 157.219C47.89 157.185 47.9204 157.159 47.9568 157.147C48.5493 156.948 49.1596 156.783 49.7706 156.656L52.6359 156.062L52.6362 156.062C52.6558 156.058 52.6761 156.057 52.6958 156.061C52.7155 156.065 52.7343 156.072 52.7511 156.083C52.7679 156.094 52.7823 156.108 52.7934 156.125C52.8046 156.142 52.8123 156.16 52.8161 156.18C52.8243 156.22 52.8164 156.261 52.7943 156.294C52.7721 156.328 52.7375 156.352 52.698 156.36C52.0989 156.484 51.5004 156.646 50.9193 156.841C50.9135 156.843 50.9077 156.845 50.9017 156.846L48.0361 157.44L48.0319 157.441Z" fill="#111111"/>
<path d="M47.691 158.174C56.4984 152.856 67.9315 157.126 73.0981 167.664L79.542 180.807L75.2636 183.391L68.7525 170.111C64.9512 162.357 56.6137 159.243 50.1334 163.156C43.6532 167.069 41.4833 176.528 45.2846 184.281L51.7957 197.561L47.5152 200.145L41.0713 187.002C35.9046 176.465 38.8835 163.492 47.691 158.174Z" fill="#FFD3A8"/>
<path d="M47.5423 200.294C47.5097 200.3 47.4761 200.295 47.4466 200.28C47.4171 200.265 47.3933 200.241 47.3787 200.212L40.9348 187.068C35.7214 176.435 38.717 163.414 47.6128 158.043C51.5146 155.687 56.1241 155.112 60.5922 156.423C65.9108 157.984 70.5191 162.056 73.2354 167.596L79.6794 180.739C79.6962 180.774 79.6995 180.813 79.6888 180.849C79.678 180.886 79.654 180.917 79.6214 180.936L75.343 183.52C75.3249 183.531 75.3047 183.538 75.2838 183.54C75.2628 183.543 75.2416 183.541 75.2213 183.535C75.201 183.53 75.1822 183.519 75.1661 183.506C75.1499 183.492 75.1368 183.475 75.1276 183.456L68.6165 170.176C66.6516 166.169 63.3374 163.229 59.5237 162.109C56.3279 161.172 53.0212 161.589 50.2127 163.285C43.809 167.151 41.6597 176.54 45.4218 184.213L51.9329 197.493C51.9497 197.527 51.953 197.566 51.9423 197.603C51.9315 197.639 51.9075 197.67 51.8749 197.69L47.5944 200.274C47.5785 200.284 47.5608 200.291 47.5423 200.294ZM47.6914 158.173L47.7701 158.303C43.5461 160.854 40.5344 165.243 39.2896 170.664C38.0434 176.091 38.7249 181.869 41.2083 186.934L47.5792 199.929L51.5982 197.502L45.1484 184.347C41.3187 176.536 43.52 166.971 50.0553 163.025C52.9378 161.284 56.3309 160.856 59.6096 161.818C63.505 162.961 66.8876 165.959 68.8898 170.043L75.3277 183.173L79.3445 180.748L72.9618 167.73C70.2831 162.266 65.7431 158.251 60.5061 156.714C56.1209 155.427 51.5979 155.992 47.77 158.303L47.6914 158.173Z" fill="#111111"/>
<path d="M48.0054 157.291C46.8944 157.665 45.8279 158.16 44.8252 158.767C37.9194 162.937 34.597 171.813 35.9747 180.531C36.3613 182.984 37.1132 185.365 38.2053 187.596L44.6493 200.739L47.5149 200.145L41.071 187.002C39.9788 184.771 39.2269 182.39 38.8403 179.937C37.4625 171.219 40.785 162.343 47.6908 158.173C48.7197 157.552 49.7845 157.061 50.8709 156.696L48.0054 157.291Z" fill="white"/>
<path d="M44.6759 200.889C44.6433 200.895 44.6098 200.89 44.5803 200.875C44.5508 200.86 44.527 200.836 44.5125 200.806L38.0685 187.663C36.9692 185.419 36.2127 183.024 35.8243 180.556C34.3978 171.529 37.9832 162.721 44.7463 158.638C45.7588 158.025 46.8355 157.525 47.9569 157.147C47.9627 157.145 47.9685 157.144 47.9745 157.143L50.8401 156.548C50.92 156.531 50.9969 156.58 51.0179 156.657C51.0389 156.735 50.9958 156.816 50.9194 156.841C49.8314 157.207 48.7716 157.699 47.7695 158.304C41.111 162.324 37.5831 171.008 38.9905 179.914C39.3743 182.352 40.1216 184.719 41.2075 186.935L47.6515 200.078C47.6617 200.099 47.6671 200.122 47.6671 200.145C47.6671 200.168 47.6618 200.191 47.6516 200.212C47.6414 200.233 47.6265 200.251 47.6081 200.265C47.5898 200.28 47.5684 200.289 47.5457 200.294L44.68 200.888L44.6759 200.889ZM48.045 157.438C46.9601 157.803 45.9032 158.294 44.9036 158.898C38.2454 162.918 34.7175 171.603 36.1248 180.508C36.5087 182.946 37.256 185.313 38.3419 187.529L44.734 200.567L47.2919 200.036L40.9341 187.069C39.8348 184.825 39.0783 182.429 38.6897 179.961C37.2634 170.935 40.8488 162.127 47.6119 158.043C48.1261 157.733 48.6569 157.451 49.202 157.198L48.045 157.438Z" fill="#111111"/>
</g>
<defs>
<linearGradient id="paint0_linear_880_19774" x1="110.768" y1="62.5928" x2="179.863" y2="247.28" gradientUnits="userSpaceOnUse">
<stop offset="0.653" stop-color="#FF6F1E"/>
<stop offset="1" stop-color="#111111"/>
</linearGradient>
<linearGradient id="paint1_linear_880_19774" x1="225.81" y1="158.996" x2="269.79" y2="123.57" gradientUnits="userSpaceOnUse">
<stop offset="0.095" stop-color="#FF6F1E"/>
<stop offset="1" stop-color="#FFD3A8"/>
</linearGradient>
<clipPath id="clip0_880_19774">
<rect width="154.68" height="207.12" fill="white" transform="matrix(-0.999917 -0.0128997 -0.0128997 0.999917 231.729 47.8262)"/>
</clipPath>
<clipPath id="clip1_880_19774">
<rect width="57.72" height="54.96" fill="white" transform="translate(211.32 107.42)"/>
</clipPath>
<clipPath id="clip2_880_19774">
<rect width="119.88" height="171.12" fill="white" transform="translate(95.4004 59.2998)"/>
</clipPath>
<clipPath id="clip3_880_19774">
<rect width="66.72" height="91.68" fill="white" transform="translate(29.4092 160.211) rotate(-10.1423)"/>
</clipPath>
</defs>
</svg>
