<svg width="57" height="47" viewBox="0 0 57 47" fill="none" xmlns="http://www.w3.org/2000/svg">
<g clip-path="url(#clip0_1311_8779)">
<path d="M0.141835 44.7231C0.316216 44.1813 0.68544 43.7132 1.10206 43.3335C1.24234 43.2053 1.38924 43.0844 1.54216 42.9715L17.849 30.958C17.7686 31.5766 19.5807 34.0129 20.1893 34.1039C20.0446 34.2072 3.87394 46.13 3.73788 46.2204C3.54959 46.3489 3.35354 46.4658 3.15082 46.5703C1.74052 47.4205 -0.342495 46.7413 0.141835 44.7231Z" fill="#FFC069"/>
<path d="M1.86534 47.0012C1.43247 47.009 1.00818 46.8805 0.653112 46.634C0.0808182 46.2184 -0.125064 45.5342 0.0733649 44.7073C0.0737868 44.7057 0.074279 44.704 0.0748415 44.7023C0.233964 44.2076 0.563601 43.7297 1.0544 43.2824C1.19618 43.1529 1.34466 43.0308 1.49921 42.9166L17.8071 30.9024C17.8182 30.8942 17.8314 30.8895 17.8452 30.8888C17.859 30.888 17.8727 30.8914 17.8846 30.8983C17.8964 30.9053 17.906 30.9155 17.9121 30.9279C17.9182 30.9402 17.9204 30.954 17.9187 30.9676C17.8439 31.5426 19.6344 33.9509 20.1996 34.0354C20.2134 34.0375 20.2263 34.0436 20.2366 34.053C20.2469 34.0624 20.2541 34.0747 20.2574 34.0882C20.2607 34.1017 20.2598 34.1159 20.255 34.1289C20.2501 34.1419 20.2415 34.1532 20.2301 34.1614C20.1775 34.1989 17.9734 35.8233 15.183 37.8797C10.1402 41.5959 3.8644 46.221 3.77671 46.2792C3.58614 46.4092 3.38776 46.5274 3.18269 46.6333C2.7852 46.8725 2.32985 46.9996 1.86534 47.0012ZM0.209565 44.7424C0.0261132 45.5096 0.213081 46.1411 0.736084 46.5208C1.36688 46.9789 2.34496 46.9749 3.11435 46.5111C3.31581 46.4071 3.51071 46.291 3.69796 46.1634C3.80034 46.0941 10.331 41.2813 15.0994 37.7671C17.5582 35.9549 19.5617 34.4785 20.0404 34.1267C19.3535 33.7909 17.9098 31.8498 17.7851 31.0927L1.5838 43.0282C1.43321 43.1395 1.28854 43.2585 1.15038 43.3847C0.677722 43.8156 0.361516 44.2723 0.209565 44.7424Z" fill="#111111"/>
<path d="M20.189 34.1043C20.3404 33.9927 19.9393 33.1983 19.2932 32.3298C18.6471 31.4613 18.0007 30.8477 17.8493 30.9592C17.6979 31.0707 18.099 31.8652 18.7451 32.7337C19.3912 33.6021 20.0376 34.2158 20.189 34.1043Z" fill="white"/>
<path d="M20.1469 34.1867C20.0872 34.1828 20.0293 34.1641 19.9786 34.1323C19.5978 33.9207 18.8379 33.0509 18.2846 32.1934C18.0269 31.794 17.6199 31.0968 17.7897 30.9171C17.846 30.8572 17.9371 30.8611 18.0595 30.9295C18.4402 31.141 19.2002 32.0107 19.7536 32.8683C20.0113 33.2678 20.4183 33.9648 20.2484 34.1447C20.2354 34.1585 20.2197 34.1693 20.2022 34.1766C20.1847 34.1838 20.1659 34.1873 20.1469 34.1867ZM17.8928 31.0152C17.8913 31.015 17.8898 31.015 17.8883 31.0152C17.859 31.0624 17.9394 31.399 18.403 32.1175C18.9457 32.9587 19.6833 33.8076 20.0472 34.0098C20.123 34.0518 20.1494 34.0461 20.1498 34.0459C20.1791 33.9987 20.0987 33.6621 19.6352 32.9436C19.0923 32.1023 18.3547 31.2534 17.9909 31.0513C17.9615 31.0317 17.9279 31.0193 17.8928 31.0152Z" fill="#111111"/>
<path d="M30.1976 26.7302C30.3489 26.6187 29.9479 25.8243 29.3018 24.9558C28.6557 24.0873 28.0092 23.4737 27.8578 23.5852C27.7065 23.6967 28.1075 24.4912 28.7536 25.3596C29.3997 26.2281 30.0462 26.8417 30.1976 26.7302Z" fill="white"/>
<path d="M30.1554 26.8137C30.0957 26.8097 30.0379 26.791 29.9872 26.7593C29.6063 26.5477 28.8464 25.6779 28.2932 24.8204C28.0354 24.421 27.6284 23.7239 27.7983 23.544C27.8546 23.4842 27.9456 23.488 28.068 23.5564C28.4489 23.7681 29.2088 24.6378 29.7621 25.4953C30.0199 25.8948 30.4269 26.5919 30.257 26.7717C30.244 26.7854 30.2282 26.7963 30.2107 26.8035C30.1932 26.8108 30.1744 26.8142 30.1554 26.8137ZM27.9013 23.6421C27.8999 23.642 27.8984 23.642 27.8969 23.6421C27.8676 23.6894 27.9479 24.026 28.4116 24.7445C28.9542 25.5857 29.6919 26.4346 30.0557 26.6368C30.1316 26.6788 30.1579 26.673 30.1583 26.6729C30.1876 26.6257 30.1073 26.2891 29.6437 25.5705C29.101 24.7293 28.3634 23.8804 27.9995 23.6782C27.9701 23.6587 27.9364 23.6463 27.9013 23.6421Z" fill="#111111"/>
<path d="M17.8182 31.0663C17.814 31.0472 17.8146 31.0273 17.82 31.0085C17.8253 30.9897 17.8353 30.9724 17.849 30.9584L27.8576 23.585C27.6054 24.0398 29.7588 26.8806 30.1978 26.7309L20.1892 34.1043C20.1566 34.1284 20.0982 34.1191 20.013 34.0717C19.3263 33.6186 18.0282 31.9593 17.8182 31.0663Z" fill="white"/>
<path d="M20.1452 34.187C20.0861 34.1825 20.0289 34.1639 19.9786 34.1327C19.2533 33.6543 17.9579 31.9674 17.7497 31.0819C17.7487 31.0782 17.7482 31.0745 17.7479 31.0708C17.7422 31.0399 17.7446 31.0081 17.755 30.9785C17.7653 30.9489 17.7832 30.9224 17.807 30.9018L27.8156 23.5284C27.8285 23.5189 27.8443 23.5141 27.8603 23.5147C27.8763 23.5154 27.8916 23.5214 27.9037 23.5319C27.9158 23.5424 27.9239 23.5567 27.9267 23.5725C27.9295 23.5882 27.9268 23.6044 27.919 23.6184C27.8025 23.8283 28.4268 24.8979 29.2035 25.8192C29.8128 26.5418 30.1052 26.6881 30.1749 26.6643C30.1908 26.6589 30.2081 26.6594 30.2237 26.6655C30.2393 26.6717 30.2521 26.6832 30.2599 26.698C30.2677 26.7128 30.2699 26.7299 30.2662 26.7461C30.2624 26.7624 30.253 26.7768 30.2395 26.7868L20.2311 34.1604C20.2062 34.1784 20.176 34.1877 20.1452 34.187ZM17.8881 31.0561C18.0945 31.9172 19.3514 33.5511 20.0518 34.0132C20.1231 34.0527 20.1496 34.0468 20.1499 34.0466L30.0258 26.7704C29.7622 26.6527 29.3916 26.2601 29.096 25.9094C28.6471 25.377 27.8315 24.2569 27.7716 23.7352L17.8908 31.0144C17.888 31.0281 17.8871 31.0421 17.8881 31.0561Z" fill="#111111"/>
<path d="M34.7581 27.8612L36.4967 28.6494C34.5786 27.7798 32.8845 26.3543 31.6385 24.4086C27.9399 18.6319 29.5893 10.4511 35.3257 6.13903C39.1315 3.27816 43.7775 2.83783 47.554 4.54997L45.8154 3.76202C42.0386 2.04981 37.3929 2.49021 33.587 5.351C27.8507 9.66294 26.2012 17.8437 29.8999 23.6206C31.1458 25.5666 32.8399 26.9918 34.7581 27.8614" fill="white"/>
<path d="M36.4969 28.7188C36.4868 28.7188 36.4769 28.7167 36.4678 28.7125L34.7291 27.9243C32.7186 27.0034 31.0203 25.521 29.8407 23.6574C26.1277 17.8584 27.7894 9.62111 33.5449 5.29462C35.3914 3.90659 37.5212 3.03411 39.7038 2.77158C41.7974 2.51298 43.9221 2.83345 45.8447 3.6978L47.5834 4.48596C47.5918 4.48977 47.5993 4.49519 47.6056 4.50192C47.6119 4.50864 47.6169 4.51654 47.6201 4.52515C47.6233 4.53376 47.6248 4.54293 47.6245 4.55211C47.6242 4.5613 47.622 4.57034 47.6182 4.5787C47.6144 4.58707 47.6089 4.5946 47.6022 4.60088C47.5954 4.60715 47.5875 4.61203 47.5788 4.61525C47.5702 4.61847 47.561 4.61996 47.5517 4.61964C47.5425 4.61932 47.5334 4.61719 47.525 4.61338C45.626 3.75958 43.5273 3.44313 41.4594 3.69878C39.3013 3.9583 37.195 4.82147 35.3685 6.19446C29.6703 10.4778 28.0238 18.6315 31.6981 24.3705C32.8631 26.2112 34.5405 27.6755 36.5262 28.5852C36.5408 28.5918 36.5527 28.6032 36.5599 28.6175C36.5671 28.6318 36.5692 28.6481 36.5657 28.6638C36.5623 28.6794 36.5536 28.6934 36.5411 28.7034C36.5286 28.7134 36.5129 28.7189 36.4969 28.7188ZM41.1197 2.82651C40.652 2.82653 40.1848 2.85457 39.7205 2.91047C37.5624 3.17014 35.4564 4.0331 33.6296 5.4063C27.9313 9.68961 26.2848 17.8432 29.9593 23.5823C31.1243 25.423 32.8017 26.8873 34.7874 27.797L34.9253 27.8595C33.5828 26.9664 32.4431 25.8035 31.5793 24.4457C27.8667 18.6466 29.5281 10.4093 35.2835 6.08285C37.1301 4.69475 39.2598 3.82235 41.4425 3.55981C42.941 3.37711 44.4609 3.48735 45.9169 3.88434L45.7863 3.82514C44.3205 3.1639 42.7291 2.82336 41.1197 2.82651Z" fill="#111111"/>
<path d="M34.7581 27.8612L36.4967 28.6494C34.5786 27.7798 32.8845 26.3543 31.6385 24.4086C27.9399 18.6319 29.5893 10.4511 35.3257 6.13903C39.1315 3.27816 43.7775 2.83783 47.554 4.54997L45.8154 3.76202C42.0386 2.04981 37.3929 2.49021 33.587 5.351C27.8507 9.66294 26.2012 17.8437 29.8999 23.6206C31.1458 25.5666 32.8399 26.9918 34.7581 27.8614" fill="white"/>
<path d="M36.4969 28.7188C36.4868 28.7188 36.4769 28.7167 36.4678 28.7125L34.7291 27.9243C32.7186 27.0034 31.0203 25.521 29.8407 23.6574C26.1277 17.8584 27.7894 9.62111 33.5449 5.29462C35.3914 3.90659 37.5212 3.03411 39.7038 2.77158C41.7974 2.51298 43.9221 2.83345 45.8447 3.6978L47.5834 4.48596C47.5918 4.48977 47.5993 4.49519 47.6056 4.50192C47.6119 4.50864 47.6169 4.51654 47.6201 4.52515C47.6233 4.53376 47.6248 4.54293 47.6245 4.55211C47.6242 4.5613 47.622 4.57034 47.6182 4.5787C47.6144 4.58707 47.6089 4.5946 47.6022 4.60088C47.5954 4.60715 47.5875 4.61203 47.5788 4.61525C47.5702 4.61847 47.561 4.61996 47.5517 4.61964C47.5425 4.61932 47.5334 4.61719 47.525 4.61338C45.626 3.75958 43.5273 3.44313 41.4594 3.69878C39.3013 3.9583 37.195 4.82147 35.3685 6.19446C29.6703 10.4778 28.0238 18.6315 31.6981 24.3705C32.8631 26.2112 34.5405 27.6755 36.5262 28.5852C36.5408 28.5918 36.5527 28.6032 36.5599 28.6175C36.5671 28.6318 36.5692 28.6481 36.5657 28.6638C36.5623 28.6794 36.5536 28.6934 36.5411 28.7034C36.5286 28.7134 36.5129 28.7189 36.4969 28.7188ZM41.1197 2.82651C40.652 2.82653 40.1848 2.85457 39.7205 2.91047C37.5624 3.17014 35.4564 4.0331 33.6296 5.4063C27.9313 9.68961 26.2848 17.8432 29.9593 23.5823C31.1243 25.423 32.8017 26.8873 34.7874 27.797L34.9253 27.8595C33.5828 26.9664 32.4431 25.8035 31.5793 24.4457C27.8667 18.6466 29.5281 10.4093 35.2835 6.08285C37.1301 4.69475 39.2598 3.82235 41.4425 3.55981C42.941 3.37711 44.4609 3.48735 45.9169 3.88434L45.7863 3.82514C44.3205 3.1639 42.7291 2.82336 41.1197 2.82651Z" fill="#111111"/>
<path d="M33.587 5.35099C27.8507 9.66293 26.2012 17.8437 29.8999 23.6206C33.5986 29.3975 41.2462 30.5847 46.9825 26.2725C52.7221 21.9581 54.3739 13.7806 50.6752 8.00397C46.9765 2.22731 39.3266 1.03653 33.587 5.35099Z" fill="white"/>
<path d="M39.4747 28.9393C38.7793 28.9393 38.0853 28.8775 37.4009 28.7546C34.2701 28.1932 31.585 26.3832 29.8402 23.6581C26.1272 17.8591 27.7889 9.6218 33.5444 5.29524C36.4209 3.13312 39.8397 2.27093 43.1705 2.86841C46.3026 3.43001 48.9887 5.24045 50.734 7.96641C54.4458 13.7636 52.7817 22.0008 47.0244 26.3285C44.7445 28.0426 42.1231 28.9393 39.4747 28.9393ZM33.6294 5.40692C27.9312 9.69024 26.2847 17.8438 29.9591 23.583C31.6826 26.2747 34.3344 28.0625 37.4262 28.6169C40.7173 29.207 44.0961 28.3547 46.9402 26.2169C52.6403 21.9321 54.2892 13.7788 50.6158 8.0417C48.8919 5.34905 46.239 3.56078 43.1461 3.00612C39.8541 2.4157 36.4744 3.26872 33.6294 5.40692Z" fill="#111111"/>
<path d="M33.6199 30.3384L35.3586 31.1266C39.912 33.1907 45.5134 32.6596 50.0993 29.2123C57.018 24.0118 59.0099 14.149 54.5511 7.18525C53.0484 4.83826 51.0052 3.11933 48.6917 2.07032L46.953 1.28223C49.2664 2.33103 51.3097 4.04989 52.8125 6.39716C57.2713 13.361 55.2793 23.2237 48.3607 28.4243C43.7747 31.8714 38.1734 32.4026 33.6199 30.3384Z" fill="url(#paint0_linear_1311_8779)"/>
<path d="M41.0203 32.4085C39.0576 32.4124 37.117 31.9972 35.3294 31.191L33.5908 30.4028C33.5824 30.399 33.5747 30.3936 33.5683 30.3869C33.5619 30.3802 33.5569 30.3723 33.5536 30.3636C33.5504 30.355 33.5488 30.3458 33.5491 30.3366C33.5494 30.3273 33.5515 30.3182 33.5554 30.3098C33.5592 30.3014 33.5647 30.2938 33.5715 30.2875C33.5784 30.2813 33.5863 30.2764 33.5951 30.2732C33.6038 30.27 33.613 30.2685 33.6223 30.2689C33.6316 30.2693 33.6407 30.2715 33.6491 30.2754C35.9411 31.3057 38.4739 31.6876 40.9697 31.3793C43.5738 31.0662 46.1149 30.0253 48.3184 28.369C55.197 23.1981 57.1864 13.359 52.7532 6.43522C51.3097 4.18059 49.2937 2.42095 46.9241 1.3466C46.9071 1.33891 46.8939 1.32482 46.8874 1.30743C46.8808 1.29004 46.8815 1.27078 46.8892 1.25389C46.897 1.23699 46.9111 1.22384 46.9286 1.21733C46.9461 1.21082 46.9654 1.21149 46.9824 1.21918L48.7211 2.00741C51.1158 3.09302 53.1524 4.87073 54.6107 7.14823C56.7771 10.5318 57.5052 14.6962 56.661 18.8744C55.8168 23.0527 53.5015 26.743 50.1417 29.2685C47.9185 30.9397 45.3539 31.9904 42.7252 32.3061C42.1595 32.3742 41.5901 32.4084 41.0203 32.4085ZM35.4145 31.0752C37.6997 32.0962 40.2225 32.4738 42.7084 32.1668C45.3125 31.8536 47.8536 30.8127 50.0571 29.1564C56.9356 23.9859 58.9251 14.1465 54.4919 7.22268C53.0522 4.97414 51.0433 3.21785 48.6816 2.14274C50.3679 3.23082 51.7974 4.66929 52.8719 6.3593C55.0383 9.74286 55.7664 13.9073 54.9222 18.0856C54.0779 22.2639 51.7628 25.9545 48.4031 28.48C46.1799 30.1516 43.6153 31.2019 40.9867 31.5179C39.1183 31.7458 37.2229 31.5952 35.4145 31.0752Z" fill="#111111"/>
<path d="M52.8124 6.39689C57.2713 13.3608 55.2792 23.2235 48.3607 28.424C41.4455 33.622 32.2217 32.19 27.7629 25.2263C23.302 18.259 25.2939 8.39627 32.2091 3.19807C39.1277 -2.00237 48.3515 -0.570327 52.8124 6.39689ZM46.9826 26.2719C52.7222 21.9575 54.374 13.78 50.6753 8.00331C46.9766 2.22658 39.3267 1.03594 33.5871 5.3504C27.8508 9.66233 26.2013 17.8431 29.9 23.62C33.5987 29.3969 41.2463 30.5841 46.9826 26.2719Z" fill="#FFE7BA"/>
<path d="M39.2832 31.6219C38.4541 31.6219 37.6266 31.5482 36.8106 31.4017C33.0392 30.7254 29.8049 28.5456 27.7037 25.2639C25.5365 21.8791 24.8075 17.714 25.6512 13.5351C26.4948 9.35775 28.8082 5.66688 32.1669 3.14216C33.8594 1.85502 35.7991 0.926971 37.8663 0.415365C39.7959 -0.0629517 41.8052 -0.12998 43.7627 0.218675C47.5347 0.895091 50.7696 3.07576 52.8719 6.35904C55.0382 9.74259 55.7664 13.907 54.9222 18.0853C54.0779 22.2636 51.7628 25.9543 48.4031 28.4798C46.7113 29.7663 44.7722 30.6939 42.7058 31.2051C41.5859 31.4803 40.4368 31.6203 39.2832 31.6219ZM41.2904 0.138767C40.1477 0.140274 39.0093 0.278861 37.8999 0.55153C35.8512 1.05862 33.9289 1.97843 32.2516 3.25412C25.3748 8.42328 23.3879 18.2631 27.8223 25.1887C29.9022 28.4371 33.103 30.5947 36.8356 31.264C38.7732 31.6091 40.7623 31.5428 42.6724 31.0695C44.7203 30.5629 46.642 29.6436 48.3187 28.3686C55.1972 23.1977 57.1867 13.3586 52.7535 6.43475C50.6724 3.18457 47.4706 1.02608 43.7377 0.356659C42.9301 0.211684 42.1111 0.138764 41.2904 0.138767ZM39.4749 28.9387C38.7795 28.9387 38.0855 28.8768 37.4011 28.754C34.2704 28.1926 31.5852 26.3826 29.8405 23.6575C26.1275 17.8584 27.7892 9.62119 33.5446 5.29463C36.4212 3.13251 39.8399 2.27046 43.1708 2.8678C46.3028 3.4294 48.9888 5.23984 50.7342 7.9658C54.446 13.763 52.7819 22.0002 47.0247 26.3279C44.7448 28.042 42.1234 28.9387 39.4749 28.9387ZM41.0971 2.82302C38.4784 2.82302 35.8858 3.71012 33.6297 5.40631C27.9313 9.68963 26.2848 17.8432 29.9594 23.5823C31.6828 26.274 34.3347 28.0619 37.4264 28.6163C40.7175 29.2063 44.0963 28.3541 46.9404 26.2162C52.6405 21.9315 54.2894 13.7782 50.6161 8.04109C48.8921 5.34844 46.2392 3.56017 43.1463 3.00551C42.4701 2.88414 41.7845 2.82307 41.0974 2.82302H41.0971Z" fill="#111111"/>
</g>
<defs>
<linearGradient id="paint0_linear_1311_8779" x1="53.0724" y1="5.9593" x2="42.5128" y2="31.4884" gradientUnits="userSpaceOnUse">
<stop offset="0.326" stop-color="#FFC16A"/>
<stop offset="0.769" stop-color="#FFE3B2"/>
<stop offset="1" stop-color="#FFC16A"/>
</linearGradient>
<clipPath id="clip0_1311_8779">
<rect width="57" height="47" fill="white"/>
</clipPath>
</defs>
</svg>
