<svg width="62" height="49" viewBox="0 0 62 49" fill="none" xmlns="http://www.w3.org/2000/svg">
<g clip-path="url(#clip0_880_17057)">
<path d="M33.2008 13.1135L29.635 23.3358L19.0762 16.2135L22.6419 5.99121L33.2008 13.1135Z" fill="#FFD3A8"/>
<path d="M29.6365 23.364C29.6308 23.364 29.6252 23.3623 29.6204 23.3591L19.0615 16.2368C19.0562 16.2332 19.0523 16.228 19.0503 16.222C19.0483 16.216 19.0483 16.2094 19.0504 16.2034L22.6162 5.98121C22.6176 5.97705 22.62 5.97328 22.6232 5.97019C22.6263 5.9671 22.6301 5.96477 22.6343 5.96338C22.6385 5.962 22.6429 5.96158 22.6473 5.96218C22.6516 5.96278 22.6558 5.96436 22.6595 5.96682L33.2183 13.0891C33.2236 13.0927 33.2275 13.0979 33.2295 13.1039C33.2315 13.1099 33.2315 13.1164 33.2294 13.1224L29.6636 23.3447C29.6617 23.3503 29.658 23.3552 29.6531 23.3587C29.6483 23.3621 29.6424 23.364 29.6365 23.364ZM19.1121 16.2014L29.6216 23.2905L33.1678 13.1244L22.6582 6.03539L19.112 16.2014H19.1121Z" fill="#111111"/>
<path d="M26.8908 14.4977L25.7664 13.7393L25.3867 14.8278L26.5111 15.5862L26.8908 14.4977Z" fill="white"/>
<path d="M26.5125 15.6154C26.5068 15.6154 26.5012 15.6137 26.4964 15.6105L25.3721 14.8521C25.3668 14.8485 25.3628 14.8433 25.3608 14.8373C25.3588 14.8313 25.3589 14.8248 25.361 14.8188L25.7407 13.7302C25.7421 13.7261 25.7445 13.7223 25.7477 13.7192C25.7508 13.7161 25.7546 13.7138 25.7588 13.7124C25.763 13.711 25.7674 13.7106 25.7718 13.7112C25.7761 13.7118 25.7803 13.7134 25.7839 13.7158L26.9083 14.4743C26.9136 14.4778 26.9175 14.483 26.9195 14.489C26.9215 14.4951 26.9215 14.5016 26.9194 14.5076L26.5397 15.5961C26.5377 15.6017 26.5341 15.6066 26.5292 15.6101C26.5243 15.6136 26.5185 15.6154 26.5125 15.6154ZM25.4226 14.8167L26.4977 15.5419L26.8578 14.5096L25.7827 13.7844L25.4226 14.8167H25.4226Z" fill="#111111"/>
<path d="M33.2025 13.1133L40.7682 7.99121L37.2025 18.2135L29.6367 23.3356L33.2025 13.1133Z" fill="#FF6F1E"/>
<path d="M29.6362 23.3638C29.6316 23.3638 29.6271 23.3627 29.623 23.3606C29.6189 23.3585 29.6154 23.3554 29.6127 23.3517C29.6101 23.3479 29.6084 23.3436 29.6077 23.3391C29.6071 23.3345 29.6075 23.3299 29.609 23.3256L33.1748 13.1033C33.1768 13.0975 33.1807 13.0925 33.1858 13.089L40.7516 7.96684C40.7566 7.96346 40.7625 7.96174 40.7686 7.96193C40.7746 7.96212 40.7804 7.9642 40.7852 7.96788C40.79 7.97156 40.7935 7.97666 40.7952 7.98245C40.797 7.98824 40.7968 7.99442 40.7948 8.00013L37.2291 18.2224C37.227 18.2282 37.2232 18.2333 37.218 18.2367L29.6523 23.3589C29.6476 23.3621 29.6419 23.3638 29.6362 23.3638ZM33.226 13.1313L29.6919 23.2625L37.1779 18.1944L40.7119 8.06311L33.226 13.1313Z" fill="#111111"/>
<path d="M35.415 15.9352L35.7947 14.8467L34.9891 15.3921L34.6094 16.4807L35.415 15.9352Z" fill="white"/>
<path d="M34.6089 16.5089C34.6043 16.5089 34.5997 16.5078 34.5956 16.5057C34.5916 16.5036 34.5881 16.5005 34.5854 16.4968C34.5827 16.493 34.581 16.4887 34.5804 16.4842C34.5797 16.4796 34.5802 16.475 34.5817 16.4706L34.9614 15.3821C34.9634 15.3763 34.9673 15.3713 34.9724 15.3678L35.7781 14.8223C35.7831 14.8189 35.789 14.8172 35.7951 14.8174C35.8011 14.8176 35.807 14.8197 35.8117 14.8233C35.8165 14.827 35.8201 14.8321 35.8218 14.8379C35.8235 14.8437 35.8234 14.8499 35.8213 14.8556L35.4416 15.9442C35.4396 15.95 35.4357 15.955 35.4306 15.9585L34.625 16.5039C34.6202 16.5072 34.6146 16.5089 34.6089 16.5089ZM35.0126 15.4101L34.6646 16.4076L35.3905 15.9162L35.7385 14.9187L35.0126 15.4101Z" fill="#111111"/>
<path d="M22.6426 5.9903L30.2083 0.868164L40.7672 7.99046L33.2015 13.1126L22.6426 5.9903Z" fill="white"/>
<path d="M33.2009 13.1418C33.1952 13.1418 33.1896 13.1401 33.1848 13.1369L22.626 6.0146C22.6221 6.01197 22.6189 6.00842 22.6167 6.00427C22.6144 6.00011 22.6133 5.99548 22.6133 5.99077C22.6133 5.98607 22.6144 5.98143 22.6166 5.97727C22.6188 5.97312 22.622 5.96956 22.6259 5.96692L30.1916 0.844784C30.1964 0.841565 30.202 0.839844 30.2078 0.839844C30.2135 0.839844 30.2191 0.841565 30.2239 0.844784L40.7827 7.96708C40.7866 7.96971 40.7898 7.97326 40.7921 7.97741C40.7943 7.98157 40.7954 7.9862 40.7954 7.9909C40.7954 7.99561 40.7943 8.00025 40.7921 8.0044C40.7899 8.00856 40.7867 8.01212 40.7828 8.01476L33.2171 13.1369C33.2123 13.1401 33.2067 13.1418 33.2009 13.1418ZM22.6934 5.99069L33.2009 13.0783L40.7152 7.99093L30.2078 0.903337L22.6934 5.99072V5.99069Z" fill="#111111"/>
<path d="M34.4949 5.10322C34.4949 5.10322 31.6738 5.01515 29.6144 3.62598C29.6144 3.62598 25.932 6.11901 28.9176 8.87912C33.0074 10.8917 36.6898 8.39861 36.6898 8.39861C34.6304 7.00944 34.4949 5.10322 34.4949 5.10322Z" fill="#FF6F1E"/>
<path d="M32.266 9.69224C32.1286 9.69224 31.9917 9.68858 31.8554 9.68128C30.8336 9.62655 29.8408 9.36518 28.9044 8.90439C28.9019 8.90315 28.8996 8.90157 28.8976 8.8997C28.056 8.12168 27.6624 7.28946 27.7277 6.42617C27.8505 4.8023 29.5803 3.61344 29.5977 3.60161C29.6025 3.5984 29.6081 3.59668 29.6138 3.59668C29.6196 3.59668 29.6252 3.5984 29.6299 3.60161C31.6586 4.97004 34.4671 5.07308 34.4953 5.07397C34.5024 5.07419 34.5092 5.07705 34.5143 5.08198C34.5194 5.08691 34.5226 5.09357 34.5231 5.10067C34.5234 5.10542 34.5604 5.5816 34.8469 6.22021C35.1113 6.80931 35.6483 7.66118 36.7054 8.37425C36.7093 8.37688 36.7125 8.38043 36.7147 8.38458C36.7169 8.38873 36.7181 8.39337 36.7181 8.39807C36.7181 8.40278 36.717 8.40741 36.7147 8.41157C36.7125 8.41573 36.7094 8.41929 36.7055 8.42193C36.6962 8.4282 35.7643 9.05222 34.3441 9.42091C33.6492 9.60135 32.9519 9.69227 32.266 9.69227L32.266 9.69224ZM28.9336 8.85461C31.0369 9.88821 33.0288 9.70288 34.3296 9.36521C35.5847 9.03942 36.4542 8.51391 36.6373 8.39753C35.5915 7.68115 35.0576 6.83117 34.7933 6.24122C34.5411 5.67831 34.48 5.23866 34.4682 5.13039C34.1821 5.1169 31.552 4.95833 29.6141 3.66034C29.4403 3.7836 27.8994 4.91736 27.785 6.4308C27.7213 7.27456 28.1077 8.09 28.9336 8.85461Z" fill="#111111"/>
<path d="M33.6871 5.64846C33.6871 5.64846 31.5623 5.56217 29.9905 4.50195C29.9905 4.50195 27.2571 6.35255 29.5471 8.45129C32.657 9.99497 35.3905 8.14437 35.3905 8.14437C33.8187 7.08416 33.6871 5.64846 33.6871 5.64846Z" fill="#FFD3A8"/>
<path d="M32.14 9.09295C31.3598 9.09295 30.4642 8.93931 29.5338 8.47751C29.5314 8.47631 29.5292 8.47478 29.5272 8.47296C28.8688 7.8696 28.5597 7.22728 28.6085 6.56378C28.6972 5.35616 29.9611 4.4872 29.9739 4.47857C29.9787 4.47535 29.9843 4.47363 29.99 4.47363C29.9958 4.47363 30.0014 4.47535 30.0061 4.47857C31.5528 5.52186 33.6666 5.61932 33.6878 5.62021C33.6948 5.62049 33.7014 5.62329 33.7064 5.62809C33.7115 5.63289 33.7146 5.63937 33.7153 5.64631C33.7166 5.66055 33.8648 7.08134 35.4061 8.12101C35.41 8.12364 35.4132 8.12719 35.4154 8.13134C35.4176 8.1355 35.4188 8.14013 35.4188 8.14484C35.4188 8.14954 35.4176 8.15418 35.4154 8.15834C35.4132 8.16249 35.41 8.16605 35.4061 8.16869C35.3993 8.17335 34.7063 8.63728 33.6416 8.90513C33.2251 9.00989 32.7137 9.09298 32.1401 9.09298L32.14 9.09295ZM29.5631 8.42779C31.1595 9.21895 32.653 9.09402 33.6253 8.84982C34.5444 8.61895 35.1835 8.24099 35.3378 8.14417C33.918 7.16737 33.688 5.87116 33.661 5.67637C33.4202 5.6623 31.4587 5.51887 29.9904 4.53729C29.845 4.64122 28.747 5.4613 28.6658 6.56827C28.6186 7.21226 28.9205 7.8378 29.5631 8.42779Z" fill="#111111"/>
<path d="M19.5273 22.5843L26.5115 15.5866L26.8912 14.498L20.0849 21.0828L19.5273 22.5843Z" fill="#FF6F1E"/>
<path d="M19.5268 22.6135C19.5222 22.6135 19.5176 22.6124 19.5135 22.6103C19.5094 22.6081 19.5058 22.605 19.5032 22.6012C19.5005 22.5974 19.4989 22.593 19.4983 22.5884C19.4977 22.5838 19.4982 22.5791 19.4998 22.5748L20.0574 21.0732C20.0588 21.0692 20.0612 21.0655 20.0643 21.0625L26.8707 14.4778C26.8753 14.4733 26.8813 14.4705 26.8878 14.4699C26.8942 14.4692 26.9007 14.4708 26.9062 14.4743C26.9116 14.4777 26.9158 14.483 26.9179 14.4891C26.92 14.4952 26.92 14.5019 26.9178 14.508L26.5381 15.5965C26.5367 15.6006 26.5344 15.6043 26.5313 15.6074L19.5472 22.6051C19.5445 22.6078 19.5413 22.6099 19.5378 22.6113C19.5343 22.6128 19.5306 22.6135 19.5268 22.6135ZM20.109 21.0993L19.5998 22.4709L26.486 15.5714L26.8236 14.6034L20.109 21.0993Z" fill="#111111"/>
<path d="M25.7665 13.7393L26.8909 14.4977L20.0846 21.0824L18.9473 20.2561L25.7665 13.7393Z" fill="white"/>
<path d="M20.086 21.1116C20.0799 21.1116 20.074 21.1097 20.0691 21.1061L18.9318 20.2798C18.9284 20.2773 18.9256 20.2741 18.9235 20.2704C18.9215 20.2667 18.9203 20.2626 18.92 20.2584C18.9197 20.2542 18.9204 20.25 18.9219 20.2461C18.9234 20.2422 18.9258 20.2386 18.9288 20.2357L25.7481 13.7189C25.7529 13.7144 25.759 13.7116 25.7656 13.711C25.7721 13.7105 25.7787 13.7122 25.7841 13.7159L26.9085 14.4743C26.912 14.4767 26.915 14.4798 26.9172 14.4835C26.9193 14.4872 26.9207 14.4913 26.921 14.4956C26.9214 14.4999 26.9208 14.5042 26.9193 14.5082C26.9178 14.5122 26.9155 14.5158 26.9124 14.5188L20.106 21.1035C20.1007 21.1087 20.0935 21.1116 20.086 21.1116L20.086 21.1116ZM18.9935 20.2535L20.0834 21.0453L26.8468 14.5021L25.7711 13.7765L18.9935 20.2535Z" fill="#111111"/>
<path d="M27.1953 18.2492L21.9595 32.3501L11.2793 24.5902L16.5151 10.4893L27.1953 18.2492Z" fill="white"/>
<path d="M21.959 32.3793C21.9529 32.3793 21.947 32.3774 21.9421 32.3738L11.2619 24.6139C11.2568 24.6103 11.2531 24.605 11.2512 24.599C11.2494 24.593 11.2496 24.5866 11.2518 24.5807L16.4876 10.4797C16.4891 10.4756 16.4916 10.4718 16.4948 10.4688C16.4981 10.4657 16.5019 10.4635 16.5062 10.4622C16.5105 10.4609 16.515 10.4606 16.5193 10.4613C16.5237 10.4621 16.5279 10.4639 16.5315 10.4665L27.2117 18.2264C27.2168 18.2301 27.2205 18.2353 27.2223 18.2413C27.2241 18.2473 27.2239 18.2538 27.2218 18.2596L21.986 32.3606C21.984 32.3661 21.9803 32.3708 21.9755 32.3742C21.9706 32.3776 21.9649 32.3794 21.959 32.3793ZM11.3134 24.5802L21.9453 32.305L27.1602 18.2601L16.5283 10.5353L11.3134 24.5802Z" fill="#111111"/>
<path d="M20.0854 21.0832L18.9482 20.2568L18.3906 21.7584L19.5279 22.5847L20.0854 21.0832Z" fill="white"/>
<path d="M19.5274 22.613C19.5213 22.613 19.5154 22.611 19.5105 22.6075L18.3732 21.7811C18.3681 21.7775 18.3644 21.7722 18.3626 21.7662C18.3607 21.7602 18.3609 21.7538 18.3631 21.7479L18.9207 20.2463C18.9222 20.2421 18.9247 20.2384 18.9279 20.2354C18.9312 20.2323 18.935 20.2301 18.9393 20.2288C18.9436 20.2275 18.948 20.2272 18.9524 20.2279C18.9568 20.2287 18.961 20.2304 18.9645 20.2331L20.1018 21.0594C20.1069 21.0631 20.1106 21.0683 20.1125 21.0743C20.1143 21.0803 20.1141 21.0868 20.1119 21.0926L19.5544 22.5942C19.5524 22.5997 19.5487 22.6045 19.5439 22.6078C19.539 22.6112 19.5333 22.613 19.5274 22.613ZM18.4247 21.7474L19.5136 22.5386L20.0503 21.0931L18.9614 20.3019L18.4247 21.7474Z" fill="#111111"/>
<path d="M16.3222 19.0822L11.0865 33.1831L0.40625 25.4232L5.64203 11.3223L16.3222 19.0822Z" fill="#FFD3A8"/>
<path d="M11.086 33.2114C11.0799 33.2114 11.074 33.2094 11.0691 33.2059L0.388823 25.4459C0.38374 25.4423 0.380004 25.437 0.378185 25.431C0.376367 25.425 0.376566 25.4186 0.378753 25.4127L5.61453 11.3117C5.61606 11.3076 5.61855 11.3038 5.62178 11.3008C5.62502 11.2977 5.62892 11.2955 5.63317 11.2942C5.63742 11.2929 5.64191 11.2926 5.64629 11.2934C5.65067 11.2941 5.65482 11.2959 5.65841 11.2985L16.3386 19.0584C16.3437 19.0621 16.3475 19.0673 16.3493 19.0733C16.3511 19.0793 16.3509 19.0858 16.3487 19.0916L11.1129 33.1926C11.1109 33.1981 11.1072 33.2028 11.1024 33.2062C11.0976 33.2096 11.0918 33.2113 11.086 33.2113V33.2114ZM0.440324 25.4122L11.0722 33.137L16.2871 19.0921L5.65527 11.3673L0.440324 25.4122Z" fill="#111111"/>
<path d="M12.4091 22.5558C12.4045 22.5558 12.3999 22.5547 12.3958 22.5526C12.3916 22.5504 12.3881 22.5473 12.3855 22.5435C12.3828 22.5397 12.3811 22.5353 12.3805 22.5307C12.38 22.5261 12.3805 22.5214 12.3821 22.517L13.185 20.3536L12.3801 19.7638C12.375 19.7601 12.3713 19.7549 12.3695 19.7489C12.3677 19.7429 12.3679 19.7365 12.3701 19.7306L13.3963 16.9653C13.3976 16.9617 13.3996 16.9585 13.4022 16.9557C13.4048 16.9529 13.4079 16.9507 13.4113 16.9491C13.4147 16.9475 13.4185 16.9467 13.4222 16.9465C13.426 16.9464 13.4298 16.947 13.4333 16.9483C13.4369 16.9496 13.4401 16.9516 13.4429 16.9542C13.4457 16.9568 13.4479 16.9599 13.4495 16.9633C13.451 16.9667 13.4519 16.9704 13.4521 16.9742C13.4522 16.978 13.4516 16.9817 13.4503 16.9853L12.4316 19.7303L13.2365 20.32C13.2415 20.3237 13.2452 20.329 13.247 20.335C13.2488 20.341 13.2486 20.3474 13.2465 20.3532L12.4361 22.537C12.434 22.5425 12.4303 22.5473 12.4255 22.5506C12.4207 22.554 12.4149 22.5558 12.4091 22.5558L12.4091 22.5558ZM9.57189 18.4239C9.56725 18.4239 9.56268 18.4227 9.55856 18.4206C9.55445 18.4184 9.55091 18.4153 9.54826 18.4115C9.54561 18.4077 9.54393 18.4033 9.54335 18.3987C9.54277 18.3941 9.54331 18.3894 9.54493 18.3851L10.7783 15.0632C10.7796 15.0596 10.7816 15.0563 10.7841 15.0534C10.7867 15.0506 10.7898 15.0483 10.7933 15.0467C10.7967 15.0451 10.8005 15.0441 10.8043 15.044C10.8081 15.0438 10.8119 15.0444 10.8155 15.0457C10.8191 15.0471 10.8224 15.0491 10.8252 15.0517C10.828 15.0543 10.8302 15.0575 10.8318 15.061C10.8333 15.0644 10.8342 15.0682 10.8343 15.072C10.8344 15.0759 10.8337 15.0797 10.8323 15.0832L9.59888 18.4051C9.59456 18.4167 9.58357 18.4238 9.57189 18.4238V18.4239ZM7.02862 30.2466C7.02398 30.2466 7.01941 30.2455 7.01529 30.2434C7.01118 30.2412 7.00765 30.2381 7.005 30.2343C7.00235 30.2305 7.00066 30.2261 7.00008 30.2215C6.9995 30.2169 7.00004 30.2122 7.00166 30.2078L9.38033 23.8016C9.38159 23.798 9.38356 23.7947 9.38612 23.7919C9.38868 23.789 9.39178 23.7867 9.39524 23.7851C9.3987 23.7835 9.40245 23.7826 9.40627 23.7824C9.41009 23.7822 9.4139 23.7828 9.41749 23.7842C9.42107 23.7855 9.42436 23.7875 9.42715 23.7901C9.42994 23.7927 9.43218 23.7959 9.43374 23.7994C9.43531 23.8029 9.43616 23.8066 9.43625 23.8105C9.43634 23.8143 9.43567 23.8181 9.43428 23.8216L7.05561 30.2278C7.0513 30.2394 7.04031 30.2466 7.02862 30.2466V30.2466ZM2.25924 26.7821C2.25459 26.7821 2.25002 26.781 2.24591 26.7788C2.24179 26.7767 2.23826 26.7735 2.23561 26.7697C2.23296 26.7659 2.23127 26.7615 2.23069 26.7569C2.23011 26.7523 2.23066 26.7476 2.23228 26.7433L4.15511 21.5684C4.15666 21.5643 4.15914 21.5605 4.16238 21.5575C4.16561 21.5544 4.16951 21.5522 4.17376 21.5509C4.17801 21.5496 4.1825 21.5493 4.18688 21.5501C4.19126 21.5508 4.19541 21.5526 4.19899 21.5552L5.03092 22.1596L5.79973 20.0729C5.80237 20.0657 5.80774 20.0599 5.81467 20.0567C5.8216 20.0535 5.82951 20.0532 5.83667 20.0558C5.84383 20.0585 5.84965 20.0638 5.85285 20.0708C5.85605 20.0777 5.85637 20.0856 5.85373 20.0928L5.07178 22.2152C5.07025 22.2194 5.06777 22.2231 5.06453 22.2262C5.0613 22.2292 5.05739 22.2315 5.05313 22.2328C5.04888 22.234 5.04439 22.2343 5.04001 22.2336C5.03563 22.2328 5.03148 22.2311 5.02787 22.2285L4.19588 21.624L2.28625 26.7633C2.28194 26.7749 2.27095 26.7821 2.25927 26.7821L2.25924 26.7821Z" fill="#111111"/>
<path d="M9.57369 18.3911C9.55974 18.3809 9.5449 18.372 9.52935 18.3645C9.39119 18.2984 9.23882 18.3738 9.17319 18.5506C9.10045 18.7465 9.16177 18.9929 9.3102 19.1007C9.4586 19.2085 9.63797 19.1371 9.7107 18.9411C9.77633 18.7644 9.73283 18.5466 9.61472 18.4265C9.60204 18.4136 9.58832 18.4017 9.57369 18.3911Z" fill="white"/>
<path d="M9.455 19.1791C9.39904 19.1791 9.34311 19.1602 9.29242 19.1233C9.13449 19.0086 9.06851 18.7469 9.14536 18.54C9.18317 18.4381 9.24955 18.3636 9.33221 18.3301C9.39936 18.3029 9.47353 18.3056 9.54092 18.3379C9.55766 18.3459 9.57406 18.3557 9.58977 18.3672C9.60525 18.3784 9.62027 18.3913 9.63437 18.4057C9.76257 18.536 9.80564 18.7652 9.73682 18.9505C9.69574 19.0612 9.61946 19.1406 9.52754 19.1683C9.50402 19.1754 9.47958 19.179 9.455 19.1791ZM9.42724 18.3689C9.40244 18.3689 9.37775 18.3737 9.35379 18.3834C9.28629 18.4108 9.23142 18.4735 9.19931 18.56C9.13086 18.7444 9.1878 18.9762 9.32625 19.0768C9.38405 19.1188 9.44971 19.1317 9.51088 19.1132C9.58543 19.0907 9.64812 19.0241 9.68288 18.9305C9.74332 18.7677 9.70486 18.5594 9.59337 18.446C9.58146 18.434 9.56888 18.4231 9.55596 18.4137C9.54343 18.4046 9.53009 18.3966 9.51612 18.3898C9.487 18.3759 9.45705 18.3689 9.42727 18.3689H9.42724Z" fill="#111111"/>
<path d="M9.66309 23.1195C9.51469 23.0117 9.33573 23.0834 9.26299 23.2794C9.19754 23.4557 9.24072 23.6732 9.35877 23.7932C9.37161 23.8063 9.38527 23.8181 9.39977 23.8287C9.41428 23.8393 9.42912 23.8481 9.44411 23.8552C9.58227 23.9213 9.73462 23.846 9.8001 23.6696C9.87287 23.4737 9.81153 23.2273 9.66309 23.1195Z" fill="white"/>
<path d="M9.5453 23.9071C9.50583 23.9069 9.46689 23.8979 9.43137 23.8807C9.41423 23.8725 9.39789 23.8627 9.38254 23.8515C9.36662 23.8398 9.35169 23.8269 9.33789 23.8129C9.20994 23.6827 9.16692 23.4539 9.23566 23.2689C9.2768 23.1581 9.35308 23.0786 9.44497 23.0508C9.52367 23.027 9.60704 23.043 9.67966 23.0958C9.83759 23.2105 9.90357 23.4722 9.82672 23.6791C9.789 23.7807 9.72274 23.8551 9.64016 23.8885C9.61004 23.9008 9.57782 23.9071 9.5453 23.9071ZM9.51699 23.0977C9.49837 23.0977 9.47982 23.1004 9.46163 23.1059C9.38714 23.1284 9.32442 23.1951 9.28961 23.2889C9.22924 23.4514 9.26765 23.6594 9.37891 23.7725C9.39083 23.7846 9.4034 23.7955 9.41632 23.8049C9.42918 23.8142 9.44261 23.8223 9.45617 23.8287C9.5096 23.8543 9.56576 23.8566 9.61855 23.8352C9.68597 23.8079 9.74075 23.7454 9.77277 23.6591C9.84122 23.4748 9.78428 23.2429 9.64583 23.1423C9.60529 23.1129 9.56095 23.0977 9.51696 23.0977H9.51699Z" fill="#111111"/>
<path d="M6.08345 19.3901C5.93505 19.2823 5.75571 19.3537 5.68295 19.5497C5.61732 19.7264 5.66085 19.9442 5.77893 20.0643C5.80106 20.0901 5.82948 20.1109 5.8643 20.1263C6.00246 20.1924 6.15483 20.117 6.22046 19.9402C6.29323 19.7443 6.23188 19.4979 6.08345 19.3901Z" fill="white"/>
<path d="M5.96544 20.179C5.92599 20.1789 5.88707 20.1699 5.85156 20.1527C5.81379 20.1359 5.78162 20.1125 5.75676 20.0834C5.62994 19.9545 5.58684 19.7254 5.65566 19.5401C5.69674 19.4294 5.77302 19.35 5.86491 19.3223C5.94383 19.2985 6.02733 19.3144 6.10004 19.3673C6.25796 19.482 6.32394 19.7437 6.24709 19.9506C6.20925 20.0525 6.14288 20.127 6.06022 20.1605C6.03011 20.1727 5.99791 20.179 5.96541 20.1791L5.96544 20.179ZM5.9371 19.3691C5.91843 19.3691 5.89981 19.3719 5.88157 19.3774C5.80703 19.3999 5.74436 19.4665 5.7096 19.5601C5.64913 19.7229 5.68762 19.9312 5.79914 20.0445C5.81974 20.0685 5.84503 20.0868 5.87567 20.1004C5.92976 20.1262 5.98587 20.1285 6.03869 20.1071C6.10619 20.0798 6.16106 20.0171 6.1932 19.9306C6.26165 19.7462 6.20468 19.5144 6.06626 19.4138C6.02566 19.3843 5.98121 19.3691 5.93713 19.3691L5.9371 19.3691Z" fill="#111111"/>
<path d="M12.4077 22.5268C12.3936 22.5165 12.3787 22.5076 12.3629 22.5001C12.2249 22.4343 12.0728 22.5098 12.0072 22.6863C11.9344 22.8823 11.9958 23.1286 12.1442 23.2364C12.2922 23.344 12.4716 23.2725 12.5443 23.0766C12.6099 22.8999 12.5664 22.6822 12.4487 22.5623C12.436 22.5493 12.4223 22.5375 12.4077 22.5268Z" fill="white"/>
<path d="M12.2905 23.3156C12.2346 23.3156 12.1789 23.2968 12.1284 23.26C11.9704 23.1453 11.9045 22.8835 11.9813 22.6766C12.0191 22.5749 12.0854 22.5004 12.1679 22.4669C12.2351 22.4396 12.3091 22.4423 12.3764 22.4744C12.3934 22.4825 12.41 22.4924 12.4257 22.5038C12.4411 22.515 12.4561 22.528 12.4703 22.5424C12.5983 22.6727 12.6411 22.9017 12.5724 23.0869C12.5313 23.1976 12.455 23.277 12.363 23.3048C12.3395 23.3119 12.315 23.3156 12.2905 23.3156ZM12.2631 22.5056C12.2383 22.5056 12.2135 22.5105 12.1895 22.5202C12.1221 22.5476 12.0673 22.6102 12.0352 22.6967C11.9668 22.881 12.0237 23.1129 12.1622 23.2135C12.2197 23.2553 12.2852 23.2682 12.3463 23.2497C12.4209 23.2272 12.4836 23.1606 12.5184 23.0669C12.5788 22.9042 12.5405 22.6961 12.4292 22.5828C12.4177 22.571 12.4052 22.5602 12.3918 22.5504C12.3792 22.5412 12.3658 22.5332 12.3517 22.5264C12.3226 22.5126 12.2928 22.5056 12.2631 22.5056L12.2631 22.5056Z" fill="#111111"/>
<path d="M16.3217 19.0821L27.1957 18.25L21.9599 32.3509L11.0859 33.183L16.3217 19.0821Z" fill="#FF6F1E"/>
<path d="M11.0854 33.2112C11.0808 33.2112 11.0762 33.2101 11.0721 33.2079C11.068 33.2058 11.0645 33.2027 11.0618 33.1989C11.0592 33.1951 11.0575 33.1907 11.0569 33.1861C11.0563 33.1815 11.0568 33.1768 11.0584 33.1725L16.2942 19.0715C16.2961 19.0664 16.2995 19.0619 16.3039 19.0586C16.3082 19.0553 16.3135 19.0533 16.319 19.0529L27.193 18.2207C27.2027 18.2202 27.2122 18.2243 27.2182 18.2321C27.2211 18.236 27.2229 18.2405 27.2236 18.2453C27.2243 18.2501 27.2238 18.2549 27.2222 18.2594L21.9864 32.3604C21.9845 32.3655 21.9811 32.37 21.9767 32.3733C21.9723 32.3767 21.9671 32.3786 21.9616 32.3791L11.0876 33.2112C11.0869 33.2112 11.0861 33.2112 11.0854 33.2112ZM16.3417 19.1088L11.128 33.1503L21.9389 32.3231L27.1526 18.2815L16.3417 19.1088Z" fill="#111111"/>
<path d="M19.4411 26.4225L19.9987 24.9209L18.8407 25.0095L18.2832 26.511L19.4411 26.4225Z" fill="white"/>
<path d="M18.2827 26.5402C18.278 26.5402 18.2735 26.5391 18.2694 26.537C18.2652 26.5348 18.2617 26.5317 18.2591 26.5279C18.2564 26.5241 18.2547 26.5197 18.2541 26.5151C18.2536 26.5105 18.2541 26.5058 18.2557 26.5015L18.8132 24.9999C18.8151 24.9948 18.8185 24.9903 18.8229 24.987C18.8273 24.9836 18.8325 24.9817 18.838 24.9812L19.9959 24.8926C20.0058 24.8921 20.0152 24.8962 20.0211 24.904C20.027 24.9119 20.0285 24.9221 20.0251 24.9313L19.4676 26.4329C19.4657 26.438 19.4623 26.4425 19.4579 26.4458C19.4535 26.4492 19.4483 26.4511 19.4428 26.4516L18.2849 26.5402C18.2841 26.5402 18.2834 26.5402 18.2827 26.5402ZM18.8608 25.0372L18.3253 26.4794L19.4201 26.3956L19.9556 24.9534L18.8608 25.0372Z" fill="#111111"/>
<path d="M5.64062 11.3214L16.5146 10.4893L27.1949 18.2492L16.3208 19.0813L5.64062 11.3214Z" fill="white"/>
<path d="M16.3223 19.1105C16.3162 19.1105 16.3103 19.1086 16.3053 19.105L5.62514 11.3451C5.62039 11.3416 5.6168 11.3368 5.61487 11.3312C5.61294 11.3257 5.61276 11.3196 5.61435 11.314C5.61766 11.3024 5.62782 11.2941 5.63985 11.2931L16.5139 10.461C16.5206 10.4605 16.5274 10.4624 16.533 10.4664L27.2132 18.2263C27.2229 18.2334 27.2272 18.2458 27.224 18.2574C27.2224 18.2631 27.2191 18.2681 27.2145 18.2718C27.21 18.2756 27.2044 18.2778 27.1985 18.2783L16.3245 19.1104C16.3238 19.1104 16.323 19.1105 16.3223 19.1105L16.3223 19.1105ZM5.72228 11.3445L16.3306 19.0522L27.1161 18.2269L16.5077 10.5192L5.72228 11.3445Z" fill="#111111"/>
<path d="M20.2727 14.4908C19.218 13.7245 17.4869 13.1681 16.4135 13.2502L15.4141 13.3267L15.8823 13.667L16.8818 13.5905C17.6925 13.5285 19 13.9487 19.7962 14.5272C20.5925 15.1058 20.5804 15.6267 19.7696 15.6887L18.7702 15.7652L19.2385 16.1055L20.2379 16.029C21.3113 15.9469 21.3269 15.2568 20.2726 14.4908" fill="#FF6F1E"/>
<path d="M19.238 16.1346C19.2319 16.1346 19.226 16.1327 19.2211 16.1291L18.7528 15.7888C18.748 15.7854 18.7444 15.7805 18.7425 15.775C18.7406 15.7694 18.7404 15.7634 18.742 15.7577C18.7436 15.7521 18.7469 15.747 18.7515 15.7433C18.756 15.7396 18.7616 15.7373 18.7675 15.7369L19.7669 15.6604C20.0945 15.6353 20.3002 15.5321 20.3462 15.3696C20.4069 15.1554 20.2001 14.857 19.7788 14.5509C18.9872 13.9758 17.6885 13.558 16.8834 13.6196L15.884 13.696C15.8772 13.6966 15.8704 13.6946 15.8649 13.6906L15.3966 13.3504C15.3919 13.3469 15.3883 13.3421 15.3863 13.3365C15.3844 13.331 15.3843 13.3249 15.3859 13.3193C15.3875 13.3136 15.3908 13.3086 15.3953 13.3048C15.3999 13.3011 15.4055 13.2989 15.4114 13.2984L16.4108 13.2219C17.4898 13.1395 19.2298 13.6983 20.2891 14.4679C20.871 14.8907 21.154 15.3123 21.0656 15.6246C21.0167 15.7973 20.8337 16.0126 20.2396 16.0581L19.2402 16.1345C19.2395 16.1346 19.2388 16.1346 19.238 16.1346L19.238 16.1346ZM18.8499 15.7883L19.2464 16.0763L20.2352 16.0007C20.6729 15.9672 20.9481 15.828 21.0102 15.6089C21.0917 15.3212 20.8165 14.9222 20.2552 14.5144C19.2054 13.7517 17.4828 13.1977 16.4151 13.2793L15.4938 13.3498L15.8902 13.6378L16.8791 13.5622C17.6956 13.4999 19.0116 13.9224 19.8127 14.5043C20.2546 14.8254 20.4692 15.1465 20.4016 15.3852C20.3641 15.5178 20.2242 15.6831 19.7713 15.7178L18.8499 15.7883Z" fill="#111111"/>
<path d="M19.5779 16.3529L19.238 16.106L18.7697 15.7657L15.8819 13.6675L15.4136 13.3272L15.0737 13.0802C14.835 12.9068 14.4443 12.781 14.2008 12.7997L10.3214 13.0965C10.0783 13.1151 10.0748 13.271 10.3135 13.4445L14.8178 16.7171C15.0569 16.8909 15.4476 17.0163 15.6907 16.9977L19.5701 16.7009C19.8136 16.6822 19.8171 16.5266 19.578 16.3529" fill="#FF6F1E"/>
<path d="M15.6413 17.0278C15.3916 17.0278 15.0276 16.9049 14.8004 16.7399L10.2961 13.4672C10.1544 13.3642 10.0889 13.2627 10.1119 13.1815C10.1249 13.1356 10.1713 13.0786 10.3187 13.0673L14.1981 12.7704C14.4471 12.7513 14.847 12.8798 15.0902 13.0564L19.5944 16.329C19.7364 16.4322 19.8019 16.5337 19.7789 16.6148C19.7659 16.6607 19.7195 16.7177 19.5718 16.729L15.6924 17.0259C15.6754 17.0271 15.6583 17.0278 15.6413 17.0277L15.6413 17.0278ZM14.2509 12.8261C14.2342 12.8261 14.2181 12.8267 14.2025 12.8278L10.3231 13.1247C10.2353 13.1314 10.1785 13.1578 10.1673 13.1972C10.1554 13.2394 10.1918 13.3203 10.33 13.4207L14.8343 16.6934C15.068 16.8632 15.4511 16.9867 15.6881 16.9685L19.5675 16.6717C19.6555 16.6649 19.7125 16.6385 19.7236 16.5992C19.7355 16.557 19.699 16.4762 19.5606 16.3756L15.0563 13.103C14.8379 12.9443 14.4891 12.8261 14.2509 12.8261Z" fill="#111111"/>
<path d="M15.7888 14.8259C15.4493 14.5793 14.8941 14.401 14.5485 14.4274C14.269 14.4488 14.2125 14.5979 14.381 14.7848L13.6924 14.8375C13.5883 14.8455 13.5867 14.9123 13.689 14.9866C13.7913 15.0609 13.9589 15.1148 14.063 15.1068L14.7516 15.0541C15.0806 15.2287 15.4981 15.3419 15.7777 15.3205C16.1233 15.294 16.1283 15.0726 15.7888 14.8259" fill="#FFD3A8"/>
<path d="M15.7065 15.3522C15.433 15.3522 15.0589 15.2489 14.745 15.0839L14.0647 15.1359C13.9531 15.1444 13.7803 15.0893 13.6716 15.0103C13.6049 14.9618 13.5747 14.912 13.5865 14.8701C13.5935 14.8454 13.6171 14.8148 13.6897 14.8092L14.323 14.7608C14.2463 14.658 14.2493 14.5838 14.2678 14.5377C14.2899 14.4825 14.356 14.4137 14.5457 14.3991C14.8967 14.3723 15.4617 14.5535 15.8052 14.8031C16.0024 14.9463 16.0938 15.0859 16.0626 15.1961C16.0452 15.2576 15.9819 15.3341 15.7793 15.3496C15.755 15.3514 15.7307 15.3523 15.7064 15.3523L15.7065 15.3522ZM14.7511 15.0257C14.7558 15.0257 14.7604 15.0269 14.7646 15.0291C15.1 15.2071 15.5061 15.3129 15.775 15.2922C15.9072 15.2821 15.9897 15.2424 16.0073 15.1804C16.0307 15.0976 15.9426 14.9739 15.7714 14.8496C15.4374 14.6068 14.8896 14.4303 14.5502 14.4565C14.4252 14.466 14.3439 14.5025 14.3212 14.5591C14.3003 14.6115 14.3289 14.685 14.4018 14.7659C14.4054 14.7699 14.4079 14.7748 14.4088 14.7801C14.4097 14.7854 14.4092 14.7909 14.4072 14.7959C14.4052 14.8009 14.4018 14.8052 14.3975 14.8084C14.3932 14.8116 14.388 14.8135 14.3826 14.8139L13.6941 14.8666C13.6612 14.8691 13.644 14.8782 13.6419 14.8857C13.6389 14.8963 13.6533 14.9258 13.7054 14.9637C13.8013 15.0333 13.9639 15.0862 14.0603 15.0785L14.7489 15.0258C14.7496 15.0257 14.7504 15.0257 14.7511 15.0257V15.0257Z" fill="#111111"/>
<path d="M34.9891 15.3916L43.8952 21.8344L44.1909 23.2172L34.6094 16.4801L34.9891 15.3916Z" fill="#FFD3A8"/>
<path d="M44.1904 23.2464C44.1845 23.2464 44.1787 23.2445 44.1739 23.2411L34.5923 16.5041C34.5872 16.5005 34.5834 16.4953 34.5815 16.4894C34.5795 16.4834 34.5796 16.477 34.5817 16.4711L34.9614 15.3826C34.9629 15.3784 34.9653 15.3745 34.9685 15.3714C34.9717 15.3683 34.9756 15.3659 34.9799 15.3646C34.9842 15.3633 34.9887 15.3629 34.9932 15.3637C34.9976 15.3644 35.0018 15.3661 35.0054 15.3688L43.9116 21.8116C43.9173 21.8157 43.9214 21.8219 43.9229 21.8289L44.2186 23.2116C44.2195 23.2158 44.2194 23.2202 44.2184 23.2243C44.2174 23.2285 44.2155 23.2324 44.2128 23.2357C44.2101 23.2391 44.2067 23.2418 44.2029 23.2436C44.199 23.2455 44.1947 23.2464 44.1905 23.2464L44.1904 23.2464ZM34.6432 16.4695L44.147 23.1518L43.8689 21.8517L35.003 15.438L34.6432 16.4695H34.6432Z" fill="#111111"/>
<path d="M43.8944 21.835L44.2869 21.0303L35.7939 14.8467L34.9883 15.3921L43.8944 21.835Z" fill="white"/>
<path d="M43.8939 21.8631C43.8879 21.8631 43.882 21.8613 43.8771 21.8577L34.9709 15.4149C34.9672 15.4122 34.9641 15.4086 34.962 15.4045C34.96 15.4003 34.9589 15.3958 34.959 15.3911C34.9591 15.3865 34.9602 15.382 34.9624 15.3779C34.9646 15.3738 34.9678 15.3703 34.9716 15.3677L35.7773 14.8223C35.7873 14.8155 35.8006 14.8158 35.8103 14.8229L44.3033 21.0065C44.3146 21.0147 44.3183 21.0298 44.3122 21.0423L43.9198 21.847C43.9174 21.8519 43.9138 21.8559 43.9092 21.8588C43.9046 21.8617 43.8993 21.8632 43.8939 21.8631ZM35.038 15.3923L43.8831 21.791L44.2499 21.0388L35.7928 14.8813L35.038 15.3923Z" fill="#111111"/>
<path d="M41.0078 19.409L44.6932 11.8525L47.4704 24.8377L43.785 32.3942L41.0078 19.409Z" fill="white"/>
<path d="M43.7845 32.4234C43.7779 32.4234 43.7715 32.4212 43.7664 32.417C43.7613 32.4129 43.7577 32.4071 43.7563 32.4007L40.9791 19.4155C40.9778 19.4092 40.9786 19.4026 40.9814 19.3969L44.6668 11.8404C44.6694 11.835 44.6737 11.8305 44.6789 11.8277C44.6842 11.8248 44.6902 11.8237 44.6962 11.8245C44.7021 11.8252 44.7077 11.8277 44.7121 11.8318C44.7165 11.8358 44.7196 11.8411 44.7208 11.847L47.498 24.8322C47.4994 24.8385 47.4986 24.845 47.4957 24.8508L43.8103 32.4073C43.808 32.4121 43.8043 32.4162 43.7997 32.4191C43.7952 32.4219 43.7899 32.4234 43.7845 32.4234ZM41.0375 19.4132L43.7952 32.3071L47.4397 24.8345L44.682 11.9406L41.0375 19.4132Z" fill="#111111"/>
<path d="M43.8945 21.8349L44.287 21.0303L44.5827 22.413L44.1902 23.2177L43.8945 21.8349Z" fill="white"/>
<path d="M44.1898 23.2459C44.1832 23.2459 44.1768 23.2437 44.1717 23.2395C44.1665 23.2354 44.163 23.2296 44.1616 23.2232L43.8659 21.8404C43.8645 21.8341 43.8653 21.8276 43.8681 21.8218L44.2606 21.0172C44.2632 21.0117 44.2674 21.0073 44.2727 21.0044C44.2779 21.0016 44.284 21.0004 44.2899 21.0012C44.2959 21.0019 44.3014 21.0045 44.3059 21.0085C44.3103 21.0126 44.3133 21.0179 44.3146 21.0237L44.6103 22.4065C44.6116 22.4128 44.6109 22.4193 44.608 22.4251L44.2156 23.2298C44.2132 23.2346 44.2095 23.2387 44.205 23.2416C44.2004 23.2444 44.1952 23.2459 44.1898 23.2459ZM43.9242 21.8381L44.2005 23.1296L44.552 22.4088L44.2758 21.1173L43.9242 21.8381Z" fill="#111111"/>
<path d="M55.3164 18.8348L59.0018 11.2783L61.779 24.2635L58.0936 31.82L55.3164 18.8348Z" fill="#FF6F1E"/>
<path d="M58.093 31.8492C58.0864 31.8492 58.08 31.847 58.0749 31.8428C58.0698 31.8387 58.0663 31.8329 58.0649 31.8265L55.2878 18.8413C55.2864 18.835 55.2872 18.8284 55.29 18.8227L58.9754 11.2662C58.978 11.2608 58.9822 11.2563 58.9875 11.2534C58.9928 11.2506 58.9988 11.2495 59.0048 11.2503C59.0107 11.251 59.0163 11.2535 59.0207 11.2576C59.0251 11.2616 59.0282 11.2669 59.0294 11.2728L61.8066 24.258C61.8079 24.2643 61.8071 24.2708 61.8043 24.2766L58.1189 31.8331C58.1165 31.8379 58.1129 31.842 58.1083 31.8449C58.1037 31.8477 58.0984 31.8492 58.093 31.8492ZM55.3461 18.839L58.1037 31.7329L61.7482 24.2603L58.9905 11.3664L55.3461 18.839Z" fill="#111111"/>
<path d="M41.0078 19.409L55.3162 18.835L58.0934 31.8201L43.785 32.3942L41.0078 19.409Z" fill="#FFD3A8"/>
<path d="M43.7845 32.4225C43.771 32.4225 43.7592 32.413 43.7563 32.3997L40.9792 19.4145C40.9783 19.4104 40.9783 19.4062 40.9792 19.4021C40.9802 19.398 40.982 19.3941 40.9845 19.3908C40.9871 19.3875 40.9904 19.3848 40.9941 19.3829C40.9979 19.381 41.002 19.3799 41.0061 19.3797L55.3146 18.8057C55.3294 18.8047 55.3409 18.8148 55.3439 18.8285L58.121 31.8136C58.1219 31.8177 58.1219 31.822 58.1209 31.8261C58.12 31.8302 58.1182 31.834 58.1156 31.8373C58.1131 31.8406 58.1098 31.8433 58.1061 31.8453C58.1023 31.8472 58.0982 31.8482 58.094 31.8484L43.7856 32.4224H43.7844L43.7845 32.4225ZM41.0426 19.4359L43.8076 32.3639L58.0576 31.7923L55.2927 18.8642L41.0426 19.4359Z" fill="#111111"/>
<path d="M50.46 26.2753L50.1643 24.8926L48.6406 24.9537L48.9364 26.3364L50.46 26.2753Z" fill="white"/>
<path d="M48.9358 26.3658C48.9223 26.3658 48.9106 26.3563 48.9077 26.343L48.612 24.9603C48.6111 24.9562 48.6111 24.9519 48.612 24.9478C48.613 24.9437 48.6148 24.9399 48.6174 24.9366C48.6199 24.9333 48.6232 24.9306 48.6269 24.9287C48.6307 24.9267 48.6348 24.9257 48.639 24.9255L50.1626 24.8644C50.1763 24.8629 50.189 24.8734 50.1919 24.8871L50.4876 26.2699C50.4885 26.274 50.4885 26.2782 50.4876 26.2823C50.4866 26.2864 50.4848 26.2902 50.4822 26.2935C50.4797 26.2968 50.4764 26.2996 50.4727 26.3015C50.4689 26.3034 50.4648 26.3045 50.4606 26.3046L48.937 26.3658H48.9358L48.9358 26.3658ZM48.6754 24.9816L48.9589 26.3073L50.4242 26.2485L50.1407 24.9229L48.6754 24.9816Z" fill="#111111"/>
<path d="M44.6932 11.8523L59.0016 11.2783L55.3162 18.8348L41.0078 19.4088L44.6932 11.8523Z" fill="white"/>
<path d="M41.0073 19.4381C41.0024 19.4381 40.9976 19.4369 40.9933 19.4345C40.9891 19.4321 40.9855 19.4287 40.9829 19.4246C40.9803 19.4204 40.9788 19.4157 40.9786 19.4108C40.9783 19.406 40.9793 19.4011 40.9814 19.3967L44.6668 11.8403C44.6715 11.8308 44.681 11.8245 44.6916 11.8241L58.9999 11.2501C59.0111 11.2492 59.0197 11.2546 59.0252 11.2631C59.0307 11.2716 59.0314 11.2823 59.027 11.2914L55.3416 18.8479C55.3393 18.8526 55.3358 18.8566 55.3315 18.8594C55.3271 18.8622 55.3221 18.8638 55.3169 18.8641L41.0085 19.4381H41.0073L41.0073 19.4381ZM44.711 11.8809L41.0543 19.3787L55.2974 18.8073L58.9541 11.3095L44.711 11.8809Z" fill="#111111"/>
<path d="M48.5096 15.249L41.672 18.0472L41.0078 19.409L55.3163 18.835L55.9805 17.4732L53.3291 15.9884L50.8188 16.8153L48.5096 15.249Z" fill="#FF6F1E"/>
<path d="M41.0073 19.4382C41.0024 19.4382 40.9976 19.437 40.9933 19.4346C40.9891 19.4322 40.9855 19.4288 40.9829 19.4247C40.9803 19.4206 40.9788 19.4158 40.9786 19.411C40.9783 19.4061 40.9793 19.4012 40.9814 19.3968L41.6456 18.035C41.6487 18.0287 41.654 18.0237 41.6606 18.021L48.4982 15.2228C48.5026 15.221 48.5074 15.2204 48.5121 15.2209C48.5168 15.2214 48.5213 15.223 48.5253 15.2257L50.8227 16.784L53.3196 15.9615C53.3272 15.959 53.3356 15.9598 53.3426 15.9637L55.994 17.4485C56.0004 17.4521 56.0052 17.458 56.0074 17.465C56.0096 17.4721 56.009 17.4796 56.0058 17.4862L55.3417 18.848C55.3394 18.8527 55.3359 18.8567 55.3315 18.8595C55.3272 18.8623 55.3222 18.864 55.317 18.8642L41.0084 19.4382H41.0073ZM41.6925 18.0701L41.0542 19.3787L55.2975 18.8073L55.9422 17.4854L53.3255 16.0201L50.8273 16.8431C50.8231 16.8445 50.8186 16.8449 50.8143 16.8443C50.8099 16.8436 50.8057 16.842 50.8021 16.8396L48.5057 15.2819L41.6925 18.0701H41.6925Z" fill="#111111"/>
<path d="M54.4275 12.8358C53.7682 12.8623 53.0958 13.1661 52.926 13.5143C52.7562 13.8625 53.1531 14.1234 53.8124 14.097C54.4718 14.0705 55.1442 13.7667 55.314 13.4185C55.4838 13.0703 55.0869 12.8094 54.4275 12.8358Z" fill="#FF6F1E"/>
<path d="M53.7202 14.1281C53.3273 14.1281 53.0278 14.0238 52.9095 13.8427C52.8436 13.7417 52.8402 13.624 52.8996 13.5022C53.0733 13.1459 53.758 12.8343 54.4259 12.8076C54.8642 12.7899 55.202 12.8959 55.3294 13.0911C55.3953 13.192 55.3988 13.3098 55.3393 13.4316C55.1656 13.7878 54.4809 14.0994 53.8131 14.1262C53.7821 14.1275 53.7512 14.1281 53.7202 14.1281ZM54.4282 12.8651C53.7793 12.8911 53.1167 13.1882 52.9513 13.5274C52.9005 13.6315 52.9027 13.727 52.9577 13.8112C53.0722 13.9866 53.399 14.0849 53.8108 14.0687C54.4597 14.0427 55.1222 13.7455 55.2876 13.4064C55.3384 13.3022 55.3362 13.2068 55.2812 13.1225C55.1667 12.9472 54.84 12.8483 54.4282 12.8651Z" fill="#111111"/>
<path d="M40.1159 32.5634L50.1646 24.8926L50.4603 26.2753L39.9238 34.2501L40.1159 32.5634Z" fill="#FF6F1E"/>
<path d="M39.9233 34.2794C39.9193 34.2794 39.9152 34.2785 39.9115 34.2768C39.9078 34.2752 39.9045 34.2728 39.9018 34.2697C39.8991 34.2667 39.8971 34.2632 39.8959 34.2593C39.8947 34.2554 39.8943 34.2514 39.8947 34.2473L40.0867 32.5607C40.0872 32.5568 40.0884 32.5531 40.0903 32.5497C40.0922 32.5464 40.0948 32.5434 40.0979 32.5411L50.1466 24.8702C50.1505 24.8672 50.155 24.8653 50.1598 24.8646C50.1646 24.8639 50.1695 24.8644 50.1741 24.866C50.1786 24.8677 50.1827 24.8705 50.1859 24.8742C50.189 24.8779 50.1912 24.8823 50.1922 24.8871L50.4879 26.2698C50.4903 26.2807 50.4861 26.292 50.4772 26.2988L39.9407 34.2735C39.9357 34.2773 39.9296 34.2794 39.9233 34.2794ZM40.1426 32.5794L39.9595 34.1871L50.4279 26.2639L50.1455 24.9435L40.1426 32.5794Z" fill="#111111"/>
<path d="M50.1643 24.8926L40.1156 32.5634L38.4141 32.158L48.6407 24.9537L50.1643 24.8926Z" fill="white"/>
<path d="M40.1151 32.5926C40.1129 32.5926 40.1106 32.5924 40.1084 32.5919L38.4069 32.1865C38.4015 32.1852 38.3966 32.1824 38.3928 32.1784C38.3889 32.1744 38.3863 32.1694 38.3853 32.1639C38.3842 32.1585 38.3848 32.1528 38.3869 32.1477C38.3889 32.1426 38.3925 32.1381 38.397 32.135L48.6236 24.9306C48.6281 24.9274 48.6335 24.9256 48.639 24.9254L50.1627 24.8643C50.1688 24.864 50.1748 24.8657 50.1799 24.8692C50.185 24.8726 50.1888 24.8775 50.1909 24.8833C50.193 24.889 50.1932 24.8953 50.1915 24.9012C50.1897 24.907 50.1862 24.9122 50.1813 24.9159L40.1326 32.5867C40.1275 32.5906 40.1214 32.5927 40.1151 32.5926ZM38.4823 32.1453L40.1085 32.5327L50.074 24.9254L48.6498 24.9825L38.4823 32.1453Z" fill="#111111"/>
<path d="M27.7716 35.1261L18.2832 26.5113L18.8407 25.0098L27.9636 33.4394L27.7716 35.1261Z" fill="#FFD3A8"/>
<path d="M27.7711 35.1554C27.7639 35.1553 27.757 35.1527 27.7518 35.1479L18.2633 26.5331C18.2591 26.5292 18.2561 26.5242 18.2547 26.5186C18.2534 26.513 18.2537 26.5072 18.2557 26.5018L18.8132 25.0002C18.8149 24.9958 18.8176 24.9918 18.8211 24.9887C18.8247 24.9856 18.8289 24.9833 18.8335 24.9822C18.8381 24.9811 18.8429 24.9812 18.8475 24.9824C18.8521 24.9836 18.8563 24.9859 18.8597 24.9891L27.9827 33.4187C27.986 33.4218 27.9885 33.4256 27.9901 33.4299C27.9917 33.4341 27.9923 33.4387 27.9917 33.4431L27.7997 35.1298C27.7989 35.1369 27.7956 35.1433 27.7903 35.148C27.785 35.1527 27.7782 35.1553 27.7711 35.1553L27.7711 35.1554ZM18.3164 26.5036L27.7488 35.0675L27.9329 33.4511L18.8522 25.0606L18.3164 26.5036H18.3164Z" fill="#111111"/>
<path d="M28.6002 32.8652L27.9628 33.4392L18.8398 25.0095L19.9978 24.9209L28.6002 32.8652Z" fill="white"/>
<path d="M27.9642 33.4684C27.9569 33.4685 27.9499 33.4657 27.9446 33.4608L18.8217 25.0311C18.8176 25.0273 18.8147 25.0224 18.8133 25.017C18.812 25.0115 18.8123 25.0058 18.8141 25.0006C18.8159 24.9953 18.8193 24.9906 18.8237 24.9872C18.8281 24.9838 18.8334 24.9817 18.839 24.9813L19.9969 24.8927C20.0009 24.8923 20.0049 24.8929 20.0086 24.8942C20.0123 24.8955 20.0158 24.8975 20.0186 24.9002L28.6211 32.8445C28.624 32.8472 28.6264 32.8505 28.628 32.8542C28.6296 32.8579 28.6304 32.8618 28.6304 32.8658C28.6304 32.8698 28.6295 32.8738 28.6279 32.8774C28.6262 32.8811 28.6238 32.8843 28.6208 32.887L27.9834 33.461C27.9781 33.4658 27.9712 33.4684 27.9641 33.4684L27.9642 33.4684ZM18.9092 25.0337L27.9644 33.4007L28.559 32.8654L19.9889 24.9511L18.9093 25.0337L18.9092 25.0337Z" fill="#111111"/>
<path d="M32.0807 23.3809L48.0596 27.1879L46.2563 43.0269L30.2773 39.2198L32.0807 23.3809Z" fill="white"/>
<path d="M46.2558 43.0561C46.2535 43.0561 46.2513 43.0558 46.2491 43.0553L30.2702 39.2482C30.2633 39.2466 30.2573 39.2425 30.2533 39.2368C30.2492 39.231 30.2474 39.224 30.2482 39.217L32.0516 23.378C32.052 23.374 32.0533 23.3701 32.0554 23.3666C32.0575 23.3631 32.0603 23.3601 32.0636 23.3577C32.067 23.3554 32.0708 23.3538 32.0748 23.353C32.0788 23.3523 32.0829 23.3524 32.0868 23.3533L48.0658 27.1604C48.0726 27.162 48.0786 27.1661 48.0826 27.1719C48.0867 27.1776 48.0885 27.1846 48.0877 27.1916L46.2843 43.0306C46.2835 43.0376 46.2802 43.0441 46.2749 43.0488C46.2697 43.0535 46.2628 43.0561 46.2558 43.0561ZM30.3083 39.1982L46.2309 42.9918L48.0277 27.2105L32.1051 23.4168L30.3083 39.1982Z" fill="#111111"/>
<path d="M39.9242 34.2503L40.1162 32.5636L38.4147 32.1582L38.2227 33.8449L39.9242 34.2503Z" fill="white"/>
<path d="M39.9237 34.2795C39.9215 34.2795 39.9192 34.2792 39.917 34.2787L38.2155 33.8733C38.2086 33.8717 38.2026 33.8676 38.1986 33.8618C38.1945 33.8561 38.1927 33.849 38.1935 33.842L38.3856 32.1554C38.386 32.1513 38.3874 32.1474 38.3894 32.1439C38.3915 32.1404 38.3943 32.1374 38.3976 32.1351C38.401 32.1327 38.4048 32.1311 38.4088 32.1304C38.4128 32.1296 38.4169 32.1297 38.4208 32.1307L40.1224 32.5361C40.1292 32.5377 40.1352 32.5418 40.1393 32.5475C40.1433 32.5533 40.1451 32.5603 40.1443 32.5673L39.9523 34.254C39.9515 34.261 39.9481 34.2675 39.9429 34.2722C39.9376 34.2769 39.9308 34.2795 39.9237 34.2795ZM38.2536 33.8232L39.8988 34.2152L40.0842 32.5861L38.4391 32.1942L38.2536 33.8232H38.2536Z" fill="#111111"/>
<path d="M42.0729 32.5789L48.0593 27.1885L46.2559 43.0275L40.2695 48.4178L42.0729 32.5789Z" fill="#FF6F1E"/>
<path d="M40.271 48.4461C40.2669 48.4461 40.2629 48.4452 40.2592 48.4435C40.2555 48.4419 40.2522 48.4395 40.2495 48.4364C40.2468 48.4334 40.2448 48.4299 40.2435 48.426C40.2423 48.4221 40.2419 48.4181 40.2424 48.414L42.0457 32.5751C42.0465 32.5681 42.0498 32.5617 42.0551 32.557L48.0415 27.1666C48.0458 27.1627 48.0512 27.1602 48.057 27.1594C48.0628 27.1587 48.0687 27.1597 48.0739 27.1624C48.0791 27.165 48.0833 27.1692 48.0861 27.1744C48.0889 27.1795 48.09 27.1854 48.0893 27.1912L46.286 43.0301C46.2852 43.0371 46.2818 43.0436 46.2766 43.0483L40.2902 48.4387C40.2849 48.4434 40.2781 48.4461 40.271 48.4461ZM42.1017 32.5924L40.3081 48.3451L46.23 43.0128L48.0235 27.2601L42.1017 32.5924Z" fill="#111111"/>
<path d="M26.0944 28.7712L32.0808 23.3809L30.2774 39.2198L24.291 44.6102L26.0944 28.7712Z" fill="white"/>
<path d="M24.2905 44.6395C24.2864 44.6395 24.2824 44.6386 24.2787 44.6369C24.275 44.6353 24.2717 44.6329 24.269 44.6299C24.2663 44.6268 24.2643 44.6233 24.2631 44.6194C24.2618 44.6155 24.2614 44.6115 24.2619 44.6074L26.0653 28.7685C26.0661 28.7615 26.0694 28.7551 26.0746 28.7504L32.061 23.36C32.0653 23.3561 32.0708 23.3535 32.0766 23.3528C32.0824 23.352 32.0883 23.353 32.0935 23.3557C32.0987 23.3584 32.1029 23.3626 32.1057 23.3678C32.1084 23.3729 32.1095 23.3788 32.1088 23.3846L30.3055 39.2236C30.3047 39.2305 30.3014 39.237 30.2961 39.2417L24.3098 44.6321C24.3045 44.6368 24.2976 44.6395 24.2905 44.6395ZM26.1212 28.7858L24.3277 44.5385L30.2496 39.2062L32.0431 23.4535L26.1212 28.7858Z" fill="#111111"/>
<path d="M27.9635 33.4392L28.601 32.8652L28.4089 34.5519L27.7715 35.1259L27.9635 33.4392Z" fill="white"/>
<path d="M27.771 35.1552C27.7669 35.1552 27.7629 35.1543 27.7592 35.1527C27.7555 35.151 27.7522 35.1486 27.7495 35.1456C27.7468 35.1425 27.7448 35.139 27.7435 35.1351C27.7423 35.1313 27.7419 35.1272 27.7424 35.1232L27.9344 33.4365C27.9352 33.4295 27.9385 33.423 27.9437 33.4183L28.5812 32.8444C28.5855 32.8404 28.591 32.8379 28.5968 32.8372C28.6026 32.8364 28.6085 32.8374 28.6137 32.8401C28.6189 32.8428 28.6231 32.847 28.6259 32.8521C28.6286 32.8573 28.6297 32.8632 28.6291 32.869L28.437 34.5556C28.4362 34.5626 28.4329 34.5691 28.4277 34.5738L27.7902 35.1478C27.7849 35.1525 27.7781 35.1552 27.771 35.1552ZM27.9904 33.4538L27.8081 35.0542L28.3811 34.5383L28.5633 32.9379L27.9904 33.4538Z" fill="#111111"/>
<path d="M26.0944 28.7715L42.0733 32.5786L40.2699 48.4175L24.291 44.6104L26.0944 28.7715Z" fill="#FFD3A8"/>
<path d="M40.2694 48.4467C40.2672 48.4467 40.265 48.4464 40.2628 48.4459L24.2838 44.6389C24.277 44.6372 24.271 44.6332 24.2669 44.6274C24.2629 44.6216 24.2611 44.6146 24.2619 44.6076L26.0653 28.7687C26.0657 28.7646 26.067 28.7607 26.0691 28.7572C26.0712 28.7537 26.074 28.7507 26.0773 28.7484C26.0806 28.746 26.0844 28.7444 26.0884 28.7437C26.0924 28.7429 26.0965 28.743 26.1005 28.744L42.0794 32.551C42.0863 32.5526 42.0923 32.5567 42.0963 32.5625C42.1004 32.5682 42.1021 32.5753 42.1014 32.5823L40.298 48.4212C40.2972 48.4282 40.2939 48.4347 40.2886 48.4394C40.2833 48.4441 40.2765 48.4467 40.2694 48.4467ZM24.322 44.5888L40.2445 48.3824L42.0413 32.6011L26.1188 28.8074L24.322 44.5888Z" fill="#111111"/>
<path d="M34.6805 42.4402C34.4584 42.3873 34.2581 42.5223 34.2331 42.7424C34.2104 42.941 34.3382 43.1405 34.5265 43.2166C34.5469 43.2248 34.568 43.2316 34.5898 43.2368C34.6115 43.242 34.633 43.2453 34.6542 43.247C34.8493 43.2623 35.0146 43.1326 35.0373 42.934C35.0623 42.7139 34.9025 42.4931 34.6805 42.4402" fill="white"/>
<path d="M34.6843 43.2766C34.6735 43.2766 34.6625 43.2762 34.6515 43.2753C34.6284 43.2735 34.6053 43.2698 34.5826 43.2644C34.5596 43.2589 34.5371 43.2517 34.5152 43.2429C34.311 43.1604 34.1801 42.9484 34.204 42.7387C34.2167 42.6264 34.2724 42.5304 34.3608 42.4684C34.4529 42.4038 34.5686 42.3837 34.6866 42.4118C34.922 42.4679 35.0919 42.7034 35.0653 42.9368C35.0427 43.1355 34.8817 43.2766 34.6843 43.2766ZM34.5836 42.457C34.5144 42.457 34.449 42.4769 34.3939 42.5156C34.3192 42.568 34.2721 42.6496 34.2612 42.7453C34.2405 42.9267 34.359 43.1177 34.5368 43.1895C34.5561 43.1973 34.576 43.2036 34.596 43.2084C34.6157 43.2131 34.6359 43.2163 34.656 43.2179C34.8393 43.2323 34.9876 43.1114 35.0082 42.9303C35.0316 42.7248 34.8813 42.5173 34.6733 42.4678C34.6439 42.4607 34.6138 42.4571 34.5836 42.457L34.5836 42.457Z" fill="#111111"/>
<path d="M32.9755 37.7966C32.9543 37.7915 32.9327 37.7881 32.911 37.7864C32.7159 37.771 32.5506 37.9008 32.528 38.0994C32.5029 38.3195 32.6626 38.5409 32.8847 38.5937C33.1067 38.6467 33.3071 38.5111 33.3322 38.291C33.3548 38.0924 33.227 37.8928 33.0387 37.8168C33.0182 37.8085 32.997 37.8018 32.9755 37.7966Z" fill="white"/>
<path d="M32.9824 38.6335C32.9486 38.6335 32.9141 38.6294 32.8794 38.6211C32.644 38.5651 32.4742 38.3292 32.5008 38.0955C32.5247 37.8859 32.7029 37.7408 32.9147 37.7571C32.9377 37.7589 32.9609 37.7626 32.9836 37.768C33.0065 37.7735 33.0291 37.7807 33.0509 37.7895C33.2552 37.872 33.386 38.084 33.3622 38.2936C33.3494 38.4061 33.2936 38.5023 33.205 38.5644C33.14 38.61 33.0633 38.6335 32.9824 38.6335L32.9824 38.6335ZM32.8807 37.8133C32.711 37.8133 32.5774 37.9308 32.558 38.102C32.5345 38.3078 32.6847 38.5156 32.8928 38.5652C32.9943 38.5894 33.0935 38.5723 33.1719 38.5173C33.2468 38.4648 33.2941 38.3831 33.305 38.2871C33.3256 38.1057 33.2072 37.9147 33.0294 37.8429C33.0101 37.8351 32.9902 37.8288 32.9702 37.824C32.9409 37.817 32.9109 37.8134 32.8808 37.8134L32.8807 37.8133Z" fill="#111111"/>
<path d="M29.2176 37.656C28.9955 37.6031 28.7952 37.7381 28.7702 37.9582C28.7476 38.1568 28.8754 38.3563 29.0636 38.4324C29.1023 38.4491 29.145 38.4591 29.1913 38.4628C29.3865 38.4782 29.5518 38.3484 29.5744 38.1498C29.5995 37.9297 29.4397 37.7089 29.2176 37.656" fill="white"/>
<path d="M29.2215 38.4924C29.2106 38.4924 29.1996 38.492 29.1886 38.4911C29.1386 38.487 29.0926 38.476 29.0517 38.4584C28.8481 38.3762 28.7172 38.1641 28.7411 37.9545C28.7539 37.8422 28.8096 37.7463 28.8979 37.6842C28.99 37.6196 29.1057 37.5995 29.2238 37.6276C29.4591 37.6837 29.629 37.9192 29.6024 38.1526C29.5798 38.3513 29.4188 38.4924 29.2215 38.4924L29.2215 38.4924ZM29.1208 37.6729C29.0515 37.6729 28.9861 37.6927 28.931 37.7314C28.8563 37.7838 28.8092 37.8653 28.7983 37.9611C28.7776 38.1425 28.8961 38.3335 29.0739 38.4053C29.1096 38.4207 29.1495 38.4301 29.1932 38.4337C29.3766 38.4482 29.5247 38.3271 29.5453 38.1461C29.5687 37.9406 29.4185 37.7331 29.2105 37.6836C29.1811 37.6765 29.151 37.6729 29.1208 37.6728L29.1208 37.6729Z" fill="#111111"/>
<path d="M37.4696 37.1618C37.2475 37.1089 37.0472 37.2445 37.0221 37.4646C36.9995 37.6632 37.1273 37.8627 37.3156 37.9388C37.336 37.947 37.3571 37.9538 37.3788 37.959C37.4006 37.9642 37.4221 37.9675 37.4433 37.9692C37.6384 37.9846 37.8037 37.8548 37.8263 37.6562C37.8514 37.4361 37.6917 37.2148 37.4696 37.1619" fill="white"/>
<path d="M37.4754 37.9988C37.4645 37.9988 37.4535 37.9984 37.4425 37.9975C37.4195 37.9957 37.3963 37.992 37.3736 37.9866C37.3507 37.9811 37.3282 37.9739 37.3063 37.9651C37.102 37.8826 36.9711 37.6706 36.995 37.4609C37.0078 37.3484 37.0636 37.2523 37.1522 37.1901C37.2443 37.1255 37.3599 37.1054 37.4777 37.1334C37.7131 37.1895 37.8829 37.4253 37.8563 37.6591C37.8337 37.8577 37.6727 37.9988 37.4754 37.9988ZM37.375 37.1787C37.3057 37.1787 37.2404 37.1986 37.1853 37.2373C37.1104 37.2898 37.0631 37.3715 37.0522 37.4675C37.0315 37.6489 37.15 37.8399 37.3278 37.9117C37.3471 37.9195 37.3671 37.9259 37.387 37.9306C37.4068 37.9353 37.427 37.9385 37.447 37.9401C37.6302 37.9545 37.7786 37.8336 37.7992 37.6525C37.8226 37.4468 37.6724 37.239 37.4644 37.1894C37.4351 37.1823 37.4051 37.1788 37.375 37.1787Z" fill="#111111"/>
<path d="M37.5346 47.779C37.5306 47.779 37.5266 47.7782 37.5229 47.7765C37.5192 47.7748 37.5159 47.7724 37.5132 47.7694C37.5105 47.7664 37.5084 47.7628 37.5072 47.759C37.506 47.7551 37.5056 47.751 37.506 47.747L38.2995 40.7314L37.0972 40.4449C37.0903 40.4433 37.0843 40.4392 37.0803 40.4335C37.0763 40.4277 37.0745 40.4207 37.0752 40.4137L37.3513 37.9559C37.3531 37.9401 37.3675 37.9288 37.3831 37.9305C37.3907 37.9313 37.3976 37.9351 37.4024 37.9411C37.4072 37.9471 37.4094 37.9547 37.4085 37.9623L37.1353 40.3948L38.3376 40.6813C38.3444 40.6829 38.3504 40.687 38.3545 40.6927C38.3585 40.6985 38.3603 40.7055 38.3595 40.7125L37.5632 47.7535C37.5624 47.7605 37.5591 47.767 37.5538 47.7717C37.5485 47.7764 37.5417 47.779 37.5346 47.779ZM32.9765 37.8141C32.9725 37.8141 32.9685 37.8133 32.9648 37.8116C32.9611 37.81 32.9577 37.8076 32.955 37.8045C32.9523 37.8015 32.9503 37.798 32.9491 37.7941C32.9478 37.7902 32.9474 37.7861 32.9479 37.7821L33.7671 30.5867C33.7681 30.5792 33.772 30.5723 33.7779 30.5677C33.7839 30.563 33.7914 30.5609 33.7989 30.5617C33.8064 30.5626 33.8133 30.5663 33.8181 30.5722C33.8228 30.5781 33.8251 30.5856 33.8243 30.5932L33.0051 37.7886C33.0043 37.7956 33.0009 37.8021 32.9957 37.8068C32.9904 37.8115 32.9836 37.8141 32.9765 37.8141ZM34.169 46.9834C34.1649 46.9834 34.1609 46.9826 34.1572 46.9809C34.1535 46.9793 34.1502 46.9769 34.1475 46.9739C34.1448 46.9708 34.1428 46.9673 34.1415 46.9634C34.1403 46.9596 34.1399 46.9555 34.1403 46.9514L34.5619 43.2336C34.5623 43.2299 34.5635 43.2262 34.5653 43.2229C34.5672 43.2196 34.5696 43.2167 34.5726 43.2144C34.5755 43.212 34.5789 43.2102 34.5826 43.2092C34.5862 43.2082 34.59 43.2079 34.5938 43.2083C34.6013 43.2092 34.6082 43.213 34.613 43.2189C34.6178 43.2249 34.6199 43.2325 34.6191 43.2401L34.1975 46.9579C34.1967 46.9649 34.1934 46.9714 34.1881 46.9761C34.1828 46.9808 34.176 46.9834 34.169 46.9834ZM27.0366 45.2862C27.0326 45.2862 27.0286 45.2854 27.0249 45.2837C27.0212 45.282 27.0178 45.2796 27.0151 45.2766C27.0124 45.2736 27.0104 45.27 27.0092 45.2662C27.0079 45.2623 27.0075 45.2582 27.008 45.2542L27.5845 40.1591C27.5849 40.1551 27.5862 40.1512 27.5883 40.1477C27.5904 40.1442 27.5932 40.1411 27.5965 40.1388C27.5999 40.1365 27.6037 40.1349 27.6077 40.1341C27.6117 40.1333 27.6158 40.1334 27.6197 40.1344L28.8776 40.4341L29.102 38.4506C29.1029 38.443 29.1068 38.4362 29.1127 38.4314C29.1187 38.4267 29.1262 38.4245 29.1338 38.4252C29.1414 38.4261 29.1483 38.4299 29.1531 38.4359C29.1578 38.4418 29.16 38.4495 29.1592 38.457L28.9311 40.4728C28.9306 40.4768 28.9293 40.4807 28.9272 40.4842C28.9252 40.4877 28.9224 40.4908 28.919 40.4931C28.9157 40.4954 28.9119 40.497 28.9079 40.4978C28.9039 40.4986 28.8998 40.4985 28.8958 40.4975L27.638 40.1978L27.0652 45.2606C27.0644 45.2677 27.061 45.2742 27.0558 45.2789C27.0505 45.2836 27.0437 45.2862 27.0366 45.2862Z" fill="#111111"/>
<path d="M32.0801 23.3809L48.0591 27.1879L42.0727 32.5783L26.0938 28.7712L32.0801 23.3809Z" fill="white"/>
<path d="M42.0742 32.6075C42.0719 32.6075 42.0697 32.6073 42.0675 32.6067L26.0886 28.7997C26.0835 28.7985 26.0788 28.7959 26.075 28.7922C26.0713 28.7886 26.0686 28.7839 26.0673 28.7788C26.066 28.7737 26.0661 28.7684 26.0677 28.7634C26.0692 28.7583 26.0721 28.7538 26.076 28.7503L32.0624 23.3599C32.0658 23.3568 32.07 23.3546 32.0745 23.3534C32.0791 23.3523 32.0838 23.3522 32.0883 23.3533L48.0672 27.1604C48.0724 27.1616 48.0771 27.1642 48.0808 27.1679C48.0846 27.1715 48.0872 27.1762 48.0885 27.1813C48.0898 27.1864 48.0897 27.1917 48.0882 27.1967C48.0866 27.2018 48.0837 27.2063 48.0798 27.2098L42.0934 32.6002C42.0881 32.6049 42.0813 32.6075 42.0742 32.6076V32.6075ZM26.1552 28.7564L42.0661 32.5472L48.0006 27.2036L32.0897 23.4128L26.1552 28.7564Z" fill="#111111"/>
<path d="M36.8455 25.8994L33.9444 26.1083L31.1777 28.5996L39.4181 30.5629L42.9753 27.3599L36.8455 25.8994Z" fill="#FF6F1E"/>
<path d="M39.4196 30.5921C39.4173 30.5921 39.4151 30.5918 39.4129 30.5913L31.1726 28.628C31.1674 28.6268 31.1627 28.6243 31.159 28.6206C31.1552 28.6169 31.1526 28.6123 31.1513 28.6072C31.15 28.6021 31.1501 28.5967 31.1516 28.5917C31.1532 28.5867 31.1561 28.5822 31.16 28.5787L33.9267 26.0874C33.9314 26.0832 33.9375 26.0806 33.9439 26.0801L36.8449 25.8712C36.8478 25.8709 36.8508 25.8712 36.8537 25.8719L42.9835 27.3323C42.9886 27.3335 42.9933 27.3361 42.997 27.3398C43.0008 27.3435 43.0034 27.3481 43.0047 27.3532C43.006 27.3583 43.0059 27.3637 43.0044 27.3687C43.0028 27.3737 42.9999 27.3782 42.996 27.3817L39.4388 30.5847C39.4336 30.5895 39.4267 30.5921 39.4196 30.5921ZM31.2392 28.5847L39.4116 30.5318L42.9168 27.3756L36.8446 25.9289L33.9579 26.1368L31.2392 28.5847Z" fill="#111111"/>
<path d="M36.8464 25.8994L33.9453 26.1083L36.0559 26.6112L36.8464 25.8994Z" fill="#FFD3A8"/>
<path d="M36.055 26.6404C36.0528 26.6404 36.0505 26.6402 36.0483 26.6397L33.9378 26.1368C33.9311 26.1352 33.9252 26.1313 33.9212 26.1257C33.9171 26.1201 33.9152 26.1133 33.9158 26.1065C33.9163 26.0996 33.9193 26.0932 33.9242 26.0884C33.9291 26.0835 33.9355 26.0806 33.9424 26.0801L36.8435 25.8712C36.8494 25.8707 36.8554 25.8722 36.8605 25.8753C36.8656 25.8784 36.8696 25.8831 36.872 25.8886C36.8743 25.8941 36.8749 25.9002 36.8736 25.9061C36.8723 25.9119 36.8692 25.9172 36.8648 25.9212L36.0743 26.633C36.069 26.6378 36.0621 26.6404 36.055 26.6404V26.6404ZM34.1328 26.1241L36.047 26.5802L36.764 25.9346L34.1328 26.1241ZM39.8964 28.3235C39.8941 28.3235 39.8919 28.3233 39.8896 28.3227L34.8776 27.1286C34.8738 27.1277 34.8703 27.1262 34.8672 27.124C34.864 27.1218 34.8614 27.119 34.8593 27.1158C34.8573 27.1125 34.8559 27.1089 34.8553 27.1051C34.8547 27.1014 34.8548 27.0975 34.8557 27.0938C34.8566 27.09 34.8582 27.0865 34.8605 27.0834C34.8627 27.0804 34.8656 27.0777 34.8689 27.0758C34.8721 27.0738 34.8758 27.0725 34.8796 27.072C34.8834 27.0714 34.8872 27.0716 34.8909 27.0726L39.903 28.2668C39.9099 28.2684 39.9159 28.2725 39.9199 28.2783C39.924 28.2841 39.9258 28.2911 39.9249 28.2981C39.9241 28.3051 39.9207 28.3116 39.9155 28.3163C39.9102 28.321 39.9034 28.3235 39.8964 28.3235V28.3235ZM39.1554 28.9907C39.1532 28.9907 39.151 28.9904 39.1487 28.9899L34.1366 27.7957C34.1329 27.7949 34.1294 27.7934 34.1262 27.7912C34.1231 27.789 34.1204 27.7862 34.1184 27.7829C34.1164 27.7797 34.115 27.7761 34.1144 27.7723C34.1137 27.7685 34.1139 27.7647 34.1148 27.7609C34.1156 27.7572 34.1173 27.7537 34.1195 27.7506C34.1218 27.7475 34.1246 27.7449 34.1279 27.743C34.1312 27.741 34.1349 27.7397 34.1386 27.7391C34.1424 27.7386 34.1463 27.7388 34.15 27.7398L39.1621 28.9339C39.1689 28.9356 39.175 28.9396 39.179 28.9454C39.183 28.9512 39.1848 28.9583 39.184 28.9653C39.1832 28.9723 39.1798 28.9787 39.1746 28.9834C39.1693 28.9881 39.1625 28.9907 39.1554 28.9907ZM38.4145 29.6578C38.4123 29.6578 38.41 29.6575 38.4078 29.657L33.3957 28.4629C33.392 28.4621 33.3884 28.4605 33.3853 28.4583C33.3822 28.4561 33.3795 28.4533 33.3775 28.4501C33.3754 28.4468 33.3741 28.4432 33.3734 28.4394C33.3728 28.4357 33.3729 28.4318 33.3738 28.4281C33.3747 28.4243 33.3763 28.4208 33.3786 28.4177C33.3809 28.4147 33.3837 28.4121 33.387 28.4101C33.3903 28.4081 33.3939 28.4068 33.3977 28.4063C33.4015 28.4057 33.4054 28.4059 33.4091 28.4069L38.4211 29.6011C38.428 29.6027 38.434 29.6068 38.4381 29.6125C38.4421 29.6183 38.4439 29.6254 38.4431 29.6324C38.4423 29.6394 38.4389 29.6459 38.4336 29.6505C38.4284 29.6552 38.4215 29.6578 38.4145 29.6578V29.6578Z" fill="#111111"/>
</g>
<defs>
<clipPath id="clip0_880_17057">
<rect width="61.4304" height="47.6064" fill="white" transform="translate(0.376953 0.839844)"/>
</clipPath>
</defs>
</svg>
